M48
;DRILL file {KiCad 4.0.7} date Sunday, March 11, 2018 'AMt' 08:20:52 AM
;FORMAT={3:3/ absolute / metric / suppress leading zeros}
FMAT,2
METRIC,TZ
T1C0.400
T2C0.800
T3C0.900
T4C1.000
%
G90
G05
M71
T1
X100000Y-99250
X100296Y-102300
X100327Y-104933
T2
X96243Y-97226
X96243Y-99766
X96243Y-102306
X96243Y-104846
X99053Y-94226
X101053Y-94226
X103863Y-97226
X103863Y-99766
X103863Y-102306
X103863Y-104846
T3
X62243Y-82726
X63243Y-95726
X63513Y-82726
X64513Y-95726
X64783Y-82726
X65783Y-95726
X66053Y-82726
X67053Y-95726
X73743Y-91726
X75013Y-91726
X75243Y-102726
X75243Y-127726
X76283Y-91726
X76513Y-102726
X76513Y-127726
X77553Y-91726
X77783Y-102726
X77783Y-127726
X79053Y-102726
X79053Y-127726
X79243Y-112726
X80513Y-112726
X81783Y-112726
X83053Y-112726
X84243Y-122726
X85513Y-122726
X86243Y-98726
X86783Y-122726
X87243Y-107726
X87513Y-98726
X88053Y-122726
X88513Y-107726
X88783Y-98726
X89783Y-107726
X90053Y-98726
X91053Y-107726
X109243Y-107726
X110243Y-98726
X110513Y-107726
X111513Y-98726
X111783Y-107726
X112243Y-122726
X112783Y-98726
X113053Y-107726
X113513Y-122726
X114053Y-98726
X114783Y-122726
X116053Y-122726
X117243Y-112726
X118513Y-112726
X119783Y-112726
X121053Y-112726
X121243Y-102726
X121243Y-127726
X122243Y-91726
X122513Y-102726
X122513Y-127726
X123513Y-91726
X123783Y-102726
X123783Y-127726
X124783Y-91726
X125053Y-102726
X125053Y-127726
X126053Y-91726
X133243Y-95726
X134243Y-82726
X134513Y-95726
X135513Y-82726
X135783Y-95726
X136783Y-82726
X137053Y-95726
X138053Y-82726
T4
X96553Y-110226
X99053Y-110226
X101053Y-110226
X103553Y-110226
T0
M30
