G04 #@! TF.FileFunction,Copper,L1,Top,Signal*
%FSLAX46Y46*%
G04 Gerber Fmt 4.6, Leading zero omitted, Abs format (unit mm)*
G04 Created by KiCad (PCBNEW 4.0.7) date Thursday, October 10, 2019 'PMt' 09:44:52 PM*
%MOMM*%
%LPD*%
G01*
G04 APERTURE LIST*
%ADD10C,0.100000*%
%ADD11R,1.700000X1.700000*%
%ADD12C,1.700000*%
%ADD13R,14.000000X2.000000*%
%ADD14R,2.000000X6.500000*%
%ADD15R,1.500000X1.300000*%
%ADD16R,1.250000X1.500000*%
%ADD17R,1.500000X1.250000*%
%ADD18R,1.070000X1.800000*%
%ADD19O,1.070000X1.800000*%
%ADD20C,1.350000*%
%ADD21O,1.350000X1.350000*%
%ADD22R,1.600000X1.600000*%
%ADD23O,1.600000X1.600000*%
%ADD24R,1.600000X2.500000*%
%ADD25R,1.200000X2.200000*%
%ADD26R,1.550000X1.300000*%
%ADD27C,0.600000*%
%ADD28C,0.250000*%
%ADD29C,0.254000*%
%ADD30C,0.152400*%
G04 APERTURE END LIST*
D10*
D11*
X103553006Y-110225640D03*
D12*
X101053006Y-110225640D03*
X99053006Y-110225640D03*
X96553006Y-110225640D03*
D13*
X100053006Y-107975640D03*
D14*
X94053006Y-110225640D03*
X106053006Y-110225640D03*
D15*
X114903006Y-92225640D03*
X112203006Y-92225640D03*
D16*
X93053006Y-96975640D03*
X93053006Y-99475640D03*
D17*
X92303006Y-116725640D03*
X89803006Y-116725640D03*
D18*
X114053006Y-98725640D03*
D19*
X112783006Y-98725640D03*
X111513006Y-98725640D03*
X110243006Y-98725640D03*
D18*
X126053006Y-91725640D03*
D19*
X124783006Y-91725640D03*
X123513006Y-91725640D03*
X122243006Y-91725640D03*
D18*
X138053006Y-82725640D03*
D19*
X136783006Y-82725640D03*
X135513006Y-82725640D03*
X134243006Y-82725640D03*
D18*
X113053006Y-107725640D03*
D19*
X111783006Y-107725640D03*
X110513006Y-107725640D03*
X109243006Y-107725640D03*
D18*
X125053006Y-102725640D03*
D19*
X123783006Y-102725640D03*
X122513006Y-102725640D03*
X121243006Y-102725640D03*
D18*
X137053006Y-95725640D03*
D19*
X135783006Y-95725640D03*
X134513006Y-95725640D03*
X133243006Y-95725640D03*
D18*
X121053006Y-112725640D03*
D19*
X119783006Y-112725640D03*
X118513006Y-112725640D03*
X117243006Y-112725640D03*
D18*
X125053006Y-127725640D03*
D19*
X123783006Y-127725640D03*
X122513006Y-127725640D03*
X121243006Y-127725640D03*
D18*
X116053006Y-122725640D03*
D19*
X114783006Y-122725640D03*
X113513006Y-122725640D03*
X112243006Y-122725640D03*
D18*
X90053006Y-98725640D03*
D19*
X88783006Y-98725640D03*
X87513006Y-98725640D03*
X86243006Y-98725640D03*
D18*
X77553006Y-91725640D03*
D19*
X76283006Y-91725640D03*
X75013006Y-91725640D03*
X73743006Y-91725640D03*
D18*
X66053006Y-82725640D03*
D19*
X64783006Y-82725640D03*
X63513006Y-82725640D03*
X62243006Y-82725640D03*
D18*
X91053006Y-107725640D03*
D19*
X89783006Y-107725640D03*
X88513006Y-107725640D03*
X87243006Y-107725640D03*
D18*
X79053006Y-102725640D03*
D19*
X77783006Y-102725640D03*
X76513006Y-102725640D03*
X75243006Y-102725640D03*
D18*
X67053006Y-95725640D03*
D19*
X65783006Y-95725640D03*
X64513006Y-95725640D03*
X63243006Y-95725640D03*
D18*
X83053006Y-112725640D03*
D19*
X81783006Y-112725640D03*
X80513006Y-112725640D03*
X79243006Y-112725640D03*
D18*
X79053006Y-127725640D03*
D19*
X77783006Y-127725640D03*
X76513006Y-127725640D03*
X75243006Y-127725640D03*
D18*
X88053006Y-122725640D03*
D19*
X86783006Y-122725640D03*
X85513006Y-122725640D03*
X84243006Y-122725640D03*
D20*
X99053006Y-94225640D03*
D21*
X101053006Y-94225640D03*
D22*
X103863006Y-97225640D03*
D23*
X96243006Y-104845640D03*
X103863006Y-99765640D03*
X96243006Y-102305640D03*
X103863006Y-102305640D03*
X96243006Y-99765640D03*
X103863006Y-104845640D03*
X96243006Y-97225640D03*
D24*
X113053006Y-112275640D03*
D25*
X112053006Y-116525640D03*
X114053006Y-116525640D03*
D26*
X82275000Y-127750000D03*
X90225000Y-127750000D03*
X82275000Y-132250000D03*
X90225000Y-132250000D03*
D27*
X100326533Y-104933047D03*
X100295559Y-102300317D03*
X100000000Y-99250000D03*
D28*
X100098007Y-100890641D02*
X102000000Y-100890641D01*
X102000000Y-100890641D02*
X104718007Y-100890641D01*
D29*
X103863006Y-97225640D02*
X102809006Y-97225640D01*
X102809006Y-97225640D02*
X102000000Y-98034646D01*
X102000000Y-98034646D02*
X102000000Y-100890641D01*
D28*
X104953007Y-113800641D02*
X111652366Y-120500000D01*
X111652366Y-120500000D02*
X113513006Y-122360640D01*
X114053006Y-116025640D02*
X114053006Y-116875640D01*
X114053006Y-116875640D02*
X113513006Y-117415640D01*
X113513006Y-117415640D02*
X113513006Y-122725640D01*
X87853018Y-121050628D02*
X86823018Y-121050628D01*
X86823018Y-121050628D02*
X85513006Y-122360640D01*
X92303006Y-116725640D02*
X92178006Y-116725640D01*
X92178006Y-116725640D02*
X87853018Y-121050628D01*
X85513006Y-122360640D02*
X85513006Y-122725640D01*
X92428006Y-116725640D02*
X92303006Y-116725640D01*
X95378007Y-113775639D02*
X92428006Y-116725640D01*
X95378007Y-113264228D02*
X95378007Y-113775639D01*
X102603017Y-112275629D02*
X96366606Y-112275629D01*
X96366606Y-112275629D02*
X95378007Y-113264228D01*
X103553006Y-111325640D02*
X102603017Y-112275629D01*
X103553006Y-110225640D02*
X103553006Y-111325640D01*
X96433006Y-97225640D02*
X95308005Y-98350641D01*
X87513006Y-99090640D02*
X87513006Y-98725640D01*
X95308005Y-98350641D02*
X95308005Y-99180643D01*
X95308005Y-99180643D02*
X93938007Y-100550641D01*
X93938007Y-100550641D02*
X88973007Y-100550641D01*
X88973007Y-100550641D02*
X87513006Y-99090640D01*
X103553006Y-110225640D02*
X103553006Y-112560642D01*
X103553006Y-112560642D02*
X104793005Y-113800641D01*
X104793005Y-113800641D02*
X104953007Y-113800641D01*
X113513006Y-122360640D02*
X113513006Y-122725640D01*
X106033008Y-99575640D02*
X107953006Y-99575640D01*
X107953006Y-99575640D02*
X108328016Y-99950650D01*
X108328016Y-99950650D02*
X110652996Y-99950650D01*
X110652996Y-99950650D02*
X111513006Y-99090640D01*
X111513006Y-99090640D02*
X111513006Y-98725640D01*
X104718007Y-100890641D02*
X106033008Y-99575640D01*
X96433006Y-97225640D02*
X100098007Y-100890641D01*
X93053006Y-96975640D02*
X96183006Y-96975640D01*
X96183006Y-96975640D02*
X96433006Y-97225640D01*
X100049380Y-104340159D02*
X99749132Y-104640407D01*
X104053006Y-104845640D02*
X103547525Y-104340159D01*
X103547525Y-104340159D02*
X100049380Y-104340159D01*
X99749132Y-106421766D02*
X100053006Y-106725640D01*
X99749132Y-104640407D02*
X99749132Y-106421766D01*
X100053006Y-106725640D02*
X100053006Y-107975640D01*
D29*
X82275000Y-127750000D02*
X90225000Y-127750000D01*
D28*
X74378719Y-83950641D02*
X64858007Y-83950641D01*
X77582488Y-87154411D02*
X74378719Y-83950641D01*
X93053006Y-99475640D02*
X93053006Y-99350640D01*
X80856777Y-87154411D02*
X77582488Y-87154411D01*
X93053006Y-99350640D02*
X80856777Y-87154411D01*
X112053006Y-115175640D02*
X112000000Y-115122634D01*
X112000000Y-115122634D02*
X107103006Y-110225640D01*
X89488009Y-121500639D02*
X87258005Y-121500639D01*
X87258005Y-121500639D02*
X86783006Y-121975638D01*
X86783006Y-121975638D02*
X86783006Y-122725640D01*
D30*
X100053006Y-107975640D02*
X97455406Y-107975640D01*
X97455406Y-107975640D02*
X95205406Y-110225640D01*
X95205406Y-110225640D02*
X94053006Y-110225640D01*
X106053006Y-110225640D02*
X106053006Y-107975640D01*
X106053006Y-107975640D02*
X104900606Y-106823240D01*
X101205406Y-106823240D02*
X100053006Y-107975640D01*
X104900606Y-106823240D02*
X101205406Y-106823240D01*
D28*
X114783006Y-122725640D02*
X114783006Y-121575640D01*
X114783006Y-121575640D02*
X114978007Y-121380639D01*
X114978007Y-121380639D02*
X114978007Y-115165639D01*
X114978007Y-115165639D02*
X114913007Y-115100639D01*
X114913007Y-115100639D02*
X112128007Y-115100639D01*
X112128007Y-115100639D02*
X112053006Y-115175640D01*
X112053006Y-116025640D02*
X112053006Y-115175640D01*
X107103006Y-110225640D02*
X106053006Y-110225640D01*
X77783006Y-127725640D02*
X77783006Y-126575640D01*
X77783006Y-126575640D02*
X87633006Y-116725640D01*
X87633006Y-116725640D02*
X89803006Y-116725640D01*
X86783006Y-122725640D02*
X86783006Y-123875640D01*
X86783006Y-123875640D02*
X81708005Y-128950641D01*
X81708005Y-128950641D02*
X77858007Y-128950641D01*
X77858007Y-128950641D02*
X77783006Y-128875640D01*
X77783006Y-128875640D02*
X77783006Y-127725640D01*
X89803006Y-116725640D02*
X89803006Y-115850640D01*
X89803006Y-115850640D02*
X85453005Y-111500639D01*
X85453005Y-111500639D02*
X81858007Y-111500639D01*
X81858007Y-111500639D02*
X81783006Y-111575640D01*
X81783006Y-111575640D02*
X81783006Y-112725640D01*
X79377985Y-101050619D02*
X79913007Y-101585641D01*
X79913007Y-101585641D02*
X79913007Y-103885641D01*
X79913007Y-103885641D02*
X79848007Y-103950641D01*
X77858007Y-103950641D02*
X77783006Y-103875640D01*
X79848007Y-103950641D02*
X77858007Y-103950641D01*
X77783006Y-103875640D02*
X77783006Y-102725640D01*
X65783006Y-96875640D02*
X69957986Y-101050619D01*
X69957986Y-101050619D02*
X79377985Y-101050619D01*
X68053006Y-90753287D02*
X68053006Y-96745642D01*
X68053006Y-96745642D02*
X67848007Y-96950641D01*
X67848007Y-96950641D02*
X65858007Y-96950641D01*
X65858007Y-96950641D02*
X65783006Y-96875640D01*
X65783006Y-96875640D02*
X65783006Y-95725640D01*
X60932987Y-83633268D02*
X68053006Y-90753287D01*
X64858007Y-83950641D02*
X66848007Y-83950641D01*
X66848007Y-83950641D02*
X66913007Y-83885641D01*
X66913007Y-83885641D02*
X66913007Y-81565639D01*
X66913007Y-81565639D02*
X66848007Y-81500639D01*
X66848007Y-81500639D02*
X65829415Y-81500639D01*
X65829415Y-81500639D02*
X65379396Y-81050620D01*
X65379396Y-81050620D02*
X61700378Y-81050621D01*
X61700378Y-81050621D02*
X60932986Y-81818013D01*
X60932986Y-81818013D02*
X60932987Y-83633268D01*
X64858007Y-83950641D02*
X64783006Y-83875640D01*
X64783006Y-83875640D02*
X64783006Y-82725640D01*
X89783006Y-106575640D02*
X76608027Y-93400661D01*
X76608027Y-93400661D02*
X73836790Y-93400661D01*
X76283006Y-91360640D02*
X76283006Y-91725640D01*
X73836790Y-93400661D02*
X72882996Y-92446867D01*
X72882996Y-92446867D02*
X72882996Y-91004413D01*
X72882996Y-91004413D02*
X73386779Y-90500630D01*
X73386779Y-90500630D02*
X75422996Y-90500630D01*
X75422996Y-90500630D02*
X76283006Y-91360640D01*
X94053006Y-110225640D02*
X94053006Y-107975640D01*
X94053006Y-107975640D02*
X92578005Y-106500639D01*
X92578005Y-106500639D02*
X89858007Y-106500639D01*
X89783006Y-106575640D02*
X89783006Y-107725640D01*
X89858007Y-106500639D02*
X89783006Y-106575640D01*
X94053006Y-110225640D02*
X94053006Y-108116877D01*
X94053006Y-108116877D02*
X85382996Y-99446867D01*
X85382996Y-99446867D02*
X85382996Y-98004413D01*
X85382996Y-98004413D02*
X85886779Y-97500630D01*
X85886779Y-97500630D02*
X87922996Y-97500630D01*
X87922996Y-97500630D02*
X88783006Y-98360640D01*
X88783006Y-98360640D02*
X88783006Y-98725640D01*
X124783006Y-91725640D02*
X124783006Y-92090640D01*
X124783006Y-92090640D02*
X116923005Y-99950641D01*
X116923005Y-99950641D02*
X112858007Y-99950641D01*
X112858007Y-99950641D02*
X112783006Y-99875640D01*
X112783006Y-99875640D02*
X112783006Y-98725640D01*
X136783006Y-81575640D02*
X136707996Y-81500630D01*
X136707996Y-81500630D02*
X133858016Y-81500630D01*
X133858016Y-81500630D02*
X124783006Y-90575640D01*
X124783006Y-90575640D02*
X124783006Y-91725640D01*
X135783006Y-95725640D02*
X135783006Y-87015642D01*
X135783006Y-87015642D02*
X138913007Y-83885641D01*
X138913007Y-83885641D02*
X138913007Y-81565639D01*
X138913007Y-81565639D02*
X138848007Y-81500639D01*
X138848007Y-81500639D02*
X136858007Y-81500639D01*
X136858007Y-81500639D02*
X136783006Y-81575640D01*
X136783006Y-81575640D02*
X136783006Y-82725640D01*
X123783006Y-103875640D02*
X118708005Y-108950641D01*
X118708005Y-108950641D02*
X111858007Y-108950641D01*
X111858007Y-108950641D02*
X111783006Y-108875640D01*
X111783006Y-108875640D02*
X111783006Y-107725640D01*
X135783006Y-95725640D02*
X135783006Y-96090640D01*
X135783006Y-96090640D02*
X127923005Y-103950641D01*
X127923005Y-103950641D02*
X123858007Y-103950641D01*
X123858007Y-103950641D02*
X123783006Y-103875640D01*
X123783006Y-103875640D02*
X123783006Y-102725640D01*
X137913007Y-92865639D02*
X137493007Y-92865639D01*
X135783006Y-94575640D02*
X135783006Y-95725640D01*
X137493007Y-92865639D02*
X135783006Y-94575640D01*
X123298012Y-111500636D02*
X137913007Y-96885641D01*
X119783006Y-112725640D02*
X119783006Y-111575640D01*
X119783006Y-111575640D02*
X119858008Y-111500638D01*
X119858008Y-111500638D02*
X123298012Y-111500636D01*
X137913007Y-96885641D02*
X137913007Y-92865639D01*
X114783006Y-123875640D02*
X114858007Y-123950641D01*
X114858007Y-123950641D02*
X116848007Y-123950641D01*
X116848007Y-123950641D02*
X119783006Y-121015642D01*
X119783006Y-121015642D02*
X119783006Y-112725640D01*
X122922996Y-128950650D02*
X123783006Y-128090640D01*
X114783006Y-122725640D02*
X114783006Y-123875640D01*
X114783006Y-123875640D02*
X119858016Y-128950650D01*
X119858016Y-128950650D02*
X122922996Y-128950650D01*
X123783006Y-128090640D02*
X123783006Y-127725640D01*
X114783006Y-122725640D02*
X114783006Y-122360640D01*
X89803006Y-116725640D02*
X89803006Y-113225640D01*
X89803006Y-113225640D02*
X92803006Y-110225640D01*
X92803006Y-110225640D02*
X94053006Y-110225640D01*
X96553006Y-110225640D02*
X98803006Y-107975640D01*
X98803006Y-107975640D02*
X100053006Y-107975640D01*
X93053006Y-99475640D02*
X92178006Y-99475640D01*
X92178006Y-99475640D02*
X91703005Y-99950641D01*
X91703005Y-99950641D02*
X89258005Y-99950641D01*
X89258005Y-99950641D02*
X88783006Y-99475642D01*
X88783006Y-99475642D02*
X88783006Y-98725640D01*
X114053006Y-98725640D02*
X115608006Y-98725640D01*
X115608006Y-98725640D02*
X122243006Y-92090640D01*
X122243006Y-92090640D02*
X122243006Y-91725640D01*
X114903006Y-92225640D02*
X114903006Y-93700640D01*
X114903006Y-93700640D02*
X110243006Y-98360640D01*
X110243006Y-98360640D02*
X110243006Y-98725640D01*
X126053006Y-91725640D02*
X126053006Y-91360640D01*
X126053006Y-91360640D02*
X134243006Y-83170640D01*
X134243006Y-83170640D02*
X134243006Y-82725640D01*
X138053006Y-82725640D02*
X138053006Y-83090640D01*
X138053006Y-83090640D02*
X114643016Y-106500630D01*
X114643016Y-106500630D02*
X110103016Y-106500630D01*
X110103016Y-106500630D02*
X109243006Y-107360640D01*
X109243006Y-107360640D02*
X109243006Y-107725640D01*
X113053006Y-107725640D02*
X116608006Y-107725640D01*
X116608006Y-107725640D02*
X121243006Y-103090640D01*
X121243006Y-103090640D02*
X121243006Y-102725640D01*
X125053006Y-102725640D02*
X125053006Y-102360640D01*
X125053006Y-102360640D02*
X131688006Y-95725640D01*
X131688006Y-95725640D02*
X133243006Y-95725640D01*
X137053006Y-95725640D02*
X137053006Y-96090640D01*
X117243006Y-112360640D02*
X117243006Y-112725640D01*
X118553018Y-111050628D02*
X117243006Y-112360640D01*
X122093018Y-111050628D02*
X118553018Y-111050628D01*
X137053006Y-96090640D02*
X122093018Y-111050628D01*
X121053006Y-112725640D02*
X121053006Y-127535640D01*
X121053006Y-127535640D02*
X121243006Y-127725640D01*
X112243006Y-123090640D02*
X112243006Y-122725640D01*
X125053006Y-128090640D02*
X123742985Y-129400661D01*
X123742985Y-129400661D02*
X118553027Y-129400661D01*
X125053006Y-127725640D02*
X125053006Y-128090640D01*
X118553027Y-129400661D02*
X112243006Y-123090640D01*
X90583007Y-103430641D02*
X86243006Y-99090640D01*
X86243006Y-99090640D02*
X86243006Y-98725640D01*
X109599233Y-108950650D02*
X108886779Y-108950650D01*
X110049234Y-109400651D02*
X109599233Y-108950650D01*
X105894418Y-103430641D02*
X90583007Y-103430641D01*
X108382996Y-105919219D02*
X105894418Y-103430641D01*
X108382996Y-108446867D02*
X108382996Y-105919219D01*
X113211607Y-109400651D02*
X110049234Y-109400651D01*
X116053006Y-112242050D02*
X113211607Y-109400651D01*
X116053006Y-122725640D02*
X116053006Y-112242050D01*
X108886779Y-108950650D02*
X108382996Y-108446867D01*
X90053006Y-98725640D02*
X90053006Y-98360640D01*
X73743006Y-92090640D02*
X73743006Y-91725640D01*
X90053006Y-98360640D02*
X84643016Y-92950650D01*
X84643016Y-92950650D02*
X74603016Y-92950650D01*
X74603016Y-92950650D02*
X73743006Y-92090640D01*
X77553006Y-91360640D02*
X70593018Y-84400652D01*
X63553018Y-84400652D02*
X62243006Y-83090640D01*
X70593018Y-84400652D02*
X63553018Y-84400652D01*
X77553006Y-91725640D02*
X77553006Y-91360640D01*
X62243006Y-83090640D02*
X62243006Y-82725640D01*
X61886779Y-81500630D02*
X61382996Y-82004413D01*
X66053006Y-82725640D02*
X66053006Y-82360640D01*
X87243006Y-107360640D02*
X87243006Y-107725640D01*
X76383005Y-96500639D02*
X87243006Y-107360640D01*
X61382996Y-82004413D02*
X61382996Y-83446867D01*
X74436768Y-96500639D02*
X76383005Y-96500639D01*
X66053006Y-82360640D02*
X65192996Y-81500630D01*
X61382996Y-83446867D02*
X74436768Y-96500639D01*
X65192996Y-81500630D02*
X61886779Y-81500630D01*
X91053006Y-107725640D02*
X91053006Y-108090640D01*
X91053006Y-108090640D02*
X90192996Y-108950650D01*
X90192996Y-108950650D02*
X81103016Y-108950650D01*
X81103016Y-108950650D02*
X75243006Y-103090640D01*
X75243006Y-103090640D02*
X75243006Y-102725640D01*
X63243006Y-96090640D02*
X63243006Y-95725640D01*
X68652996Y-101500630D02*
X63243006Y-96090640D01*
X78192996Y-101500630D02*
X68652996Y-101500630D01*
X79053006Y-102360640D02*
X78192996Y-101500630D01*
X79053006Y-102725640D02*
X79053006Y-102360640D01*
X67053006Y-95725640D02*
X67053006Y-95360640D01*
X67053006Y-95360640D02*
X66192996Y-94500630D01*
X66192996Y-94500630D02*
X62886779Y-94500630D01*
X62886779Y-94500630D02*
X62382996Y-95004413D01*
X62382996Y-95004413D02*
X62382996Y-96650630D01*
X62382996Y-96650630D02*
X78458006Y-112725640D01*
X78458006Y-112725640D02*
X79243006Y-112725640D01*
X83053006Y-112725640D02*
X83053006Y-119550640D01*
X83053006Y-119550640D02*
X75243006Y-127360640D01*
X75243006Y-127360640D02*
X75243006Y-127725640D01*
X79053006Y-127725640D02*
X79053006Y-127360640D01*
X83688006Y-122725640D02*
X84243006Y-122725640D01*
X79053006Y-127360640D02*
X83688006Y-122725640D01*
X112203006Y-92225640D02*
X112203006Y-93710642D01*
X112203006Y-93710642D02*
X107413009Y-98500639D01*
X107413009Y-98500639D02*
X105318007Y-98500639D01*
X105318007Y-98500639D02*
X104053006Y-99765640D01*
X100626532Y-105233046D02*
X100326533Y-104933047D01*
X101364127Y-105970641D02*
X100626532Y-105233046D01*
X106633009Y-105970641D02*
X101364127Y-105970641D01*
X107378007Y-108150641D02*
X107378007Y-106715639D01*
X107378007Y-106715639D02*
X106633009Y-105970641D01*
X110727366Y-111500000D02*
X107378007Y-108150641D01*
X104047683Y-102300317D02*
X100719823Y-102300317D01*
X104053006Y-102305640D02*
X104047683Y-102300317D01*
X100719823Y-102300317D02*
X100295559Y-102300317D01*
X112003006Y-112775640D02*
X110727366Y-111500000D01*
X113053006Y-112775640D02*
X112003006Y-112775640D01*
D30*
X101053006Y-94225640D02*
X99053006Y-94225640D01*
D29*
X100000000Y-96000000D02*
X100000000Y-99250000D01*
X82275000Y-132250000D02*
X76000000Y-132250000D01*
X76000000Y-132250000D02*
X71500000Y-127750000D01*
X71500000Y-127750000D02*
X72750000Y-126500000D01*
X72750000Y-126500000D02*
X72750000Y-109750000D01*
X72750000Y-109750000D02*
X59250000Y-96250000D01*
X59250000Y-96250000D02*
X59250000Y-80500000D01*
X59250000Y-80500000D02*
X61250000Y-78500000D01*
X61250000Y-78500000D02*
X69500000Y-78500000D01*
X69500000Y-78500000D02*
X77750000Y-86750000D01*
X77750000Y-86750000D02*
X82500000Y-86750000D01*
X82500000Y-86750000D02*
X90000000Y-94250000D01*
X90000000Y-94250000D02*
X92750000Y-94250000D01*
X94500000Y-96000000D02*
X100000000Y-96000000D01*
X92750000Y-94250000D02*
X94500000Y-96000000D01*
X82275000Y-132250000D02*
X90225000Y-132250000D01*
G36*
X113232775Y-110496621D02*
X113180006Y-110549390D01*
X113180006Y-112148640D01*
X114329256Y-112148640D01*
X114488006Y-111989890D01*
X114488006Y-111751852D01*
X115293006Y-112556852D01*
X115293006Y-113623000D01*
X114488006Y-113623000D01*
X114488006Y-112561390D01*
X114329256Y-112402640D01*
X113180006Y-112402640D01*
X113180006Y-112422640D01*
X112926006Y-112422640D01*
X112926006Y-112402640D01*
X111776756Y-112402640D01*
X111618006Y-112561390D01*
X111618006Y-113623000D01*
X111575168Y-113623000D01*
X110627000Y-112674832D01*
X110627000Y-110899330D01*
X111618006Y-110899330D01*
X111618006Y-111989890D01*
X111776756Y-112148640D01*
X112926006Y-112148640D01*
X112926006Y-110549390D01*
X112767256Y-110390640D01*
X112126697Y-110390640D01*
X111893308Y-110487313D01*
X111714679Y-110665941D01*
X111618006Y-110899330D01*
X110627000Y-110899330D01*
X110627000Y-110160651D01*
X112896805Y-110160651D01*
X113232775Y-110496621D01*
X113232775Y-110496621D01*
G37*
X113232775Y-110496621D02*
X113180006Y-110549390D01*
X113180006Y-112148640D01*
X114329256Y-112148640D01*
X114488006Y-111989890D01*
X114488006Y-111751852D01*
X115293006Y-112556852D01*
X115293006Y-113623000D01*
X114488006Y-113623000D01*
X114488006Y-112561390D01*
X114329256Y-112402640D01*
X113180006Y-112402640D01*
X113180006Y-112422640D01*
X112926006Y-112422640D01*
X112926006Y-112402640D01*
X111776756Y-112402640D01*
X111618006Y-112561390D01*
X111618006Y-113623000D01*
X111575168Y-113623000D01*
X110627000Y-112674832D01*
X110627000Y-110899330D01*
X111618006Y-110899330D01*
X111618006Y-111989890D01*
X111776756Y-112148640D01*
X112926006Y-112148640D01*
X112926006Y-110549390D01*
X112767256Y-110390640D01*
X112126697Y-110390640D01*
X111893308Y-110487313D01*
X111714679Y-110665941D01*
X111618006Y-110899330D01*
X110627000Y-110899330D01*
X110627000Y-110160651D01*
X112896805Y-110160651D01*
X113232775Y-110496621D01*
G36*
X114180006Y-116398640D02*
X114200006Y-116398640D01*
X114200006Y-116652640D01*
X114180006Y-116652640D01*
X114180006Y-118101890D01*
X114218007Y-118139891D01*
X114218007Y-119379479D01*
X114200590Y-119383006D01*
X114158965Y-119411447D01*
X114131685Y-119453841D01*
X114123000Y-119500000D01*
X114123000Y-121221731D01*
X114080858Y-121284801D01*
X114067236Y-121353281D01*
X113820389Y-121231740D01*
X113640006Y-121357396D01*
X113640006Y-121373000D01*
X113386006Y-121373000D01*
X113386006Y-121357396D01*
X113205623Y-121231740D01*
X112918725Y-121373000D01*
X112875385Y-121373000D01*
X112690746Y-121249629D01*
X112243006Y-121160568D01*
X111795266Y-121249629D01*
X111610628Y-121373000D01*
X110627000Y-121373000D01*
X110627000Y-119627000D01*
X113000000Y-119627000D01*
X113049410Y-119616994D01*
X113091035Y-119588553D01*
X113118315Y-119546159D01*
X113127000Y-119500000D01*
X113127000Y-118177923D01*
X113326697Y-118260640D01*
X113767256Y-118260640D01*
X113926006Y-118101890D01*
X113926006Y-116652640D01*
X113906006Y-116652640D01*
X113906006Y-116398640D01*
X113926006Y-116398640D01*
X113926006Y-116378640D01*
X114180006Y-116378640D01*
X114180006Y-116398640D01*
X114180006Y-116398640D01*
G37*
X114180006Y-116398640D02*
X114200006Y-116398640D01*
X114200006Y-116652640D01*
X114180006Y-116652640D01*
X114180006Y-118101890D01*
X114218007Y-118139891D01*
X114218007Y-119379479D01*
X114200590Y-119383006D01*
X114158965Y-119411447D01*
X114131685Y-119453841D01*
X114123000Y-119500000D01*
X114123000Y-121221731D01*
X114080858Y-121284801D01*
X114067236Y-121353281D01*
X113820389Y-121231740D01*
X113640006Y-121357396D01*
X113640006Y-121373000D01*
X113386006Y-121373000D01*
X113386006Y-121357396D01*
X113205623Y-121231740D01*
X112918725Y-121373000D01*
X112875385Y-121373000D01*
X112690746Y-121249629D01*
X112243006Y-121160568D01*
X111795266Y-121249629D01*
X111610628Y-121373000D01*
X110627000Y-121373000D01*
X110627000Y-119627000D01*
X113000000Y-119627000D01*
X113049410Y-119616994D01*
X113091035Y-119588553D01*
X113118315Y-119546159D01*
X113127000Y-119500000D01*
X113127000Y-118177923D01*
X113326697Y-118260640D01*
X113767256Y-118260640D01*
X113926006Y-118101890D01*
X113926006Y-116652640D01*
X113906006Y-116652640D01*
X113906006Y-116398640D01*
X113926006Y-116398640D01*
X113926006Y-116378640D01*
X114180006Y-116378640D01*
X114180006Y-116398640D01*
G36*
X141238933Y-73621888D02*
X143030114Y-74363940D01*
X144861784Y-76110994D01*
X145915429Y-78458569D01*
X146107755Y-80401040D01*
X145999886Y-80996219D01*
X146000245Y-81017282D01*
X145994238Y-81037473D01*
X145906488Y-81979906D01*
X145224275Y-84818233D01*
X143929646Y-88528337D01*
X142574769Y-92250335D01*
X142571938Y-92268721D01*
X142563528Y-92285311D01*
X141761488Y-95151611D01*
X141759186Y-95181647D01*
X141748993Y-95209994D01*
X141607498Y-96153619D01*
X141358776Y-97031195D01*
X140205074Y-99679239D01*
X138163558Y-102939752D01*
X135646378Y-105885752D01*
X133545343Y-107891621D01*
X132805435Y-108508211D01*
X132759251Y-108565357D01*
X132708285Y-108618288D01*
X132684624Y-108655191D01*
X132405178Y-108832117D01*
X131718901Y-109042249D01*
X130846422Y-109187902D01*
X129960357Y-109319573D01*
X129936882Y-109327979D01*
X129911986Y-109329316D01*
X129188585Y-109514016D01*
X129104527Y-109554241D01*
X129020345Y-109594169D01*
X128606945Y-109901469D01*
X128568969Y-109943462D01*
X128524859Y-109978966D01*
X128506507Y-110012530D01*
X128480852Y-110040898D01*
X128461836Y-110094227D01*
X128434671Y-110143909D01*
X128430560Y-110181940D01*
X128417714Y-110217967D01*
X128420554Y-110274515D01*
X128414469Y-110330809D01*
X128458569Y-110826810D01*
X128471130Y-110869678D01*
X128474566Y-110914210D01*
X128497303Y-110959003D01*
X128511429Y-111007214D01*
X128539436Y-111042010D01*
X128559654Y-111081840D01*
X129025355Y-111674440D01*
X129055267Y-111700067D01*
X129078550Y-111731844D01*
X129220758Y-111862247D01*
X129727346Y-112593204D01*
X130811932Y-115353741D01*
X131300699Y-119254453D01*
X130904039Y-123263634D01*
X130206567Y-126186197D01*
X129900469Y-127119271D01*
X129643407Y-127766423D01*
X128644059Y-129689779D01*
X127007323Y-132087620D01*
X125057378Y-134245515D01*
X123431446Y-135685411D01*
X122858893Y-136108798D01*
X122315448Y-136497896D01*
X120460394Y-137425459D01*
X117787930Y-138115968D01*
X115123568Y-137963608D01*
X113227730Y-137191666D01*
X112731997Y-136797785D01*
X112720132Y-136791682D01*
X112710963Y-136781990D01*
X112148710Y-136383303D01*
X110531012Y-135093662D01*
X108619769Y-133155671D01*
X107227383Y-130915928D01*
X106632279Y-128978066D01*
X106587815Y-128338714D01*
X106580796Y-128312931D01*
X106581252Y-128286214D01*
X106357952Y-127054214D01*
X106356187Y-127049740D01*
X106356175Y-127044929D01*
X105118965Y-120907707D01*
X104117546Y-114751443D01*
X104038613Y-113833683D01*
X104399288Y-114194358D01*
X104579927Y-114315057D01*
X104704835Y-114339903D01*
X109865000Y-119500068D01*
X109865000Y-121500000D01*
X109908427Y-121730795D01*
X110044827Y-121942767D01*
X110252949Y-122084971D01*
X110500000Y-122135000D01*
X111315898Y-122135000D01*
X111276206Y-122334548D01*
X111276206Y-123116732D01*
X111349799Y-123486710D01*
X111559375Y-123800363D01*
X111873028Y-124009939D01*
X112243006Y-124083532D01*
X112414376Y-124049444D01*
X118159310Y-129794378D01*
X118339949Y-129915077D01*
X118553027Y-129957461D01*
X123742985Y-129957461D01*
X123956063Y-129915077D01*
X124136702Y-129794378D01*
X124865181Y-129065899D01*
X125588006Y-129065899D01*
X125748021Y-129035790D01*
X125894986Y-128941221D01*
X125993579Y-128796925D01*
X126028265Y-128625640D01*
X126028265Y-126825640D01*
X125998156Y-126665625D01*
X125903587Y-126518660D01*
X125759291Y-126420067D01*
X125588006Y-126385381D01*
X124518006Y-126385381D01*
X124434388Y-126401115D01*
X124090389Y-126231740D01*
X123910006Y-126357396D01*
X123910006Y-127598640D01*
X123930006Y-127598640D01*
X123930006Y-127852640D01*
X123910006Y-127852640D01*
X123910006Y-127872640D01*
X123656006Y-127872640D01*
X123656006Y-127852640D01*
X123636006Y-127852640D01*
X123636006Y-127598640D01*
X123656006Y-127598640D01*
X123656006Y-126357396D01*
X123475623Y-126231740D01*
X123045494Y-126443523D01*
X122988357Y-126511749D01*
X122882984Y-126441341D01*
X122513006Y-126367748D01*
X122143028Y-126441341D01*
X121878006Y-126618423D01*
X121612984Y-126441341D01*
X121609806Y-126440709D01*
X121609806Y-114061797D01*
X121748021Y-114035790D01*
X121894986Y-113941221D01*
X121993579Y-113796925D01*
X122028265Y-113625640D01*
X122028265Y-111825640D01*
X121998156Y-111665625D01*
X121960707Y-111607428D01*
X122093018Y-111607428D01*
X122306096Y-111565044D01*
X122486735Y-111444345D01*
X136865181Y-97065899D01*
X137588006Y-97065899D01*
X137748021Y-97035790D01*
X137894986Y-96941221D01*
X137993579Y-96796925D01*
X138028265Y-96625640D01*
X138028265Y-94825640D01*
X137998156Y-94665625D01*
X137903587Y-94518660D01*
X137759291Y-94420067D01*
X137588006Y-94385381D01*
X136518006Y-94385381D01*
X136434388Y-94401115D01*
X136090389Y-94231740D01*
X135910006Y-94357396D01*
X135910006Y-95598640D01*
X135930006Y-95598640D01*
X135930006Y-95852640D01*
X135910006Y-95852640D01*
X135910006Y-95872640D01*
X135656006Y-95872640D01*
X135656006Y-95852640D01*
X135636006Y-95852640D01*
X135636006Y-95598640D01*
X135656006Y-95598640D01*
X135656006Y-94357396D01*
X135475623Y-94231740D01*
X135045494Y-94443523D01*
X134988357Y-94511749D01*
X134882984Y-94441341D01*
X134513006Y-94367748D01*
X134143028Y-94441341D01*
X133878006Y-94618423D01*
X133612984Y-94441341D01*
X133243006Y-94367748D01*
X132873028Y-94441341D01*
X132559375Y-94650917D01*
X132349799Y-94964570D01*
X132309167Y-95168840D01*
X131688006Y-95168840D01*
X131474928Y-95211224D01*
X131294289Y-95331923D01*
X125240831Y-101385381D01*
X124518006Y-101385381D01*
X124434388Y-101401115D01*
X124090389Y-101231740D01*
X123910006Y-101357396D01*
X123910006Y-102598640D01*
X123930006Y-102598640D01*
X123930006Y-102852640D01*
X123910006Y-102852640D01*
X123910006Y-104093884D01*
X124090389Y-104219540D01*
X124436113Y-104049315D01*
X124518006Y-104065899D01*
X125588006Y-104065899D01*
X125748021Y-104035790D01*
X125894986Y-103941221D01*
X125993579Y-103796925D01*
X126028265Y-103625640D01*
X126028265Y-102172815D01*
X131918640Y-96282440D01*
X132309167Y-96282440D01*
X132349799Y-96486710D01*
X132559375Y-96800363D01*
X132873028Y-97009939D01*
X133243006Y-97083532D01*
X133612984Y-97009939D01*
X133878006Y-96832857D01*
X134143028Y-97009939D01*
X134513006Y-97083532D01*
X134882984Y-97009939D01*
X134988357Y-96939531D01*
X135045494Y-97007757D01*
X135248501Y-97107711D01*
X121862384Y-110493828D01*
X118553018Y-110493828D01*
X118339940Y-110536212D01*
X118159301Y-110656911D01*
X117414376Y-111401836D01*
X117243006Y-111367748D01*
X116873028Y-111441341D01*
X116559375Y-111650917D01*
X116435179Y-111836789D01*
X116135000Y-111536610D01*
X116135000Y-110000000D01*
X116091573Y-109769205D01*
X115955173Y-109557233D01*
X115747051Y-109415029D01*
X115500000Y-109365000D01*
X113963390Y-109365000D01*
X113652208Y-109053818D01*
X113748021Y-109035790D01*
X113894986Y-108941221D01*
X113993579Y-108796925D01*
X114028265Y-108625640D01*
X114028265Y-108282440D01*
X116608006Y-108282440D01*
X116821084Y-108240056D01*
X117001723Y-108119357D01*
X121071636Y-104049444D01*
X121243006Y-104083532D01*
X121612984Y-104009939D01*
X121878006Y-103832857D01*
X122143028Y-104009939D01*
X122513006Y-104083532D01*
X122882984Y-104009939D01*
X122988357Y-103939531D01*
X123045494Y-104007757D01*
X123475623Y-104219540D01*
X123656006Y-104093884D01*
X123656006Y-102852640D01*
X123636006Y-102852640D01*
X123636006Y-102598640D01*
X123656006Y-102598640D01*
X123656006Y-101357396D01*
X123475623Y-101231740D01*
X123045494Y-101443523D01*
X122988357Y-101511749D01*
X122882984Y-101441341D01*
X122513006Y-101367748D01*
X122143028Y-101441341D01*
X121878006Y-101618423D01*
X121612984Y-101441341D01*
X121243006Y-101367748D01*
X120873028Y-101441341D01*
X120559375Y-101650917D01*
X120349799Y-101964570D01*
X120276206Y-102334548D01*
X120276206Y-103116732D01*
X120301636Y-103244576D01*
X116377372Y-107168840D01*
X114028265Y-107168840D01*
X114028265Y-107057430D01*
X114643016Y-107057430D01*
X114856094Y-107015046D01*
X115036733Y-106894347D01*
X137865181Y-84065899D01*
X138588006Y-84065899D01*
X138748021Y-84035790D01*
X138894986Y-83941221D01*
X138993579Y-83796925D01*
X139028265Y-83625640D01*
X139028265Y-81825640D01*
X138998156Y-81665625D01*
X138903587Y-81518660D01*
X138759291Y-81420067D01*
X138588006Y-81385381D01*
X137518006Y-81385381D01*
X137434388Y-81401115D01*
X137090389Y-81231740D01*
X136910006Y-81357396D01*
X136910006Y-82598640D01*
X136930006Y-82598640D01*
X136930006Y-82852640D01*
X136910006Y-82852640D01*
X136910006Y-82872640D01*
X136656006Y-82872640D01*
X136656006Y-82852640D01*
X136636006Y-82852640D01*
X136636006Y-82598640D01*
X136656006Y-82598640D01*
X136656006Y-81357396D01*
X136475623Y-81231740D01*
X136045494Y-81443523D01*
X135988357Y-81511749D01*
X135882984Y-81441341D01*
X135513006Y-81367748D01*
X135143028Y-81441341D01*
X134878006Y-81618423D01*
X134612984Y-81441341D01*
X134243006Y-81367748D01*
X133873028Y-81441341D01*
X133559375Y-81650917D01*
X133349799Y-81964570D01*
X133276206Y-82334548D01*
X133276206Y-83116732D01*
X133314909Y-83311303D01*
X126240831Y-90385381D01*
X125518006Y-90385381D01*
X125434388Y-90401115D01*
X125090389Y-90231740D01*
X124910006Y-90357396D01*
X124910006Y-91598640D01*
X124930006Y-91598640D01*
X124930006Y-91852640D01*
X124910006Y-91852640D01*
X124910006Y-93093884D01*
X125090389Y-93219540D01*
X125436113Y-93049315D01*
X125518006Y-93065899D01*
X126588006Y-93065899D01*
X126748021Y-93035790D01*
X126894986Y-92941221D01*
X126993579Y-92796925D01*
X127028265Y-92625640D01*
X127028265Y-91172815D01*
X134138363Y-84062717D01*
X134243006Y-84083532D01*
X134612984Y-84009939D01*
X134878006Y-83832857D01*
X135143028Y-84009939D01*
X135513006Y-84083532D01*
X135882984Y-84009939D01*
X135988357Y-83939531D01*
X136045494Y-84007757D01*
X136248501Y-84107711D01*
X114412382Y-105943830D01*
X110103016Y-105943830D01*
X109889938Y-105986214D01*
X109709299Y-106106913D01*
X109414376Y-106401836D01*
X109243006Y-106367748D01*
X108939796Y-106428060D01*
X108939796Y-105919219D01*
X108897412Y-105706141D01*
X108776713Y-105525502D01*
X106288135Y-103036924D01*
X106107496Y-102916225D01*
X105894418Y-102873841D01*
X104960485Y-102873841D01*
X105025173Y-102777029D01*
X105118938Y-102305640D01*
X105025173Y-101834251D01*
X104761000Y-101438889D01*
X104931085Y-101405057D01*
X105111724Y-101284358D01*
X106263642Y-100132440D01*
X107722372Y-100132440D01*
X107934299Y-100344367D01*
X108114938Y-100465066D01*
X108328016Y-100507450D01*
X110652996Y-100507450D01*
X110866074Y-100465066D01*
X111046713Y-100344367D01*
X111341636Y-100049444D01*
X111513006Y-100083532D01*
X111882984Y-100009939D01*
X111988357Y-99939531D01*
X112045494Y-100007757D01*
X112475623Y-100219540D01*
X112656006Y-100093884D01*
X112656006Y-98852640D01*
X112636006Y-98852640D01*
X112636006Y-98598640D01*
X112656006Y-98598640D01*
X112656006Y-97357396D01*
X112910006Y-97357396D01*
X112910006Y-98598640D01*
X112930006Y-98598640D01*
X112930006Y-98852640D01*
X112910006Y-98852640D01*
X112910006Y-100093884D01*
X113090389Y-100219540D01*
X113436113Y-100049315D01*
X113518006Y-100065899D01*
X114588006Y-100065899D01*
X114748021Y-100035790D01*
X114894986Y-99941221D01*
X114993579Y-99796925D01*
X115028265Y-99625640D01*
X115028265Y-99282440D01*
X115608006Y-99282440D01*
X115821084Y-99240056D01*
X116001723Y-99119357D01*
X122071636Y-93049444D01*
X122243006Y-93083532D01*
X122612984Y-93009939D01*
X122878006Y-92832857D01*
X123143028Y-93009939D01*
X123513006Y-93083532D01*
X123882984Y-93009939D01*
X123988357Y-92939531D01*
X124045494Y-93007757D01*
X124475623Y-93219540D01*
X124656006Y-93093884D01*
X124656006Y-91852640D01*
X124636006Y-91852640D01*
X124636006Y-91598640D01*
X124656006Y-91598640D01*
X124656006Y-90357396D01*
X124475623Y-90231740D01*
X124045494Y-90443523D01*
X123988357Y-90511749D01*
X123882984Y-90441341D01*
X123513006Y-90367748D01*
X123143028Y-90441341D01*
X122878006Y-90618423D01*
X122612984Y-90441341D01*
X122243006Y-90367748D01*
X121873028Y-90441341D01*
X121559375Y-90650917D01*
X121349799Y-90964570D01*
X121276206Y-91334548D01*
X121276206Y-92116732D01*
X121301636Y-92244576D01*
X115377372Y-98168840D01*
X115028265Y-98168840D01*
X115028265Y-97825640D01*
X114998156Y-97665625D01*
X114903587Y-97518660D01*
X114759291Y-97420067D01*
X114588006Y-97385381D01*
X113518006Y-97385381D01*
X113434388Y-97401115D01*
X113090389Y-97231740D01*
X112910006Y-97357396D01*
X112656006Y-97357396D01*
X112475623Y-97231740D01*
X112045494Y-97443523D01*
X111988357Y-97511749D01*
X111923001Y-97468079D01*
X115296723Y-94094357D01*
X115417422Y-93913718D01*
X115459806Y-93700640D01*
X115459806Y-93315899D01*
X115653006Y-93315899D01*
X115813021Y-93285790D01*
X115959986Y-93191221D01*
X116058579Y-93046925D01*
X116093265Y-92875640D01*
X116093265Y-91575640D01*
X116063156Y-91415625D01*
X115968587Y-91268660D01*
X115824291Y-91170067D01*
X115653006Y-91135381D01*
X114153006Y-91135381D01*
X113992991Y-91165490D01*
X113846026Y-91260059D01*
X113747433Y-91404355D01*
X113712747Y-91575640D01*
X113712747Y-92875640D01*
X113742856Y-93035655D01*
X113837425Y-93182620D01*
X113981721Y-93281213D01*
X114153006Y-93315899D01*
X114346206Y-93315899D01*
X114346206Y-93470006D01*
X110414376Y-97401836D01*
X110243006Y-97367748D01*
X109873028Y-97441341D01*
X109559375Y-97650917D01*
X109349799Y-97964570D01*
X109276206Y-98334548D01*
X109276206Y-99116732D01*
X109331328Y-99393850D01*
X108558650Y-99393850D01*
X108346723Y-99181923D01*
X108166084Y-99061224D01*
X107953006Y-99018840D01*
X107607059Y-99018840D01*
X107626087Y-99015055D01*
X107806726Y-98894356D01*
X112596723Y-94104359D01*
X112717422Y-93923720D01*
X112759806Y-93710642D01*
X112759806Y-93315899D01*
X112953006Y-93315899D01*
X113113021Y-93285790D01*
X113259986Y-93191221D01*
X113358579Y-93046925D01*
X113393265Y-92875640D01*
X113393265Y-91575640D01*
X113363156Y-91415625D01*
X113268587Y-91268660D01*
X113124291Y-91170067D01*
X112953006Y-91135381D01*
X111453006Y-91135381D01*
X111292991Y-91165490D01*
X111146026Y-91260059D01*
X111047433Y-91404355D01*
X111012747Y-91575640D01*
X111012747Y-92875640D01*
X111042856Y-93035655D01*
X111137425Y-93182620D01*
X111281721Y-93281213D01*
X111453006Y-93315899D01*
X111646206Y-93315899D01*
X111646206Y-93480008D01*
X107182375Y-97943839D01*
X105318007Y-97943839D01*
X105104929Y-97986223D01*
X105103265Y-97987335D01*
X105103265Y-96425640D01*
X105073156Y-96265625D01*
X104978587Y-96118660D01*
X104834291Y-96020067D01*
X104663006Y-95985381D01*
X103063006Y-95985381D01*
X102902991Y-96015490D01*
X102756026Y-96110059D01*
X102657433Y-96254355D01*
X102622747Y-96425640D01*
X102622747Y-96703889D01*
X102595162Y-96709376D01*
X102446365Y-96808800D01*
X102413875Y-96830509D01*
X101604869Y-97639515D01*
X101483736Y-97820802D01*
X101441200Y-98034646D01*
X101441200Y-100333841D01*
X100328641Y-100333841D01*
X99976580Y-99981780D01*
X100144925Y-99981927D01*
X100413990Y-99870752D01*
X100620028Y-99665073D01*
X100731673Y-99396203D01*
X100731927Y-99105075D01*
X100620752Y-98836010D01*
X100558800Y-98773950D01*
X100558800Y-96000000D01*
X100516264Y-95786156D01*
X100395131Y-95604869D01*
X100213844Y-95483736D01*
X100000000Y-95441200D01*
X96917977Y-95441200D01*
X96970179Y-95394862D01*
X97012012Y-95339660D01*
X97059376Y-95289132D01*
X97552577Y-94496732D01*
X97555176Y-94489835D01*
X97560051Y-94484310D01*
X97583005Y-94444830D01*
X97946015Y-94444830D01*
X98114160Y-94851773D01*
X98425236Y-95163392D01*
X98831884Y-95332247D01*
X99272196Y-95332631D01*
X99679139Y-95164486D01*
X99990758Y-94853410D01*
X100040491Y-94733640D01*
X100072393Y-94733640D01*
X100270380Y-95029949D01*
X100629452Y-95269873D01*
X101053006Y-95354123D01*
X101476560Y-95269873D01*
X101835632Y-95029949D01*
X102075556Y-94670877D01*
X102159806Y-94247323D01*
X102159806Y-94203957D01*
X102075556Y-93780403D01*
X101835632Y-93421331D01*
X101476560Y-93181407D01*
X101053006Y-93097157D01*
X100629452Y-93181407D01*
X100270380Y-93421331D01*
X100072393Y-93717640D01*
X100040663Y-93717640D01*
X99991852Y-93599507D01*
X99680776Y-93287888D01*
X99274128Y-93119033D01*
X98833816Y-93118649D01*
X98426873Y-93286794D01*
X98115254Y-93597870D01*
X97946399Y-94004518D01*
X97946015Y-94444830D01*
X97583005Y-94444830D01*
X98070394Y-93606555D01*
X98611650Y-92906593D01*
X99176421Y-92561380D01*
X99782845Y-92566026D01*
X99784692Y-92565673D01*
X99786536Y-92566040D01*
X100319476Y-92566040D01*
X100321320Y-92565673D01*
X100323167Y-92566026D01*
X100929591Y-92561380D01*
X101494362Y-92906593D01*
X102035618Y-93606555D01*
X102545961Y-94484310D01*
X102550837Y-94489837D01*
X102553436Y-94496732D01*
X103046636Y-95289132D01*
X103093998Y-95339658D01*
X103135833Y-95394862D01*
X103651233Y-95852361D01*
X103673454Y-95865369D01*
X103691089Y-95884135D01*
X103753957Y-95912494D01*
X103813469Y-95947332D01*
X103838976Y-95950846D01*
X103862450Y-95961435D01*
X103931383Y-95963577D01*
X103999698Y-95972989D01*
X104024609Y-95966474D01*
X104050348Y-95967274D01*
X104644449Y-95868174D01*
X104706092Y-95844856D01*
X104770061Y-95829006D01*
X104793286Y-95811873D01*
X104820279Y-95801662D01*
X104868304Y-95756532D01*
X104921341Y-95717406D01*
X105502740Y-95079206D01*
X105527474Y-95038178D01*
X105559671Y-95002700D01*
X105677243Y-94806828D01*
X106835154Y-93583060D01*
X110834360Y-90158836D01*
X116560478Y-86082457D01*
X122517304Y-82271903D01*
X122518304Y-82270942D01*
X122519592Y-82270430D01*
X126970692Y-79387530D01*
X126977756Y-79380665D01*
X126986757Y-79376660D01*
X128414943Y-78367794D01*
X129122219Y-77936247D01*
X131303133Y-76660286D01*
X134321058Y-75141903D01*
X137458578Y-74041500D01*
X139895627Y-73596225D01*
X140673373Y-73579915D01*
X141238933Y-73621888D01*
X141238933Y-73621888D01*
G37*
X141238933Y-73621888D02*
X143030114Y-74363940D01*
X144861784Y-76110994D01*
X145915429Y-78458569D01*
X146107755Y-80401040D01*
X145999886Y-80996219D01*
X146000245Y-81017282D01*
X145994238Y-81037473D01*
X145906488Y-81979906D01*
X145224275Y-84818233D01*
X143929646Y-88528337D01*
X142574769Y-92250335D01*
X142571938Y-92268721D01*
X142563528Y-92285311D01*
X141761488Y-95151611D01*
X141759186Y-95181647D01*
X141748993Y-95209994D01*
X141607498Y-96153619D01*
X141358776Y-97031195D01*
X140205074Y-99679239D01*
X138163558Y-102939752D01*
X135646378Y-105885752D01*
X133545343Y-107891621D01*
X132805435Y-108508211D01*
X132759251Y-108565357D01*
X132708285Y-108618288D01*
X132684624Y-108655191D01*
X132405178Y-108832117D01*
X131718901Y-109042249D01*
X130846422Y-109187902D01*
X129960357Y-109319573D01*
X129936882Y-109327979D01*
X129911986Y-109329316D01*
X129188585Y-109514016D01*
X129104527Y-109554241D01*
X129020345Y-109594169D01*
X128606945Y-109901469D01*
X128568969Y-109943462D01*
X128524859Y-109978966D01*
X128506507Y-110012530D01*
X128480852Y-110040898D01*
X128461836Y-110094227D01*
X128434671Y-110143909D01*
X128430560Y-110181940D01*
X128417714Y-110217967D01*
X128420554Y-110274515D01*
X128414469Y-110330809D01*
X128458569Y-110826810D01*
X128471130Y-110869678D01*
X128474566Y-110914210D01*
X128497303Y-110959003D01*
X128511429Y-111007214D01*
X128539436Y-111042010D01*
X128559654Y-111081840D01*
X129025355Y-111674440D01*
X129055267Y-111700067D01*
X129078550Y-111731844D01*
X129220758Y-111862247D01*
X129727346Y-112593204D01*
X130811932Y-115353741D01*
X131300699Y-119254453D01*
X130904039Y-123263634D01*
X130206567Y-126186197D01*
X129900469Y-127119271D01*
X129643407Y-127766423D01*
X128644059Y-129689779D01*
X127007323Y-132087620D01*
X125057378Y-134245515D01*
X123431446Y-135685411D01*
X122858893Y-136108798D01*
X122315448Y-136497896D01*
X120460394Y-137425459D01*
X117787930Y-138115968D01*
X115123568Y-137963608D01*
X113227730Y-137191666D01*
X112731997Y-136797785D01*
X112720132Y-136791682D01*
X112710963Y-136781990D01*
X112148710Y-136383303D01*
X110531012Y-135093662D01*
X108619769Y-133155671D01*
X107227383Y-130915928D01*
X106632279Y-128978066D01*
X106587815Y-128338714D01*
X106580796Y-128312931D01*
X106581252Y-128286214D01*
X106357952Y-127054214D01*
X106356187Y-127049740D01*
X106356175Y-127044929D01*
X105118965Y-120907707D01*
X104117546Y-114751443D01*
X104038613Y-113833683D01*
X104399288Y-114194358D01*
X104579927Y-114315057D01*
X104704835Y-114339903D01*
X109865000Y-119500068D01*
X109865000Y-121500000D01*
X109908427Y-121730795D01*
X110044827Y-121942767D01*
X110252949Y-122084971D01*
X110500000Y-122135000D01*
X111315898Y-122135000D01*
X111276206Y-122334548D01*
X111276206Y-123116732D01*
X111349799Y-123486710D01*
X111559375Y-123800363D01*
X111873028Y-124009939D01*
X112243006Y-124083532D01*
X112414376Y-124049444D01*
X118159310Y-129794378D01*
X118339949Y-129915077D01*
X118553027Y-129957461D01*
X123742985Y-129957461D01*
X123956063Y-129915077D01*
X124136702Y-129794378D01*
X124865181Y-129065899D01*
X125588006Y-129065899D01*
X125748021Y-129035790D01*
X125894986Y-128941221D01*
X125993579Y-128796925D01*
X126028265Y-128625640D01*
X126028265Y-126825640D01*
X125998156Y-126665625D01*
X125903587Y-126518660D01*
X125759291Y-126420067D01*
X125588006Y-126385381D01*
X124518006Y-126385381D01*
X124434388Y-126401115D01*
X124090389Y-126231740D01*
X123910006Y-126357396D01*
X123910006Y-127598640D01*
X123930006Y-127598640D01*
X123930006Y-127852640D01*
X123910006Y-127852640D01*
X123910006Y-127872640D01*
X123656006Y-127872640D01*
X123656006Y-127852640D01*
X123636006Y-127852640D01*
X123636006Y-127598640D01*
X123656006Y-127598640D01*
X123656006Y-126357396D01*
X123475623Y-126231740D01*
X123045494Y-126443523D01*
X122988357Y-126511749D01*
X122882984Y-126441341D01*
X122513006Y-126367748D01*
X122143028Y-126441341D01*
X121878006Y-126618423D01*
X121612984Y-126441341D01*
X121609806Y-126440709D01*
X121609806Y-114061797D01*
X121748021Y-114035790D01*
X121894986Y-113941221D01*
X121993579Y-113796925D01*
X122028265Y-113625640D01*
X122028265Y-111825640D01*
X121998156Y-111665625D01*
X121960707Y-111607428D01*
X122093018Y-111607428D01*
X122306096Y-111565044D01*
X122486735Y-111444345D01*
X136865181Y-97065899D01*
X137588006Y-97065899D01*
X137748021Y-97035790D01*
X137894986Y-96941221D01*
X137993579Y-96796925D01*
X138028265Y-96625640D01*
X138028265Y-94825640D01*
X137998156Y-94665625D01*
X137903587Y-94518660D01*
X137759291Y-94420067D01*
X137588006Y-94385381D01*
X136518006Y-94385381D01*
X136434388Y-94401115D01*
X136090389Y-94231740D01*
X135910006Y-94357396D01*
X135910006Y-95598640D01*
X135930006Y-95598640D01*
X135930006Y-95852640D01*
X135910006Y-95852640D01*
X135910006Y-95872640D01*
X135656006Y-95872640D01*
X135656006Y-95852640D01*
X135636006Y-95852640D01*
X135636006Y-95598640D01*
X135656006Y-95598640D01*
X135656006Y-94357396D01*
X135475623Y-94231740D01*
X135045494Y-94443523D01*
X134988357Y-94511749D01*
X134882984Y-94441341D01*
X134513006Y-94367748D01*
X134143028Y-94441341D01*
X133878006Y-94618423D01*
X133612984Y-94441341D01*
X133243006Y-94367748D01*
X132873028Y-94441341D01*
X132559375Y-94650917D01*
X132349799Y-94964570D01*
X132309167Y-95168840D01*
X131688006Y-95168840D01*
X131474928Y-95211224D01*
X131294289Y-95331923D01*
X125240831Y-101385381D01*
X124518006Y-101385381D01*
X124434388Y-101401115D01*
X124090389Y-101231740D01*
X123910006Y-101357396D01*
X123910006Y-102598640D01*
X123930006Y-102598640D01*
X123930006Y-102852640D01*
X123910006Y-102852640D01*
X123910006Y-104093884D01*
X124090389Y-104219540D01*
X124436113Y-104049315D01*
X124518006Y-104065899D01*
X125588006Y-104065899D01*
X125748021Y-104035790D01*
X125894986Y-103941221D01*
X125993579Y-103796925D01*
X126028265Y-103625640D01*
X126028265Y-102172815D01*
X131918640Y-96282440D01*
X132309167Y-96282440D01*
X132349799Y-96486710D01*
X132559375Y-96800363D01*
X132873028Y-97009939D01*
X133243006Y-97083532D01*
X133612984Y-97009939D01*
X133878006Y-96832857D01*
X134143028Y-97009939D01*
X134513006Y-97083532D01*
X134882984Y-97009939D01*
X134988357Y-96939531D01*
X135045494Y-97007757D01*
X135248501Y-97107711D01*
X121862384Y-110493828D01*
X118553018Y-110493828D01*
X118339940Y-110536212D01*
X118159301Y-110656911D01*
X117414376Y-111401836D01*
X117243006Y-111367748D01*
X116873028Y-111441341D01*
X116559375Y-111650917D01*
X116435179Y-111836789D01*
X116135000Y-111536610D01*
X116135000Y-110000000D01*
X116091573Y-109769205D01*
X115955173Y-109557233D01*
X115747051Y-109415029D01*
X115500000Y-109365000D01*
X113963390Y-109365000D01*
X113652208Y-109053818D01*
X113748021Y-109035790D01*
X113894986Y-108941221D01*
X113993579Y-108796925D01*
X114028265Y-108625640D01*
X114028265Y-108282440D01*
X116608006Y-108282440D01*
X116821084Y-108240056D01*
X117001723Y-108119357D01*
X121071636Y-104049444D01*
X121243006Y-104083532D01*
X121612984Y-104009939D01*
X121878006Y-103832857D01*
X122143028Y-104009939D01*
X122513006Y-104083532D01*
X122882984Y-104009939D01*
X122988357Y-103939531D01*
X123045494Y-104007757D01*
X123475623Y-104219540D01*
X123656006Y-104093884D01*
X123656006Y-102852640D01*
X123636006Y-102852640D01*
X123636006Y-102598640D01*
X123656006Y-102598640D01*
X123656006Y-101357396D01*
X123475623Y-101231740D01*
X123045494Y-101443523D01*
X122988357Y-101511749D01*
X122882984Y-101441341D01*
X122513006Y-101367748D01*
X122143028Y-101441341D01*
X121878006Y-101618423D01*
X121612984Y-101441341D01*
X121243006Y-101367748D01*
X120873028Y-101441341D01*
X120559375Y-101650917D01*
X120349799Y-101964570D01*
X120276206Y-102334548D01*
X120276206Y-103116732D01*
X120301636Y-103244576D01*
X116377372Y-107168840D01*
X114028265Y-107168840D01*
X114028265Y-107057430D01*
X114643016Y-107057430D01*
X114856094Y-107015046D01*
X115036733Y-106894347D01*
X137865181Y-84065899D01*
X138588006Y-84065899D01*
X138748021Y-84035790D01*
X138894986Y-83941221D01*
X138993579Y-83796925D01*
X139028265Y-83625640D01*
X139028265Y-81825640D01*
X138998156Y-81665625D01*
X138903587Y-81518660D01*
X138759291Y-81420067D01*
X138588006Y-81385381D01*
X137518006Y-81385381D01*
X137434388Y-81401115D01*
X137090389Y-81231740D01*
X136910006Y-81357396D01*
X136910006Y-82598640D01*
X136930006Y-82598640D01*
X136930006Y-82852640D01*
X136910006Y-82852640D01*
X136910006Y-82872640D01*
X136656006Y-82872640D01*
X136656006Y-82852640D01*
X136636006Y-82852640D01*
X136636006Y-82598640D01*
X136656006Y-82598640D01*
X136656006Y-81357396D01*
X136475623Y-81231740D01*
X136045494Y-81443523D01*
X135988357Y-81511749D01*
X135882984Y-81441341D01*
X135513006Y-81367748D01*
X135143028Y-81441341D01*
X134878006Y-81618423D01*
X134612984Y-81441341D01*
X134243006Y-81367748D01*
X133873028Y-81441341D01*
X133559375Y-81650917D01*
X133349799Y-81964570D01*
X133276206Y-82334548D01*
X133276206Y-83116732D01*
X133314909Y-83311303D01*
X126240831Y-90385381D01*
X125518006Y-90385381D01*
X125434388Y-90401115D01*
X125090389Y-90231740D01*
X124910006Y-90357396D01*
X124910006Y-91598640D01*
X124930006Y-91598640D01*
X124930006Y-91852640D01*
X124910006Y-91852640D01*
X124910006Y-93093884D01*
X125090389Y-93219540D01*
X125436113Y-93049315D01*
X125518006Y-93065899D01*
X126588006Y-93065899D01*
X126748021Y-93035790D01*
X126894986Y-92941221D01*
X126993579Y-92796925D01*
X127028265Y-92625640D01*
X127028265Y-91172815D01*
X134138363Y-84062717D01*
X134243006Y-84083532D01*
X134612984Y-84009939D01*
X134878006Y-83832857D01*
X135143028Y-84009939D01*
X135513006Y-84083532D01*
X135882984Y-84009939D01*
X135988357Y-83939531D01*
X136045494Y-84007757D01*
X136248501Y-84107711D01*
X114412382Y-105943830D01*
X110103016Y-105943830D01*
X109889938Y-105986214D01*
X109709299Y-106106913D01*
X109414376Y-106401836D01*
X109243006Y-106367748D01*
X108939796Y-106428060D01*
X108939796Y-105919219D01*
X108897412Y-105706141D01*
X108776713Y-105525502D01*
X106288135Y-103036924D01*
X106107496Y-102916225D01*
X105894418Y-102873841D01*
X104960485Y-102873841D01*
X105025173Y-102777029D01*
X105118938Y-102305640D01*
X105025173Y-101834251D01*
X104761000Y-101438889D01*
X104931085Y-101405057D01*
X105111724Y-101284358D01*
X106263642Y-100132440D01*
X107722372Y-100132440D01*
X107934299Y-100344367D01*
X108114938Y-100465066D01*
X108328016Y-100507450D01*
X110652996Y-100507450D01*
X110866074Y-100465066D01*
X111046713Y-100344367D01*
X111341636Y-100049444D01*
X111513006Y-100083532D01*
X111882984Y-100009939D01*
X111988357Y-99939531D01*
X112045494Y-100007757D01*
X112475623Y-100219540D01*
X112656006Y-100093884D01*
X112656006Y-98852640D01*
X112636006Y-98852640D01*
X112636006Y-98598640D01*
X112656006Y-98598640D01*
X112656006Y-97357396D01*
X112910006Y-97357396D01*
X112910006Y-98598640D01*
X112930006Y-98598640D01*
X112930006Y-98852640D01*
X112910006Y-98852640D01*
X112910006Y-100093884D01*
X113090389Y-100219540D01*
X113436113Y-100049315D01*
X113518006Y-100065899D01*
X114588006Y-100065899D01*
X114748021Y-100035790D01*
X114894986Y-99941221D01*
X114993579Y-99796925D01*
X115028265Y-99625640D01*
X115028265Y-99282440D01*
X115608006Y-99282440D01*
X115821084Y-99240056D01*
X116001723Y-99119357D01*
X122071636Y-93049444D01*
X122243006Y-93083532D01*
X122612984Y-93009939D01*
X122878006Y-92832857D01*
X123143028Y-93009939D01*
X123513006Y-93083532D01*
X123882984Y-93009939D01*
X123988357Y-92939531D01*
X124045494Y-93007757D01*
X124475623Y-93219540D01*
X124656006Y-93093884D01*
X124656006Y-91852640D01*
X124636006Y-91852640D01*
X124636006Y-91598640D01*
X124656006Y-91598640D01*
X124656006Y-90357396D01*
X124475623Y-90231740D01*
X124045494Y-90443523D01*
X123988357Y-90511749D01*
X123882984Y-90441341D01*
X123513006Y-90367748D01*
X123143028Y-90441341D01*
X122878006Y-90618423D01*
X122612984Y-90441341D01*
X122243006Y-90367748D01*
X121873028Y-90441341D01*
X121559375Y-90650917D01*
X121349799Y-90964570D01*
X121276206Y-91334548D01*
X121276206Y-92116732D01*
X121301636Y-92244576D01*
X115377372Y-98168840D01*
X115028265Y-98168840D01*
X115028265Y-97825640D01*
X114998156Y-97665625D01*
X114903587Y-97518660D01*
X114759291Y-97420067D01*
X114588006Y-97385381D01*
X113518006Y-97385381D01*
X113434388Y-97401115D01*
X113090389Y-97231740D01*
X112910006Y-97357396D01*
X112656006Y-97357396D01*
X112475623Y-97231740D01*
X112045494Y-97443523D01*
X111988357Y-97511749D01*
X111923001Y-97468079D01*
X115296723Y-94094357D01*
X115417422Y-93913718D01*
X115459806Y-93700640D01*
X115459806Y-93315899D01*
X115653006Y-93315899D01*
X115813021Y-93285790D01*
X115959986Y-93191221D01*
X116058579Y-93046925D01*
X116093265Y-92875640D01*
X116093265Y-91575640D01*
X116063156Y-91415625D01*
X115968587Y-91268660D01*
X115824291Y-91170067D01*
X115653006Y-91135381D01*
X114153006Y-91135381D01*
X113992991Y-91165490D01*
X113846026Y-91260059D01*
X113747433Y-91404355D01*
X113712747Y-91575640D01*
X113712747Y-92875640D01*
X113742856Y-93035655D01*
X113837425Y-93182620D01*
X113981721Y-93281213D01*
X114153006Y-93315899D01*
X114346206Y-93315899D01*
X114346206Y-93470006D01*
X110414376Y-97401836D01*
X110243006Y-97367748D01*
X109873028Y-97441341D01*
X109559375Y-97650917D01*
X109349799Y-97964570D01*
X109276206Y-98334548D01*
X109276206Y-99116732D01*
X109331328Y-99393850D01*
X108558650Y-99393850D01*
X108346723Y-99181923D01*
X108166084Y-99061224D01*
X107953006Y-99018840D01*
X107607059Y-99018840D01*
X107626087Y-99015055D01*
X107806726Y-98894356D01*
X112596723Y-94104359D01*
X112717422Y-93923720D01*
X112759806Y-93710642D01*
X112759806Y-93315899D01*
X112953006Y-93315899D01*
X113113021Y-93285790D01*
X113259986Y-93191221D01*
X113358579Y-93046925D01*
X113393265Y-92875640D01*
X113393265Y-91575640D01*
X113363156Y-91415625D01*
X113268587Y-91268660D01*
X113124291Y-91170067D01*
X112953006Y-91135381D01*
X111453006Y-91135381D01*
X111292991Y-91165490D01*
X111146026Y-91260059D01*
X111047433Y-91404355D01*
X111012747Y-91575640D01*
X111012747Y-92875640D01*
X111042856Y-93035655D01*
X111137425Y-93182620D01*
X111281721Y-93281213D01*
X111453006Y-93315899D01*
X111646206Y-93315899D01*
X111646206Y-93480008D01*
X107182375Y-97943839D01*
X105318007Y-97943839D01*
X105104929Y-97986223D01*
X105103265Y-97987335D01*
X105103265Y-96425640D01*
X105073156Y-96265625D01*
X104978587Y-96118660D01*
X104834291Y-96020067D01*
X104663006Y-95985381D01*
X103063006Y-95985381D01*
X102902991Y-96015490D01*
X102756026Y-96110059D01*
X102657433Y-96254355D01*
X102622747Y-96425640D01*
X102622747Y-96703889D01*
X102595162Y-96709376D01*
X102446365Y-96808800D01*
X102413875Y-96830509D01*
X101604869Y-97639515D01*
X101483736Y-97820802D01*
X101441200Y-98034646D01*
X101441200Y-100333841D01*
X100328641Y-100333841D01*
X99976580Y-99981780D01*
X100144925Y-99981927D01*
X100413990Y-99870752D01*
X100620028Y-99665073D01*
X100731673Y-99396203D01*
X100731927Y-99105075D01*
X100620752Y-98836010D01*
X100558800Y-98773950D01*
X100558800Y-96000000D01*
X100516264Y-95786156D01*
X100395131Y-95604869D01*
X100213844Y-95483736D01*
X100000000Y-95441200D01*
X96917977Y-95441200D01*
X96970179Y-95394862D01*
X97012012Y-95339660D01*
X97059376Y-95289132D01*
X97552577Y-94496732D01*
X97555176Y-94489835D01*
X97560051Y-94484310D01*
X97583005Y-94444830D01*
X97946015Y-94444830D01*
X98114160Y-94851773D01*
X98425236Y-95163392D01*
X98831884Y-95332247D01*
X99272196Y-95332631D01*
X99679139Y-95164486D01*
X99990758Y-94853410D01*
X100040491Y-94733640D01*
X100072393Y-94733640D01*
X100270380Y-95029949D01*
X100629452Y-95269873D01*
X101053006Y-95354123D01*
X101476560Y-95269873D01*
X101835632Y-95029949D01*
X102075556Y-94670877D01*
X102159806Y-94247323D01*
X102159806Y-94203957D01*
X102075556Y-93780403D01*
X101835632Y-93421331D01*
X101476560Y-93181407D01*
X101053006Y-93097157D01*
X100629452Y-93181407D01*
X100270380Y-93421331D01*
X100072393Y-93717640D01*
X100040663Y-93717640D01*
X99991852Y-93599507D01*
X99680776Y-93287888D01*
X99274128Y-93119033D01*
X98833816Y-93118649D01*
X98426873Y-93286794D01*
X98115254Y-93597870D01*
X97946399Y-94004518D01*
X97946015Y-94444830D01*
X97583005Y-94444830D01*
X98070394Y-93606555D01*
X98611650Y-92906593D01*
X99176421Y-92561380D01*
X99782845Y-92566026D01*
X99784692Y-92565673D01*
X99786536Y-92566040D01*
X100319476Y-92566040D01*
X100321320Y-92565673D01*
X100323167Y-92566026D01*
X100929591Y-92561380D01*
X101494362Y-92906593D01*
X102035618Y-93606555D01*
X102545961Y-94484310D01*
X102550837Y-94489837D01*
X102553436Y-94496732D01*
X103046636Y-95289132D01*
X103093998Y-95339658D01*
X103135833Y-95394862D01*
X103651233Y-95852361D01*
X103673454Y-95865369D01*
X103691089Y-95884135D01*
X103753957Y-95912494D01*
X103813469Y-95947332D01*
X103838976Y-95950846D01*
X103862450Y-95961435D01*
X103931383Y-95963577D01*
X103999698Y-95972989D01*
X104024609Y-95966474D01*
X104050348Y-95967274D01*
X104644449Y-95868174D01*
X104706092Y-95844856D01*
X104770061Y-95829006D01*
X104793286Y-95811873D01*
X104820279Y-95801662D01*
X104868304Y-95756532D01*
X104921341Y-95717406D01*
X105502740Y-95079206D01*
X105527474Y-95038178D01*
X105559671Y-95002700D01*
X105677243Y-94806828D01*
X106835154Y-93583060D01*
X110834360Y-90158836D01*
X116560478Y-86082457D01*
X122517304Y-82271903D01*
X122518304Y-82270942D01*
X122519592Y-82270430D01*
X126970692Y-79387530D01*
X126977756Y-79380665D01*
X126986757Y-79376660D01*
X128414943Y-78367794D01*
X129122219Y-77936247D01*
X131303133Y-76660286D01*
X134321058Y-75141903D01*
X137458578Y-74041500D01*
X139895627Y-73596225D01*
X140673373Y-73579915D01*
X141238933Y-73621888D01*
G36*
X60210386Y-73596225D02*
X62647434Y-74041500D01*
X65784954Y-75141903D01*
X68802886Y-76660290D01*
X70983792Y-77936247D01*
X71691073Y-78367797D01*
X73119255Y-79376660D01*
X73128256Y-79380665D01*
X73135320Y-79387530D01*
X77586419Y-82270430D01*
X77587710Y-82270943D01*
X77588708Y-82271902D01*
X83545542Y-86082464D01*
X89271646Y-90158830D01*
X93270853Y-93583054D01*
X94428769Y-94806828D01*
X94546341Y-95002700D01*
X94578537Y-95038176D01*
X94603271Y-95079206D01*
X94933047Y-95441200D01*
X94731462Y-95441200D01*
X93145131Y-93854869D01*
X93138435Y-93850395D01*
X92963844Y-93733736D01*
X92750000Y-93691200D01*
X90231462Y-93691200D01*
X82895131Y-86354869D01*
X82713844Y-86233736D01*
X82500000Y-86191200D01*
X77981462Y-86191200D01*
X69895131Y-78104869D01*
X69713844Y-77983736D01*
X69500000Y-77941200D01*
X61250000Y-77941200D01*
X61036156Y-77983736D01*
X60854869Y-78104869D01*
X58854869Y-80104869D01*
X58733736Y-80286156D01*
X58691200Y-80500000D01*
X58691200Y-96250000D01*
X58733736Y-96463844D01*
X58853364Y-96642878D01*
X58854869Y-96645131D01*
X72191200Y-109981462D01*
X72191200Y-126268538D01*
X71104869Y-127354869D01*
X70983736Y-127536157D01*
X70941200Y-127750000D01*
X70983736Y-127963843D01*
X71104869Y-128145131D01*
X75604869Y-132645131D01*
X75786156Y-132766264D01*
X76000000Y-132808800D01*
X81059741Y-132808800D01*
X81059741Y-132900000D01*
X81089850Y-133060015D01*
X81184419Y-133206980D01*
X81328715Y-133305573D01*
X81500000Y-133340259D01*
X83050000Y-133340259D01*
X83210015Y-133310150D01*
X83356980Y-133215581D01*
X83455573Y-133071285D01*
X83490259Y-132900000D01*
X83490259Y-132808800D01*
X89009741Y-132808800D01*
X89009741Y-132900000D01*
X89039850Y-133060015D01*
X89134419Y-133206980D01*
X89278715Y-133305573D01*
X89450000Y-133340259D01*
X91000000Y-133340259D01*
X91160015Y-133310150D01*
X91306980Y-133215581D01*
X91405573Y-133071285D01*
X91440259Y-132900000D01*
X91440259Y-131600000D01*
X91410150Y-131439985D01*
X91315581Y-131293020D01*
X91171285Y-131194427D01*
X91000000Y-131159741D01*
X89450000Y-131159741D01*
X89289985Y-131189850D01*
X89143020Y-131284419D01*
X89044427Y-131428715D01*
X89009741Y-131600000D01*
X89009741Y-131691200D01*
X83490259Y-131691200D01*
X83490259Y-131600000D01*
X83460150Y-131439985D01*
X83365581Y-131293020D01*
X83221285Y-131194427D01*
X83050000Y-131159741D01*
X81500000Y-131159741D01*
X81339985Y-131189850D01*
X81193020Y-131284419D01*
X81094427Y-131428715D01*
X81059741Y-131600000D01*
X81059741Y-131691200D01*
X76231462Y-131691200D01*
X72290262Y-127750000D01*
X72705714Y-127334548D01*
X74276206Y-127334548D01*
X74276206Y-128116732D01*
X74349799Y-128486710D01*
X74559375Y-128800363D01*
X74873028Y-129009939D01*
X75243006Y-129083532D01*
X75612984Y-129009939D01*
X75878006Y-128832857D01*
X76143028Y-129009939D01*
X76513006Y-129083532D01*
X76882984Y-129009939D01*
X76988357Y-128939531D01*
X77045494Y-129007757D01*
X77475623Y-129219540D01*
X77656006Y-129093884D01*
X77656006Y-127852640D01*
X77636006Y-127852640D01*
X77636006Y-127598640D01*
X77656006Y-127598640D01*
X77656006Y-126357396D01*
X77475623Y-126231740D01*
X77045494Y-126443523D01*
X76988357Y-126511749D01*
X76923001Y-126468079D01*
X83446723Y-119944357D01*
X83567422Y-119763718D01*
X83609806Y-119550640D01*
X83609806Y-117011390D01*
X88418006Y-117011390D01*
X88418006Y-117476950D01*
X88514679Y-117710339D01*
X88693308Y-117888967D01*
X88926697Y-117985640D01*
X89517256Y-117985640D01*
X89676006Y-117826890D01*
X89676006Y-116852640D01*
X88576756Y-116852640D01*
X88418006Y-117011390D01*
X83609806Y-117011390D01*
X83609806Y-115974330D01*
X88418006Y-115974330D01*
X88418006Y-116439890D01*
X88576756Y-116598640D01*
X89676006Y-116598640D01*
X89676006Y-115624390D01*
X89517256Y-115465640D01*
X88926697Y-115465640D01*
X88693308Y-115562313D01*
X88514679Y-115740941D01*
X88418006Y-115974330D01*
X83609806Y-115974330D01*
X83609806Y-114061797D01*
X83748021Y-114035790D01*
X83894986Y-113941221D01*
X83993579Y-113796925D01*
X84028265Y-113625640D01*
X84028265Y-111825640D01*
X83998156Y-111665625D01*
X83903587Y-111518660D01*
X83759291Y-111420067D01*
X83588006Y-111385381D01*
X82518006Y-111385381D01*
X82434388Y-111401115D01*
X82090389Y-111231740D01*
X81910006Y-111357396D01*
X81910006Y-112598640D01*
X81930006Y-112598640D01*
X81930006Y-112852640D01*
X81910006Y-112852640D01*
X81910006Y-114093884D01*
X82090389Y-114219540D01*
X82436113Y-114049315D01*
X82496206Y-114061484D01*
X82496206Y-119320006D01*
X75414376Y-126401836D01*
X75243006Y-126367748D01*
X74873028Y-126441341D01*
X74559375Y-126650917D01*
X74349799Y-126964570D01*
X74276206Y-127334548D01*
X72705714Y-127334548D01*
X73145131Y-126895131D01*
X73181266Y-126841052D01*
X73266264Y-126713844D01*
X73308800Y-126500000D01*
X73308800Y-109750000D01*
X73266264Y-109536156D01*
X73145131Y-109354869D01*
X59808800Y-96018538D01*
X59808800Y-80731462D01*
X61481462Y-79058800D01*
X69268538Y-79058800D01*
X77354869Y-87145131D01*
X77536156Y-87266264D01*
X77750000Y-87308800D01*
X82268538Y-87308800D01*
X89604869Y-94645131D01*
X89786157Y-94766265D01*
X90000000Y-94808800D01*
X92518538Y-94808800D01*
X93495119Y-95785381D01*
X92428006Y-95785381D01*
X92267991Y-95815490D01*
X92121026Y-95910059D01*
X92022433Y-96054355D01*
X91987747Y-96225640D01*
X91987747Y-97725640D01*
X92017856Y-97885655D01*
X92112425Y-98032620D01*
X92236726Y-98117551D01*
X92068307Y-98187313D01*
X91889679Y-98365942D01*
X91793006Y-98599331D01*
X91793006Y-99189890D01*
X91951756Y-99348640D01*
X92926006Y-99348640D01*
X92926006Y-99328640D01*
X93180006Y-99328640D01*
X93180006Y-99348640D01*
X93200006Y-99348640D01*
X93200006Y-99602640D01*
X93180006Y-99602640D01*
X93180006Y-99622640D01*
X92926006Y-99622640D01*
X92926006Y-99602640D01*
X91951756Y-99602640D01*
X91793006Y-99761390D01*
X91793006Y-99993841D01*
X90813212Y-99993841D01*
X90894986Y-99941221D01*
X90993579Y-99796925D01*
X91028265Y-99625640D01*
X91028265Y-97825640D01*
X90998156Y-97665625D01*
X90903587Y-97518660D01*
X90759291Y-97420067D01*
X90588006Y-97385381D01*
X89865181Y-97385381D01*
X85036733Y-92556933D01*
X84856094Y-92436234D01*
X84643016Y-92393850D01*
X78528265Y-92393850D01*
X78528265Y-90825640D01*
X78498156Y-90665625D01*
X78403587Y-90518660D01*
X78259291Y-90420067D01*
X78088006Y-90385381D01*
X77365181Y-90385381D01*
X70986735Y-84006935D01*
X70806096Y-83886236D01*
X70593018Y-83843852D01*
X66961515Y-83843852D01*
X66993579Y-83796925D01*
X67028265Y-83625640D01*
X67028265Y-81825640D01*
X66998156Y-81665625D01*
X66903587Y-81518660D01*
X66759291Y-81420067D01*
X66588006Y-81385381D01*
X65865181Y-81385381D01*
X65586713Y-81106913D01*
X65406074Y-80986214D01*
X65192996Y-80943830D01*
X61886779Y-80943830D01*
X61673701Y-80986214D01*
X61493062Y-81106913D01*
X60989279Y-81610696D01*
X60868580Y-81791335D01*
X60826196Y-82004413D01*
X60826196Y-83446867D01*
X60868580Y-83659945D01*
X60989279Y-83840584D01*
X74043051Y-96894356D01*
X74223690Y-97015055D01*
X74436768Y-97057439D01*
X76152371Y-97057439D01*
X86301636Y-107206704D01*
X86276206Y-107334548D01*
X86276206Y-108116732D01*
X86331328Y-108393850D01*
X81333650Y-108393850D01*
X76923001Y-103983201D01*
X76988357Y-103939531D01*
X77045494Y-104007757D01*
X77475623Y-104219540D01*
X77656006Y-104093884D01*
X77656006Y-102852640D01*
X77636006Y-102852640D01*
X77636006Y-102598640D01*
X77656006Y-102598640D01*
X77656006Y-102578640D01*
X77910006Y-102578640D01*
X77910006Y-102598640D01*
X77930006Y-102598640D01*
X77930006Y-102852640D01*
X77910006Y-102852640D01*
X77910006Y-104093884D01*
X78090389Y-104219540D01*
X78436113Y-104049315D01*
X78518006Y-104065899D01*
X79588006Y-104065899D01*
X79748021Y-104035790D01*
X79894986Y-103941221D01*
X79993579Y-103796925D01*
X80028265Y-103625640D01*
X80028265Y-101825640D01*
X79998156Y-101665625D01*
X79903587Y-101518660D01*
X79759291Y-101420067D01*
X79588006Y-101385381D01*
X78865181Y-101385381D01*
X78586713Y-101106913D01*
X78406074Y-100986214D01*
X78192996Y-100943830D01*
X68883630Y-100943830D01*
X64923001Y-96983201D01*
X64988357Y-96939531D01*
X65045494Y-97007757D01*
X65475623Y-97219540D01*
X65656006Y-97093884D01*
X65656006Y-95852640D01*
X65636006Y-95852640D01*
X65636006Y-95598640D01*
X65656006Y-95598640D01*
X65656006Y-95578640D01*
X65910006Y-95578640D01*
X65910006Y-95598640D01*
X65930006Y-95598640D01*
X65930006Y-95852640D01*
X65910006Y-95852640D01*
X65910006Y-97093884D01*
X66090389Y-97219540D01*
X66436113Y-97049315D01*
X66518006Y-97065899D01*
X67588006Y-97065899D01*
X67748021Y-97035790D01*
X67894986Y-96941221D01*
X67993579Y-96796925D01*
X68028265Y-96625640D01*
X68028265Y-94825640D01*
X67998156Y-94665625D01*
X67903587Y-94518660D01*
X67759291Y-94420067D01*
X67588006Y-94385381D01*
X66865181Y-94385381D01*
X66586713Y-94106913D01*
X66406074Y-93986214D01*
X66192996Y-93943830D01*
X62886779Y-93943830D01*
X62673701Y-93986214D01*
X62493062Y-94106913D01*
X61989279Y-94610696D01*
X61868580Y-94791335D01*
X61826196Y-95004413D01*
X61826196Y-96650630D01*
X61868580Y-96863708D01*
X61989279Y-97044347D01*
X78064289Y-113119357D01*
X78244928Y-113240056D01*
X78303036Y-113251614D01*
X78349799Y-113486710D01*
X78559375Y-113800363D01*
X78873028Y-114009939D01*
X79243006Y-114083532D01*
X79612984Y-114009939D01*
X79878006Y-113832857D01*
X80143028Y-114009939D01*
X80513006Y-114083532D01*
X80882984Y-114009939D01*
X80988357Y-113939531D01*
X81045494Y-114007757D01*
X81475623Y-114219540D01*
X81656006Y-114093884D01*
X81656006Y-112852640D01*
X81636006Y-112852640D01*
X81636006Y-112598640D01*
X81656006Y-112598640D01*
X81656006Y-111357396D01*
X81475623Y-111231740D01*
X81045494Y-111443523D01*
X80988357Y-111511749D01*
X80882984Y-111441341D01*
X80513006Y-111367748D01*
X80143028Y-111441341D01*
X79878006Y-111618423D01*
X79612984Y-111441341D01*
X79243006Y-111367748D01*
X78873028Y-111441341D01*
X78559375Y-111650917D01*
X78403701Y-111883901D01*
X77031190Y-110511390D01*
X92418006Y-110511390D01*
X92418006Y-113601950D01*
X92514679Y-113835339D01*
X92693308Y-114013967D01*
X92926697Y-114110640D01*
X93767256Y-114110640D01*
X93926006Y-113951890D01*
X93926006Y-110352640D01*
X92576756Y-110352640D01*
X92418006Y-110511390D01*
X77031190Y-110511390D01*
X68558417Y-102038617D01*
X68652996Y-102057430D01*
X74331328Y-102057430D01*
X74276206Y-102334548D01*
X74276206Y-103116732D01*
X74349799Y-103486710D01*
X74559375Y-103800363D01*
X74873028Y-104009939D01*
X75243006Y-104083532D01*
X75414376Y-104049444D01*
X80709299Y-109344367D01*
X80889938Y-109465066D01*
X81103016Y-109507450D01*
X90192996Y-109507450D01*
X90406074Y-109465066D01*
X90586713Y-109344367D01*
X90865181Y-109065899D01*
X91588006Y-109065899D01*
X91748021Y-109035790D01*
X91894986Y-108941221D01*
X91993579Y-108796925D01*
X92028265Y-108625640D01*
X92028265Y-106825640D01*
X91998156Y-106665625D01*
X91903587Y-106518660D01*
X91759291Y-106420067D01*
X91588006Y-106385381D01*
X90518006Y-106385381D01*
X90434388Y-106401115D01*
X90090389Y-106231740D01*
X89910006Y-106357396D01*
X89910006Y-107598640D01*
X89930006Y-107598640D01*
X89930006Y-107852640D01*
X89910006Y-107852640D01*
X89910006Y-107872640D01*
X89656006Y-107872640D01*
X89656006Y-107852640D01*
X89636006Y-107852640D01*
X89636006Y-107598640D01*
X89656006Y-107598640D01*
X89656006Y-106357396D01*
X89475623Y-106231740D01*
X89045494Y-106443523D01*
X88988357Y-106511749D01*
X88882984Y-106441341D01*
X88513006Y-106367748D01*
X88143028Y-106441341D01*
X87878006Y-106618423D01*
X87612984Y-106441341D01*
X87243006Y-106367748D01*
X87071636Y-106401836D01*
X76776722Y-96106922D01*
X76596083Y-95986223D01*
X76383005Y-95943839D01*
X74667402Y-95943839D01*
X63681015Y-84957452D01*
X70362384Y-84957452D01*
X75748501Y-90343569D01*
X75545494Y-90443523D01*
X75488357Y-90511749D01*
X75382984Y-90441341D01*
X75013006Y-90367748D01*
X74643028Y-90441341D01*
X74378006Y-90618423D01*
X74112984Y-90441341D01*
X73743006Y-90367748D01*
X73373028Y-90441341D01*
X73059375Y-90650917D01*
X72849799Y-90964570D01*
X72776206Y-91334548D01*
X72776206Y-92116732D01*
X72849799Y-92486710D01*
X73059375Y-92800363D01*
X73373028Y-93009939D01*
X73743006Y-93083532D01*
X73914376Y-93049444D01*
X74209299Y-93344367D01*
X74389938Y-93465066D01*
X74603016Y-93507450D01*
X84412382Y-93507450D01*
X88248501Y-97343569D01*
X88045494Y-97443523D01*
X87988357Y-97511749D01*
X87882984Y-97441341D01*
X87513006Y-97367748D01*
X87143028Y-97441341D01*
X86878006Y-97618423D01*
X86612984Y-97441341D01*
X86243006Y-97367748D01*
X85873028Y-97441341D01*
X85559375Y-97650917D01*
X85349799Y-97964570D01*
X85276206Y-98334548D01*
X85276206Y-99116732D01*
X85349799Y-99486710D01*
X85559375Y-99800363D01*
X85873028Y-100009939D01*
X86243006Y-100083532D01*
X86414376Y-100049444D01*
X90189290Y-103824358D01*
X90369929Y-103945057D01*
X90583007Y-103987441D01*
X95339297Y-103987441D01*
X95080839Y-104374251D01*
X94987074Y-104845640D01*
X95080839Y-105317029D01*
X95347860Y-105716654D01*
X95747485Y-105983675D01*
X96218874Y-106077440D01*
X96267138Y-106077440D01*
X96738527Y-105983675D01*
X97138152Y-105716654D01*
X97405173Y-105317029D01*
X97498938Y-104845640D01*
X97405173Y-104374251D01*
X97146715Y-103987441D01*
X102741373Y-103987441D01*
X102631965Y-104108217D01*
X102471102Y-104496601D01*
X102593091Y-104718640D01*
X103736006Y-104718640D01*
X103736006Y-104698640D01*
X103990006Y-104698640D01*
X103990006Y-104718640D01*
X105132921Y-104718640D01*
X105254910Y-104496601D01*
X105094047Y-104108217D01*
X104984639Y-103987441D01*
X105663784Y-103987441D01*
X107826196Y-106149853D01*
X107826196Y-106403445D01*
X107771724Y-106321922D01*
X107026726Y-105576924D01*
X106846087Y-105456225D01*
X106633009Y-105413841D01*
X105164136Y-105413841D01*
X105254910Y-105194679D01*
X105132921Y-104972640D01*
X103990006Y-104972640D01*
X103990006Y-104992640D01*
X103736006Y-104992640D01*
X103736006Y-104972640D01*
X102593091Y-104972640D01*
X102471102Y-105194679D01*
X102561876Y-105413841D01*
X101594761Y-105413841D01*
X101058382Y-104877462D01*
X101058460Y-104788122D01*
X100947285Y-104519057D01*
X100741606Y-104313019D01*
X100472736Y-104201374D01*
X100181608Y-104201120D01*
X99912543Y-104312295D01*
X99706505Y-104517974D01*
X99594860Y-104786844D01*
X99594606Y-105077972D01*
X99705781Y-105347037D01*
X99911460Y-105553075D01*
X100180330Y-105664720D01*
X100270851Y-105664799D01*
X100946692Y-106340640D01*
X100338756Y-106340640D01*
X100180006Y-106499390D01*
X100180006Y-107848640D01*
X100200006Y-107848640D01*
X100200006Y-108102640D01*
X100180006Y-108102640D01*
X100180006Y-108122640D01*
X99926006Y-108122640D01*
X99926006Y-108102640D01*
X95688006Y-108102640D01*
X95688006Y-107848640D01*
X99926006Y-107848640D01*
X99926006Y-106499390D01*
X99767256Y-106340640D01*
X92926697Y-106340640D01*
X92693308Y-106437313D01*
X92514679Y-106615941D01*
X92418006Y-106849330D01*
X92418006Y-109939890D01*
X92576756Y-110098640D01*
X93926006Y-110098640D01*
X93926006Y-109610640D01*
X94180006Y-109610640D01*
X94180006Y-110098640D01*
X94200006Y-110098640D01*
X94200006Y-110352640D01*
X94180006Y-110352640D01*
X94180006Y-113951890D01*
X94297164Y-114069048D01*
X92705831Y-115660381D01*
X91553006Y-115660381D01*
X91392991Y-115690490D01*
X91246026Y-115785059D01*
X91161095Y-115909360D01*
X91091333Y-115740941D01*
X90912704Y-115562313D01*
X90679315Y-115465640D01*
X90088756Y-115465640D01*
X89930006Y-115624390D01*
X89930006Y-116598640D01*
X89950006Y-116598640D01*
X89950006Y-116852640D01*
X89930006Y-116852640D01*
X89930006Y-117826890D01*
X90088756Y-117985640D01*
X90130572Y-117985640D01*
X87622384Y-120493828D01*
X86823018Y-120493828D01*
X86609940Y-120536212D01*
X86429301Y-120656911D01*
X85684376Y-121401836D01*
X85513006Y-121367748D01*
X85143028Y-121441341D01*
X84878006Y-121618423D01*
X84612984Y-121441341D01*
X84243006Y-121367748D01*
X83873028Y-121441341D01*
X83559375Y-121650917D01*
X83349799Y-121964570D01*
X83276206Y-122334548D01*
X83276206Y-122350006D01*
X79240831Y-126385381D01*
X78518006Y-126385381D01*
X78434388Y-126401115D01*
X78090389Y-126231740D01*
X77910006Y-126357396D01*
X77910006Y-127598640D01*
X77930006Y-127598640D01*
X77930006Y-127852640D01*
X77910006Y-127852640D01*
X77910006Y-129093884D01*
X78090389Y-129219540D01*
X78436113Y-129049315D01*
X78518006Y-129065899D01*
X79588006Y-129065899D01*
X79748021Y-129035790D01*
X79894986Y-128941221D01*
X79993579Y-128796925D01*
X80028265Y-128625640D01*
X80028265Y-128035750D01*
X80865000Y-128035750D01*
X80865000Y-128526310D01*
X80961673Y-128759699D01*
X81140302Y-128938327D01*
X81373691Y-129035000D01*
X81989250Y-129035000D01*
X82148000Y-128876250D01*
X82148000Y-127877000D01*
X82402000Y-127877000D01*
X82402000Y-128876250D01*
X82560750Y-129035000D01*
X83176309Y-129035000D01*
X83409698Y-128938327D01*
X83588327Y-128759699D01*
X83685000Y-128526310D01*
X83685000Y-128035750D01*
X88815000Y-128035750D01*
X88815000Y-128526310D01*
X88911673Y-128759699D01*
X89090302Y-128938327D01*
X89323691Y-129035000D01*
X89939250Y-129035000D01*
X90098000Y-128876250D01*
X90098000Y-127877000D01*
X90352000Y-127877000D01*
X90352000Y-128876250D01*
X90510750Y-129035000D01*
X91126309Y-129035000D01*
X91359698Y-128938327D01*
X91538327Y-128759699D01*
X91635000Y-128526310D01*
X91635000Y-128035750D01*
X91476250Y-127877000D01*
X90352000Y-127877000D01*
X90098000Y-127877000D01*
X88973750Y-127877000D01*
X88815000Y-128035750D01*
X83685000Y-128035750D01*
X83526250Y-127877000D01*
X82402000Y-127877000D01*
X82148000Y-127877000D01*
X81023750Y-127877000D01*
X80865000Y-128035750D01*
X80028265Y-128035750D01*
X80028265Y-127172815D01*
X80227390Y-126973690D01*
X80865000Y-126973690D01*
X80865000Y-127464250D01*
X81023750Y-127623000D01*
X82148000Y-127623000D01*
X82148000Y-126623750D01*
X82402000Y-126623750D01*
X82402000Y-127623000D01*
X83526250Y-127623000D01*
X83685000Y-127464250D01*
X83685000Y-126973690D01*
X88815000Y-126973690D01*
X88815000Y-127464250D01*
X88973750Y-127623000D01*
X90098000Y-127623000D01*
X90098000Y-126623750D01*
X90352000Y-126623750D01*
X90352000Y-127623000D01*
X91476250Y-127623000D01*
X91635000Y-127464250D01*
X91635000Y-126973690D01*
X91538327Y-126740301D01*
X91359698Y-126561673D01*
X91126309Y-126465000D01*
X90510750Y-126465000D01*
X90352000Y-126623750D01*
X90098000Y-126623750D01*
X89939250Y-126465000D01*
X89323691Y-126465000D01*
X89090302Y-126561673D01*
X88911673Y-126740301D01*
X88815000Y-126973690D01*
X83685000Y-126973690D01*
X83588327Y-126740301D01*
X83409698Y-126561673D01*
X83176309Y-126465000D01*
X82560750Y-126465000D01*
X82402000Y-126623750D01*
X82148000Y-126623750D01*
X81989250Y-126465000D01*
X81373691Y-126465000D01*
X81140302Y-126561673D01*
X80961673Y-126740301D01*
X80865000Y-126973690D01*
X80227390Y-126973690D01*
X83495826Y-123705254D01*
X83559375Y-123800363D01*
X83873028Y-124009939D01*
X84243006Y-124083532D01*
X84612984Y-124009939D01*
X84878006Y-123832857D01*
X85143028Y-124009939D01*
X85513006Y-124083532D01*
X85882984Y-124009939D01*
X85988357Y-123939531D01*
X86045494Y-124007757D01*
X86475623Y-124219540D01*
X86656006Y-124093884D01*
X86656006Y-122852640D01*
X86636006Y-122852640D01*
X86636006Y-122598640D01*
X86656006Y-122598640D01*
X86656006Y-122578640D01*
X86910006Y-122578640D01*
X86910006Y-122598640D01*
X86930006Y-122598640D01*
X86930006Y-122852640D01*
X86910006Y-122852640D01*
X86910006Y-124093884D01*
X87090389Y-124219540D01*
X87436113Y-124049315D01*
X87518006Y-124065899D01*
X88588006Y-124065899D01*
X88748021Y-124035790D01*
X88894986Y-123941221D01*
X88993579Y-123796925D01*
X89028265Y-123625640D01*
X89028265Y-121825640D01*
X88998156Y-121665625D01*
X88903587Y-121518660D01*
X88759291Y-121420067D01*
X88588006Y-121385381D01*
X88305699Y-121385381D01*
X91900181Y-117790899D01*
X93053006Y-117790899D01*
X93213021Y-117760790D01*
X93359986Y-117666221D01*
X93458579Y-117521925D01*
X93493265Y-117350640D01*
X93493265Y-116447815D01*
X95771724Y-114169356D01*
X95892423Y-113988717D01*
X95934807Y-113775639D01*
X95934807Y-113494862D01*
X96597240Y-112832429D01*
X102603017Y-112832429D01*
X102816095Y-112790045D01*
X102996734Y-112669346D01*
X103014329Y-112651751D01*
X103038590Y-112773720D01*
X103159289Y-112954359D01*
X103331789Y-113126859D01*
X103309734Y-113133252D01*
X103299034Y-113141814D01*
X103286104Y-113146362D01*
X103083605Y-113266262D01*
X103030970Y-113313455D01*
X102973939Y-113355249D01*
X102473639Y-113900949D01*
X102427743Y-113976540D01*
X102380096Y-114050991D01*
X102045296Y-114906690D01*
X102033356Y-114973599D01*
X102014139Y-115038791D01*
X101924539Y-116028290D01*
X101927723Y-116058198D01*
X101922846Y-116087878D01*
X101958546Y-117153078D01*
X101958667Y-117153596D01*
X101958582Y-117154122D01*
X101996399Y-118213868D01*
X101920351Y-119178363D01*
X101639697Y-120011832D01*
X101239181Y-120552698D01*
X101083941Y-120675650D01*
X101048168Y-120717727D01*
X101006019Y-120753408D01*
X100921304Y-120859907D01*
X100053006Y-121862158D01*
X99184697Y-120859893D01*
X99099993Y-120753408D01*
X99057844Y-120717727D01*
X99022071Y-120675650D01*
X98866831Y-120552698D01*
X98466315Y-120011832D01*
X98185661Y-119178362D01*
X98109613Y-118213868D01*
X98147430Y-117154122D01*
X98147345Y-117153596D01*
X98147466Y-117153078D01*
X98183166Y-116087878D01*
X98178289Y-116058198D01*
X98181473Y-116028290D01*
X98091873Y-115038790D01*
X98072656Y-114973598D01*
X98060716Y-114906690D01*
X97725916Y-114050990D01*
X97678254Y-113976515D01*
X97632373Y-113900949D01*
X97132073Y-113355249D01*
X97075044Y-113313457D01*
X97022407Y-113266262D01*
X96819907Y-113146362D01*
X96806979Y-113141814D01*
X96796278Y-113133252D01*
X96718737Y-113110775D01*
X96642569Y-113083982D01*
X96628883Y-113084728D01*
X96615722Y-113080913D01*
X96535483Y-113089820D01*
X96454859Y-113094215D01*
X96442502Y-113100141D01*
X96428880Y-113101653D01*
X96358149Y-113140593D01*
X96285354Y-113175502D01*
X96276205Y-113185706D01*
X96264198Y-113192316D01*
X96213755Y-113255357D01*
X96159858Y-113315469D01*
X96155310Y-113328399D01*
X96146748Y-113339099D01*
X96124270Y-113416642D01*
X96097478Y-113492807D01*
X96098224Y-113506491D01*
X96094408Y-113519655D01*
X95988466Y-114751443D01*
X94987047Y-120907707D01*
X93749837Y-127044929D01*
X93749825Y-127049740D01*
X93748060Y-127054214D01*
X93524760Y-128286214D01*
X93525216Y-128312932D01*
X93518197Y-128338714D01*
X93473733Y-128978066D01*
X92878629Y-130915928D01*
X91486243Y-133155671D01*
X89575000Y-135093662D01*
X87957302Y-136383303D01*
X87395050Y-136781989D01*
X87385880Y-136791683D01*
X87374014Y-136797786D01*
X86878283Y-137191666D01*
X84982444Y-137963608D01*
X82318082Y-138115968D01*
X79645621Y-137425461D01*
X77790562Y-136497895D01*
X77247119Y-136108798D01*
X76674566Y-135685411D01*
X75048630Y-134245510D01*
X73098686Y-132087617D01*
X71461951Y-129689777D01*
X70462605Y-127766423D01*
X70205540Y-127119262D01*
X69899444Y-126186194D01*
X69201973Y-123263636D01*
X68805313Y-119254453D01*
X69294080Y-115353741D01*
X70378666Y-112593204D01*
X70885254Y-111862247D01*
X71027462Y-111731844D01*
X71050743Y-111700069D01*
X71080658Y-111674440D01*
X71546358Y-111081840D01*
X71566576Y-111042009D01*
X71594583Y-111007214D01*
X71608708Y-110959007D01*
X71631447Y-110914210D01*
X71634883Y-110869674D01*
X71647443Y-110826809D01*
X71691543Y-110330809D01*
X71685458Y-110274514D01*
X71688298Y-110217967D01*
X71675452Y-110181940D01*
X71671341Y-110143908D01*
X71644177Y-110094228D01*
X71625161Y-110040898D01*
X71599504Y-110012528D01*
X71581153Y-109978966D01*
X71537043Y-109943462D01*
X71499067Y-109901469D01*
X71085667Y-109594169D01*
X71001485Y-109554241D01*
X70917427Y-109514016D01*
X70194027Y-109329316D01*
X70169129Y-109327979D01*
X70145654Y-109319573D01*
X69259581Y-109187901D01*
X68387111Y-109042249D01*
X67700835Y-108832118D01*
X67421389Y-108655192D01*
X67397727Y-108618288D01*
X67346761Y-108565357D01*
X67300577Y-108508211D01*
X66560677Y-107891628D01*
X64459634Y-105885752D01*
X61942456Y-102939757D01*
X59900936Y-99679234D01*
X58747236Y-97031195D01*
X58498514Y-96153617D01*
X58357019Y-95209993D01*
X58346826Y-95181646D01*
X58344524Y-95151611D01*
X57542484Y-92285311D01*
X57534074Y-92268721D01*
X57531243Y-92250335D01*
X56176366Y-88528337D01*
X54881737Y-84818233D01*
X54199524Y-81979906D01*
X54111774Y-81037473D01*
X54105767Y-81017282D01*
X54106126Y-80996219D01*
X53998257Y-80401040D01*
X54190583Y-78458567D01*
X55244228Y-76110994D01*
X57075897Y-74363942D01*
X58867078Y-73621889D01*
X59432640Y-73579915D01*
X60210386Y-73596225D01*
X60210386Y-73596225D01*
G37*
X60210386Y-73596225D02*
X62647434Y-74041500D01*
X65784954Y-75141903D01*
X68802886Y-76660290D01*
X70983792Y-77936247D01*
X71691073Y-78367797D01*
X73119255Y-79376660D01*
X73128256Y-79380665D01*
X73135320Y-79387530D01*
X77586419Y-82270430D01*
X77587710Y-82270943D01*
X77588708Y-82271902D01*
X83545542Y-86082464D01*
X89271646Y-90158830D01*
X93270853Y-93583054D01*
X94428769Y-94806828D01*
X94546341Y-95002700D01*
X94578537Y-95038176D01*
X94603271Y-95079206D01*
X94933047Y-95441200D01*
X94731462Y-95441200D01*
X93145131Y-93854869D01*
X93138435Y-93850395D01*
X92963844Y-93733736D01*
X92750000Y-93691200D01*
X90231462Y-93691200D01*
X82895131Y-86354869D01*
X82713844Y-86233736D01*
X82500000Y-86191200D01*
X77981462Y-86191200D01*
X69895131Y-78104869D01*
X69713844Y-77983736D01*
X69500000Y-77941200D01*
X61250000Y-77941200D01*
X61036156Y-77983736D01*
X60854869Y-78104869D01*
X58854869Y-80104869D01*
X58733736Y-80286156D01*
X58691200Y-80500000D01*
X58691200Y-96250000D01*
X58733736Y-96463844D01*
X58853364Y-96642878D01*
X58854869Y-96645131D01*
X72191200Y-109981462D01*
X72191200Y-126268538D01*
X71104869Y-127354869D01*
X70983736Y-127536157D01*
X70941200Y-127750000D01*
X70983736Y-127963843D01*
X71104869Y-128145131D01*
X75604869Y-132645131D01*
X75786156Y-132766264D01*
X76000000Y-132808800D01*
X81059741Y-132808800D01*
X81059741Y-132900000D01*
X81089850Y-133060015D01*
X81184419Y-133206980D01*
X81328715Y-133305573D01*
X81500000Y-133340259D01*
X83050000Y-133340259D01*
X83210015Y-133310150D01*
X83356980Y-133215581D01*
X83455573Y-133071285D01*
X83490259Y-132900000D01*
X83490259Y-132808800D01*
X89009741Y-132808800D01*
X89009741Y-132900000D01*
X89039850Y-133060015D01*
X89134419Y-133206980D01*
X89278715Y-133305573D01*
X89450000Y-133340259D01*
X91000000Y-133340259D01*
X91160015Y-133310150D01*
X91306980Y-133215581D01*
X91405573Y-133071285D01*
X91440259Y-132900000D01*
X91440259Y-131600000D01*
X91410150Y-131439985D01*
X91315581Y-131293020D01*
X91171285Y-131194427D01*
X91000000Y-131159741D01*
X89450000Y-131159741D01*
X89289985Y-131189850D01*
X89143020Y-131284419D01*
X89044427Y-131428715D01*
X89009741Y-131600000D01*
X89009741Y-131691200D01*
X83490259Y-131691200D01*
X83490259Y-131600000D01*
X83460150Y-131439985D01*
X83365581Y-131293020D01*
X83221285Y-131194427D01*
X83050000Y-131159741D01*
X81500000Y-131159741D01*
X81339985Y-131189850D01*
X81193020Y-131284419D01*
X81094427Y-131428715D01*
X81059741Y-131600000D01*
X81059741Y-131691200D01*
X76231462Y-131691200D01*
X72290262Y-127750000D01*
X72705714Y-127334548D01*
X74276206Y-127334548D01*
X74276206Y-128116732D01*
X74349799Y-128486710D01*
X74559375Y-128800363D01*
X74873028Y-129009939D01*
X75243006Y-129083532D01*
X75612984Y-129009939D01*
X75878006Y-128832857D01*
X76143028Y-129009939D01*
X76513006Y-129083532D01*
X76882984Y-129009939D01*
X76988357Y-128939531D01*
X77045494Y-129007757D01*
X77475623Y-129219540D01*
X77656006Y-129093884D01*
X77656006Y-127852640D01*
X77636006Y-127852640D01*
X77636006Y-127598640D01*
X77656006Y-127598640D01*
X77656006Y-126357396D01*
X77475623Y-126231740D01*
X77045494Y-126443523D01*
X76988357Y-126511749D01*
X76923001Y-126468079D01*
X83446723Y-119944357D01*
X83567422Y-119763718D01*
X83609806Y-119550640D01*
X83609806Y-117011390D01*
X88418006Y-117011390D01*
X88418006Y-117476950D01*
X88514679Y-117710339D01*
X88693308Y-117888967D01*
X88926697Y-117985640D01*
X89517256Y-117985640D01*
X89676006Y-117826890D01*
X89676006Y-116852640D01*
X88576756Y-116852640D01*
X88418006Y-117011390D01*
X83609806Y-117011390D01*
X83609806Y-115974330D01*
X88418006Y-115974330D01*
X88418006Y-116439890D01*
X88576756Y-116598640D01*
X89676006Y-116598640D01*
X89676006Y-115624390D01*
X89517256Y-115465640D01*
X88926697Y-115465640D01*
X88693308Y-115562313D01*
X88514679Y-115740941D01*
X88418006Y-115974330D01*
X83609806Y-115974330D01*
X83609806Y-114061797D01*
X83748021Y-114035790D01*
X83894986Y-113941221D01*
X83993579Y-113796925D01*
X84028265Y-113625640D01*
X84028265Y-111825640D01*
X83998156Y-111665625D01*
X83903587Y-111518660D01*
X83759291Y-111420067D01*
X83588006Y-111385381D01*
X82518006Y-111385381D01*
X82434388Y-111401115D01*
X82090389Y-111231740D01*
X81910006Y-111357396D01*
X81910006Y-112598640D01*
X81930006Y-112598640D01*
X81930006Y-112852640D01*
X81910006Y-112852640D01*
X81910006Y-114093884D01*
X82090389Y-114219540D01*
X82436113Y-114049315D01*
X82496206Y-114061484D01*
X82496206Y-119320006D01*
X75414376Y-126401836D01*
X75243006Y-126367748D01*
X74873028Y-126441341D01*
X74559375Y-126650917D01*
X74349799Y-126964570D01*
X74276206Y-127334548D01*
X72705714Y-127334548D01*
X73145131Y-126895131D01*
X73181266Y-126841052D01*
X73266264Y-126713844D01*
X73308800Y-126500000D01*
X73308800Y-109750000D01*
X73266264Y-109536156D01*
X73145131Y-109354869D01*
X59808800Y-96018538D01*
X59808800Y-80731462D01*
X61481462Y-79058800D01*
X69268538Y-79058800D01*
X77354869Y-87145131D01*
X77536156Y-87266264D01*
X77750000Y-87308800D01*
X82268538Y-87308800D01*
X89604869Y-94645131D01*
X89786157Y-94766265D01*
X90000000Y-94808800D01*
X92518538Y-94808800D01*
X93495119Y-95785381D01*
X92428006Y-95785381D01*
X92267991Y-95815490D01*
X92121026Y-95910059D01*
X92022433Y-96054355D01*
X91987747Y-96225640D01*
X91987747Y-97725640D01*
X92017856Y-97885655D01*
X92112425Y-98032620D01*
X92236726Y-98117551D01*
X92068307Y-98187313D01*
X91889679Y-98365942D01*
X91793006Y-98599331D01*
X91793006Y-99189890D01*
X91951756Y-99348640D01*
X92926006Y-99348640D01*
X92926006Y-99328640D01*
X93180006Y-99328640D01*
X93180006Y-99348640D01*
X93200006Y-99348640D01*
X93200006Y-99602640D01*
X93180006Y-99602640D01*
X93180006Y-99622640D01*
X92926006Y-99622640D01*
X92926006Y-99602640D01*
X91951756Y-99602640D01*
X91793006Y-99761390D01*
X91793006Y-99993841D01*
X90813212Y-99993841D01*
X90894986Y-99941221D01*
X90993579Y-99796925D01*
X91028265Y-99625640D01*
X91028265Y-97825640D01*
X90998156Y-97665625D01*
X90903587Y-97518660D01*
X90759291Y-97420067D01*
X90588006Y-97385381D01*
X89865181Y-97385381D01*
X85036733Y-92556933D01*
X84856094Y-92436234D01*
X84643016Y-92393850D01*
X78528265Y-92393850D01*
X78528265Y-90825640D01*
X78498156Y-90665625D01*
X78403587Y-90518660D01*
X78259291Y-90420067D01*
X78088006Y-90385381D01*
X77365181Y-90385381D01*
X70986735Y-84006935D01*
X70806096Y-83886236D01*
X70593018Y-83843852D01*
X66961515Y-83843852D01*
X66993579Y-83796925D01*
X67028265Y-83625640D01*
X67028265Y-81825640D01*
X66998156Y-81665625D01*
X66903587Y-81518660D01*
X66759291Y-81420067D01*
X66588006Y-81385381D01*
X65865181Y-81385381D01*
X65586713Y-81106913D01*
X65406074Y-80986214D01*
X65192996Y-80943830D01*
X61886779Y-80943830D01*
X61673701Y-80986214D01*
X61493062Y-81106913D01*
X60989279Y-81610696D01*
X60868580Y-81791335D01*
X60826196Y-82004413D01*
X60826196Y-83446867D01*
X60868580Y-83659945D01*
X60989279Y-83840584D01*
X74043051Y-96894356D01*
X74223690Y-97015055D01*
X74436768Y-97057439D01*
X76152371Y-97057439D01*
X86301636Y-107206704D01*
X86276206Y-107334548D01*
X86276206Y-108116732D01*
X86331328Y-108393850D01*
X81333650Y-108393850D01*
X76923001Y-103983201D01*
X76988357Y-103939531D01*
X77045494Y-104007757D01*
X77475623Y-104219540D01*
X77656006Y-104093884D01*
X77656006Y-102852640D01*
X77636006Y-102852640D01*
X77636006Y-102598640D01*
X77656006Y-102598640D01*
X77656006Y-102578640D01*
X77910006Y-102578640D01*
X77910006Y-102598640D01*
X77930006Y-102598640D01*
X77930006Y-102852640D01*
X77910006Y-102852640D01*
X77910006Y-104093884D01*
X78090389Y-104219540D01*
X78436113Y-104049315D01*
X78518006Y-104065899D01*
X79588006Y-104065899D01*
X79748021Y-104035790D01*
X79894986Y-103941221D01*
X79993579Y-103796925D01*
X80028265Y-103625640D01*
X80028265Y-101825640D01*
X79998156Y-101665625D01*
X79903587Y-101518660D01*
X79759291Y-101420067D01*
X79588006Y-101385381D01*
X78865181Y-101385381D01*
X78586713Y-101106913D01*
X78406074Y-100986214D01*
X78192996Y-100943830D01*
X68883630Y-100943830D01*
X64923001Y-96983201D01*
X64988357Y-96939531D01*
X65045494Y-97007757D01*
X65475623Y-97219540D01*
X65656006Y-97093884D01*
X65656006Y-95852640D01*
X65636006Y-95852640D01*
X65636006Y-95598640D01*
X65656006Y-95598640D01*
X65656006Y-95578640D01*
X65910006Y-95578640D01*
X65910006Y-95598640D01*
X65930006Y-95598640D01*
X65930006Y-95852640D01*
X65910006Y-95852640D01*
X65910006Y-97093884D01*
X66090389Y-97219540D01*
X66436113Y-97049315D01*
X66518006Y-97065899D01*
X67588006Y-97065899D01*
X67748021Y-97035790D01*
X67894986Y-96941221D01*
X67993579Y-96796925D01*
X68028265Y-96625640D01*
X68028265Y-94825640D01*
X67998156Y-94665625D01*
X67903587Y-94518660D01*
X67759291Y-94420067D01*
X67588006Y-94385381D01*
X66865181Y-94385381D01*
X66586713Y-94106913D01*
X66406074Y-93986214D01*
X66192996Y-93943830D01*
X62886779Y-93943830D01*
X62673701Y-93986214D01*
X62493062Y-94106913D01*
X61989279Y-94610696D01*
X61868580Y-94791335D01*
X61826196Y-95004413D01*
X61826196Y-96650630D01*
X61868580Y-96863708D01*
X61989279Y-97044347D01*
X78064289Y-113119357D01*
X78244928Y-113240056D01*
X78303036Y-113251614D01*
X78349799Y-113486710D01*
X78559375Y-113800363D01*
X78873028Y-114009939D01*
X79243006Y-114083532D01*
X79612984Y-114009939D01*
X79878006Y-113832857D01*
X80143028Y-114009939D01*
X80513006Y-114083532D01*
X80882984Y-114009939D01*
X80988357Y-113939531D01*
X81045494Y-114007757D01*
X81475623Y-114219540D01*
X81656006Y-114093884D01*
X81656006Y-112852640D01*
X81636006Y-112852640D01*
X81636006Y-112598640D01*
X81656006Y-112598640D01*
X81656006Y-111357396D01*
X81475623Y-111231740D01*
X81045494Y-111443523D01*
X80988357Y-111511749D01*
X80882984Y-111441341D01*
X80513006Y-111367748D01*
X80143028Y-111441341D01*
X79878006Y-111618423D01*
X79612984Y-111441341D01*
X79243006Y-111367748D01*
X78873028Y-111441341D01*
X78559375Y-111650917D01*
X78403701Y-111883901D01*
X77031190Y-110511390D01*
X92418006Y-110511390D01*
X92418006Y-113601950D01*
X92514679Y-113835339D01*
X92693308Y-114013967D01*
X92926697Y-114110640D01*
X93767256Y-114110640D01*
X93926006Y-113951890D01*
X93926006Y-110352640D01*
X92576756Y-110352640D01*
X92418006Y-110511390D01*
X77031190Y-110511390D01*
X68558417Y-102038617D01*
X68652996Y-102057430D01*
X74331328Y-102057430D01*
X74276206Y-102334548D01*
X74276206Y-103116732D01*
X74349799Y-103486710D01*
X74559375Y-103800363D01*
X74873028Y-104009939D01*
X75243006Y-104083532D01*
X75414376Y-104049444D01*
X80709299Y-109344367D01*
X80889938Y-109465066D01*
X81103016Y-109507450D01*
X90192996Y-109507450D01*
X90406074Y-109465066D01*
X90586713Y-109344367D01*
X90865181Y-109065899D01*
X91588006Y-109065899D01*
X91748021Y-109035790D01*
X91894986Y-108941221D01*
X91993579Y-108796925D01*
X92028265Y-108625640D01*
X92028265Y-106825640D01*
X91998156Y-106665625D01*
X91903587Y-106518660D01*
X91759291Y-106420067D01*
X91588006Y-106385381D01*
X90518006Y-106385381D01*
X90434388Y-106401115D01*
X90090389Y-106231740D01*
X89910006Y-106357396D01*
X89910006Y-107598640D01*
X89930006Y-107598640D01*
X89930006Y-107852640D01*
X89910006Y-107852640D01*
X89910006Y-107872640D01*
X89656006Y-107872640D01*
X89656006Y-107852640D01*
X89636006Y-107852640D01*
X89636006Y-107598640D01*
X89656006Y-107598640D01*
X89656006Y-106357396D01*
X89475623Y-106231740D01*
X89045494Y-106443523D01*
X88988357Y-106511749D01*
X88882984Y-106441341D01*
X88513006Y-106367748D01*
X88143028Y-106441341D01*
X87878006Y-106618423D01*
X87612984Y-106441341D01*
X87243006Y-106367748D01*
X87071636Y-106401836D01*
X76776722Y-96106922D01*
X76596083Y-95986223D01*
X76383005Y-95943839D01*
X74667402Y-95943839D01*
X63681015Y-84957452D01*
X70362384Y-84957452D01*
X75748501Y-90343569D01*
X75545494Y-90443523D01*
X75488357Y-90511749D01*
X75382984Y-90441341D01*
X75013006Y-90367748D01*
X74643028Y-90441341D01*
X74378006Y-90618423D01*
X74112984Y-90441341D01*
X73743006Y-90367748D01*
X73373028Y-90441341D01*
X73059375Y-90650917D01*
X72849799Y-90964570D01*
X72776206Y-91334548D01*
X72776206Y-92116732D01*
X72849799Y-92486710D01*
X73059375Y-92800363D01*
X73373028Y-93009939D01*
X73743006Y-93083532D01*
X73914376Y-93049444D01*
X74209299Y-93344367D01*
X74389938Y-93465066D01*
X74603016Y-93507450D01*
X84412382Y-93507450D01*
X88248501Y-97343569D01*
X88045494Y-97443523D01*
X87988357Y-97511749D01*
X87882984Y-97441341D01*
X87513006Y-97367748D01*
X87143028Y-97441341D01*
X86878006Y-97618423D01*
X86612984Y-97441341D01*
X86243006Y-97367748D01*
X85873028Y-97441341D01*
X85559375Y-97650917D01*
X85349799Y-97964570D01*
X85276206Y-98334548D01*
X85276206Y-99116732D01*
X85349799Y-99486710D01*
X85559375Y-99800363D01*
X85873028Y-100009939D01*
X86243006Y-100083532D01*
X86414376Y-100049444D01*
X90189290Y-103824358D01*
X90369929Y-103945057D01*
X90583007Y-103987441D01*
X95339297Y-103987441D01*
X95080839Y-104374251D01*
X94987074Y-104845640D01*
X95080839Y-105317029D01*
X95347860Y-105716654D01*
X95747485Y-105983675D01*
X96218874Y-106077440D01*
X96267138Y-106077440D01*
X96738527Y-105983675D01*
X97138152Y-105716654D01*
X97405173Y-105317029D01*
X97498938Y-104845640D01*
X97405173Y-104374251D01*
X97146715Y-103987441D01*
X102741373Y-103987441D01*
X102631965Y-104108217D01*
X102471102Y-104496601D01*
X102593091Y-104718640D01*
X103736006Y-104718640D01*
X103736006Y-104698640D01*
X103990006Y-104698640D01*
X103990006Y-104718640D01*
X105132921Y-104718640D01*
X105254910Y-104496601D01*
X105094047Y-104108217D01*
X104984639Y-103987441D01*
X105663784Y-103987441D01*
X107826196Y-106149853D01*
X107826196Y-106403445D01*
X107771724Y-106321922D01*
X107026726Y-105576924D01*
X106846087Y-105456225D01*
X106633009Y-105413841D01*
X105164136Y-105413841D01*
X105254910Y-105194679D01*
X105132921Y-104972640D01*
X103990006Y-104972640D01*
X103990006Y-104992640D01*
X103736006Y-104992640D01*
X103736006Y-104972640D01*
X102593091Y-104972640D01*
X102471102Y-105194679D01*
X102561876Y-105413841D01*
X101594761Y-105413841D01*
X101058382Y-104877462D01*
X101058460Y-104788122D01*
X100947285Y-104519057D01*
X100741606Y-104313019D01*
X100472736Y-104201374D01*
X100181608Y-104201120D01*
X99912543Y-104312295D01*
X99706505Y-104517974D01*
X99594860Y-104786844D01*
X99594606Y-105077972D01*
X99705781Y-105347037D01*
X99911460Y-105553075D01*
X100180330Y-105664720D01*
X100270851Y-105664799D01*
X100946692Y-106340640D01*
X100338756Y-106340640D01*
X100180006Y-106499390D01*
X100180006Y-107848640D01*
X100200006Y-107848640D01*
X100200006Y-108102640D01*
X100180006Y-108102640D01*
X100180006Y-108122640D01*
X99926006Y-108122640D01*
X99926006Y-108102640D01*
X95688006Y-108102640D01*
X95688006Y-107848640D01*
X99926006Y-107848640D01*
X99926006Y-106499390D01*
X99767256Y-106340640D01*
X92926697Y-106340640D01*
X92693308Y-106437313D01*
X92514679Y-106615941D01*
X92418006Y-106849330D01*
X92418006Y-109939890D01*
X92576756Y-110098640D01*
X93926006Y-110098640D01*
X93926006Y-109610640D01*
X94180006Y-109610640D01*
X94180006Y-110098640D01*
X94200006Y-110098640D01*
X94200006Y-110352640D01*
X94180006Y-110352640D01*
X94180006Y-113951890D01*
X94297164Y-114069048D01*
X92705831Y-115660381D01*
X91553006Y-115660381D01*
X91392991Y-115690490D01*
X91246026Y-115785059D01*
X91161095Y-115909360D01*
X91091333Y-115740941D01*
X90912704Y-115562313D01*
X90679315Y-115465640D01*
X90088756Y-115465640D01*
X89930006Y-115624390D01*
X89930006Y-116598640D01*
X89950006Y-116598640D01*
X89950006Y-116852640D01*
X89930006Y-116852640D01*
X89930006Y-117826890D01*
X90088756Y-117985640D01*
X90130572Y-117985640D01*
X87622384Y-120493828D01*
X86823018Y-120493828D01*
X86609940Y-120536212D01*
X86429301Y-120656911D01*
X85684376Y-121401836D01*
X85513006Y-121367748D01*
X85143028Y-121441341D01*
X84878006Y-121618423D01*
X84612984Y-121441341D01*
X84243006Y-121367748D01*
X83873028Y-121441341D01*
X83559375Y-121650917D01*
X83349799Y-121964570D01*
X83276206Y-122334548D01*
X83276206Y-122350006D01*
X79240831Y-126385381D01*
X78518006Y-126385381D01*
X78434388Y-126401115D01*
X78090389Y-126231740D01*
X77910006Y-126357396D01*
X77910006Y-127598640D01*
X77930006Y-127598640D01*
X77930006Y-127852640D01*
X77910006Y-127852640D01*
X77910006Y-129093884D01*
X78090389Y-129219540D01*
X78436113Y-129049315D01*
X78518006Y-129065899D01*
X79588006Y-129065899D01*
X79748021Y-129035790D01*
X79894986Y-128941221D01*
X79993579Y-128796925D01*
X80028265Y-128625640D01*
X80028265Y-128035750D01*
X80865000Y-128035750D01*
X80865000Y-128526310D01*
X80961673Y-128759699D01*
X81140302Y-128938327D01*
X81373691Y-129035000D01*
X81989250Y-129035000D01*
X82148000Y-128876250D01*
X82148000Y-127877000D01*
X82402000Y-127877000D01*
X82402000Y-128876250D01*
X82560750Y-129035000D01*
X83176309Y-129035000D01*
X83409698Y-128938327D01*
X83588327Y-128759699D01*
X83685000Y-128526310D01*
X83685000Y-128035750D01*
X88815000Y-128035750D01*
X88815000Y-128526310D01*
X88911673Y-128759699D01*
X89090302Y-128938327D01*
X89323691Y-129035000D01*
X89939250Y-129035000D01*
X90098000Y-128876250D01*
X90098000Y-127877000D01*
X90352000Y-127877000D01*
X90352000Y-128876250D01*
X90510750Y-129035000D01*
X91126309Y-129035000D01*
X91359698Y-128938327D01*
X91538327Y-128759699D01*
X91635000Y-128526310D01*
X91635000Y-128035750D01*
X91476250Y-127877000D01*
X90352000Y-127877000D01*
X90098000Y-127877000D01*
X88973750Y-127877000D01*
X88815000Y-128035750D01*
X83685000Y-128035750D01*
X83526250Y-127877000D01*
X82402000Y-127877000D01*
X82148000Y-127877000D01*
X81023750Y-127877000D01*
X80865000Y-128035750D01*
X80028265Y-128035750D01*
X80028265Y-127172815D01*
X80227390Y-126973690D01*
X80865000Y-126973690D01*
X80865000Y-127464250D01*
X81023750Y-127623000D01*
X82148000Y-127623000D01*
X82148000Y-126623750D01*
X82402000Y-126623750D01*
X82402000Y-127623000D01*
X83526250Y-127623000D01*
X83685000Y-127464250D01*
X83685000Y-126973690D01*
X88815000Y-126973690D01*
X88815000Y-127464250D01*
X88973750Y-127623000D01*
X90098000Y-127623000D01*
X90098000Y-126623750D01*
X90352000Y-126623750D01*
X90352000Y-127623000D01*
X91476250Y-127623000D01*
X91635000Y-127464250D01*
X91635000Y-126973690D01*
X91538327Y-126740301D01*
X91359698Y-126561673D01*
X91126309Y-126465000D01*
X90510750Y-126465000D01*
X90352000Y-126623750D01*
X90098000Y-126623750D01*
X89939250Y-126465000D01*
X89323691Y-126465000D01*
X89090302Y-126561673D01*
X88911673Y-126740301D01*
X88815000Y-126973690D01*
X83685000Y-126973690D01*
X83588327Y-126740301D01*
X83409698Y-126561673D01*
X83176309Y-126465000D01*
X82560750Y-126465000D01*
X82402000Y-126623750D01*
X82148000Y-126623750D01*
X81989250Y-126465000D01*
X81373691Y-126465000D01*
X81140302Y-126561673D01*
X80961673Y-126740301D01*
X80865000Y-126973690D01*
X80227390Y-126973690D01*
X83495826Y-123705254D01*
X83559375Y-123800363D01*
X83873028Y-124009939D01*
X84243006Y-124083532D01*
X84612984Y-124009939D01*
X84878006Y-123832857D01*
X85143028Y-124009939D01*
X85513006Y-124083532D01*
X85882984Y-124009939D01*
X85988357Y-123939531D01*
X86045494Y-124007757D01*
X86475623Y-124219540D01*
X86656006Y-124093884D01*
X86656006Y-122852640D01*
X86636006Y-122852640D01*
X86636006Y-122598640D01*
X86656006Y-122598640D01*
X86656006Y-122578640D01*
X86910006Y-122578640D01*
X86910006Y-122598640D01*
X86930006Y-122598640D01*
X86930006Y-122852640D01*
X86910006Y-122852640D01*
X86910006Y-124093884D01*
X87090389Y-124219540D01*
X87436113Y-124049315D01*
X87518006Y-124065899D01*
X88588006Y-124065899D01*
X88748021Y-124035790D01*
X88894986Y-123941221D01*
X88993579Y-123796925D01*
X89028265Y-123625640D01*
X89028265Y-121825640D01*
X88998156Y-121665625D01*
X88903587Y-121518660D01*
X88759291Y-121420067D01*
X88588006Y-121385381D01*
X88305699Y-121385381D01*
X91900181Y-117790899D01*
X93053006Y-117790899D01*
X93213021Y-117760790D01*
X93359986Y-117666221D01*
X93458579Y-117521925D01*
X93493265Y-117350640D01*
X93493265Y-116447815D01*
X95771724Y-114169356D01*
X95892423Y-113988717D01*
X95934807Y-113775639D01*
X95934807Y-113494862D01*
X96597240Y-112832429D01*
X102603017Y-112832429D01*
X102816095Y-112790045D01*
X102996734Y-112669346D01*
X103014329Y-112651751D01*
X103038590Y-112773720D01*
X103159289Y-112954359D01*
X103331789Y-113126859D01*
X103309734Y-113133252D01*
X103299034Y-113141814D01*
X103286104Y-113146362D01*
X103083605Y-113266262D01*
X103030970Y-113313455D01*
X102973939Y-113355249D01*
X102473639Y-113900949D01*
X102427743Y-113976540D01*
X102380096Y-114050991D01*
X102045296Y-114906690D01*
X102033356Y-114973599D01*
X102014139Y-115038791D01*
X101924539Y-116028290D01*
X101927723Y-116058198D01*
X101922846Y-116087878D01*
X101958546Y-117153078D01*
X101958667Y-117153596D01*
X101958582Y-117154122D01*
X101996399Y-118213868D01*
X101920351Y-119178363D01*
X101639697Y-120011832D01*
X101239181Y-120552698D01*
X101083941Y-120675650D01*
X101048168Y-120717727D01*
X101006019Y-120753408D01*
X100921304Y-120859907D01*
X100053006Y-121862158D01*
X99184697Y-120859893D01*
X99099993Y-120753408D01*
X99057844Y-120717727D01*
X99022071Y-120675650D01*
X98866831Y-120552698D01*
X98466315Y-120011832D01*
X98185661Y-119178362D01*
X98109613Y-118213868D01*
X98147430Y-117154122D01*
X98147345Y-117153596D01*
X98147466Y-117153078D01*
X98183166Y-116087878D01*
X98178289Y-116058198D01*
X98181473Y-116028290D01*
X98091873Y-115038790D01*
X98072656Y-114973598D01*
X98060716Y-114906690D01*
X97725916Y-114050990D01*
X97678254Y-113976515D01*
X97632373Y-113900949D01*
X97132073Y-113355249D01*
X97075044Y-113313457D01*
X97022407Y-113266262D01*
X96819907Y-113146362D01*
X96806979Y-113141814D01*
X96796278Y-113133252D01*
X96718737Y-113110775D01*
X96642569Y-113083982D01*
X96628883Y-113084728D01*
X96615722Y-113080913D01*
X96535483Y-113089820D01*
X96454859Y-113094215D01*
X96442502Y-113100141D01*
X96428880Y-113101653D01*
X96358149Y-113140593D01*
X96285354Y-113175502D01*
X96276205Y-113185706D01*
X96264198Y-113192316D01*
X96213755Y-113255357D01*
X96159858Y-113315469D01*
X96155310Y-113328399D01*
X96146748Y-113339099D01*
X96124270Y-113416642D01*
X96097478Y-113492807D01*
X96098224Y-113506491D01*
X96094408Y-113519655D01*
X95988466Y-114751443D01*
X94987047Y-120907707D01*
X93749837Y-127044929D01*
X93749825Y-127049740D01*
X93748060Y-127054214D01*
X93524760Y-128286214D01*
X93525216Y-128312932D01*
X93518197Y-128338714D01*
X93473733Y-128978066D01*
X92878629Y-130915928D01*
X91486243Y-133155671D01*
X89575000Y-135093662D01*
X87957302Y-136383303D01*
X87395050Y-136781989D01*
X87385880Y-136791683D01*
X87374014Y-136797786D01*
X86878283Y-137191666D01*
X84982444Y-137963608D01*
X82318082Y-138115968D01*
X79645621Y-137425461D01*
X77790562Y-136497895D01*
X77247119Y-136108798D01*
X76674566Y-135685411D01*
X75048630Y-134245510D01*
X73098686Y-132087617D01*
X71461951Y-129689777D01*
X70462605Y-127766423D01*
X70205540Y-127119262D01*
X69899444Y-126186194D01*
X69201973Y-123263636D01*
X68805313Y-119254453D01*
X69294080Y-115353741D01*
X70378666Y-112593204D01*
X70885254Y-111862247D01*
X71027462Y-111731844D01*
X71050743Y-111700069D01*
X71080658Y-111674440D01*
X71546358Y-111081840D01*
X71566576Y-111042009D01*
X71594583Y-111007214D01*
X71608708Y-110959007D01*
X71631447Y-110914210D01*
X71634883Y-110869674D01*
X71647443Y-110826809D01*
X71691543Y-110330809D01*
X71685458Y-110274514D01*
X71688298Y-110217967D01*
X71675452Y-110181940D01*
X71671341Y-110143908D01*
X71644177Y-110094228D01*
X71625161Y-110040898D01*
X71599504Y-110012528D01*
X71581153Y-109978966D01*
X71537043Y-109943462D01*
X71499067Y-109901469D01*
X71085667Y-109594169D01*
X71001485Y-109554241D01*
X70917427Y-109514016D01*
X70194027Y-109329316D01*
X70169129Y-109327979D01*
X70145654Y-109319573D01*
X69259581Y-109187901D01*
X68387111Y-109042249D01*
X67700835Y-108832118D01*
X67421389Y-108655192D01*
X67397727Y-108618288D01*
X67346761Y-108565357D01*
X67300577Y-108508211D01*
X66560677Y-107891628D01*
X64459634Y-105885752D01*
X61942456Y-102939757D01*
X59900936Y-99679234D01*
X58747236Y-97031195D01*
X58498514Y-96153617D01*
X58357019Y-95209993D01*
X58346826Y-95181646D01*
X58344524Y-95151611D01*
X57542484Y-92285311D01*
X57534074Y-92268721D01*
X57531243Y-92250335D01*
X56176366Y-88528337D01*
X54881737Y-84818233D01*
X54199524Y-81979906D01*
X54111774Y-81037473D01*
X54105767Y-81017282D01*
X54106126Y-80996219D01*
X53998257Y-80401040D01*
X54190583Y-78458567D01*
X55244228Y-76110994D01*
X57075897Y-74363942D01*
X58867078Y-73621889D01*
X59432640Y-73579915D01*
X60210386Y-73596225D01*
G36*
X119910006Y-112598640D02*
X119930006Y-112598640D01*
X119930006Y-112852640D01*
X119910006Y-112852640D01*
X119910006Y-114093884D01*
X120090389Y-114219540D01*
X120436113Y-114049315D01*
X120496206Y-114061484D01*
X120496206Y-126745456D01*
X120349799Y-126964570D01*
X120276206Y-127334548D01*
X120276206Y-128116732D01*
X120349799Y-128486710D01*
X120559375Y-128800363D01*
X120624474Y-128843861D01*
X118783661Y-128843861D01*
X113923001Y-123983201D01*
X113988357Y-123939531D01*
X114045494Y-124007757D01*
X114475623Y-124219540D01*
X114656006Y-124093884D01*
X114656006Y-122852640D01*
X114636006Y-122852640D01*
X114636006Y-122598640D01*
X114656006Y-122598640D01*
X114656006Y-122578640D01*
X114910006Y-122578640D01*
X114910006Y-122598640D01*
X114930006Y-122598640D01*
X114930006Y-122852640D01*
X114910006Y-122852640D01*
X114910006Y-124093884D01*
X115090389Y-124219540D01*
X115436113Y-124049315D01*
X115518006Y-124065899D01*
X116588006Y-124065899D01*
X116748021Y-124035790D01*
X116894986Y-123941221D01*
X116993579Y-123796925D01*
X117028265Y-123625640D01*
X117028265Y-121825640D01*
X116998156Y-121665625D01*
X116903587Y-121518660D01*
X116759291Y-121420067D01*
X116609806Y-121389796D01*
X116609806Y-113834060D01*
X116873028Y-114009939D01*
X117243006Y-114083532D01*
X117612984Y-114009939D01*
X117878006Y-113832857D01*
X118143028Y-114009939D01*
X118513006Y-114083532D01*
X118882984Y-114009939D01*
X118988357Y-113939531D01*
X119045494Y-114007757D01*
X119475623Y-114219540D01*
X119656006Y-114093884D01*
X119656006Y-112852640D01*
X119636006Y-112852640D01*
X119636006Y-112598640D01*
X119656006Y-112598640D01*
X119656006Y-112578640D01*
X119910006Y-112578640D01*
X119910006Y-112598640D01*
X119910006Y-112598640D01*
G37*
X119910006Y-112598640D02*
X119930006Y-112598640D01*
X119930006Y-112852640D01*
X119910006Y-112852640D01*
X119910006Y-114093884D01*
X120090389Y-114219540D01*
X120436113Y-114049315D01*
X120496206Y-114061484D01*
X120496206Y-126745456D01*
X120349799Y-126964570D01*
X120276206Y-127334548D01*
X120276206Y-128116732D01*
X120349799Y-128486710D01*
X120559375Y-128800363D01*
X120624474Y-128843861D01*
X118783661Y-128843861D01*
X113923001Y-123983201D01*
X113988357Y-123939531D01*
X114045494Y-124007757D01*
X114475623Y-124219540D01*
X114656006Y-124093884D01*
X114656006Y-122852640D01*
X114636006Y-122852640D01*
X114636006Y-122598640D01*
X114656006Y-122598640D01*
X114656006Y-122578640D01*
X114910006Y-122578640D01*
X114910006Y-122598640D01*
X114930006Y-122598640D01*
X114930006Y-122852640D01*
X114910006Y-122852640D01*
X114910006Y-124093884D01*
X115090389Y-124219540D01*
X115436113Y-124049315D01*
X115518006Y-124065899D01*
X116588006Y-124065899D01*
X116748021Y-124035790D01*
X116894986Y-123941221D01*
X116993579Y-123796925D01*
X117028265Y-123625640D01*
X117028265Y-121825640D01*
X116998156Y-121665625D01*
X116903587Y-121518660D01*
X116759291Y-121420067D01*
X116609806Y-121389796D01*
X116609806Y-113834060D01*
X116873028Y-114009939D01*
X117243006Y-114083532D01*
X117612984Y-114009939D01*
X117878006Y-113832857D01*
X118143028Y-114009939D01*
X118513006Y-114083532D01*
X118882984Y-114009939D01*
X118988357Y-113939531D01*
X119045494Y-114007757D01*
X119475623Y-114219540D01*
X119656006Y-114093884D01*
X119656006Y-112852640D01*
X119636006Y-112852640D01*
X119636006Y-112598640D01*
X119656006Y-112598640D01*
X119656006Y-112578640D01*
X119910006Y-112578640D01*
X119910006Y-112598640D01*
G36*
X109865000Y-111425068D02*
X109865000Y-113750000D01*
X109908427Y-113980795D01*
X110044827Y-114192767D01*
X110252949Y-114334971D01*
X110500000Y-114385000D01*
X115496206Y-114385000D01*
X115496206Y-114871000D01*
X115455173Y-114807233D01*
X115247051Y-114665029D01*
X115000000Y-114615000D01*
X113000000Y-114615000D01*
X112769205Y-114658427D01*
X112563740Y-114790640D01*
X112338756Y-114790640D01*
X112180006Y-114949390D01*
X112180006Y-116398640D01*
X112200006Y-116398640D01*
X112200006Y-116652640D01*
X112180006Y-116652640D01*
X112180006Y-118101890D01*
X112338756Y-118260640D01*
X112365000Y-118260640D01*
X112365000Y-118865000D01*
X110804800Y-118865000D01*
X108751190Y-116811390D01*
X110818006Y-116811390D01*
X110818006Y-117751950D01*
X110914679Y-117985339D01*
X111093308Y-118163967D01*
X111326697Y-118260640D01*
X111767256Y-118260640D01*
X111926006Y-118101890D01*
X111926006Y-116652640D01*
X110976756Y-116652640D01*
X110818006Y-116811390D01*
X108751190Y-116811390D01*
X107239130Y-115299330D01*
X110818006Y-115299330D01*
X110818006Y-116239890D01*
X110976756Y-116398640D01*
X111926006Y-116398640D01*
X111926006Y-114949390D01*
X111767256Y-114790640D01*
X111326697Y-114790640D01*
X111093308Y-114887313D01*
X110914679Y-115065941D01*
X110818006Y-115299330D01*
X107239130Y-115299330D01*
X105908848Y-113969048D01*
X105926006Y-113951890D01*
X105926006Y-110352640D01*
X106180006Y-110352640D01*
X106180006Y-113951890D01*
X106338756Y-114110640D01*
X107179315Y-114110640D01*
X107412704Y-114013967D01*
X107591333Y-113835339D01*
X107688006Y-113601950D01*
X107688006Y-110511390D01*
X107529256Y-110352640D01*
X106180006Y-110352640D01*
X105926006Y-110352640D01*
X105906006Y-110352640D01*
X105906006Y-110098640D01*
X105926006Y-110098640D01*
X105926006Y-110078640D01*
X106180006Y-110078640D01*
X106180006Y-110098640D01*
X107529256Y-110098640D01*
X107688006Y-109939890D01*
X107688006Y-109248074D01*
X109865000Y-111425068D01*
X109865000Y-111425068D01*
G37*
X109865000Y-111425068D02*
X109865000Y-113750000D01*
X109908427Y-113980795D01*
X110044827Y-114192767D01*
X110252949Y-114334971D01*
X110500000Y-114385000D01*
X115496206Y-114385000D01*
X115496206Y-114871000D01*
X115455173Y-114807233D01*
X115247051Y-114665029D01*
X115000000Y-114615000D01*
X113000000Y-114615000D01*
X112769205Y-114658427D01*
X112563740Y-114790640D01*
X112338756Y-114790640D01*
X112180006Y-114949390D01*
X112180006Y-116398640D01*
X112200006Y-116398640D01*
X112200006Y-116652640D01*
X112180006Y-116652640D01*
X112180006Y-118101890D01*
X112338756Y-118260640D01*
X112365000Y-118260640D01*
X112365000Y-118865000D01*
X110804800Y-118865000D01*
X108751190Y-116811390D01*
X110818006Y-116811390D01*
X110818006Y-117751950D01*
X110914679Y-117985339D01*
X111093308Y-118163967D01*
X111326697Y-118260640D01*
X111767256Y-118260640D01*
X111926006Y-118101890D01*
X111926006Y-116652640D01*
X110976756Y-116652640D01*
X110818006Y-116811390D01*
X108751190Y-116811390D01*
X107239130Y-115299330D01*
X110818006Y-115299330D01*
X110818006Y-116239890D01*
X110976756Y-116398640D01*
X111926006Y-116398640D01*
X111926006Y-114949390D01*
X111767256Y-114790640D01*
X111326697Y-114790640D01*
X111093308Y-114887313D01*
X110914679Y-115065941D01*
X110818006Y-115299330D01*
X107239130Y-115299330D01*
X105908848Y-113969048D01*
X105926006Y-113951890D01*
X105926006Y-110352640D01*
X106180006Y-110352640D01*
X106180006Y-113951890D01*
X106338756Y-114110640D01*
X107179315Y-114110640D01*
X107412704Y-114013967D01*
X107591333Y-113835339D01*
X107688006Y-113601950D01*
X107688006Y-110511390D01*
X107529256Y-110352640D01*
X106180006Y-110352640D01*
X105926006Y-110352640D01*
X105906006Y-110352640D01*
X105906006Y-110098640D01*
X105926006Y-110098640D01*
X105926006Y-110078640D01*
X106180006Y-110078640D01*
X106180006Y-110098640D01*
X107529256Y-110098640D01*
X107688006Y-109939890D01*
X107688006Y-109248074D01*
X109865000Y-111425068D01*
G36*
X96746754Y-110211498D02*
X96732611Y-110225640D01*
X97596964Y-111089993D01*
X97848265Y-111009720D01*
X97914559Y-110826967D01*
X97965715Y-110950773D01*
X98325977Y-111311664D01*
X98796922Y-111507217D01*
X99306853Y-111507662D01*
X99778139Y-111312931D01*
X100053169Y-111038380D01*
X100325977Y-111311664D01*
X100796922Y-111507217D01*
X101306853Y-111507662D01*
X101778139Y-111312931D01*
X102139030Y-110952669D01*
X102262747Y-110654725D01*
X102262747Y-111075640D01*
X102292856Y-111235655D01*
X102387425Y-111382620D01*
X102531721Y-111481213D01*
X102596817Y-111494395D01*
X102372383Y-111718829D01*
X96403168Y-111718829D01*
X96914464Y-111695955D01*
X97337086Y-111520899D01*
X97417359Y-111269598D01*
X96553006Y-110405245D01*
X96538864Y-110419388D01*
X96359259Y-110239783D01*
X96373401Y-110225640D01*
X96359259Y-110211498D01*
X96538864Y-110031893D01*
X96553006Y-110046035D01*
X96567149Y-110031893D01*
X96746754Y-110211498D01*
X96746754Y-110211498D01*
G37*
X96746754Y-110211498D02*
X96732611Y-110225640D01*
X97596964Y-111089993D01*
X97848265Y-111009720D01*
X97914559Y-110826967D01*
X97965715Y-110950773D01*
X98325977Y-111311664D01*
X98796922Y-111507217D01*
X99306853Y-111507662D01*
X99778139Y-111312931D01*
X100053169Y-111038380D01*
X100325977Y-111311664D01*
X100796922Y-111507217D01*
X101306853Y-111507662D01*
X101778139Y-111312931D01*
X102139030Y-110952669D01*
X102262747Y-110654725D01*
X102262747Y-111075640D01*
X102292856Y-111235655D01*
X102387425Y-111382620D01*
X102531721Y-111481213D01*
X102596817Y-111494395D01*
X102372383Y-111718829D01*
X96403168Y-111718829D01*
X96914464Y-111695955D01*
X97337086Y-111520899D01*
X97417359Y-111269598D01*
X96553006Y-110405245D01*
X96538864Y-110419388D01*
X96359259Y-110239783D01*
X96373401Y-110225640D01*
X96359259Y-110211498D01*
X96538864Y-110031893D01*
X96553006Y-110046035D01*
X96567149Y-110031893D01*
X96746754Y-110211498D01*
G36*
X94180006Y-108102640D02*
X93926006Y-108102640D01*
X93926006Y-107848640D01*
X94180006Y-107848640D01*
X94180006Y-108102640D01*
X94180006Y-108102640D01*
G37*
X94180006Y-108102640D02*
X93926006Y-108102640D01*
X93926006Y-107848640D01*
X94180006Y-107848640D01*
X94180006Y-108102640D01*
G36*
X111910006Y-107598640D02*
X111930006Y-107598640D01*
X111930006Y-107852640D01*
X111910006Y-107852640D01*
X111910006Y-107872640D01*
X111656006Y-107872640D01*
X111656006Y-107852640D01*
X111636006Y-107852640D01*
X111636006Y-107598640D01*
X111656006Y-107598640D01*
X111656006Y-107578640D01*
X111910006Y-107578640D01*
X111910006Y-107598640D01*
X111910006Y-107598640D01*
G37*
X111910006Y-107598640D02*
X111930006Y-107598640D01*
X111930006Y-107852640D01*
X111910006Y-107852640D01*
X111910006Y-107872640D01*
X111656006Y-107872640D01*
X111656006Y-107852640D01*
X111636006Y-107852640D01*
X111636006Y-107598640D01*
X111656006Y-107598640D01*
X111656006Y-107578640D01*
X111910006Y-107578640D01*
X111910006Y-107598640D01*
G36*
X88910006Y-98598640D02*
X88930006Y-98598640D01*
X88930006Y-98852640D01*
X88910006Y-98852640D01*
X88910006Y-98872640D01*
X88656006Y-98872640D01*
X88656006Y-98852640D01*
X88636006Y-98852640D01*
X88636006Y-98598640D01*
X88656006Y-98598640D01*
X88656006Y-98578640D01*
X88910006Y-98578640D01*
X88910006Y-98598640D01*
X88910006Y-98598640D01*
G37*
X88910006Y-98598640D02*
X88930006Y-98598640D01*
X88930006Y-98852640D01*
X88910006Y-98852640D01*
X88910006Y-98872640D01*
X88656006Y-98872640D01*
X88656006Y-98852640D01*
X88636006Y-98852640D01*
X88636006Y-98598640D01*
X88656006Y-98598640D01*
X88656006Y-98578640D01*
X88910006Y-98578640D01*
X88910006Y-98598640D01*
G36*
X76410006Y-91598640D02*
X76430006Y-91598640D01*
X76430006Y-91852640D01*
X76410006Y-91852640D01*
X76410006Y-91872640D01*
X76156006Y-91872640D01*
X76156006Y-91852640D01*
X76136006Y-91852640D01*
X76136006Y-91598640D01*
X76156006Y-91598640D01*
X76156006Y-91578640D01*
X76410006Y-91578640D01*
X76410006Y-91598640D01*
X76410006Y-91598640D01*
G37*
X76410006Y-91598640D02*
X76430006Y-91598640D01*
X76430006Y-91852640D01*
X76410006Y-91852640D01*
X76410006Y-91872640D01*
X76156006Y-91872640D01*
X76156006Y-91852640D01*
X76136006Y-91852640D01*
X76136006Y-91598640D01*
X76156006Y-91598640D01*
X76156006Y-91578640D01*
X76410006Y-91578640D01*
X76410006Y-91598640D01*
G36*
X64910006Y-82598640D02*
X64930006Y-82598640D01*
X64930006Y-82852640D01*
X64910006Y-82852640D01*
X64910006Y-82872640D01*
X64656006Y-82872640D01*
X64656006Y-82852640D01*
X64636006Y-82852640D01*
X64636006Y-82598640D01*
X64656006Y-82598640D01*
X64656006Y-82578640D01*
X64910006Y-82578640D01*
X64910006Y-82598640D01*
X64910006Y-82598640D01*
G37*
X64910006Y-82598640D02*
X64930006Y-82598640D01*
X64930006Y-82852640D01*
X64910006Y-82852640D01*
X64910006Y-82872640D01*
X64656006Y-82872640D01*
X64656006Y-82852640D01*
X64636006Y-82852640D01*
X64636006Y-82598640D01*
X64656006Y-82598640D01*
X64656006Y-82578640D01*
X64910006Y-82578640D01*
X64910006Y-82598640D01*
M02*
