G04 #@! TF.FileFunction,Soldermask,Bot*
%FSLAX46Y46*%
G04 Gerber Fmt 4.6, Leading zero omitted, Abs format (unit mm)*
G04 Created by KiCad (PCBNEW 4.0.7) date Thursday, March 22, 2018 'PMt' 09:38:06 PM*
%MOMM*%
%LPD*%
G01*
G04 APERTURE LIST*
%ADD10C,0.100000*%
%ADD11C,0.010000*%
%ADD12R,1.700000X1.700000*%
%ADD13C,1.700000*%
%ADD14R,1.070000X1.800000*%
%ADD15O,1.070000X1.800000*%
%ADD16C,1.350000*%
%ADD17O,1.350000X1.350000*%
%ADD18R,1.600000X1.600000*%
%ADD19O,1.600000X1.600000*%
G04 APERTURE END LIST*
D10*
D11*
G36*
X123309714Y-115268952D02*
X123056470Y-115448835D01*
X122902571Y-115697683D01*
X122875673Y-115864103D01*
X122835828Y-115994488D01*
X122727997Y-116234144D01*
X122569736Y-116546206D01*
X122420657Y-116819582D01*
X122220162Y-117189903D01*
X122041919Y-117543588D01*
X121909560Y-117832438D01*
X121857586Y-117967973D01*
X121738066Y-118225562D01*
X121548586Y-118519444D01*
X121414783Y-118687640D01*
X121091225Y-119116767D01*
X120814442Y-119596780D01*
X120631548Y-120042307D01*
X120534313Y-120241307D01*
X120372752Y-120473783D01*
X120323619Y-120532805D01*
X120155536Y-120759337D01*
X119963831Y-121067059D01*
X119817059Y-121337138D01*
X119641501Y-121659605D01*
X119427796Y-122011230D01*
X119200632Y-122355860D01*
X118984695Y-122657337D01*
X118804673Y-122879508D01*
X118694308Y-122981455D01*
X118600610Y-123081731D01*
X118441750Y-123298016D01*
X118237380Y-123599756D01*
X118007151Y-123956395D01*
X117770714Y-124337379D01*
X117547720Y-124712155D01*
X117357821Y-125050169D01*
X117328565Y-125104948D01*
X117124894Y-125471276D01*
X116913907Y-125804224D01*
X116670640Y-126136582D01*
X116370127Y-126501142D01*
X115987402Y-126930697D01*
X115709565Y-127231504D01*
X115427123Y-127537125D01*
X115144779Y-127846796D01*
X114914432Y-128103504D01*
X114873617Y-128149800D01*
X114620189Y-128390726D01*
X114331267Y-128598014D01*
X114194133Y-128671002D01*
X113877280Y-128858577D01*
X113703569Y-129094226D01*
X113647222Y-129414197D01*
X113647006Y-129440307D01*
X113705037Y-129791083D01*
X113890991Y-130043569D01*
X114068645Y-130159097D01*
X114479506Y-130280438D01*
X114914066Y-130240789D01*
X115344930Y-130045432D01*
X115521513Y-129904999D01*
X115784797Y-129661083D01*
X116111006Y-129338531D01*
X116476366Y-128962190D01*
X116857102Y-128556909D01*
X117229438Y-128147534D01*
X117569598Y-127758913D01*
X117816691Y-127462207D01*
X118191505Y-126963102D01*
X118557393Y-126415793D01*
X118848937Y-125921098D01*
X119140660Y-125401968D01*
X119418083Y-124962513D01*
X119730482Y-124525467D01*
X119785340Y-124452792D01*
X120179272Y-123926519D01*
X120491361Y-123490370D01*
X120748498Y-123104665D01*
X120977578Y-122729721D01*
X121110377Y-122497640D01*
X121322008Y-122145473D01*
X121553748Y-121799068D01*
X121760197Y-121525762D01*
X121786207Y-121495199D01*
X122037148Y-121133295D01*
X122220379Y-120730531D01*
X122237442Y-120675892D01*
X122458542Y-120185955D01*
X122791862Y-119731000D01*
X123042160Y-119399497D01*
X123260459Y-119040318D01*
X123384441Y-118772307D01*
X123495018Y-118485498D01*
X123599236Y-118242801D01*
X123652111Y-118137307D01*
X123976072Y-117561250D01*
X124211419Y-117099469D01*
X124368002Y-116728478D01*
X124455673Y-116424790D01*
X124484283Y-116164918D01*
X124484340Y-116153085D01*
X124434036Y-115729209D01*
X124278115Y-115430388D01*
X124009065Y-115243659D01*
X123943237Y-115219353D01*
X123619552Y-115183852D01*
X123309714Y-115268952D01*
X123309714Y-115268952D01*
G37*
X123309714Y-115268952D02*
X123056470Y-115448835D01*
X122902571Y-115697683D01*
X122875673Y-115864103D01*
X122835828Y-115994488D01*
X122727997Y-116234144D01*
X122569736Y-116546206D01*
X122420657Y-116819582D01*
X122220162Y-117189903D01*
X122041919Y-117543588D01*
X121909560Y-117832438D01*
X121857586Y-117967973D01*
X121738066Y-118225562D01*
X121548586Y-118519444D01*
X121414783Y-118687640D01*
X121091225Y-119116767D01*
X120814442Y-119596780D01*
X120631548Y-120042307D01*
X120534313Y-120241307D01*
X120372752Y-120473783D01*
X120323619Y-120532805D01*
X120155536Y-120759337D01*
X119963831Y-121067059D01*
X119817059Y-121337138D01*
X119641501Y-121659605D01*
X119427796Y-122011230D01*
X119200632Y-122355860D01*
X118984695Y-122657337D01*
X118804673Y-122879508D01*
X118694308Y-122981455D01*
X118600610Y-123081731D01*
X118441750Y-123298016D01*
X118237380Y-123599756D01*
X118007151Y-123956395D01*
X117770714Y-124337379D01*
X117547720Y-124712155D01*
X117357821Y-125050169D01*
X117328565Y-125104948D01*
X117124894Y-125471276D01*
X116913907Y-125804224D01*
X116670640Y-126136582D01*
X116370127Y-126501142D01*
X115987402Y-126930697D01*
X115709565Y-127231504D01*
X115427123Y-127537125D01*
X115144779Y-127846796D01*
X114914432Y-128103504D01*
X114873617Y-128149800D01*
X114620189Y-128390726D01*
X114331267Y-128598014D01*
X114194133Y-128671002D01*
X113877280Y-128858577D01*
X113703569Y-129094226D01*
X113647222Y-129414197D01*
X113647006Y-129440307D01*
X113705037Y-129791083D01*
X113890991Y-130043569D01*
X114068645Y-130159097D01*
X114479506Y-130280438D01*
X114914066Y-130240789D01*
X115344930Y-130045432D01*
X115521513Y-129904999D01*
X115784797Y-129661083D01*
X116111006Y-129338531D01*
X116476366Y-128962190D01*
X116857102Y-128556909D01*
X117229438Y-128147534D01*
X117569598Y-127758913D01*
X117816691Y-127462207D01*
X118191505Y-126963102D01*
X118557393Y-126415793D01*
X118848937Y-125921098D01*
X119140660Y-125401968D01*
X119418083Y-124962513D01*
X119730482Y-124525467D01*
X119785340Y-124452792D01*
X120179272Y-123926519D01*
X120491361Y-123490370D01*
X120748498Y-123104665D01*
X120977578Y-122729721D01*
X121110377Y-122497640D01*
X121322008Y-122145473D01*
X121553748Y-121799068D01*
X121760197Y-121525762D01*
X121786207Y-121495199D01*
X122037148Y-121133295D01*
X122220379Y-120730531D01*
X122237442Y-120675892D01*
X122458542Y-120185955D01*
X122791862Y-119731000D01*
X123042160Y-119399497D01*
X123260459Y-119040318D01*
X123384441Y-118772307D01*
X123495018Y-118485498D01*
X123599236Y-118242801D01*
X123652111Y-118137307D01*
X123976072Y-117561250D01*
X124211419Y-117099469D01*
X124368002Y-116728478D01*
X124455673Y-116424790D01*
X124484283Y-116164918D01*
X124484340Y-116153085D01*
X124434036Y-115729209D01*
X124278115Y-115430388D01*
X124009065Y-115243659D01*
X123943237Y-115219353D01*
X123619552Y-115183852D01*
X123309714Y-115268952D01*
G36*
X118345681Y-90070414D02*
X118211515Y-90115789D01*
X118100780Y-90165464D01*
X118011526Y-90234843D01*
X117941799Y-90339333D01*
X117889648Y-90494339D01*
X117853119Y-90715266D01*
X117830261Y-91017519D01*
X117819121Y-91416504D01*
X117817746Y-91927625D01*
X117824185Y-92566290D01*
X117836485Y-93347902D01*
X117847731Y-93999566D01*
X117862057Y-94863550D01*
X117872073Y-95575038D01*
X117877435Y-96150820D01*
X117877798Y-96607690D01*
X117872818Y-96962436D01*
X117862150Y-97231851D01*
X117845448Y-97432726D01*
X117822370Y-97581851D01*
X117792570Y-97696018D01*
X117770615Y-97756488D01*
X117678678Y-98051130D01*
X117603833Y-98402150D01*
X117582690Y-98549800D01*
X117489153Y-99187505D01*
X117365263Y-99759016D01*
X117238611Y-100168520D01*
X117175760Y-100422796D01*
X117132234Y-100766055D01*
X117118340Y-101077077D01*
X117089537Y-101497714D01*
X117010674Y-102008378D01*
X116893073Y-102564891D01*
X116748054Y-103123075D01*
X116586938Y-103638755D01*
X116421046Y-104067751D01*
X116284227Y-104332049D01*
X116138991Y-104581979D01*
X116042177Y-104790290D01*
X116017673Y-104884710D01*
X115971398Y-105058208D01*
X115901703Y-105185634D01*
X115830875Y-105359264D01*
X115769053Y-105633260D01*
X115738823Y-105860640D01*
X115698566Y-106171308D01*
X115628849Y-106513139D01*
X115522010Y-106913173D01*
X115370388Y-107398452D01*
X115166319Y-107996016D01*
X115007139Y-108442973D01*
X114840720Y-108925160D01*
X114671375Y-109449640D01*
X114522717Y-109941709D01*
X114445155Y-110220973D01*
X114333510Y-110615119D01*
X114213577Y-110989140D01*
X114104799Y-111284058D01*
X114064571Y-111375449D01*
X113950138Y-111672205D01*
X113851903Y-112027842D01*
X113818957Y-112194559D01*
X113750695Y-112511579D01*
X113661052Y-112801092D01*
X113610152Y-112919712D01*
X113522986Y-113174843D01*
X113476211Y-113479146D01*
X113473957Y-113539935D01*
X113438115Y-113869868D01*
X113355117Y-114201872D01*
X113340358Y-114242640D01*
X113234218Y-114531521D01*
X113114961Y-114873160D01*
X113065374Y-115020822D01*
X112958053Y-115299792D01*
X112843276Y-115529621D01*
X112785505Y-115613488D01*
X112663258Y-115784947D01*
X112520939Y-116028031D01*
X112477726Y-116110971D01*
X112342659Y-116347024D01*
X112211027Y-116526848D01*
X112173285Y-116564380D01*
X112043676Y-116713734D01*
X111908869Y-116926912D01*
X111902063Y-116939716D01*
X111762721Y-117204783D01*
X111614652Y-117485988D01*
X111606050Y-117502307D01*
X111471310Y-117730548D01*
X111279736Y-118022942D01*
X111110101Y-118264307D01*
X110902122Y-118562187D01*
X110709065Y-118860018D01*
X110596615Y-119050784D01*
X110452637Y-119259800D01*
X110224232Y-119530596D01*
X109954275Y-119813291D01*
X109877723Y-119887175D01*
X109562615Y-120207652D01*
X109370321Y-120461941D01*
X109281534Y-120675912D01*
X109278779Y-120689608D01*
X109280890Y-121069471D01*
X109420731Y-121390020D01*
X109673831Y-121620606D01*
X110015723Y-121730582D01*
X110113887Y-121735640D01*
X110297868Y-121706987D01*
X110506728Y-121607748D01*
X110776486Y-121417996D01*
X110972613Y-121260621D01*
X111270673Y-120991511D01*
X111543761Y-120704601D01*
X111742152Y-120453072D01*
X111772253Y-120405366D01*
X111920218Y-120171969D01*
X112136073Y-119853702D01*
X112385407Y-119500633D01*
X112536787Y-119292884D01*
X112780084Y-118949751D01*
X112999075Y-118616347D01*
X113163639Y-118339764D01*
X113226210Y-118214963D01*
X113376251Y-117932578D01*
X113558232Y-117673819D01*
X113595596Y-117631100D01*
X113738526Y-117458589D01*
X113813201Y-117332763D01*
X113816340Y-117316543D01*
X113859680Y-117211628D01*
X113973270Y-117010194D01*
X114131520Y-116757406D01*
X114367568Y-116333770D01*
X114602297Y-115804814D01*
X114811403Y-115232982D01*
X114970582Y-114680720D01*
X115011401Y-114496640D01*
X115145325Y-113883259D01*
X115301411Y-113260052D01*
X115466333Y-112675209D01*
X115626761Y-112176920D01*
X115725582Y-111914307D01*
X115838910Y-111603279D01*
X115964431Y-111204218D01*
X116078083Y-110794494D01*
X116095911Y-110723600D01*
X116203710Y-110325251D01*
X116348573Y-109842136D01*
X116507885Y-109347956D01*
X116602486Y-109072600D01*
X116841874Y-108391722D01*
X117028157Y-107849737D01*
X117167317Y-107426844D01*
X117265333Y-107103246D01*
X117328186Y-106859143D01*
X117361854Y-106674735D01*
X117372318Y-106530224D01*
X117372340Y-106523675D01*
X117412636Y-106241849D01*
X117521773Y-105864185D01*
X117682121Y-105440439D01*
X117876051Y-105020364D01*
X117962201Y-104858914D01*
X118103521Y-104545129D01*
X118255387Y-104106099D01*
X118407335Y-103584602D01*
X118548899Y-103023419D01*
X118669615Y-102465329D01*
X118759018Y-101953112D01*
X118806644Y-101529546D01*
X118811673Y-101386304D01*
X118832617Y-101021612D01*
X118887465Y-100685849D01*
X118941846Y-100505988D01*
X119022639Y-100243191D01*
X119090124Y-99903433D01*
X119117676Y-99683207D01*
X119168417Y-99340820D01*
X119258362Y-98926813D01*
X119368429Y-98528551D01*
X119373011Y-98514088D01*
X119431895Y-98326017D01*
X119478231Y-98158269D01*
X119513131Y-97988734D01*
X119537707Y-97795301D01*
X119553071Y-97555862D01*
X119560334Y-97248305D01*
X119560609Y-96850521D01*
X119555007Y-96340399D01*
X119544641Y-95695830D01*
X119536932Y-95254421D01*
X119517040Y-94198353D01*
X119497030Y-93299850D01*
X119476317Y-92547146D01*
X119454317Y-91928473D01*
X119430445Y-91432065D01*
X119404117Y-91046154D01*
X119374748Y-90758974D01*
X119341756Y-90558757D01*
X119304554Y-90433736D01*
X119296725Y-90417047D01*
X119093605Y-90189823D01*
X118797229Y-90057446D01*
X118467045Y-90041584D01*
X118345681Y-90070414D01*
X118345681Y-90070414D01*
G37*
X118345681Y-90070414D02*
X118211515Y-90115789D01*
X118100780Y-90165464D01*
X118011526Y-90234843D01*
X117941799Y-90339333D01*
X117889648Y-90494339D01*
X117853119Y-90715266D01*
X117830261Y-91017519D01*
X117819121Y-91416504D01*
X117817746Y-91927625D01*
X117824185Y-92566290D01*
X117836485Y-93347902D01*
X117847731Y-93999566D01*
X117862057Y-94863550D01*
X117872073Y-95575038D01*
X117877435Y-96150820D01*
X117877798Y-96607690D01*
X117872818Y-96962436D01*
X117862150Y-97231851D01*
X117845448Y-97432726D01*
X117822370Y-97581851D01*
X117792570Y-97696018D01*
X117770615Y-97756488D01*
X117678678Y-98051130D01*
X117603833Y-98402150D01*
X117582690Y-98549800D01*
X117489153Y-99187505D01*
X117365263Y-99759016D01*
X117238611Y-100168520D01*
X117175760Y-100422796D01*
X117132234Y-100766055D01*
X117118340Y-101077077D01*
X117089537Y-101497714D01*
X117010674Y-102008378D01*
X116893073Y-102564891D01*
X116748054Y-103123075D01*
X116586938Y-103638755D01*
X116421046Y-104067751D01*
X116284227Y-104332049D01*
X116138991Y-104581979D01*
X116042177Y-104790290D01*
X116017673Y-104884710D01*
X115971398Y-105058208D01*
X115901703Y-105185634D01*
X115830875Y-105359264D01*
X115769053Y-105633260D01*
X115738823Y-105860640D01*
X115698566Y-106171308D01*
X115628849Y-106513139D01*
X115522010Y-106913173D01*
X115370388Y-107398452D01*
X115166319Y-107996016D01*
X115007139Y-108442973D01*
X114840720Y-108925160D01*
X114671375Y-109449640D01*
X114522717Y-109941709D01*
X114445155Y-110220973D01*
X114333510Y-110615119D01*
X114213577Y-110989140D01*
X114104799Y-111284058D01*
X114064571Y-111375449D01*
X113950138Y-111672205D01*
X113851903Y-112027842D01*
X113818957Y-112194559D01*
X113750695Y-112511579D01*
X113661052Y-112801092D01*
X113610152Y-112919712D01*
X113522986Y-113174843D01*
X113476211Y-113479146D01*
X113473957Y-113539935D01*
X113438115Y-113869868D01*
X113355117Y-114201872D01*
X113340358Y-114242640D01*
X113234218Y-114531521D01*
X113114961Y-114873160D01*
X113065374Y-115020822D01*
X112958053Y-115299792D01*
X112843276Y-115529621D01*
X112785505Y-115613488D01*
X112663258Y-115784947D01*
X112520939Y-116028031D01*
X112477726Y-116110971D01*
X112342659Y-116347024D01*
X112211027Y-116526848D01*
X112173285Y-116564380D01*
X112043676Y-116713734D01*
X111908869Y-116926912D01*
X111902063Y-116939716D01*
X111762721Y-117204783D01*
X111614652Y-117485988D01*
X111606050Y-117502307D01*
X111471310Y-117730548D01*
X111279736Y-118022942D01*
X111110101Y-118264307D01*
X110902122Y-118562187D01*
X110709065Y-118860018D01*
X110596615Y-119050784D01*
X110452637Y-119259800D01*
X110224232Y-119530596D01*
X109954275Y-119813291D01*
X109877723Y-119887175D01*
X109562615Y-120207652D01*
X109370321Y-120461941D01*
X109281534Y-120675912D01*
X109278779Y-120689608D01*
X109280890Y-121069471D01*
X109420731Y-121390020D01*
X109673831Y-121620606D01*
X110015723Y-121730582D01*
X110113887Y-121735640D01*
X110297868Y-121706987D01*
X110506728Y-121607748D01*
X110776486Y-121417996D01*
X110972613Y-121260621D01*
X111270673Y-120991511D01*
X111543761Y-120704601D01*
X111742152Y-120453072D01*
X111772253Y-120405366D01*
X111920218Y-120171969D01*
X112136073Y-119853702D01*
X112385407Y-119500633D01*
X112536787Y-119292884D01*
X112780084Y-118949751D01*
X112999075Y-118616347D01*
X113163639Y-118339764D01*
X113226210Y-118214963D01*
X113376251Y-117932578D01*
X113558232Y-117673819D01*
X113595596Y-117631100D01*
X113738526Y-117458589D01*
X113813201Y-117332763D01*
X113816340Y-117316543D01*
X113859680Y-117211628D01*
X113973270Y-117010194D01*
X114131520Y-116757406D01*
X114367568Y-116333770D01*
X114602297Y-115804814D01*
X114811403Y-115232982D01*
X114970582Y-114680720D01*
X115011401Y-114496640D01*
X115145325Y-113883259D01*
X115301411Y-113260052D01*
X115466333Y-112675209D01*
X115626761Y-112176920D01*
X115725582Y-111914307D01*
X115838910Y-111603279D01*
X115964431Y-111204218D01*
X116078083Y-110794494D01*
X116095911Y-110723600D01*
X116203710Y-110325251D01*
X116348573Y-109842136D01*
X116507885Y-109347956D01*
X116602486Y-109072600D01*
X116841874Y-108391722D01*
X117028157Y-107849737D01*
X117167317Y-107426844D01*
X117265333Y-107103246D01*
X117328186Y-106859143D01*
X117361854Y-106674735D01*
X117372318Y-106530224D01*
X117372340Y-106523675D01*
X117412636Y-106241849D01*
X117521773Y-105864185D01*
X117682121Y-105440439D01*
X117876051Y-105020364D01*
X117962201Y-104858914D01*
X118103521Y-104545129D01*
X118255387Y-104106099D01*
X118407335Y-103584602D01*
X118548899Y-103023419D01*
X118669615Y-102465329D01*
X118759018Y-101953112D01*
X118806644Y-101529546D01*
X118811673Y-101386304D01*
X118832617Y-101021612D01*
X118887465Y-100685849D01*
X118941846Y-100505988D01*
X119022639Y-100243191D01*
X119090124Y-99903433D01*
X119117676Y-99683207D01*
X119168417Y-99340820D01*
X119258362Y-98926813D01*
X119368429Y-98528551D01*
X119373011Y-98514088D01*
X119431895Y-98326017D01*
X119478231Y-98158269D01*
X119513131Y-97988734D01*
X119537707Y-97795301D01*
X119553071Y-97555862D01*
X119560334Y-97248305D01*
X119560609Y-96850521D01*
X119555007Y-96340399D01*
X119544641Y-95695830D01*
X119536932Y-95254421D01*
X119517040Y-94198353D01*
X119497030Y-93299850D01*
X119476317Y-92547146D01*
X119454317Y-91928473D01*
X119430445Y-91432065D01*
X119404117Y-91046154D01*
X119374748Y-90758974D01*
X119341756Y-90558757D01*
X119304554Y-90433736D01*
X119296725Y-90417047D01*
X119093605Y-90189823D01*
X118797229Y-90057446D01*
X118467045Y-90041584D01*
X118345681Y-90070414D01*
G36*
X128986807Y-83409716D02*
X128726040Y-83643795D01*
X128642916Y-83778240D01*
X128568032Y-84050991D01*
X128544112Y-84453364D01*
X128569207Y-84954131D01*
X128641363Y-85522061D01*
X128758632Y-86125924D01*
X128800634Y-86302640D01*
X129052461Y-87318640D01*
X129052930Y-90705307D01*
X129051742Y-91618403D01*
X129047549Y-92378920D01*
X129039827Y-93003596D01*
X129028049Y-93509165D01*
X129011690Y-93912364D01*
X128990223Y-94229930D01*
X128963122Y-94478599D01*
X128929861Y-94675108D01*
X128927870Y-94684608D01*
X128873366Y-95037408D01*
X128831303Y-95495663D01*
X128806674Y-95995658D01*
X128802340Y-96287268D01*
X128800195Y-96652052D01*
X128789340Y-96954872D01*
X128763144Y-97228940D01*
X128714973Y-97507466D01*
X128638197Y-97823664D01*
X128526184Y-98210744D01*
X128372302Y-98701918D01*
X128234773Y-99129640D01*
X128125393Y-99479285D01*
X128028935Y-99806639D01*
X127964817Y-100045599D01*
X127961189Y-100060973D01*
X127879859Y-100365669D01*
X127765968Y-100733702D01*
X127636221Y-101117099D01*
X127507324Y-101467885D01*
X127395982Y-101738086D01*
X127336348Y-101855346D01*
X127185647Y-102188490D01*
X127093858Y-102574486D01*
X127073476Y-102941755D01*
X127109751Y-103153562D01*
X127286736Y-103457096D01*
X127553560Y-103643814D01*
X127869359Y-103704557D01*
X128193267Y-103630166D01*
X128445395Y-103452893D01*
X128636174Y-103207549D01*
X128798246Y-102910118D01*
X128826732Y-102839059D01*
X129128434Y-101988299D01*
X129417864Y-101134504D01*
X129674816Y-100338156D01*
X129811383Y-99891640D01*
X130009146Y-99226210D01*
X130164495Y-98695432D01*
X130282902Y-98271538D01*
X130369837Y-97926758D01*
X130430769Y-97633323D01*
X130471168Y-97363463D01*
X130496506Y-97089408D01*
X130512250Y-96783390D01*
X130523872Y-96417638D01*
X130528520Y-96250973D01*
X130547295Y-95771380D01*
X130574437Y-95329326D01*
X130606891Y-94962914D01*
X130641601Y-94710246D01*
X130657436Y-94642865D01*
X130683580Y-94468081D01*
X130705470Y-94126692D01*
X130723044Y-93621374D01*
X130736239Y-92954804D01*
X130744993Y-92129658D01*
X130749245Y-91148612D01*
X130749673Y-90676939D01*
X130749673Y-87006787D01*
X130495673Y-85992671D01*
X130391814Y-85534417D01*
X130308898Y-85084817D01*
X130256089Y-84698766D01*
X130241673Y-84470864D01*
X130226158Y-84162760D01*
X130186127Y-83900078D01*
X130147097Y-83778240D01*
X129919205Y-83490383D01*
X129623271Y-83333010D01*
X129299178Y-83306121D01*
X128986807Y-83409716D01*
X128986807Y-83409716D01*
G37*
X128986807Y-83409716D02*
X128726040Y-83643795D01*
X128642916Y-83778240D01*
X128568032Y-84050991D01*
X128544112Y-84453364D01*
X128569207Y-84954131D01*
X128641363Y-85522061D01*
X128758632Y-86125924D01*
X128800634Y-86302640D01*
X129052461Y-87318640D01*
X129052930Y-90705307D01*
X129051742Y-91618403D01*
X129047549Y-92378920D01*
X129039827Y-93003596D01*
X129028049Y-93509165D01*
X129011690Y-93912364D01*
X128990223Y-94229930D01*
X128963122Y-94478599D01*
X128929861Y-94675108D01*
X128927870Y-94684608D01*
X128873366Y-95037408D01*
X128831303Y-95495663D01*
X128806674Y-95995658D01*
X128802340Y-96287268D01*
X128800195Y-96652052D01*
X128789340Y-96954872D01*
X128763144Y-97228940D01*
X128714973Y-97507466D01*
X128638197Y-97823664D01*
X128526184Y-98210744D01*
X128372302Y-98701918D01*
X128234773Y-99129640D01*
X128125393Y-99479285D01*
X128028935Y-99806639D01*
X127964817Y-100045599D01*
X127961189Y-100060973D01*
X127879859Y-100365669D01*
X127765968Y-100733702D01*
X127636221Y-101117099D01*
X127507324Y-101467885D01*
X127395982Y-101738086D01*
X127336348Y-101855346D01*
X127185647Y-102188490D01*
X127093858Y-102574486D01*
X127073476Y-102941755D01*
X127109751Y-103153562D01*
X127286736Y-103457096D01*
X127553560Y-103643814D01*
X127869359Y-103704557D01*
X128193267Y-103630166D01*
X128445395Y-103452893D01*
X128636174Y-103207549D01*
X128798246Y-102910118D01*
X128826732Y-102839059D01*
X129128434Y-101988299D01*
X129417864Y-101134504D01*
X129674816Y-100338156D01*
X129811383Y-99891640D01*
X130009146Y-99226210D01*
X130164495Y-98695432D01*
X130282902Y-98271538D01*
X130369837Y-97926758D01*
X130430769Y-97633323D01*
X130471168Y-97363463D01*
X130496506Y-97089408D01*
X130512250Y-96783390D01*
X130523872Y-96417638D01*
X130528520Y-96250973D01*
X130547295Y-95771380D01*
X130574437Y-95329326D01*
X130606891Y-94962914D01*
X130641601Y-94710246D01*
X130657436Y-94642865D01*
X130683580Y-94468081D01*
X130705470Y-94126692D01*
X130723044Y-93621374D01*
X130736239Y-92954804D01*
X130744993Y-92129658D01*
X130749245Y-91148612D01*
X130749673Y-90676939D01*
X130749673Y-87006787D01*
X130495673Y-85992671D01*
X130391814Y-85534417D01*
X130308898Y-85084817D01*
X130256089Y-84698766D01*
X130241673Y-84470864D01*
X130226158Y-84162760D01*
X130186127Y-83900078D01*
X130147097Y-83778240D01*
X129919205Y-83490383D01*
X129623271Y-83333010D01*
X129299178Y-83306121D01*
X128986807Y-83409716D01*
G36*
X76796298Y-115268952D02*
X77049542Y-115448835D01*
X77203441Y-115697683D01*
X77230339Y-115864103D01*
X77270184Y-115994488D01*
X77378015Y-116234144D01*
X77536276Y-116546206D01*
X77685355Y-116819582D01*
X77885850Y-117189903D01*
X78064093Y-117543588D01*
X78196452Y-117832438D01*
X78248426Y-117967973D01*
X78367946Y-118225562D01*
X78557426Y-118519444D01*
X78691229Y-118687640D01*
X79014787Y-119116767D01*
X79291570Y-119596780D01*
X79474464Y-120042307D01*
X79571699Y-120241307D01*
X79733260Y-120473783D01*
X79782393Y-120532805D01*
X79950476Y-120759337D01*
X80142181Y-121067059D01*
X80288953Y-121337138D01*
X80464511Y-121659605D01*
X80678216Y-122011230D01*
X80905380Y-122355860D01*
X81121317Y-122657337D01*
X81301339Y-122879508D01*
X81411704Y-122981455D01*
X81505402Y-123081731D01*
X81664262Y-123298016D01*
X81868632Y-123599756D01*
X82098861Y-123956395D01*
X82335298Y-124337379D01*
X82558292Y-124712155D01*
X82748191Y-125050169D01*
X82777447Y-125104948D01*
X82981118Y-125471276D01*
X83192105Y-125804224D01*
X83435372Y-126136582D01*
X83735885Y-126501142D01*
X84118610Y-126930697D01*
X84396447Y-127231504D01*
X84678889Y-127537125D01*
X84961233Y-127846796D01*
X85191580Y-128103504D01*
X85232395Y-128149800D01*
X85485823Y-128390726D01*
X85774745Y-128598014D01*
X85911879Y-128671002D01*
X86228732Y-128858577D01*
X86402443Y-129094226D01*
X86458790Y-129414197D01*
X86459006Y-129440307D01*
X86400975Y-129791083D01*
X86215021Y-130043569D01*
X86037367Y-130159097D01*
X85626506Y-130280438D01*
X85191946Y-130240789D01*
X84761082Y-130045432D01*
X84584499Y-129904999D01*
X84321215Y-129661083D01*
X83995006Y-129338531D01*
X83629646Y-128962190D01*
X83248910Y-128556909D01*
X82876574Y-128147534D01*
X82536414Y-127758913D01*
X82289321Y-127462207D01*
X81914507Y-126963102D01*
X81548619Y-126415793D01*
X81257075Y-125921098D01*
X80965352Y-125401968D01*
X80687929Y-124962513D01*
X80375530Y-124525467D01*
X80320672Y-124452792D01*
X79926740Y-123926519D01*
X79614651Y-123490370D01*
X79357514Y-123104665D01*
X79128434Y-122729721D01*
X78995635Y-122497640D01*
X78784004Y-122145473D01*
X78552264Y-121799068D01*
X78345815Y-121525762D01*
X78319805Y-121495199D01*
X78068864Y-121133295D01*
X77885633Y-120730531D01*
X77868570Y-120675892D01*
X77647470Y-120185955D01*
X77314150Y-119731000D01*
X77063852Y-119399497D01*
X76845553Y-119040318D01*
X76721571Y-118772307D01*
X76610994Y-118485498D01*
X76506776Y-118242801D01*
X76453901Y-118137307D01*
X76129940Y-117561250D01*
X75894593Y-117099469D01*
X75738010Y-116728478D01*
X75650339Y-116424790D01*
X75621729Y-116164918D01*
X75621672Y-116153085D01*
X75671976Y-115729209D01*
X75827897Y-115430388D01*
X76096947Y-115243659D01*
X76162775Y-115219353D01*
X76486460Y-115183852D01*
X76796298Y-115268952D01*
X76796298Y-115268952D01*
G37*
X76796298Y-115268952D02*
X77049542Y-115448835D01*
X77203441Y-115697683D01*
X77230339Y-115864103D01*
X77270184Y-115994488D01*
X77378015Y-116234144D01*
X77536276Y-116546206D01*
X77685355Y-116819582D01*
X77885850Y-117189903D01*
X78064093Y-117543588D01*
X78196452Y-117832438D01*
X78248426Y-117967973D01*
X78367946Y-118225562D01*
X78557426Y-118519444D01*
X78691229Y-118687640D01*
X79014787Y-119116767D01*
X79291570Y-119596780D01*
X79474464Y-120042307D01*
X79571699Y-120241307D01*
X79733260Y-120473783D01*
X79782393Y-120532805D01*
X79950476Y-120759337D01*
X80142181Y-121067059D01*
X80288953Y-121337138D01*
X80464511Y-121659605D01*
X80678216Y-122011230D01*
X80905380Y-122355860D01*
X81121317Y-122657337D01*
X81301339Y-122879508D01*
X81411704Y-122981455D01*
X81505402Y-123081731D01*
X81664262Y-123298016D01*
X81868632Y-123599756D01*
X82098861Y-123956395D01*
X82335298Y-124337379D01*
X82558292Y-124712155D01*
X82748191Y-125050169D01*
X82777447Y-125104948D01*
X82981118Y-125471276D01*
X83192105Y-125804224D01*
X83435372Y-126136582D01*
X83735885Y-126501142D01*
X84118610Y-126930697D01*
X84396447Y-127231504D01*
X84678889Y-127537125D01*
X84961233Y-127846796D01*
X85191580Y-128103504D01*
X85232395Y-128149800D01*
X85485823Y-128390726D01*
X85774745Y-128598014D01*
X85911879Y-128671002D01*
X86228732Y-128858577D01*
X86402443Y-129094226D01*
X86458790Y-129414197D01*
X86459006Y-129440307D01*
X86400975Y-129791083D01*
X86215021Y-130043569D01*
X86037367Y-130159097D01*
X85626506Y-130280438D01*
X85191946Y-130240789D01*
X84761082Y-130045432D01*
X84584499Y-129904999D01*
X84321215Y-129661083D01*
X83995006Y-129338531D01*
X83629646Y-128962190D01*
X83248910Y-128556909D01*
X82876574Y-128147534D01*
X82536414Y-127758913D01*
X82289321Y-127462207D01*
X81914507Y-126963102D01*
X81548619Y-126415793D01*
X81257075Y-125921098D01*
X80965352Y-125401968D01*
X80687929Y-124962513D01*
X80375530Y-124525467D01*
X80320672Y-124452792D01*
X79926740Y-123926519D01*
X79614651Y-123490370D01*
X79357514Y-123104665D01*
X79128434Y-122729721D01*
X78995635Y-122497640D01*
X78784004Y-122145473D01*
X78552264Y-121799068D01*
X78345815Y-121525762D01*
X78319805Y-121495199D01*
X78068864Y-121133295D01*
X77885633Y-120730531D01*
X77868570Y-120675892D01*
X77647470Y-120185955D01*
X77314150Y-119731000D01*
X77063852Y-119399497D01*
X76845553Y-119040318D01*
X76721571Y-118772307D01*
X76610994Y-118485498D01*
X76506776Y-118242801D01*
X76453901Y-118137307D01*
X76129940Y-117561250D01*
X75894593Y-117099469D01*
X75738010Y-116728478D01*
X75650339Y-116424790D01*
X75621729Y-116164918D01*
X75621672Y-116153085D01*
X75671976Y-115729209D01*
X75827897Y-115430388D01*
X76096947Y-115243659D01*
X76162775Y-115219353D01*
X76486460Y-115183852D01*
X76796298Y-115268952D01*
G36*
X81760331Y-90070414D02*
X81894497Y-90115789D01*
X82005232Y-90165464D01*
X82094486Y-90234843D01*
X82164213Y-90339333D01*
X82216364Y-90494339D01*
X82252893Y-90715266D01*
X82275751Y-91017519D01*
X82286891Y-91416504D01*
X82288266Y-91927625D01*
X82281827Y-92566290D01*
X82269527Y-93347902D01*
X82258281Y-93999566D01*
X82243955Y-94863550D01*
X82233939Y-95575038D01*
X82228577Y-96150820D01*
X82228214Y-96607690D01*
X82233194Y-96962436D01*
X82243862Y-97231851D01*
X82260564Y-97432726D01*
X82283642Y-97581851D01*
X82313442Y-97696018D01*
X82335397Y-97756488D01*
X82427334Y-98051130D01*
X82502179Y-98402150D01*
X82523322Y-98549800D01*
X82616859Y-99187505D01*
X82740749Y-99759016D01*
X82867401Y-100168520D01*
X82930252Y-100422796D01*
X82973778Y-100766055D01*
X82987672Y-101077077D01*
X83016475Y-101497714D01*
X83095338Y-102008378D01*
X83212939Y-102564891D01*
X83357958Y-103123075D01*
X83519074Y-103638755D01*
X83684966Y-104067751D01*
X83821785Y-104332049D01*
X83967021Y-104581979D01*
X84063835Y-104790290D01*
X84088339Y-104884710D01*
X84134614Y-105058208D01*
X84204309Y-105185634D01*
X84275137Y-105359264D01*
X84336959Y-105633260D01*
X84367189Y-105860640D01*
X84407446Y-106171308D01*
X84477163Y-106513139D01*
X84584002Y-106913173D01*
X84735624Y-107398452D01*
X84939693Y-107996016D01*
X85098873Y-108442973D01*
X85265292Y-108925160D01*
X85434637Y-109449640D01*
X85583295Y-109941709D01*
X85660857Y-110220973D01*
X85772502Y-110615119D01*
X85892435Y-110989140D01*
X86001213Y-111284058D01*
X86041441Y-111375449D01*
X86155874Y-111672205D01*
X86254109Y-112027842D01*
X86287055Y-112194559D01*
X86355317Y-112511579D01*
X86444960Y-112801092D01*
X86495860Y-112919712D01*
X86583026Y-113174843D01*
X86629801Y-113479146D01*
X86632055Y-113539935D01*
X86667897Y-113869868D01*
X86750895Y-114201872D01*
X86765654Y-114242640D01*
X86871794Y-114531521D01*
X86991051Y-114873160D01*
X87040638Y-115020822D01*
X87147959Y-115299792D01*
X87262736Y-115529621D01*
X87320507Y-115613488D01*
X87442754Y-115784947D01*
X87585073Y-116028031D01*
X87628286Y-116110971D01*
X87763353Y-116347024D01*
X87894985Y-116526848D01*
X87932727Y-116564380D01*
X88062336Y-116713734D01*
X88197143Y-116926912D01*
X88203949Y-116939716D01*
X88343291Y-117204783D01*
X88491360Y-117485988D01*
X88499962Y-117502307D01*
X88634702Y-117730548D01*
X88826276Y-118022942D01*
X88995911Y-118264307D01*
X89203890Y-118562187D01*
X89396947Y-118860018D01*
X89509397Y-119050784D01*
X89653375Y-119259800D01*
X89881780Y-119530596D01*
X90151737Y-119813291D01*
X90228289Y-119887175D01*
X90543397Y-120207652D01*
X90735691Y-120461941D01*
X90824478Y-120675912D01*
X90827233Y-120689608D01*
X90825122Y-121069471D01*
X90685281Y-121390020D01*
X90432181Y-121620606D01*
X90090289Y-121730582D01*
X89992125Y-121735640D01*
X89808144Y-121706987D01*
X89599284Y-121607748D01*
X89329526Y-121417996D01*
X89133399Y-121260621D01*
X88835339Y-120991511D01*
X88562251Y-120704601D01*
X88363860Y-120453072D01*
X88333759Y-120405366D01*
X88185794Y-120171969D01*
X87969939Y-119853702D01*
X87720605Y-119500633D01*
X87569225Y-119292884D01*
X87325928Y-118949751D01*
X87106937Y-118616347D01*
X86942373Y-118339764D01*
X86879802Y-118214963D01*
X86729761Y-117932578D01*
X86547780Y-117673819D01*
X86510416Y-117631100D01*
X86367486Y-117458589D01*
X86292811Y-117332763D01*
X86289672Y-117316543D01*
X86246332Y-117211628D01*
X86132742Y-117010194D01*
X85974492Y-116757406D01*
X85738444Y-116333770D01*
X85503715Y-115804814D01*
X85294609Y-115232982D01*
X85135430Y-114680720D01*
X85094611Y-114496640D01*
X84960687Y-113883259D01*
X84804601Y-113260052D01*
X84639679Y-112675209D01*
X84479251Y-112176920D01*
X84380430Y-111914307D01*
X84267102Y-111603279D01*
X84141581Y-111204218D01*
X84027929Y-110794494D01*
X84010101Y-110723600D01*
X83902302Y-110325251D01*
X83757439Y-109842136D01*
X83598127Y-109347956D01*
X83503526Y-109072600D01*
X83264138Y-108391722D01*
X83077855Y-107849737D01*
X82938695Y-107426844D01*
X82840679Y-107103246D01*
X82777826Y-106859143D01*
X82744158Y-106674735D01*
X82733694Y-106530224D01*
X82733672Y-106523675D01*
X82693376Y-106241849D01*
X82584239Y-105864185D01*
X82423891Y-105440439D01*
X82229961Y-105020364D01*
X82143811Y-104858914D01*
X82002491Y-104545129D01*
X81850625Y-104106099D01*
X81698677Y-103584602D01*
X81557113Y-103023419D01*
X81436397Y-102465329D01*
X81346994Y-101953112D01*
X81299368Y-101529546D01*
X81294339Y-101386304D01*
X81273395Y-101021612D01*
X81218547Y-100685849D01*
X81164166Y-100505988D01*
X81083373Y-100243191D01*
X81015888Y-99903433D01*
X80988336Y-99683207D01*
X80937595Y-99340820D01*
X80847650Y-98926813D01*
X80737583Y-98528551D01*
X80733001Y-98514088D01*
X80674117Y-98326017D01*
X80627781Y-98158269D01*
X80592881Y-97988734D01*
X80568305Y-97795301D01*
X80552941Y-97555862D01*
X80545678Y-97248305D01*
X80545403Y-96850521D01*
X80551005Y-96340399D01*
X80561371Y-95695830D01*
X80569080Y-95254421D01*
X80588972Y-94198353D01*
X80608982Y-93299850D01*
X80629695Y-92547146D01*
X80651695Y-91928473D01*
X80675567Y-91432065D01*
X80701895Y-91046154D01*
X80731264Y-90758974D01*
X80764256Y-90558757D01*
X80801458Y-90433736D01*
X80809287Y-90417047D01*
X81012407Y-90189823D01*
X81308783Y-90057446D01*
X81638967Y-90041584D01*
X81760331Y-90070414D01*
X81760331Y-90070414D01*
G37*
X81760331Y-90070414D02*
X81894497Y-90115789D01*
X82005232Y-90165464D01*
X82094486Y-90234843D01*
X82164213Y-90339333D01*
X82216364Y-90494339D01*
X82252893Y-90715266D01*
X82275751Y-91017519D01*
X82286891Y-91416504D01*
X82288266Y-91927625D01*
X82281827Y-92566290D01*
X82269527Y-93347902D01*
X82258281Y-93999566D01*
X82243955Y-94863550D01*
X82233939Y-95575038D01*
X82228577Y-96150820D01*
X82228214Y-96607690D01*
X82233194Y-96962436D01*
X82243862Y-97231851D01*
X82260564Y-97432726D01*
X82283642Y-97581851D01*
X82313442Y-97696018D01*
X82335397Y-97756488D01*
X82427334Y-98051130D01*
X82502179Y-98402150D01*
X82523322Y-98549800D01*
X82616859Y-99187505D01*
X82740749Y-99759016D01*
X82867401Y-100168520D01*
X82930252Y-100422796D01*
X82973778Y-100766055D01*
X82987672Y-101077077D01*
X83016475Y-101497714D01*
X83095338Y-102008378D01*
X83212939Y-102564891D01*
X83357958Y-103123075D01*
X83519074Y-103638755D01*
X83684966Y-104067751D01*
X83821785Y-104332049D01*
X83967021Y-104581979D01*
X84063835Y-104790290D01*
X84088339Y-104884710D01*
X84134614Y-105058208D01*
X84204309Y-105185634D01*
X84275137Y-105359264D01*
X84336959Y-105633260D01*
X84367189Y-105860640D01*
X84407446Y-106171308D01*
X84477163Y-106513139D01*
X84584002Y-106913173D01*
X84735624Y-107398452D01*
X84939693Y-107996016D01*
X85098873Y-108442973D01*
X85265292Y-108925160D01*
X85434637Y-109449640D01*
X85583295Y-109941709D01*
X85660857Y-110220973D01*
X85772502Y-110615119D01*
X85892435Y-110989140D01*
X86001213Y-111284058D01*
X86041441Y-111375449D01*
X86155874Y-111672205D01*
X86254109Y-112027842D01*
X86287055Y-112194559D01*
X86355317Y-112511579D01*
X86444960Y-112801092D01*
X86495860Y-112919712D01*
X86583026Y-113174843D01*
X86629801Y-113479146D01*
X86632055Y-113539935D01*
X86667897Y-113869868D01*
X86750895Y-114201872D01*
X86765654Y-114242640D01*
X86871794Y-114531521D01*
X86991051Y-114873160D01*
X87040638Y-115020822D01*
X87147959Y-115299792D01*
X87262736Y-115529621D01*
X87320507Y-115613488D01*
X87442754Y-115784947D01*
X87585073Y-116028031D01*
X87628286Y-116110971D01*
X87763353Y-116347024D01*
X87894985Y-116526848D01*
X87932727Y-116564380D01*
X88062336Y-116713734D01*
X88197143Y-116926912D01*
X88203949Y-116939716D01*
X88343291Y-117204783D01*
X88491360Y-117485988D01*
X88499962Y-117502307D01*
X88634702Y-117730548D01*
X88826276Y-118022942D01*
X88995911Y-118264307D01*
X89203890Y-118562187D01*
X89396947Y-118860018D01*
X89509397Y-119050784D01*
X89653375Y-119259800D01*
X89881780Y-119530596D01*
X90151737Y-119813291D01*
X90228289Y-119887175D01*
X90543397Y-120207652D01*
X90735691Y-120461941D01*
X90824478Y-120675912D01*
X90827233Y-120689608D01*
X90825122Y-121069471D01*
X90685281Y-121390020D01*
X90432181Y-121620606D01*
X90090289Y-121730582D01*
X89992125Y-121735640D01*
X89808144Y-121706987D01*
X89599284Y-121607748D01*
X89329526Y-121417996D01*
X89133399Y-121260621D01*
X88835339Y-120991511D01*
X88562251Y-120704601D01*
X88363860Y-120453072D01*
X88333759Y-120405366D01*
X88185794Y-120171969D01*
X87969939Y-119853702D01*
X87720605Y-119500633D01*
X87569225Y-119292884D01*
X87325928Y-118949751D01*
X87106937Y-118616347D01*
X86942373Y-118339764D01*
X86879802Y-118214963D01*
X86729761Y-117932578D01*
X86547780Y-117673819D01*
X86510416Y-117631100D01*
X86367486Y-117458589D01*
X86292811Y-117332763D01*
X86289672Y-117316543D01*
X86246332Y-117211628D01*
X86132742Y-117010194D01*
X85974492Y-116757406D01*
X85738444Y-116333770D01*
X85503715Y-115804814D01*
X85294609Y-115232982D01*
X85135430Y-114680720D01*
X85094611Y-114496640D01*
X84960687Y-113883259D01*
X84804601Y-113260052D01*
X84639679Y-112675209D01*
X84479251Y-112176920D01*
X84380430Y-111914307D01*
X84267102Y-111603279D01*
X84141581Y-111204218D01*
X84027929Y-110794494D01*
X84010101Y-110723600D01*
X83902302Y-110325251D01*
X83757439Y-109842136D01*
X83598127Y-109347956D01*
X83503526Y-109072600D01*
X83264138Y-108391722D01*
X83077855Y-107849737D01*
X82938695Y-107426844D01*
X82840679Y-107103246D01*
X82777826Y-106859143D01*
X82744158Y-106674735D01*
X82733694Y-106530224D01*
X82733672Y-106523675D01*
X82693376Y-106241849D01*
X82584239Y-105864185D01*
X82423891Y-105440439D01*
X82229961Y-105020364D01*
X82143811Y-104858914D01*
X82002491Y-104545129D01*
X81850625Y-104106099D01*
X81698677Y-103584602D01*
X81557113Y-103023419D01*
X81436397Y-102465329D01*
X81346994Y-101953112D01*
X81299368Y-101529546D01*
X81294339Y-101386304D01*
X81273395Y-101021612D01*
X81218547Y-100685849D01*
X81164166Y-100505988D01*
X81083373Y-100243191D01*
X81015888Y-99903433D01*
X80988336Y-99683207D01*
X80937595Y-99340820D01*
X80847650Y-98926813D01*
X80737583Y-98528551D01*
X80733001Y-98514088D01*
X80674117Y-98326017D01*
X80627781Y-98158269D01*
X80592881Y-97988734D01*
X80568305Y-97795301D01*
X80552941Y-97555862D01*
X80545678Y-97248305D01*
X80545403Y-96850521D01*
X80551005Y-96340399D01*
X80561371Y-95695830D01*
X80569080Y-95254421D01*
X80588972Y-94198353D01*
X80608982Y-93299850D01*
X80629695Y-92547146D01*
X80651695Y-91928473D01*
X80675567Y-91432065D01*
X80701895Y-91046154D01*
X80731264Y-90758974D01*
X80764256Y-90558757D01*
X80801458Y-90433736D01*
X80809287Y-90417047D01*
X81012407Y-90189823D01*
X81308783Y-90057446D01*
X81638967Y-90041584D01*
X81760331Y-90070414D01*
G36*
X71119205Y-83409716D02*
X71379972Y-83643795D01*
X71463096Y-83778240D01*
X71537980Y-84050991D01*
X71561900Y-84453364D01*
X71536805Y-84954131D01*
X71464649Y-85522061D01*
X71347380Y-86125924D01*
X71305378Y-86302640D01*
X71053551Y-87318640D01*
X71053082Y-90705307D01*
X71054270Y-91618403D01*
X71058463Y-92378920D01*
X71066185Y-93003596D01*
X71077963Y-93509165D01*
X71094322Y-93912364D01*
X71115789Y-94229930D01*
X71142890Y-94478599D01*
X71176151Y-94675108D01*
X71178142Y-94684608D01*
X71232646Y-95037408D01*
X71274709Y-95495663D01*
X71299338Y-95995658D01*
X71303672Y-96287268D01*
X71305817Y-96652052D01*
X71316672Y-96954872D01*
X71342868Y-97228940D01*
X71391039Y-97507466D01*
X71467815Y-97823664D01*
X71579828Y-98210744D01*
X71733710Y-98701918D01*
X71871239Y-99129640D01*
X71980619Y-99479285D01*
X72077077Y-99806639D01*
X72141195Y-100045599D01*
X72144823Y-100060973D01*
X72226153Y-100365669D01*
X72340044Y-100733702D01*
X72469791Y-101117099D01*
X72598688Y-101467885D01*
X72710030Y-101738086D01*
X72769664Y-101855346D01*
X72920365Y-102188490D01*
X73012154Y-102574486D01*
X73032536Y-102941755D01*
X72996261Y-103153562D01*
X72819276Y-103457096D01*
X72552452Y-103643814D01*
X72236653Y-103704557D01*
X71912745Y-103630166D01*
X71660617Y-103452893D01*
X71469838Y-103207549D01*
X71307766Y-102910118D01*
X71279280Y-102839059D01*
X70977578Y-101988299D01*
X70688148Y-101134504D01*
X70431196Y-100338156D01*
X70294629Y-99891640D01*
X70096866Y-99226210D01*
X69941517Y-98695432D01*
X69823110Y-98271538D01*
X69736175Y-97926758D01*
X69675243Y-97633323D01*
X69634844Y-97363463D01*
X69609506Y-97089408D01*
X69593762Y-96783390D01*
X69582140Y-96417638D01*
X69577492Y-96250973D01*
X69558717Y-95771380D01*
X69531575Y-95329326D01*
X69499121Y-94962914D01*
X69464411Y-94710246D01*
X69448576Y-94642865D01*
X69422432Y-94468081D01*
X69400542Y-94126692D01*
X69382968Y-93621374D01*
X69369773Y-92954804D01*
X69361019Y-92129658D01*
X69356767Y-91148612D01*
X69356339Y-90676939D01*
X69356339Y-87006787D01*
X69610339Y-85992671D01*
X69714198Y-85534417D01*
X69797114Y-85084817D01*
X69849923Y-84698766D01*
X69864339Y-84470864D01*
X69879854Y-84162760D01*
X69919885Y-83900078D01*
X69958915Y-83778240D01*
X70186807Y-83490383D01*
X70482741Y-83333010D01*
X70806834Y-83306121D01*
X71119205Y-83409716D01*
X71119205Y-83409716D01*
G37*
X71119205Y-83409716D02*
X71379972Y-83643795D01*
X71463096Y-83778240D01*
X71537980Y-84050991D01*
X71561900Y-84453364D01*
X71536805Y-84954131D01*
X71464649Y-85522061D01*
X71347380Y-86125924D01*
X71305378Y-86302640D01*
X71053551Y-87318640D01*
X71053082Y-90705307D01*
X71054270Y-91618403D01*
X71058463Y-92378920D01*
X71066185Y-93003596D01*
X71077963Y-93509165D01*
X71094322Y-93912364D01*
X71115789Y-94229930D01*
X71142890Y-94478599D01*
X71176151Y-94675108D01*
X71178142Y-94684608D01*
X71232646Y-95037408D01*
X71274709Y-95495663D01*
X71299338Y-95995658D01*
X71303672Y-96287268D01*
X71305817Y-96652052D01*
X71316672Y-96954872D01*
X71342868Y-97228940D01*
X71391039Y-97507466D01*
X71467815Y-97823664D01*
X71579828Y-98210744D01*
X71733710Y-98701918D01*
X71871239Y-99129640D01*
X71980619Y-99479285D01*
X72077077Y-99806639D01*
X72141195Y-100045599D01*
X72144823Y-100060973D01*
X72226153Y-100365669D01*
X72340044Y-100733702D01*
X72469791Y-101117099D01*
X72598688Y-101467885D01*
X72710030Y-101738086D01*
X72769664Y-101855346D01*
X72920365Y-102188490D01*
X73012154Y-102574486D01*
X73032536Y-102941755D01*
X72996261Y-103153562D01*
X72819276Y-103457096D01*
X72552452Y-103643814D01*
X72236653Y-103704557D01*
X71912745Y-103630166D01*
X71660617Y-103452893D01*
X71469838Y-103207549D01*
X71307766Y-102910118D01*
X71279280Y-102839059D01*
X70977578Y-101988299D01*
X70688148Y-101134504D01*
X70431196Y-100338156D01*
X70294629Y-99891640D01*
X70096866Y-99226210D01*
X69941517Y-98695432D01*
X69823110Y-98271538D01*
X69736175Y-97926758D01*
X69675243Y-97633323D01*
X69634844Y-97363463D01*
X69609506Y-97089408D01*
X69593762Y-96783390D01*
X69582140Y-96417638D01*
X69577492Y-96250973D01*
X69558717Y-95771380D01*
X69531575Y-95329326D01*
X69499121Y-94962914D01*
X69464411Y-94710246D01*
X69448576Y-94642865D01*
X69422432Y-94468081D01*
X69400542Y-94126692D01*
X69382968Y-93621374D01*
X69369773Y-92954804D01*
X69361019Y-92129658D01*
X69356767Y-91148612D01*
X69356339Y-90676939D01*
X69356339Y-87006787D01*
X69610339Y-85992671D01*
X69714198Y-85534417D01*
X69797114Y-85084817D01*
X69849923Y-84698766D01*
X69864339Y-84470864D01*
X69879854Y-84162760D01*
X69919885Y-83900078D01*
X69958915Y-83778240D01*
X70186807Y-83490383D01*
X70482741Y-83333010D01*
X70806834Y-83306121D01*
X71119205Y-83409716D01*
D12*
X103553006Y-110225640D03*
D13*
X101053006Y-110225640D03*
X99053006Y-110225640D03*
X96553006Y-110225640D03*
D14*
X114053006Y-98725640D03*
D15*
X112783006Y-98725640D03*
X111513006Y-98725640D03*
X110243006Y-98725640D03*
D14*
X126053006Y-91725640D03*
D15*
X124783006Y-91725640D03*
X123513006Y-91725640D03*
X122243006Y-91725640D03*
D14*
X138053006Y-82725640D03*
D15*
X136783006Y-82725640D03*
X135513006Y-82725640D03*
X134243006Y-82725640D03*
D14*
X113053006Y-107725640D03*
D15*
X111783006Y-107725640D03*
X110513006Y-107725640D03*
X109243006Y-107725640D03*
D14*
X125053006Y-102725640D03*
D15*
X123783006Y-102725640D03*
X122513006Y-102725640D03*
X121243006Y-102725640D03*
D14*
X137053006Y-95725640D03*
D15*
X135783006Y-95725640D03*
X134513006Y-95725640D03*
X133243006Y-95725640D03*
D14*
X121053006Y-112725640D03*
D15*
X119783006Y-112725640D03*
X118513006Y-112725640D03*
X117243006Y-112725640D03*
D14*
X125053006Y-127725640D03*
D15*
X123783006Y-127725640D03*
X122513006Y-127725640D03*
X121243006Y-127725640D03*
D14*
X116053006Y-122725640D03*
D15*
X114783006Y-122725640D03*
X113513006Y-122725640D03*
X112243006Y-122725640D03*
D14*
X90053006Y-98725640D03*
D15*
X88783006Y-98725640D03*
X87513006Y-98725640D03*
X86243006Y-98725640D03*
D14*
X77553006Y-91725640D03*
D15*
X76283006Y-91725640D03*
X75013006Y-91725640D03*
X73743006Y-91725640D03*
D14*
X66053006Y-82725640D03*
D15*
X64783006Y-82725640D03*
X63513006Y-82725640D03*
X62243006Y-82725640D03*
D14*
X91053006Y-107725640D03*
D15*
X89783006Y-107725640D03*
X88513006Y-107725640D03*
X87243006Y-107725640D03*
D14*
X79053006Y-102725640D03*
D15*
X77783006Y-102725640D03*
X76513006Y-102725640D03*
X75243006Y-102725640D03*
D14*
X67053006Y-95725640D03*
D15*
X65783006Y-95725640D03*
X64513006Y-95725640D03*
X63243006Y-95725640D03*
D14*
X83053006Y-112725640D03*
D15*
X81783006Y-112725640D03*
X80513006Y-112725640D03*
X79243006Y-112725640D03*
D14*
X79053006Y-127725640D03*
D15*
X77783006Y-127725640D03*
X76513006Y-127725640D03*
X75243006Y-127725640D03*
D14*
X88053006Y-122725640D03*
D15*
X86783006Y-122725640D03*
X85513006Y-122725640D03*
X84243006Y-122725640D03*
D16*
X99053006Y-94225640D03*
D17*
X101053006Y-94225640D03*
D18*
X103863006Y-97225640D03*
D19*
X96243006Y-104845640D03*
X103863006Y-99765640D03*
X96243006Y-102305640D03*
X103863006Y-102305640D03*
X96243006Y-99765640D03*
X103863006Y-104845640D03*
X96243006Y-97225640D03*
M02*
