G04 #@! TF.FileFunction,Legend,Top*
%FSLAX46Y46*%
G04 Gerber Fmt 4.6, Leading zero omitted, Abs format (unit mm)*
G04 Created by KiCad (PCBNEW 4.0.7) date Wednesday, February 21, 2018 'PMt' 12:28:49 PM*
%MOMM*%
%LPD*%
G01*
G04 APERTURE LIST*
%ADD10C,0.100000*%
%ADD11C,0.200000*%
%ADD12C,0.150000*%
%ADD13C,0.120000*%
%ADD14C,0.010000*%
G04 APERTURE END LIST*
D10*
D11*
X109190476Y-128966667D02*
X109666667Y-128966667D01*
X109095238Y-129252381D02*
X109428571Y-128252381D01*
X109761905Y-129252381D01*
X110095238Y-129252381D02*
X110095238Y-128252381D01*
X110095238Y-128633333D02*
X110190476Y-128585714D01*
X110380953Y-128585714D01*
X110476191Y-128633333D01*
X110523810Y-128680952D01*
X110571429Y-128776190D01*
X110571429Y-129061905D01*
X110523810Y-129157143D01*
X110476191Y-129204762D01*
X110380953Y-129252381D01*
X110190476Y-129252381D01*
X110095238Y-129204762D01*
X110952381Y-129204762D02*
X111047619Y-129252381D01*
X111238095Y-129252381D01*
X111333334Y-129204762D01*
X111380953Y-129109524D01*
X111380953Y-129061905D01*
X111333334Y-128966667D01*
X111238095Y-128919048D01*
X111095238Y-128919048D01*
X111000000Y-128871429D01*
X110952381Y-128776190D01*
X110952381Y-128728571D01*
X111000000Y-128633333D01*
X111095238Y-128585714D01*
X111238095Y-128585714D01*
X111333334Y-128633333D01*
X111809524Y-129252381D02*
X111809524Y-128252381D01*
X112142858Y-128966667D01*
X112476191Y-128252381D01*
X112476191Y-129252381D01*
X113380953Y-129252381D02*
X113380953Y-128728571D01*
X113333334Y-128633333D01*
X113238096Y-128585714D01*
X113047619Y-128585714D01*
X112952381Y-128633333D01*
X113380953Y-129204762D02*
X113285715Y-129252381D01*
X113047619Y-129252381D01*
X112952381Y-129204762D01*
X112904762Y-129109524D01*
X112904762Y-129014286D01*
X112952381Y-128919048D01*
X113047619Y-128871429D01*
X113285715Y-128871429D01*
X113380953Y-128823810D01*
X113761905Y-129252381D02*
X114285715Y-128585714D01*
X113761905Y-128585714D02*
X114285715Y-129252381D01*
X115238096Y-129252381D02*
X114904762Y-128776190D01*
X114666667Y-129252381D02*
X114666667Y-128252381D01*
X115047620Y-128252381D01*
X115142858Y-128300000D01*
X115190477Y-128347619D01*
X115238096Y-128442857D01*
X115238096Y-128585714D01*
X115190477Y-128680952D01*
X115142858Y-128728571D01*
X115047620Y-128776190D01*
X114666667Y-128776190D01*
X116095239Y-129252381D02*
X116095239Y-128728571D01*
X116047620Y-128633333D01*
X115952382Y-128585714D01*
X115761905Y-128585714D01*
X115666667Y-128633333D01*
X116095239Y-129204762D02*
X116000001Y-129252381D01*
X115761905Y-129252381D01*
X115666667Y-129204762D01*
X115619048Y-129109524D01*
X115619048Y-129014286D01*
X115666667Y-128919048D01*
X115761905Y-128871429D01*
X116000001Y-128871429D01*
X116095239Y-128823810D01*
X116428572Y-128585714D02*
X116809524Y-128585714D01*
X116571429Y-128252381D02*
X116571429Y-129109524D01*
X116619048Y-129204762D01*
X116714286Y-129252381D01*
X116809524Y-129252381D01*
X109238095Y-130428571D02*
X109571429Y-130428571D01*
X109714286Y-130952381D02*
X109238095Y-130952381D01*
X109238095Y-129952381D01*
X109714286Y-129952381D01*
X110285714Y-130952381D02*
X110190476Y-130904762D01*
X110142857Y-130809524D01*
X110142857Y-129952381D01*
X111047620Y-130904762D02*
X110952382Y-130952381D01*
X110761905Y-130952381D01*
X110666667Y-130904762D01*
X110619048Y-130809524D01*
X110619048Y-130428571D01*
X110666667Y-130333333D01*
X110761905Y-130285714D01*
X110952382Y-130285714D01*
X111047620Y-130333333D01*
X111095239Y-130428571D01*
X111095239Y-130523810D01*
X110619048Y-130619048D01*
X111952382Y-130904762D02*
X111857144Y-130952381D01*
X111666667Y-130952381D01*
X111571429Y-130904762D01*
X111523810Y-130857143D01*
X111476191Y-130761905D01*
X111476191Y-130476190D01*
X111523810Y-130380952D01*
X111571429Y-130333333D01*
X111666667Y-130285714D01*
X111857144Y-130285714D01*
X111952382Y-130333333D01*
X112238096Y-130285714D02*
X112619048Y-130285714D01*
X112380953Y-129952381D02*
X112380953Y-130809524D01*
X112428572Y-130904762D01*
X112523810Y-130952381D01*
X112619048Y-130952381D01*
X112952382Y-130952381D02*
X112952382Y-130285714D01*
X112952382Y-130476190D02*
X113000001Y-130380952D01*
X113047620Y-130333333D01*
X113142858Y-130285714D01*
X113238097Y-130285714D01*
X113714287Y-130952381D02*
X113619049Y-130904762D01*
X113571430Y-130857143D01*
X113523811Y-130761905D01*
X113523811Y-130476190D01*
X113571430Y-130380952D01*
X113619049Y-130333333D01*
X113714287Y-130285714D01*
X113857145Y-130285714D01*
X113952383Y-130333333D01*
X114000002Y-130380952D01*
X114047621Y-130476190D01*
X114047621Y-130761905D01*
X114000002Y-130857143D01*
X113952383Y-130904762D01*
X113857145Y-130952381D01*
X113714287Y-130952381D01*
X114476192Y-130285714D02*
X114476192Y-130952381D01*
X114476192Y-130380952D02*
X114523811Y-130333333D01*
X114619049Y-130285714D01*
X114761907Y-130285714D01*
X114857145Y-130333333D01*
X114904764Y-130428571D01*
X114904764Y-130952381D01*
X115380954Y-130952381D02*
X115380954Y-130285714D01*
X115380954Y-129952381D02*
X115333335Y-130000000D01*
X115380954Y-130047619D01*
X115428573Y-130000000D01*
X115380954Y-129952381D01*
X115380954Y-130047619D01*
X116285716Y-130904762D02*
X116190478Y-130952381D01*
X116000001Y-130952381D01*
X115904763Y-130904762D01*
X115857144Y-130857143D01*
X115809525Y-130761905D01*
X115809525Y-130476190D01*
X115857144Y-130380952D01*
X115904763Y-130333333D01*
X116000001Y-130285714D01*
X116190478Y-130285714D01*
X116285716Y-130333333D01*
X116666668Y-130904762D02*
X116761906Y-130952381D01*
X116952382Y-130952381D01*
X117047621Y-130904762D01*
X117095240Y-130809524D01*
X117095240Y-130761905D01*
X117047621Y-130666667D01*
X116952382Y-130619048D01*
X116809525Y-130619048D01*
X116714287Y-130571429D01*
X116666668Y-130476190D01*
X116666668Y-130428571D01*
X116714287Y-130333333D01*
X116809525Y-130285714D01*
X116952382Y-130285714D01*
X117047621Y-130333333D01*
X109238095Y-132652381D02*
X109238095Y-131652381D01*
X109666667Y-132652381D02*
X109666667Y-132128571D01*
X109619048Y-132033333D01*
X109523810Y-131985714D01*
X109380952Y-131985714D01*
X109285714Y-132033333D01*
X109238095Y-132080952D01*
X110000000Y-131985714D02*
X110380952Y-131985714D01*
X110142857Y-131652381D02*
X110142857Y-132509524D01*
X110190476Y-132604762D01*
X110285714Y-132652381D01*
X110380952Y-132652381D01*
X110571429Y-131985714D02*
X110952381Y-131985714D01*
X110714286Y-131652381D02*
X110714286Y-132509524D01*
X110761905Y-132604762D01*
X110857143Y-132652381D01*
X110952381Y-132652381D01*
X111285715Y-131985714D02*
X111285715Y-132985714D01*
X111285715Y-132033333D02*
X111380953Y-131985714D01*
X111571430Y-131985714D01*
X111666668Y-132033333D01*
X111714287Y-132080952D01*
X111761906Y-132176190D01*
X111761906Y-132461905D01*
X111714287Y-132557143D01*
X111666668Y-132604762D01*
X111571430Y-132652381D01*
X111380953Y-132652381D01*
X111285715Y-132604762D01*
X112190477Y-132557143D02*
X112238096Y-132604762D01*
X112190477Y-132652381D01*
X112142858Y-132604762D01*
X112190477Y-132557143D01*
X112190477Y-132652381D01*
X112190477Y-132033333D02*
X112238096Y-132080952D01*
X112190477Y-132128571D01*
X112142858Y-132080952D01*
X112190477Y-132033333D01*
X112190477Y-132128571D01*
X113380953Y-131604762D02*
X112523810Y-132890476D01*
X114428572Y-131604762D02*
X113571429Y-132890476D01*
X115190477Y-132652381D02*
X115190477Y-132128571D01*
X115142858Y-132033333D01*
X115047620Y-131985714D01*
X114857143Y-131985714D01*
X114761905Y-132033333D01*
X115190477Y-132604762D02*
X115095239Y-132652381D01*
X114857143Y-132652381D01*
X114761905Y-132604762D01*
X114714286Y-132509524D01*
X114714286Y-132414286D01*
X114761905Y-132319048D01*
X114857143Y-132271429D01*
X115095239Y-132271429D01*
X115190477Y-132223810D01*
X115666667Y-132652381D02*
X115666667Y-131652381D01*
X115666667Y-132033333D02*
X115761905Y-131985714D01*
X115952382Y-131985714D01*
X116047620Y-132033333D01*
X116095239Y-132080952D01*
X116142858Y-132176190D01*
X116142858Y-132461905D01*
X116095239Y-132557143D01*
X116047620Y-132604762D01*
X115952382Y-132652381D01*
X115761905Y-132652381D01*
X115666667Y-132604762D01*
X116523810Y-132604762D02*
X116619048Y-132652381D01*
X116809524Y-132652381D01*
X116904763Y-132604762D01*
X116952382Y-132509524D01*
X116952382Y-132461905D01*
X116904763Y-132366667D01*
X116809524Y-132319048D01*
X116666667Y-132319048D01*
X116571429Y-132271429D01*
X116523810Y-132176190D01*
X116523810Y-132128571D01*
X116571429Y-132033333D01*
X116666667Y-131985714D01*
X116809524Y-131985714D01*
X116904763Y-132033333D01*
X117380953Y-132652381D02*
X117380953Y-131985714D01*
X117380953Y-132080952D02*
X117428572Y-132033333D01*
X117523810Y-131985714D01*
X117666668Y-131985714D01*
X117761906Y-132033333D01*
X117809525Y-132128571D01*
X117809525Y-132652381D01*
X117809525Y-132128571D02*
X117857144Y-132033333D01*
X117952382Y-131985714D01*
X118095239Y-131985714D01*
X118190477Y-132033333D01*
X118238096Y-132128571D01*
X118238096Y-132652381D01*
X119142858Y-132652381D02*
X119142858Y-132128571D01*
X119095239Y-132033333D01*
X119000001Y-131985714D01*
X118809524Y-131985714D01*
X118714286Y-132033333D01*
X119142858Y-132604762D02*
X119047620Y-132652381D01*
X118809524Y-132652381D01*
X118714286Y-132604762D01*
X118666667Y-132509524D01*
X118666667Y-132414286D01*
X118714286Y-132319048D01*
X118809524Y-132271429D01*
X119047620Y-132271429D01*
X119142858Y-132223810D01*
X119523810Y-132652381D02*
X120047620Y-131985714D01*
X119523810Y-131985714D02*
X120047620Y-132652381D01*
X120428572Y-132652381D02*
X120428572Y-131985714D01*
X120428572Y-132176190D02*
X120476191Y-132080952D01*
X120523810Y-132033333D01*
X120619048Y-131985714D01*
X120714287Y-131985714D01*
X121476192Y-132652381D02*
X121476192Y-132128571D01*
X121428573Y-132033333D01*
X121333335Y-131985714D01*
X121142858Y-131985714D01*
X121047620Y-132033333D01*
X121476192Y-132604762D02*
X121380954Y-132652381D01*
X121142858Y-132652381D01*
X121047620Y-132604762D01*
X121000001Y-132509524D01*
X121000001Y-132414286D01*
X121047620Y-132319048D01*
X121142858Y-132271429D01*
X121380954Y-132271429D01*
X121476192Y-132223810D01*
X121809525Y-131985714D02*
X122190477Y-131985714D01*
X121952382Y-131652381D02*
X121952382Y-132509524D01*
X122000001Y-132604762D01*
X122095239Y-132652381D01*
X122190477Y-132652381D01*
X122523811Y-132557143D02*
X122571430Y-132604762D01*
X122523811Y-132652381D01*
X122476192Y-132604762D01*
X122523811Y-132557143D01*
X122523811Y-132652381D01*
X123428573Y-132604762D02*
X123333335Y-132652381D01*
X123142858Y-132652381D01*
X123047620Y-132604762D01*
X123000001Y-132557143D01*
X122952382Y-132461905D01*
X122952382Y-132176190D01*
X123000001Y-132080952D01*
X123047620Y-132033333D01*
X123142858Y-131985714D01*
X123333335Y-131985714D01*
X123428573Y-132033333D01*
X124000001Y-132652381D02*
X123904763Y-132604762D01*
X123857144Y-132557143D01*
X123809525Y-132461905D01*
X123809525Y-132176190D01*
X123857144Y-132080952D01*
X123904763Y-132033333D01*
X124000001Y-131985714D01*
X124142859Y-131985714D01*
X124238097Y-132033333D01*
X124285716Y-132080952D01*
X124333335Y-132176190D01*
X124333335Y-132461905D01*
X124285716Y-132557143D01*
X124238097Y-132604762D01*
X124142859Y-132652381D01*
X124000001Y-132652381D01*
X124761906Y-132652381D02*
X124761906Y-131985714D01*
X124761906Y-132080952D02*
X124809525Y-132033333D01*
X124904763Y-131985714D01*
X125047621Y-131985714D01*
X125142859Y-132033333D01*
X125190478Y-132128571D01*
X125190478Y-132652381D01*
X125190478Y-132128571D02*
X125238097Y-132033333D01*
X125333335Y-131985714D01*
X125476192Y-131985714D01*
X125571430Y-132033333D01*
X125619049Y-132128571D01*
X125619049Y-132652381D01*
X126809525Y-131604762D02*
X125952382Y-132890476D01*
D12*
X109201786Y-115714285D02*
X108808929Y-115714285D01*
X108737500Y-115749999D01*
X108701786Y-115821428D01*
X108701786Y-115964285D01*
X108737500Y-116035714D01*
X109166071Y-115714285D02*
X109201786Y-115785714D01*
X109201786Y-115964285D01*
X109166071Y-116035714D01*
X109094643Y-116071428D01*
X109023214Y-116071428D01*
X108951786Y-116035714D01*
X108916071Y-115964285D01*
X108916071Y-115785714D01*
X108880357Y-115714285D01*
X109201786Y-115035714D02*
X108451786Y-115035714D01*
X109166071Y-115035714D02*
X109201786Y-115107143D01*
X109201786Y-115250000D01*
X109166071Y-115321428D01*
X109130357Y-115357143D01*
X109058929Y-115392857D01*
X108844643Y-115392857D01*
X108773214Y-115357143D01*
X108737500Y-115321428D01*
X108701786Y-115250000D01*
X108701786Y-115107143D01*
X108737500Y-115035714D01*
X108701786Y-114678572D02*
X109344643Y-114678572D01*
X109416071Y-114714286D01*
X109451786Y-114785714D01*
X109451786Y-114821429D01*
X108451786Y-114678572D02*
X108487500Y-114714286D01*
X108523214Y-114678572D01*
X108487500Y-114642857D01*
X108451786Y-114678572D01*
X108523214Y-114678572D01*
X108701786Y-114000000D02*
X109201786Y-114000000D01*
X108701786Y-114321429D02*
X109094643Y-114321429D01*
X109166071Y-114285714D01*
X109201786Y-114214286D01*
X109201786Y-114107143D01*
X109166071Y-114035714D01*
X109130357Y-114000000D01*
X109166071Y-113678572D02*
X109201786Y-113607143D01*
X109201786Y-113464286D01*
X109166071Y-113392858D01*
X109094643Y-113357143D01*
X109058929Y-113357143D01*
X108987500Y-113392858D01*
X108951786Y-113464286D01*
X108951786Y-113571429D01*
X108916071Y-113642858D01*
X108844643Y-113678572D01*
X108808929Y-113678572D01*
X108737500Y-113642858D01*
X108701786Y-113571429D01*
X108701786Y-113464286D01*
X108737500Y-113392858D01*
X108701786Y-113142857D02*
X108701786Y-112857143D01*
X108451786Y-113035715D02*
X109094643Y-113035715D01*
X109166071Y-113000000D01*
X109201786Y-112928572D01*
X109201786Y-112857143D01*
X110476786Y-117232142D02*
X109726786Y-117232142D01*
X110012500Y-117232142D02*
X109976786Y-117160713D01*
X109976786Y-117017856D01*
X110012500Y-116946427D01*
X110048214Y-116910713D01*
X110119643Y-116874999D01*
X110333929Y-116874999D01*
X110405357Y-116910713D01*
X110441071Y-116946427D01*
X110476786Y-117017856D01*
X110476786Y-117160713D01*
X110441071Y-117232142D01*
X110476786Y-116553571D02*
X109976786Y-116553571D01*
X110119643Y-116553571D02*
X110048214Y-116517856D01*
X110012500Y-116482142D01*
X109976786Y-116410713D01*
X109976786Y-116339285D01*
X110476786Y-116089285D02*
X109976786Y-116089285D01*
X109726786Y-116089285D02*
X109762500Y-116124999D01*
X109798214Y-116089285D01*
X109762500Y-116053570D01*
X109726786Y-116089285D01*
X109798214Y-116089285D01*
X109976786Y-115410713D02*
X110583929Y-115410713D01*
X110655357Y-115446427D01*
X110691071Y-115482142D01*
X110726786Y-115553570D01*
X110726786Y-115660713D01*
X110691071Y-115732142D01*
X110441071Y-115410713D02*
X110476786Y-115482142D01*
X110476786Y-115624999D01*
X110441071Y-115696427D01*
X110405357Y-115732142D01*
X110333929Y-115767856D01*
X110119643Y-115767856D01*
X110048214Y-115732142D01*
X110012500Y-115696427D01*
X109976786Y-115624999D01*
X109976786Y-115482142D01*
X110012500Y-115410713D01*
X110476786Y-115053571D02*
X109726786Y-115053571D01*
X110476786Y-114732142D02*
X110083929Y-114732142D01*
X110012500Y-114767856D01*
X109976786Y-114839285D01*
X109976786Y-114946428D01*
X110012500Y-115017856D01*
X110048214Y-115053571D01*
X109976786Y-114482142D02*
X109976786Y-114196428D01*
X109726786Y-114375000D02*
X110369643Y-114375000D01*
X110441071Y-114339285D01*
X110476786Y-114267857D01*
X110476786Y-114196428D01*
X109976786Y-113946429D02*
X110476786Y-113946429D01*
X110048214Y-113946429D02*
X110012500Y-113910714D01*
X109976786Y-113839286D01*
X109976786Y-113732143D01*
X110012500Y-113660714D01*
X110083929Y-113625000D01*
X110476786Y-113625000D01*
X110441071Y-112982143D02*
X110476786Y-113053572D01*
X110476786Y-113196429D01*
X110441071Y-113267858D01*
X110369643Y-113303572D01*
X110083929Y-113303572D01*
X110012500Y-113267858D01*
X109976786Y-113196429D01*
X109976786Y-113053572D01*
X110012500Y-112982143D01*
X110083929Y-112946429D01*
X110155357Y-112946429D01*
X110226786Y-113303572D01*
X110441071Y-112660715D02*
X110476786Y-112589286D01*
X110476786Y-112446429D01*
X110441071Y-112375001D01*
X110369643Y-112339286D01*
X110333929Y-112339286D01*
X110262500Y-112375001D01*
X110226786Y-112446429D01*
X110226786Y-112553572D01*
X110191071Y-112625001D01*
X110119643Y-112660715D01*
X110083929Y-112660715D01*
X110012500Y-112625001D01*
X109976786Y-112553572D01*
X109976786Y-112446429D01*
X110012500Y-112375001D01*
X110441071Y-112053572D02*
X110476786Y-111982143D01*
X110476786Y-111839286D01*
X110441071Y-111767858D01*
X110369643Y-111732143D01*
X110333929Y-111732143D01*
X110262500Y-111767858D01*
X110226786Y-111839286D01*
X110226786Y-111946429D01*
X110191071Y-112017858D01*
X110119643Y-112053572D01*
X110083929Y-112053572D01*
X110012500Y-112017858D01*
X109976786Y-111946429D01*
X109976786Y-111839286D01*
X110012500Y-111767858D01*
D11*
X118230280Y-88153010D02*
X118374615Y-88110078D01*
X118440936Y-88121773D01*
X118534569Y-88172474D01*
X118616509Y-88289496D01*
X118632128Y-88394823D01*
X118620434Y-88461144D01*
X118569732Y-88554777D01*
X118257674Y-88773283D01*
X117684097Y-87954131D01*
X117957149Y-87762938D01*
X118062476Y-87747319D01*
X118128797Y-87759013D01*
X118222430Y-87809715D01*
X118277056Y-87887729D01*
X118292675Y-87993056D01*
X118280981Y-88059377D01*
X118230280Y-88153010D01*
X117957229Y-88344203D01*
X119045507Y-87407786D02*
X119427892Y-87953888D01*
X118694441Y-87653605D02*
X118994887Y-88082685D01*
X119088520Y-88133386D01*
X119193848Y-88117767D01*
X119310870Y-88035827D01*
X119361571Y-87942194D01*
X119373265Y-87875873D01*
X119318557Y-87216594D02*
X119630615Y-86998089D01*
X119244387Y-86861604D02*
X119736024Y-87563735D01*
X119829658Y-87614436D01*
X119934985Y-87598817D01*
X120013000Y-87544191D01*
X119786645Y-86888836D02*
X120098702Y-86670331D01*
X119712474Y-86533846D02*
X120204111Y-87235976D01*
X120297745Y-87286678D01*
X120403072Y-87271059D01*
X120481087Y-87216432D01*
X121038883Y-86767727D02*
X120988182Y-86861360D01*
X120832152Y-86970614D01*
X120726825Y-86986233D01*
X120633191Y-86935531D01*
X120414686Y-86623473D01*
X120399067Y-86518145D01*
X120449768Y-86424512D01*
X120605798Y-86315259D01*
X120711125Y-86299640D01*
X120804759Y-86350341D01*
X120859385Y-86428356D01*
X120523939Y-86779503D01*
X121456268Y-86533603D02*
X121073884Y-85987501D01*
X121183137Y-86143530D02*
X121167517Y-86038202D01*
X121179212Y-85971882D01*
X121229913Y-85878249D01*
X121307928Y-85823622D01*
X121463957Y-85714369D02*
X121776014Y-85495864D01*
X121963363Y-86178531D02*
X121471726Y-85476401D01*
X121456107Y-85371073D01*
X121506808Y-85277440D01*
X121584822Y-85222814D01*
X122548472Y-85768834D02*
X122443144Y-85784453D01*
X122349511Y-85733752D01*
X121857874Y-85031621D01*
X122400131Y-85058853D02*
X122977552Y-85468389D01*
X122790204Y-84785721D02*
X122977552Y-85468389D01*
X123036103Y-85718051D01*
X123024409Y-85784371D01*
X122973708Y-85878005D01*
X124108762Y-84676307D02*
X123535186Y-83857155D01*
X124576849Y-84348548D01*
X124003273Y-83529396D01*
X124966921Y-84075417D02*
X124584537Y-83529315D01*
X124393345Y-83256265D02*
X124381651Y-83322585D01*
X124447971Y-83334279D01*
X124459665Y-83267959D01*
X124393345Y-83256265D01*
X124447971Y-83334279D01*
X125325675Y-83010365D02*
X125789999Y-83673488D01*
X125805618Y-83778816D01*
X125793924Y-83845136D01*
X125743221Y-83938770D01*
X125626200Y-84020710D01*
X125520872Y-84036329D01*
X125680746Y-83517460D02*
X125630045Y-83611093D01*
X125474015Y-83720346D01*
X125368688Y-83735965D01*
X125302367Y-83724271D01*
X125208734Y-83673570D01*
X125044854Y-83439526D01*
X125029235Y-83334198D01*
X125040929Y-83267878D01*
X125091631Y-83174245D01*
X125247660Y-83064992D01*
X125352988Y-83049372D01*
X126098131Y-83283336D02*
X125524555Y-82464183D01*
X126449197Y-83037517D02*
X126148752Y-82608437D01*
X126055118Y-82557735D01*
X125949791Y-82573355D01*
X125832768Y-82655294D01*
X125782067Y-82748928D01*
X125770373Y-82815248D01*
X126339863Y-82300223D02*
X126651920Y-82081718D01*
X126265692Y-81945233D02*
X126757329Y-82647364D01*
X126850963Y-82698065D01*
X126956290Y-82682446D01*
X127034305Y-82627820D01*
X127424378Y-82354688D02*
X127319050Y-82370307D01*
X127225417Y-82319606D01*
X126733780Y-81617475D01*
X127736436Y-82136182D02*
X127354052Y-81590080D01*
X127162860Y-81317030D02*
X127151166Y-81383350D01*
X127217486Y-81395044D01*
X127229180Y-81328724D01*
X127162860Y-81317030D01*
X127217486Y-81395044D01*
X128095189Y-81071130D02*
X128559513Y-81734254D01*
X128575132Y-81839581D01*
X128563438Y-81905901D01*
X128512736Y-81999535D01*
X128395714Y-82081475D01*
X128290387Y-82097094D01*
X128450261Y-81578225D02*
X128399559Y-81671858D01*
X128243530Y-81781111D01*
X128138202Y-81796730D01*
X128071882Y-81785036D01*
X127978248Y-81734335D01*
X127814369Y-81500291D01*
X127798750Y-81394963D01*
X127810444Y-81328643D01*
X127861145Y-81235010D01*
X128017175Y-81125757D01*
X128122502Y-81110137D01*
X128867646Y-81344101D02*
X128294069Y-80524949D01*
X129218711Y-81098282D02*
X128918266Y-80669202D01*
X128824633Y-80618500D01*
X128719305Y-80634120D01*
X128602283Y-80716060D01*
X128551582Y-80809693D01*
X128539887Y-80876013D01*
X129109377Y-80360988D02*
X129421435Y-80142483D01*
X129035207Y-80005998D02*
X129526844Y-80708129D01*
X129620477Y-80758830D01*
X129725805Y-80743211D01*
X129803819Y-80688585D01*
X131130067Y-79759936D02*
X130661979Y-80087695D01*
X130896023Y-79923816D02*
X130322446Y-79104664D01*
X130326371Y-79276312D01*
X130302983Y-79408952D01*
X130252282Y-79502586D01*
X131426505Y-79436104D02*
X131492826Y-79447798D01*
X131481131Y-79514118D01*
X131414811Y-79502424D01*
X131426505Y-79436104D01*
X131481131Y-79514118D01*
X132300283Y-78940542D02*
X131832196Y-79268300D01*
X132066239Y-79104421D02*
X131492663Y-78285269D01*
X131496588Y-78456917D01*
X131473200Y-78589558D01*
X131422499Y-78683191D01*
D12*
X71250000Y-122767857D02*
X71178572Y-122732143D01*
X71035715Y-122732143D01*
X70964286Y-122767857D01*
X70892857Y-122839286D01*
X70857143Y-122910714D01*
X70857143Y-123053571D01*
X70892857Y-123125000D01*
X70964286Y-123196429D01*
X71035715Y-123232143D01*
X71178572Y-123232143D01*
X71250000Y-123196429D01*
X71107143Y-122482143D02*
X70928572Y-122517857D01*
X70750000Y-122625000D01*
X70642857Y-122803571D01*
X70607143Y-122982143D01*
X70642857Y-123160714D01*
X70750000Y-123339286D01*
X70928572Y-123446429D01*
X71107143Y-123482143D01*
X71285715Y-123446429D01*
X71464286Y-123339286D01*
X71571429Y-123160714D01*
X71607143Y-122982143D01*
X71571429Y-122803571D01*
X71464286Y-122625000D01*
X71285715Y-122517857D01*
X71107143Y-122482143D01*
X72500000Y-123339286D02*
X72500000Y-122589286D01*
X72785715Y-122589286D01*
X72857143Y-122625000D01*
X72892858Y-122660714D01*
X72928572Y-122732143D01*
X72928572Y-122839286D01*
X72892858Y-122910714D01*
X72857143Y-122946429D01*
X72785715Y-122982143D01*
X72500000Y-122982143D01*
X73571429Y-123339286D02*
X73571429Y-122946429D01*
X73535715Y-122875000D01*
X73464286Y-122839286D01*
X73321429Y-122839286D01*
X73250000Y-122875000D01*
X73571429Y-123303571D02*
X73500000Y-123339286D01*
X73321429Y-123339286D01*
X73250000Y-123303571D01*
X73214286Y-123232143D01*
X73214286Y-123160714D01*
X73250000Y-123089286D01*
X73321429Y-123053571D01*
X73500000Y-123053571D01*
X73571429Y-123017857D01*
X73821429Y-122839286D02*
X74107143Y-122839286D01*
X73928571Y-122589286D02*
X73928571Y-123232143D01*
X73964286Y-123303571D01*
X74035714Y-123339286D01*
X74107143Y-123339286D01*
X74357142Y-123339286D02*
X74357142Y-122839286D01*
X74357142Y-122982143D02*
X74392857Y-122910714D01*
X74428571Y-122875000D01*
X74500000Y-122839286D01*
X74571428Y-122839286D01*
X74821428Y-123339286D02*
X74821428Y-122839286D01*
X74821428Y-122589286D02*
X74785714Y-122625000D01*
X74821428Y-122660714D01*
X74857143Y-122625000D01*
X74821428Y-122589286D01*
X74821428Y-122660714D01*
X75500000Y-123303571D02*
X75428571Y-123339286D01*
X75285714Y-123339286D01*
X75214286Y-123303571D01*
X75178571Y-123267857D01*
X75142857Y-123196429D01*
X75142857Y-122982143D01*
X75178571Y-122910714D01*
X75214286Y-122875000D01*
X75285714Y-122839286D01*
X75428571Y-122839286D01*
X75500000Y-122875000D01*
X75821428Y-123339286D02*
X75821428Y-122589286D01*
X75892857Y-123053571D02*
X76107143Y-123339286D01*
X76107143Y-122839286D02*
X75821428Y-123125000D01*
X77000000Y-123339286D02*
X77000000Y-122589286D01*
X77285715Y-122589286D01*
X77357143Y-122625000D01*
X77392858Y-122660714D01*
X77428572Y-122732143D01*
X77428572Y-122839286D01*
X77392858Y-122910714D01*
X77357143Y-122946429D01*
X77285715Y-122982143D01*
X77000000Y-122982143D01*
X78035715Y-123303571D02*
X77964286Y-123339286D01*
X77821429Y-123339286D01*
X77750000Y-123303571D01*
X77714286Y-123232143D01*
X77714286Y-122946429D01*
X77750000Y-122875000D01*
X77821429Y-122839286D01*
X77964286Y-122839286D01*
X78035715Y-122875000D01*
X78071429Y-122946429D01*
X78071429Y-123017857D01*
X77714286Y-123089286D01*
X78500000Y-123339286D02*
X78428572Y-123303571D01*
X78392857Y-123232143D01*
X78392857Y-122589286D01*
X78892857Y-123339286D02*
X78821429Y-123303571D01*
X78785714Y-123232143D01*
X78785714Y-122589286D01*
X79464286Y-123303571D02*
X79392857Y-123339286D01*
X79250000Y-123339286D01*
X79178571Y-123303571D01*
X79142857Y-123232143D01*
X79142857Y-122946429D01*
X79178571Y-122875000D01*
X79250000Y-122839286D01*
X79392857Y-122839286D01*
X79464286Y-122875000D01*
X79500000Y-122946429D01*
X79500000Y-123017857D01*
X79142857Y-123089286D01*
X79714286Y-122839286D02*
X80000000Y-122839286D01*
X79821428Y-122589286D02*
X79821428Y-123232143D01*
X79857143Y-123303571D01*
X79928571Y-123339286D01*
X80000000Y-123339286D01*
X80249999Y-123339286D02*
X80249999Y-122839286D01*
X80249999Y-122589286D02*
X80214285Y-122625000D01*
X80249999Y-122660714D01*
X80285714Y-122625000D01*
X80249999Y-122589286D01*
X80249999Y-122660714D01*
X80892857Y-123303571D02*
X80821428Y-123339286D01*
X80678571Y-123339286D01*
X80607142Y-123303571D01*
X80571428Y-123232143D01*
X80571428Y-122946429D01*
X80607142Y-122875000D01*
X80678571Y-122839286D01*
X80821428Y-122839286D01*
X80892857Y-122875000D01*
X80928571Y-122946429D01*
X80928571Y-123017857D01*
X80571428Y-123089286D01*
X81249999Y-123339286D02*
X81249999Y-122839286D01*
X81249999Y-122982143D02*
X81285714Y-122910714D01*
X81321428Y-122875000D01*
X81392857Y-122839286D01*
X81464285Y-122839286D01*
X72375000Y-121767857D02*
X72339286Y-121803571D01*
X72232143Y-121839286D01*
X72160714Y-121839286D01*
X72053571Y-121803571D01*
X71982143Y-121732143D01*
X71946428Y-121660714D01*
X71910714Y-121517857D01*
X71910714Y-121410714D01*
X71946428Y-121267857D01*
X71982143Y-121196429D01*
X72053571Y-121125000D01*
X72160714Y-121089286D01*
X72232143Y-121089286D01*
X72339286Y-121125000D01*
X72375000Y-121160714D01*
X73125000Y-121767857D02*
X73089286Y-121803571D01*
X72982143Y-121839286D01*
X72910714Y-121839286D01*
X72803571Y-121803571D01*
X72732143Y-121732143D01*
X72696428Y-121660714D01*
X72660714Y-121517857D01*
X72660714Y-121410714D01*
X72696428Y-121267857D01*
X72732143Y-121196429D01*
X72803571Y-121125000D01*
X72910714Y-121089286D01*
X72982143Y-121089286D01*
X73089286Y-121125000D01*
X73125000Y-121160714D01*
X73446428Y-121553571D02*
X74017857Y-121553571D01*
X74624999Y-121446429D02*
X74732142Y-121482143D01*
X74767857Y-121517857D01*
X74803571Y-121589286D01*
X74803571Y-121696429D01*
X74767857Y-121767857D01*
X74732142Y-121803571D01*
X74660714Y-121839286D01*
X74374999Y-121839286D01*
X74374999Y-121089286D01*
X74624999Y-121089286D01*
X74696428Y-121125000D01*
X74732142Y-121160714D01*
X74767857Y-121232143D01*
X74767857Y-121303571D01*
X74732142Y-121375000D01*
X74696428Y-121410714D01*
X74624999Y-121446429D01*
X74374999Y-121446429D01*
X75267857Y-121482143D02*
X75267857Y-121839286D01*
X75017857Y-121089286D02*
X75267857Y-121482143D01*
X75517857Y-121089286D01*
X75767856Y-121553571D02*
X76339285Y-121553571D01*
X76660713Y-121803571D02*
X76767856Y-121839286D01*
X76946427Y-121839286D01*
X77017856Y-121803571D01*
X77053570Y-121767857D01*
X77089285Y-121696429D01*
X77089285Y-121625000D01*
X77053570Y-121553571D01*
X77017856Y-121517857D01*
X76946427Y-121482143D01*
X76803570Y-121446429D01*
X76732142Y-121410714D01*
X76696427Y-121375000D01*
X76660713Y-121303571D01*
X76660713Y-121232143D01*
X76696427Y-121160714D01*
X76732142Y-121125000D01*
X76803570Y-121089286D01*
X76982142Y-121089286D01*
X77089285Y-121125000D01*
X77374999Y-121625000D02*
X77732142Y-121625000D01*
X77303571Y-121839286D02*
X77553571Y-121089286D01*
X77803571Y-121839286D01*
X78946428Y-121339286D02*
X78946428Y-121839286D01*
X78767857Y-121053571D02*
X78589285Y-121589286D01*
X79053571Y-121589286D01*
X79339285Y-121767857D02*
X79375000Y-121803571D01*
X79339285Y-121839286D01*
X79303571Y-121803571D01*
X79339285Y-121767857D01*
X79339285Y-121839286D01*
X79839286Y-121089286D02*
X79910714Y-121089286D01*
X79982143Y-121125000D01*
X80017857Y-121160714D01*
X80053571Y-121232143D01*
X80089286Y-121375000D01*
X80089286Y-121553571D01*
X80053571Y-121696429D01*
X80017857Y-121767857D01*
X79982143Y-121803571D01*
X79910714Y-121839286D01*
X79839286Y-121839286D01*
X79767857Y-121803571D01*
X79732143Y-121767857D01*
X79696428Y-121696429D01*
X79660714Y-121553571D01*
X79660714Y-121375000D01*
X79696428Y-121232143D01*
X79732143Y-121160714D01*
X79767857Y-121125000D01*
X79839286Y-121089286D01*
D13*
X112953006Y-91345640D02*
X114153006Y-91345640D01*
X114153006Y-93105640D02*
X112953006Y-93105640D01*
X93903006Y-98725640D02*
X93903006Y-97725640D01*
X92203006Y-97725640D02*
X92203006Y-98725640D01*
X90553006Y-117575640D02*
X91553006Y-117575640D01*
X91553006Y-115875640D02*
X90553006Y-115875640D01*
D10*
X111153006Y-112225640D02*
X111153006Y-112475640D01*
X111153006Y-112225640D02*
X111403006Y-112225640D01*
X114953006Y-112225640D02*
X114953006Y-112475640D01*
X114953006Y-112225640D02*
X114703006Y-112225640D01*
X114953006Y-116225640D02*
X114753006Y-116225640D01*
X114953006Y-116225640D02*
X114953006Y-115975640D01*
X111153006Y-115975640D02*
X111153006Y-116225640D01*
X111153006Y-116225640D02*
X111353006Y-116225640D01*
X111353006Y-116225640D02*
X111353006Y-116575640D01*
D14*
G36*
X76555814Y-114968931D02*
X76639635Y-115413555D01*
X76948920Y-115541053D01*
X77258206Y-115668551D01*
X77629246Y-115416246D01*
X77733157Y-115345996D01*
X77827087Y-115283272D01*
X77906652Y-115230938D01*
X77967470Y-115191857D01*
X78005157Y-115168893D01*
X78015421Y-115163942D01*
X78033910Y-115176676D01*
X78073420Y-115211882D01*
X78129522Y-115265062D01*
X78197787Y-115331718D01*
X78273786Y-115407354D01*
X78353092Y-115487472D01*
X78431275Y-115567574D01*
X78503907Y-115643164D01*
X78566559Y-115709745D01*
X78614803Y-115762818D01*
X78644210Y-115797887D01*
X78651241Y-115809623D01*
X78641123Y-115831260D01*
X78612759Y-115878662D01*
X78569129Y-115947193D01*
X78513218Y-116032215D01*
X78448006Y-116129093D01*
X78410219Y-116184350D01*
X78341343Y-116285248D01*
X78280140Y-116376299D01*
X78229578Y-116452970D01*
X78192628Y-116510728D01*
X78172258Y-116545043D01*
X78169197Y-116552254D01*
X78176136Y-116572748D01*
X78195051Y-116620513D01*
X78223087Y-116688832D01*
X78257391Y-116770989D01*
X78295109Y-116860270D01*
X78333387Y-116949958D01*
X78369370Y-117033338D01*
X78400206Y-117103694D01*
X78423039Y-117154310D01*
X78435017Y-117178471D01*
X78435724Y-117179422D01*
X78454531Y-117184036D01*
X78504618Y-117194328D01*
X78580793Y-117209287D01*
X78677865Y-117227901D01*
X78790643Y-117249159D01*
X78856442Y-117261418D01*
X78976950Y-117284362D01*
X79085797Y-117306195D01*
X79177476Y-117325722D01*
X79246481Y-117341748D01*
X79287304Y-117353079D01*
X79295511Y-117356674D01*
X79303548Y-117381006D01*
X79310033Y-117435959D01*
X79314970Y-117515108D01*
X79318364Y-117612026D01*
X79320218Y-117720287D01*
X79320538Y-117833465D01*
X79319327Y-117945135D01*
X79316590Y-118048868D01*
X79312331Y-118138241D01*
X79306555Y-118206826D01*
X79299267Y-118248197D01*
X79294895Y-118256810D01*
X79268764Y-118267133D01*
X79213393Y-118281892D01*
X79136107Y-118299352D01*
X79044230Y-118317780D01*
X79012158Y-118323741D01*
X78857524Y-118352066D01*
X78735375Y-118374876D01*
X78641673Y-118393080D01*
X78572384Y-118407583D01*
X78523471Y-118419292D01*
X78490897Y-118429115D01*
X78470628Y-118437956D01*
X78458626Y-118446724D01*
X78456947Y-118448457D01*
X78440184Y-118476371D01*
X78414614Y-118530695D01*
X78382788Y-118604777D01*
X78347260Y-118691965D01*
X78310583Y-118785608D01*
X78275311Y-118879052D01*
X78243996Y-118965647D01*
X78219193Y-119038740D01*
X78203454Y-119091678D01*
X78199332Y-119117811D01*
X78199676Y-119118726D01*
X78213641Y-119140086D01*
X78245322Y-119187084D01*
X78291391Y-119254827D01*
X78348518Y-119338423D01*
X78413373Y-119432982D01*
X78431843Y-119459854D01*
X78497699Y-119557275D01*
X78555650Y-119646163D01*
X78602538Y-119721412D01*
X78635207Y-119777920D01*
X78650500Y-119810581D01*
X78651241Y-119814593D01*
X78638392Y-119835684D01*
X78602888Y-119877464D01*
X78549293Y-119935445D01*
X78482171Y-120005135D01*
X78406087Y-120082045D01*
X78325604Y-120161683D01*
X78245287Y-120239561D01*
X78169699Y-120311186D01*
X78103405Y-120372070D01*
X78050969Y-120417721D01*
X78016955Y-120443650D01*
X78007545Y-120447883D01*
X77985643Y-120437912D01*
X77940800Y-120411020D01*
X77880321Y-120371736D01*
X77833789Y-120340117D01*
X77749475Y-120282098D01*
X77649626Y-120213784D01*
X77549473Y-120145579D01*
X77495627Y-120109075D01*
X77313371Y-119985800D01*
X77160381Y-120068520D01*
X77090682Y-120104759D01*
X77031414Y-120132926D01*
X76991311Y-120148991D01*
X76981103Y-120151226D01*
X76968829Y-120134722D01*
X76944613Y-120088082D01*
X76910263Y-120015609D01*
X76867588Y-119921606D01*
X76818394Y-119810374D01*
X76764490Y-119686215D01*
X76707684Y-119553432D01*
X76649782Y-119416327D01*
X76592593Y-119279202D01*
X76537924Y-119146358D01*
X76487584Y-119022098D01*
X76443380Y-118910725D01*
X76407119Y-118816539D01*
X76380609Y-118743844D01*
X76365658Y-118696941D01*
X76363254Y-118680833D01*
X76382311Y-118660286D01*
X76424036Y-118626933D01*
X76479706Y-118587702D01*
X76484378Y-118584599D01*
X76628264Y-118469423D01*
X76744283Y-118335053D01*
X76831430Y-118185784D01*
X76888699Y-118025913D01*
X76915086Y-117859737D01*
X76909585Y-117691552D01*
X76871190Y-117525655D01*
X76798895Y-117366342D01*
X76777626Y-117331487D01*
X76666996Y-117190737D01*
X76536302Y-117077714D01*
X76390064Y-116993003D01*
X76232808Y-116937194D01*
X76069057Y-116910874D01*
X75903333Y-116914630D01*
X75740162Y-116949050D01*
X75584065Y-117014723D01*
X75439567Y-117112235D01*
X75394869Y-117151813D01*
X75281112Y-117275703D01*
X75198218Y-117406124D01*
X75141356Y-117552315D01*
X75109687Y-117697088D01*
X75101869Y-117859860D01*
X75127938Y-118023440D01*
X75185245Y-118182298D01*
X75271144Y-118330906D01*
X75382986Y-118463735D01*
X75518123Y-118575256D01*
X75535883Y-118587011D01*
X75592150Y-118625508D01*
X75634923Y-118658863D01*
X75655372Y-118680160D01*
X75655669Y-118680833D01*
X75651279Y-118703871D01*
X75633876Y-118756157D01*
X75605268Y-118833390D01*
X75567265Y-118931268D01*
X75521674Y-119045491D01*
X75470303Y-119171758D01*
X75414962Y-119305767D01*
X75357458Y-119443218D01*
X75299601Y-119579808D01*
X75243198Y-119711237D01*
X75190058Y-119833205D01*
X75141990Y-119941409D01*
X75100801Y-120031549D01*
X75068301Y-120099323D01*
X75046297Y-120140430D01*
X75037436Y-120151226D01*
X75010360Y-120142819D01*
X74959697Y-120120272D01*
X74894183Y-120087613D01*
X74858159Y-120068520D01*
X74705168Y-119985800D01*
X74522912Y-120109075D01*
X74429875Y-120172228D01*
X74328015Y-120241727D01*
X74232562Y-120307165D01*
X74184750Y-120340117D01*
X74117505Y-120385273D01*
X74060564Y-120421057D01*
X74021354Y-120442938D01*
X74008619Y-120447563D01*
X73990083Y-120435085D01*
X73949059Y-120400252D01*
X73889525Y-120346678D01*
X73815458Y-120277983D01*
X73730835Y-120197781D01*
X73677315Y-120146286D01*
X73583681Y-120054286D01*
X73502759Y-119971999D01*
X73437823Y-119902945D01*
X73392142Y-119850644D01*
X73368989Y-119818616D01*
X73366768Y-119812116D01*
X73377076Y-119787394D01*
X73405561Y-119737405D01*
X73449063Y-119667212D01*
X73504423Y-119581875D01*
X73568480Y-119486456D01*
X73586697Y-119459854D01*
X73653073Y-119363167D01*
X73712622Y-119276117D01*
X73762016Y-119203595D01*
X73797925Y-119150493D01*
X73817019Y-119121703D01*
X73818864Y-119118726D01*
X73816105Y-119095782D01*
X73801462Y-119045336D01*
X73777487Y-118974041D01*
X73746734Y-118888547D01*
X73711756Y-118795507D01*
X73675107Y-118701574D01*
X73639339Y-118613399D01*
X73607006Y-118537634D01*
X73580662Y-118480931D01*
X73562858Y-118449943D01*
X73561593Y-118448457D01*
X73550706Y-118439601D01*
X73532318Y-118430843D01*
X73502394Y-118421277D01*
X73456897Y-118409996D01*
X73391791Y-118396093D01*
X73303039Y-118378663D01*
X73186607Y-118356798D01*
X73038458Y-118329591D01*
X73006382Y-118323741D01*
X72911314Y-118305374D01*
X72828435Y-118287405D01*
X72765070Y-118271569D01*
X72728542Y-118259600D01*
X72723644Y-118256810D01*
X72715573Y-118232072D01*
X72709013Y-118176790D01*
X72703967Y-118097389D01*
X72700441Y-118000296D01*
X72698439Y-117891938D01*
X72697964Y-117778740D01*
X72699023Y-117667128D01*
X72701618Y-117563529D01*
X72705754Y-117474368D01*
X72711437Y-117406072D01*
X72718669Y-117365066D01*
X72723029Y-117356674D01*
X72747302Y-117348208D01*
X72802574Y-117334435D01*
X72883338Y-117316550D01*
X72984088Y-117295748D01*
X73099317Y-117273223D01*
X73162098Y-117261418D01*
X73281213Y-117239151D01*
X73387435Y-117218979D01*
X73475573Y-117201915D01*
X73540434Y-117188969D01*
X73576826Y-117181155D01*
X73582816Y-117179422D01*
X73592939Y-117159890D01*
X73614338Y-117112843D01*
X73644161Y-117045003D01*
X73679555Y-116963091D01*
X73717668Y-116873828D01*
X73755647Y-116783935D01*
X73790640Y-116700135D01*
X73819794Y-116629147D01*
X73840257Y-116577694D01*
X73849177Y-116552497D01*
X73849343Y-116551396D01*
X73839231Y-116531519D01*
X73810883Y-116485777D01*
X73767277Y-116418717D01*
X73711394Y-116334884D01*
X73646213Y-116238826D01*
X73608321Y-116183650D01*
X73539275Y-116082481D01*
X73477950Y-115990630D01*
X73427337Y-115912744D01*
X73390429Y-115853469D01*
X73370218Y-115817451D01*
X73367299Y-115809377D01*
X73379847Y-115790584D01*
X73414537Y-115750457D01*
X73466937Y-115693493D01*
X73532616Y-115624185D01*
X73607144Y-115547031D01*
X73686087Y-115466525D01*
X73765017Y-115387163D01*
X73839500Y-115313440D01*
X73905106Y-115249852D01*
X73957404Y-115200894D01*
X73991961Y-115171061D01*
X74003522Y-115163942D01*
X74022346Y-115173953D01*
X74067369Y-115202078D01*
X74134213Y-115245454D01*
X74218501Y-115301218D01*
X74315856Y-115366506D01*
X74389293Y-115416246D01*
X74760333Y-115668551D01*
X75378905Y-115413555D01*
X75462725Y-114968931D01*
X75546546Y-114524307D01*
X76471994Y-114524307D01*
X76555814Y-114968931D01*
X76555814Y-114968931D01*
G37*
X76555814Y-114968931D02*
X76639635Y-115413555D01*
X76948920Y-115541053D01*
X77258206Y-115668551D01*
X77629246Y-115416246D01*
X77733157Y-115345996D01*
X77827087Y-115283272D01*
X77906652Y-115230938D01*
X77967470Y-115191857D01*
X78005157Y-115168893D01*
X78015421Y-115163942D01*
X78033910Y-115176676D01*
X78073420Y-115211882D01*
X78129522Y-115265062D01*
X78197787Y-115331718D01*
X78273786Y-115407354D01*
X78353092Y-115487472D01*
X78431275Y-115567574D01*
X78503907Y-115643164D01*
X78566559Y-115709745D01*
X78614803Y-115762818D01*
X78644210Y-115797887D01*
X78651241Y-115809623D01*
X78641123Y-115831260D01*
X78612759Y-115878662D01*
X78569129Y-115947193D01*
X78513218Y-116032215D01*
X78448006Y-116129093D01*
X78410219Y-116184350D01*
X78341343Y-116285248D01*
X78280140Y-116376299D01*
X78229578Y-116452970D01*
X78192628Y-116510728D01*
X78172258Y-116545043D01*
X78169197Y-116552254D01*
X78176136Y-116572748D01*
X78195051Y-116620513D01*
X78223087Y-116688832D01*
X78257391Y-116770989D01*
X78295109Y-116860270D01*
X78333387Y-116949958D01*
X78369370Y-117033338D01*
X78400206Y-117103694D01*
X78423039Y-117154310D01*
X78435017Y-117178471D01*
X78435724Y-117179422D01*
X78454531Y-117184036D01*
X78504618Y-117194328D01*
X78580793Y-117209287D01*
X78677865Y-117227901D01*
X78790643Y-117249159D01*
X78856442Y-117261418D01*
X78976950Y-117284362D01*
X79085797Y-117306195D01*
X79177476Y-117325722D01*
X79246481Y-117341748D01*
X79287304Y-117353079D01*
X79295511Y-117356674D01*
X79303548Y-117381006D01*
X79310033Y-117435959D01*
X79314970Y-117515108D01*
X79318364Y-117612026D01*
X79320218Y-117720287D01*
X79320538Y-117833465D01*
X79319327Y-117945135D01*
X79316590Y-118048868D01*
X79312331Y-118138241D01*
X79306555Y-118206826D01*
X79299267Y-118248197D01*
X79294895Y-118256810D01*
X79268764Y-118267133D01*
X79213393Y-118281892D01*
X79136107Y-118299352D01*
X79044230Y-118317780D01*
X79012158Y-118323741D01*
X78857524Y-118352066D01*
X78735375Y-118374876D01*
X78641673Y-118393080D01*
X78572384Y-118407583D01*
X78523471Y-118419292D01*
X78490897Y-118429115D01*
X78470628Y-118437956D01*
X78458626Y-118446724D01*
X78456947Y-118448457D01*
X78440184Y-118476371D01*
X78414614Y-118530695D01*
X78382788Y-118604777D01*
X78347260Y-118691965D01*
X78310583Y-118785608D01*
X78275311Y-118879052D01*
X78243996Y-118965647D01*
X78219193Y-119038740D01*
X78203454Y-119091678D01*
X78199332Y-119117811D01*
X78199676Y-119118726D01*
X78213641Y-119140086D01*
X78245322Y-119187084D01*
X78291391Y-119254827D01*
X78348518Y-119338423D01*
X78413373Y-119432982D01*
X78431843Y-119459854D01*
X78497699Y-119557275D01*
X78555650Y-119646163D01*
X78602538Y-119721412D01*
X78635207Y-119777920D01*
X78650500Y-119810581D01*
X78651241Y-119814593D01*
X78638392Y-119835684D01*
X78602888Y-119877464D01*
X78549293Y-119935445D01*
X78482171Y-120005135D01*
X78406087Y-120082045D01*
X78325604Y-120161683D01*
X78245287Y-120239561D01*
X78169699Y-120311186D01*
X78103405Y-120372070D01*
X78050969Y-120417721D01*
X78016955Y-120443650D01*
X78007545Y-120447883D01*
X77985643Y-120437912D01*
X77940800Y-120411020D01*
X77880321Y-120371736D01*
X77833789Y-120340117D01*
X77749475Y-120282098D01*
X77649626Y-120213784D01*
X77549473Y-120145579D01*
X77495627Y-120109075D01*
X77313371Y-119985800D01*
X77160381Y-120068520D01*
X77090682Y-120104759D01*
X77031414Y-120132926D01*
X76991311Y-120148991D01*
X76981103Y-120151226D01*
X76968829Y-120134722D01*
X76944613Y-120088082D01*
X76910263Y-120015609D01*
X76867588Y-119921606D01*
X76818394Y-119810374D01*
X76764490Y-119686215D01*
X76707684Y-119553432D01*
X76649782Y-119416327D01*
X76592593Y-119279202D01*
X76537924Y-119146358D01*
X76487584Y-119022098D01*
X76443380Y-118910725D01*
X76407119Y-118816539D01*
X76380609Y-118743844D01*
X76365658Y-118696941D01*
X76363254Y-118680833D01*
X76382311Y-118660286D01*
X76424036Y-118626933D01*
X76479706Y-118587702D01*
X76484378Y-118584599D01*
X76628264Y-118469423D01*
X76744283Y-118335053D01*
X76831430Y-118185784D01*
X76888699Y-118025913D01*
X76915086Y-117859737D01*
X76909585Y-117691552D01*
X76871190Y-117525655D01*
X76798895Y-117366342D01*
X76777626Y-117331487D01*
X76666996Y-117190737D01*
X76536302Y-117077714D01*
X76390064Y-116993003D01*
X76232808Y-116937194D01*
X76069057Y-116910874D01*
X75903333Y-116914630D01*
X75740162Y-116949050D01*
X75584065Y-117014723D01*
X75439567Y-117112235D01*
X75394869Y-117151813D01*
X75281112Y-117275703D01*
X75198218Y-117406124D01*
X75141356Y-117552315D01*
X75109687Y-117697088D01*
X75101869Y-117859860D01*
X75127938Y-118023440D01*
X75185245Y-118182298D01*
X75271144Y-118330906D01*
X75382986Y-118463735D01*
X75518123Y-118575256D01*
X75535883Y-118587011D01*
X75592150Y-118625508D01*
X75634923Y-118658863D01*
X75655372Y-118680160D01*
X75655669Y-118680833D01*
X75651279Y-118703871D01*
X75633876Y-118756157D01*
X75605268Y-118833390D01*
X75567265Y-118931268D01*
X75521674Y-119045491D01*
X75470303Y-119171758D01*
X75414962Y-119305767D01*
X75357458Y-119443218D01*
X75299601Y-119579808D01*
X75243198Y-119711237D01*
X75190058Y-119833205D01*
X75141990Y-119941409D01*
X75100801Y-120031549D01*
X75068301Y-120099323D01*
X75046297Y-120140430D01*
X75037436Y-120151226D01*
X75010360Y-120142819D01*
X74959697Y-120120272D01*
X74894183Y-120087613D01*
X74858159Y-120068520D01*
X74705168Y-119985800D01*
X74522912Y-120109075D01*
X74429875Y-120172228D01*
X74328015Y-120241727D01*
X74232562Y-120307165D01*
X74184750Y-120340117D01*
X74117505Y-120385273D01*
X74060564Y-120421057D01*
X74021354Y-120442938D01*
X74008619Y-120447563D01*
X73990083Y-120435085D01*
X73949059Y-120400252D01*
X73889525Y-120346678D01*
X73815458Y-120277983D01*
X73730835Y-120197781D01*
X73677315Y-120146286D01*
X73583681Y-120054286D01*
X73502759Y-119971999D01*
X73437823Y-119902945D01*
X73392142Y-119850644D01*
X73368989Y-119818616D01*
X73366768Y-119812116D01*
X73377076Y-119787394D01*
X73405561Y-119737405D01*
X73449063Y-119667212D01*
X73504423Y-119581875D01*
X73568480Y-119486456D01*
X73586697Y-119459854D01*
X73653073Y-119363167D01*
X73712622Y-119276117D01*
X73762016Y-119203595D01*
X73797925Y-119150493D01*
X73817019Y-119121703D01*
X73818864Y-119118726D01*
X73816105Y-119095782D01*
X73801462Y-119045336D01*
X73777487Y-118974041D01*
X73746734Y-118888547D01*
X73711756Y-118795507D01*
X73675107Y-118701574D01*
X73639339Y-118613399D01*
X73607006Y-118537634D01*
X73580662Y-118480931D01*
X73562858Y-118449943D01*
X73561593Y-118448457D01*
X73550706Y-118439601D01*
X73532318Y-118430843D01*
X73502394Y-118421277D01*
X73456897Y-118409996D01*
X73391791Y-118396093D01*
X73303039Y-118378663D01*
X73186607Y-118356798D01*
X73038458Y-118329591D01*
X73006382Y-118323741D01*
X72911314Y-118305374D01*
X72828435Y-118287405D01*
X72765070Y-118271569D01*
X72728542Y-118259600D01*
X72723644Y-118256810D01*
X72715573Y-118232072D01*
X72709013Y-118176790D01*
X72703967Y-118097389D01*
X72700441Y-118000296D01*
X72698439Y-117891938D01*
X72697964Y-117778740D01*
X72699023Y-117667128D01*
X72701618Y-117563529D01*
X72705754Y-117474368D01*
X72711437Y-117406072D01*
X72718669Y-117365066D01*
X72723029Y-117356674D01*
X72747302Y-117348208D01*
X72802574Y-117334435D01*
X72883338Y-117316550D01*
X72984088Y-117295748D01*
X73099317Y-117273223D01*
X73162098Y-117261418D01*
X73281213Y-117239151D01*
X73387435Y-117218979D01*
X73475573Y-117201915D01*
X73540434Y-117188969D01*
X73576826Y-117181155D01*
X73582816Y-117179422D01*
X73592939Y-117159890D01*
X73614338Y-117112843D01*
X73644161Y-117045003D01*
X73679555Y-116963091D01*
X73717668Y-116873828D01*
X73755647Y-116783935D01*
X73790640Y-116700135D01*
X73819794Y-116629147D01*
X73840257Y-116577694D01*
X73849177Y-116552497D01*
X73849343Y-116551396D01*
X73839231Y-116531519D01*
X73810883Y-116485777D01*
X73767277Y-116418717D01*
X73711394Y-116334884D01*
X73646213Y-116238826D01*
X73608321Y-116183650D01*
X73539275Y-116082481D01*
X73477950Y-115990630D01*
X73427337Y-115912744D01*
X73390429Y-115853469D01*
X73370218Y-115817451D01*
X73367299Y-115809377D01*
X73379847Y-115790584D01*
X73414537Y-115750457D01*
X73466937Y-115693493D01*
X73532616Y-115624185D01*
X73607144Y-115547031D01*
X73686087Y-115466525D01*
X73765017Y-115387163D01*
X73839500Y-115313440D01*
X73905106Y-115249852D01*
X73957404Y-115200894D01*
X73991961Y-115171061D01*
X74003522Y-115163942D01*
X74022346Y-115173953D01*
X74067369Y-115202078D01*
X74134213Y-115245454D01*
X74218501Y-115301218D01*
X74315856Y-115366506D01*
X74389293Y-115416246D01*
X74760333Y-115668551D01*
X75378905Y-115413555D01*
X75462725Y-114968931D01*
X75546546Y-114524307D01*
X76471994Y-114524307D01*
X76555814Y-114968931D01*
G36*
X126088617Y-112311343D02*
X126403318Y-112530788D01*
X126704272Y-112849496D01*
X126943781Y-113211652D01*
X127035742Y-113419606D01*
X127134896Y-113612523D01*
X127262790Y-113655458D01*
X127448305Y-113557180D01*
X127460014Y-113548413D01*
X127710871Y-113440678D01*
X127960059Y-113489356D01*
X128135566Y-113626259D01*
X128275204Y-113856606D01*
X128280927Y-114015522D01*
X128282316Y-114154551D01*
X128371269Y-114268044D01*
X128553930Y-114384774D01*
X128743768Y-114483524D01*
X128865290Y-114531738D01*
X128885288Y-114531292D01*
X128941740Y-114453635D01*
X129048001Y-114305816D01*
X129048586Y-114305000D01*
X129136738Y-114193162D01*
X129149487Y-114213388D01*
X129132323Y-114265312D01*
X129047769Y-114518985D01*
X129028505Y-114655556D01*
X129071546Y-114701239D01*
X129082617Y-114701875D01*
X129168908Y-114660008D01*
X129173618Y-114642343D01*
X129224110Y-114555989D01*
X129352795Y-114392199D01*
X129497060Y-114225625D01*
X129818133Y-113868437D01*
X129494849Y-114359944D01*
X129348704Y-114601638D01*
X129258306Y-114790623D01*
X129240178Y-114891340D01*
X129245297Y-114897020D01*
X129347531Y-114887801D01*
X129366603Y-114865615D01*
X129458886Y-114773485D01*
X129626880Y-114643102D01*
X129669744Y-114613043D01*
X129925312Y-114437445D01*
X129665400Y-114714349D01*
X129512427Y-114883826D01*
X129457465Y-114984440D01*
X129489021Y-115062265D01*
X129561180Y-115132152D01*
X129702004Y-115221380D01*
X129792254Y-115226462D01*
X129896524Y-115240687D01*
X129971284Y-115304760D01*
X130095572Y-115421401D01*
X130296072Y-115578674D01*
X130416840Y-115664886D01*
X130610885Y-115817356D01*
X130734776Y-115951140D01*
X130758750Y-116006757D01*
X130685176Y-116117696D01*
X130487633Y-116219947D01*
X130200890Y-116302774D01*
X129859713Y-116355444D01*
X129586362Y-116368700D01*
X129052187Y-116368651D01*
X129080210Y-116773270D01*
X129083957Y-117017388D01*
X129062617Y-117194544D01*
X129040523Y-117244129D01*
X128930456Y-117287536D01*
X128713374Y-117333039D01*
X128489024Y-117364356D01*
X128005235Y-117418345D01*
X127996169Y-117321250D01*
X128060000Y-117321250D01*
X128298125Y-117321250D01*
X128432057Y-117314444D01*
X128503209Y-117268548D01*
X128531623Y-117145340D01*
X128537342Y-116906599D01*
X128537465Y-116864843D01*
X128546376Y-116610396D01*
X128572951Y-116503549D01*
X128615625Y-116527500D01*
X128666854Y-116682751D01*
X128692987Y-116909940D01*
X128693784Y-116950038D01*
X128708337Y-117149065D01*
X128761877Y-117226495D01*
X128833906Y-117227191D01*
X128936528Y-117135339D01*
X128994231Y-116940268D01*
X128999965Y-116692922D01*
X128946681Y-116444250D01*
X128943449Y-116435591D01*
X128860245Y-116302099D01*
X128706187Y-116215335D01*
X128463323Y-116153839D01*
X128060000Y-116074092D01*
X128060000Y-117321250D01*
X127996169Y-117321250D01*
X127954910Y-116879418D01*
X127915345Y-116596440D01*
X127860586Y-116379598D01*
X127803698Y-116276461D01*
X127661267Y-116233657D01*
X127442758Y-116211856D01*
X127405156Y-116211215D01*
X127107500Y-116210000D01*
X127107500Y-118035625D01*
X127473108Y-118035625D01*
X127783656Y-118000052D01*
X128046367Y-117870758D01*
X128127952Y-117810687D01*
X128333747Y-117662574D01*
X128508158Y-117556927D01*
X128553551Y-117536341D01*
X128695039Y-117522337D01*
X128732154Y-117599719D01*
X128662267Y-117738015D01*
X128578693Y-117827682D01*
X128374075Y-118017315D01*
X128673444Y-118073260D01*
X128972963Y-118154930D01*
X129124112Y-118248828D01*
X129126950Y-118337810D01*
X128981535Y-118404731D01*
X128687924Y-118432449D01*
X128672230Y-118432500D01*
X128261954Y-118432500D01*
X128557852Y-118676403D01*
X128779581Y-118894060D01*
X128864383Y-119050028D01*
X128827231Y-119128751D01*
X128683098Y-119114671D01*
X128446957Y-118992232D01*
X128332108Y-118910958D01*
X128077284Y-118755467D01*
X127846632Y-118679281D01*
X127672532Y-118686462D01*
X127587361Y-118781071D01*
X127583750Y-118817072D01*
X127656001Y-119006918D01*
X127845013Y-119169372D01*
X128060000Y-119255761D01*
X128170401Y-119277806D01*
X128145309Y-119252119D01*
X128020312Y-119189355D01*
X127879816Y-119112426D01*
X127879093Y-119078574D01*
X127940937Y-119073604D01*
X128097308Y-119106734D01*
X128245491Y-119185196D01*
X128333274Y-119274747D01*
X128328727Y-119327939D01*
X128352862Y-119348519D01*
X128440065Y-119333019D01*
X128592647Y-119338085D01*
X128654149Y-119383118D01*
X128660450Y-119505636D01*
X128612323Y-119712384D01*
X128528472Y-119955110D01*
X128427602Y-120185556D01*
X128328418Y-120355469D01*
X128253444Y-120416875D01*
X128118123Y-120471814D01*
X128091659Y-120592645D01*
X128166935Y-120695635D01*
X128259027Y-120836291D01*
X128296503Y-121097124D01*
X128298125Y-121188946D01*
X128326378Y-121452892D01*
X128399568Y-121776287D01*
X128500340Y-122101175D01*
X128611340Y-122369601D01*
X128690162Y-122498169D01*
X128786929Y-122509839D01*
X128982064Y-122477057D01*
X129126003Y-122438638D01*
X129416448Y-122368128D01*
X129696146Y-122326579D01*
X129788896Y-122321875D01*
X129964592Y-122330920D01*
X130008859Y-122370758D01*
X129962002Y-122444549D01*
X129825767Y-122525668D01*
X129740375Y-122521246D01*
X129608040Y-122512049D01*
X129396367Y-122535251D01*
X129156918Y-122580153D01*
X128941257Y-122636057D01*
X128800944Y-122692263D01*
X128774375Y-122721687D01*
X128802521Y-122825541D01*
X128872417Y-123012356D01*
X128895285Y-123068117D01*
X128967055Y-123256624D01*
X128965768Y-123353061D01*
X128882695Y-123410493D01*
X128835754Y-123429967D01*
X128743601Y-123475418D01*
X128777439Y-123496925D01*
X128952976Y-123502844D01*
X128972812Y-123502894D01*
X129276834Y-123486236D01*
X129586865Y-123445126D01*
X129607812Y-123441150D01*
X129802394Y-123400031D01*
X129854537Y-123371356D01*
X129777824Y-123338273D01*
X129707031Y-123318057D01*
X129535407Y-123249183D01*
X129511327Y-123175832D01*
X129638089Y-123093457D01*
X129918992Y-122997516D01*
X129945156Y-122989991D01*
X130289295Y-122880523D01*
X130477782Y-122796768D01*
X130512448Y-122744423D01*
X130395123Y-122729184D01*
X130127638Y-122756747D01*
X129883611Y-122798506D01*
X129598093Y-122843396D01*
X129449545Y-122838838D01*
X129422673Y-122780299D01*
X129487158Y-122680980D01*
X129589972Y-122593179D01*
X129682333Y-122558242D01*
X129712472Y-122590700D01*
X129698064Y-122621776D01*
X129750896Y-122647859D01*
X129925679Y-122659206D01*
X130186115Y-122653713D01*
X130219101Y-122651953D01*
X130547458Y-122649278D01*
X130722056Y-122684890D01*
X130742166Y-122755592D01*
X130607056Y-122858185D01*
X130315998Y-122989471D01*
X130297775Y-122996562D01*
X130024626Y-123115670D01*
X129906713Y-123201633D01*
X129944022Y-123254475D01*
X130136544Y-123274219D01*
X130163437Y-123274375D01*
X130347109Y-123290874D01*
X130438867Y-123331444D01*
X130441250Y-123340029D01*
X130366492Y-123396650D01*
X130160384Y-123456063D01*
X129850173Y-123514105D01*
X129463105Y-123566617D01*
X129026430Y-123609437D01*
X128567392Y-123638404D01*
X128458931Y-123642761D01*
X128092264Y-123660773D01*
X127784616Y-123685273D01*
X127570295Y-123712909D01*
X127485398Y-123737851D01*
X127515730Y-123801074D01*
X127659422Y-123899117D01*
X127821567Y-123980927D01*
X128062290Y-124111374D01*
X128246096Y-124249926D01*
X128307286Y-124323368D01*
X128348874Y-124418276D01*
X128317828Y-124458095D01*
X128183033Y-124454025D01*
X128008749Y-124430844D01*
X127623437Y-124376181D01*
X127980625Y-124690364D01*
X128197235Y-124893524D01*
X128292090Y-125008522D01*
X128275647Y-125035072D01*
X128158360Y-124972885D01*
X127950686Y-124821675D01*
X127795763Y-124695446D01*
X127562789Y-124490825D01*
X127444013Y-124360530D01*
X127425195Y-124285587D01*
X127465406Y-124255303D01*
X127625839Y-124243907D01*
X127847739Y-124281966D01*
X127884356Y-124292498D01*
X128108691Y-124350869D01*
X128194223Y-124348996D01*
X128146154Y-124293443D01*
X127969686Y-124190777D01*
X127701553Y-124061785D01*
X127412555Y-123936979D01*
X127192415Y-123868593D01*
X126975123Y-123845796D01*
X126694672Y-123857761D01*
X126538089Y-123870907D01*
X126247010Y-123903743D01*
X126028989Y-123941803D01*
X125921885Y-123978063D01*
X125916875Y-123986149D01*
X125974203Y-124083145D01*
X126127102Y-124243490D01*
X126346945Y-124444106D01*
X126605104Y-124661911D01*
X126872951Y-124873826D01*
X127121860Y-125056771D01*
X127323202Y-125187665D01*
X127448351Y-125243429D01*
X127471051Y-125239156D01*
X127445676Y-125163184D01*
X127344396Y-125001319D01*
X127219558Y-124829191D01*
X127072070Y-124625985D01*
X126979527Y-124478702D01*
X126961571Y-124425720D01*
X127036929Y-124451725D01*
X127215751Y-124544980D01*
X127466838Y-124688671D01*
X127622411Y-124781876D01*
X127902770Y-124945919D01*
X128131455Y-125067722D01*
X128275871Y-125130517D01*
X128307182Y-125134089D01*
X128390377Y-125156964D01*
X128482034Y-125254090D01*
X128525411Y-125356881D01*
X128515249Y-125385583D01*
X128415953Y-125382458D01*
X128225941Y-125300897D01*
X127980105Y-125159542D01*
X127713337Y-124977035D01*
X127626116Y-124910530D01*
X127311296Y-124663437D01*
X127566585Y-125034926D01*
X127747909Y-125323296D01*
X127819564Y-125502930D01*
X127779950Y-125574235D01*
X127627469Y-125537615D01*
X127360522Y-125393477D01*
X127022414Y-125173075D01*
X126682910Y-124925244D01*
X126329277Y-124642036D01*
X126030801Y-124379278D01*
X125996250Y-124346224D01*
X125559687Y-123922547D01*
X124845312Y-123872586D01*
X124256213Y-123819630D01*
X123694448Y-123747248D01*
X123181049Y-123660178D01*
X122737049Y-123563156D01*
X122383479Y-123460920D01*
X122141372Y-123358207D01*
X122031759Y-123259755D01*
X122031731Y-123259609D01*
X122178737Y-123259609D01*
X122599212Y-123349900D01*
X123631523Y-123539941D01*
X124652312Y-123667531D01*
X125627416Y-123730265D01*
X126522675Y-123725741D01*
X127165925Y-123671114D01*
X127564397Y-123609467D01*
X128002445Y-123526983D01*
X128298155Y-123461856D01*
X128531860Y-123407696D01*
X128689986Y-123359747D01*
X128775970Y-123292391D01*
X128793245Y-123180013D01*
X128745247Y-122996994D01*
X128635410Y-122717718D01*
X128467169Y-122316569D01*
X128455478Y-122288513D01*
X128157044Y-121571540D01*
X127175866Y-121426962D01*
X126672998Y-121343464D01*
X126326628Y-121264079D01*
X126134574Y-121188263D01*
X126100749Y-121159181D01*
X125984783Y-121081912D01*
X125917005Y-121091481D01*
X125781327Y-121116753D01*
X125578901Y-121100580D01*
X125574380Y-121099747D01*
X125321562Y-121052510D01*
X125347183Y-120379421D01*
X125372805Y-119706331D01*
X125018066Y-119486134D01*
X124718803Y-119298742D01*
X124547935Y-119185879D01*
X124497950Y-119140025D01*
X124561339Y-119153660D01*
X124730594Y-119219265D01*
X124765937Y-119233649D01*
X125167065Y-119436324D01*
X125423288Y-119661903D01*
X125548067Y-119922295D01*
X125548966Y-119926340D01*
X125604788Y-120172264D01*
X125644037Y-120337500D01*
X125663908Y-120460552D01*
X125626161Y-120441653D01*
X125615509Y-120427155D01*
X125561542Y-120399392D01*
X125524428Y-120508069D01*
X125507307Y-120645437D01*
X125506273Y-120865028D01*
X125578157Y-120972098D01*
X125754036Y-120992696D01*
X125902919Y-120977072D01*
X126052283Y-121011017D01*
X126111970Y-121049101D01*
X126228569Y-121098547D01*
X126455063Y-121163450D01*
X126744724Y-121233375D01*
X127050823Y-121297887D01*
X127326631Y-121346550D01*
X127525419Y-121368929D01*
X127546144Y-121369375D01*
X127625655Y-121300015D01*
X127638380Y-121151093D01*
X127654299Y-120987377D01*
X127749967Y-120933758D01*
X127775572Y-120932812D01*
X127920839Y-120986957D01*
X127967074Y-121051875D01*
X127979944Y-121128594D01*
X127911966Y-121092292D01*
X127874470Y-121061999D01*
X127774647Y-120999465D01*
X127743968Y-121067856D01*
X127742500Y-121130023D01*
X127776351Y-121259498D01*
X127856434Y-121263263D01*
X127972005Y-121271413D01*
X128000024Y-121308512D01*
X128078586Y-121355677D01*
X128124507Y-121338876D01*
X128174866Y-121227507D01*
X128164585Y-121043628D01*
X128102994Y-120857227D01*
X128049752Y-120778031D01*
X127984013Y-120615016D01*
X128016634Y-120440826D01*
X128089360Y-120361287D01*
X128194294Y-120251657D01*
X128313373Y-120062039D01*
X128420520Y-119845181D01*
X128489656Y-119653834D01*
X128494880Y-119541027D01*
X128381566Y-119470049D01*
X128336105Y-119464375D01*
X128132501Y-119424555D01*
X127828967Y-119315173D01*
X127459858Y-119151339D01*
X127059525Y-118948166D01*
X126706380Y-118747449D01*
X126424634Y-118578895D01*
X126200510Y-118446292D01*
X126064090Y-118367356D01*
X126036836Y-118353125D01*
X125987275Y-118419690D01*
X125907902Y-118584769D01*
X125819590Y-118796433D01*
X125743213Y-119002754D01*
X125699644Y-119151805D01*
X125698995Y-119193579D01*
X125803522Y-119210784D01*
X125905321Y-119190229D01*
X126010571Y-119126911D01*
X126035757Y-118997865D01*
X126019980Y-118865481D01*
X126019976Y-118864657D01*
X126101684Y-118864657D01*
X126121936Y-118937076D01*
X126213380Y-119045093D01*
X126324972Y-119057590D01*
X126391109Y-118972421D01*
X126393125Y-118945946D01*
X126337697Y-118831772D01*
X126220142Y-118756264D01*
X126113554Y-118765231D01*
X126110020Y-118768520D01*
X126101684Y-118864657D01*
X126019976Y-118864657D01*
X126018843Y-118660417D01*
X126096893Y-118588877D01*
X126244322Y-118652926D01*
X126390939Y-118787360D01*
X126508939Y-118941118D01*
X126511969Y-119050786D01*
X126482124Y-119095590D01*
X126434278Y-119198083D01*
X126510161Y-119254176D01*
X126625190Y-119333719D01*
X126600946Y-119409802D01*
X126455534Y-119458141D01*
X126353437Y-119464375D01*
X126149656Y-119482625D01*
X126088969Y-119547638D01*
X126167528Y-119674807D01*
X126274062Y-119781875D01*
X126439475Y-119982701D01*
X126473109Y-120136851D01*
X126377359Y-120225968D01*
X126214531Y-120238536D01*
X126033253Y-120242751D01*
X125963157Y-120308960D01*
X125956562Y-120370572D01*
X126001503Y-120512736D01*
X126055781Y-120555781D01*
X126134796Y-120518425D01*
X126155000Y-120407614D01*
X126173330Y-120287890D01*
X126237745Y-120309308D01*
X126244914Y-120316289D01*
X126311233Y-120456574D01*
X126244524Y-120573963D01*
X126070294Y-120637263D01*
X125979745Y-120640593D01*
X125718375Y-120630767D01*
X125696317Y-120115682D01*
X125690105Y-119970593D01*
X125758125Y-119970593D01*
X125817545Y-120081936D01*
X125877187Y-120099375D01*
X125983094Y-120083058D01*
X125996250Y-120069406D01*
X125943649Y-120000922D01*
X125877187Y-119940625D01*
X125783297Y-119885284D01*
X125758235Y-119958205D01*
X125758125Y-119970593D01*
X125690105Y-119970593D01*
X125674260Y-119600596D01*
X126001064Y-119895843D01*
X126218579Y-120074255D01*
X126343026Y-120140781D01*
X126365226Y-120099726D01*
X126276004Y-119955398D01*
X126163815Y-119819476D01*
X126026081Y-119638414D01*
X125958214Y-119499626D01*
X125959499Y-119459622D01*
X126062261Y-119409240D01*
X126256195Y-119380986D01*
X126298590Y-119379421D01*
X126473057Y-119369552D01*
X126503964Y-119344010D01*
X126432812Y-119305623D01*
X126257292Y-119272248D01*
X126008078Y-119270524D01*
X125916875Y-119278419D01*
X125690124Y-119291466D01*
X125522875Y-119250279D01*
X125345920Y-119130673D01*
X125242187Y-119042646D01*
X125049689Y-118855071D01*
X124975306Y-118743393D01*
X125013310Y-118721289D01*
X125157971Y-118802438D01*
X125297807Y-118909855D01*
X125582711Y-119144697D01*
X125635562Y-118927504D01*
X125775309Y-118572838D01*
X125991044Y-118281108D01*
X125993278Y-118279360D01*
X126201388Y-118279360D01*
X126250413Y-118329293D01*
X126402239Y-118435759D01*
X126621483Y-118577145D01*
X126872760Y-118731840D01*
X127120686Y-118878231D01*
X127329879Y-118994708D01*
X127464954Y-119059657D01*
X127489880Y-119066353D01*
X127489381Y-119003585D01*
X127461740Y-118899466D01*
X127376825Y-118754444D01*
X127213125Y-118555122D01*
X127064024Y-118401454D01*
X126927269Y-118276662D01*
X127197014Y-118276662D01*
X127264542Y-118394027D01*
X127332695Y-118460486D01*
X127545725Y-118556129D01*
X127710876Y-118545981D01*
X127895455Y-118541516D01*
X128083796Y-118622894D01*
X128250657Y-118743817D01*
X128492739Y-118920143D01*
X128631568Y-118982998D01*
X128664723Y-118931508D01*
X128651921Y-118888906D01*
X128564256Y-118780601D01*
X128400288Y-118647007D01*
X128376828Y-118630937D01*
X128220053Y-118510994D01*
X128141654Y-118421774D01*
X128139603Y-118412656D01*
X128211303Y-118380201D01*
X128396672Y-118358578D01*
X128580621Y-118353125D01*
X128847505Y-118337194D01*
X128963004Y-118297141D01*
X128925170Y-118244573D01*
X128732057Y-118191100D01*
X128611004Y-118172072D01*
X128397622Y-118135341D01*
X128260628Y-118096701D01*
X128242723Y-118086056D01*
X128268361Y-118012817D01*
X128384603Y-117883323D01*
X128427872Y-117843766D01*
X128565404Y-117706856D01*
X128588619Y-117647370D01*
X128518669Y-117659972D01*
X128376706Y-117739324D01*
X128183883Y-117880088D01*
X128139375Y-117916562D01*
X127883319Y-118100052D01*
X127655021Y-118182161D01*
X127496865Y-118194375D01*
X127272466Y-118213335D01*
X127197014Y-118276662D01*
X126927269Y-118276662D01*
X126864014Y-118218941D01*
X126726984Y-118131482D01*
X126606424Y-118119181D01*
X126482704Y-118152769D01*
X126303234Y-118223082D01*
X126201830Y-118278916D01*
X126201388Y-118279360D01*
X125993278Y-118279360D01*
X126253704Y-118075678D01*
X126534225Y-117979910D01*
X126779973Y-118007551D01*
X126988437Y-118086244D01*
X126988437Y-117151075D01*
X126986623Y-116752095D01*
X126978175Y-116484377D01*
X126958582Y-116320446D01*
X126923335Y-116232828D01*
X126867921Y-116194049D01*
X126829687Y-116184075D01*
X126806032Y-116164326D01*
X126916438Y-116147961D01*
X127047968Y-116141434D01*
X127267867Y-116123313D01*
X127403733Y-116089358D01*
X127425000Y-116068091D01*
X127437449Y-116051250D01*
X127544062Y-116051250D01*
X127572531Y-116109766D01*
X127702812Y-116130625D01*
X127840753Y-116105936D01*
X127861562Y-116051250D01*
X127746384Y-115977412D01*
X127702812Y-115971875D01*
X127569670Y-116022197D01*
X127544062Y-116051250D01*
X127437449Y-116051250D01*
X127484938Y-115987011D01*
X127636893Y-115864743D01*
X127839070Y-115727543D01*
X128049676Y-115601665D01*
X128226919Y-115513364D01*
X128329005Y-115488895D01*
X128337377Y-115494921D01*
X128306015Y-115575576D01*
X128169873Y-115677625D01*
X128141970Y-115692720D01*
X127979715Y-115792720D01*
X127902326Y-115872069D01*
X127901250Y-115878416D01*
X127972677Y-115923344D01*
X128159153Y-115980380D01*
X128397343Y-116032571D01*
X128727714Y-116100324D01*
X129052505Y-116176259D01*
X129228279Y-116223174D01*
X129437603Y-116275020D01*
X129572871Y-116291271D01*
X129594558Y-116285261D01*
X129621617Y-116192626D01*
X129656669Y-115994177D01*
X129678087Y-115841115D01*
X129723902Y-115481788D01*
X129885625Y-115481788D01*
X129886543Y-115618482D01*
X129886814Y-115634531D01*
X129954269Y-115698628D01*
X130117827Y-115777135D01*
X130144783Y-115787242D01*
X130366564Y-115859381D01*
X130484392Y-115880679D01*
X130481217Y-115850299D01*
X130401562Y-115799871D01*
X130222429Y-115679505D01*
X130064218Y-115550323D01*
X129942053Y-115465055D01*
X129886011Y-115475997D01*
X129885625Y-115481788D01*
X129723902Y-115481788D01*
X129730181Y-115432544D01*
X129232434Y-115078527D01*
X128949539Y-114884333D01*
X128678192Y-114709764D01*
X128475213Y-114591318D01*
X128468619Y-114587904D01*
X128287873Y-114504394D01*
X128174394Y-114502832D01*
X128055955Y-114589384D01*
X128016025Y-114626527D01*
X127808738Y-114753727D01*
X127667016Y-114759268D01*
X127516454Y-114756545D01*
X127457056Y-114793597D01*
X127351986Y-114878588D01*
X127218537Y-114943051D01*
X126963786Y-114974223D01*
X126758621Y-114878988D01*
X126620544Y-114686410D01*
X126567052Y-114425554D01*
X126580309Y-114343690D01*
X126732395Y-114343690D01*
X126751251Y-114600555D01*
X126784173Y-114690988D01*
X126932756Y-114825346D01*
X127133850Y-114855844D01*
X127315437Y-114774753D01*
X127338252Y-114750446D01*
X127389428Y-114619400D01*
X127335481Y-114433497D01*
X127335230Y-114432946D01*
X127281653Y-114205205D01*
X127288640Y-114179322D01*
X127510641Y-114179322D01*
X127525235Y-114282273D01*
X127552330Y-114283502D01*
X127571278Y-114177267D01*
X127558597Y-114131367D01*
X127523352Y-114101301D01*
X127510641Y-114179322D01*
X127288640Y-114179322D01*
X127327574Y-114035106D01*
X127376289Y-113877385D01*
X127366773Y-113796981D01*
X127227191Y-113749575D01*
X127037815Y-113770990D01*
X126885830Y-113849809D01*
X126875253Y-113861354D01*
X126776770Y-114069588D01*
X126732395Y-114343690D01*
X126580309Y-114343690D01*
X126615647Y-114125487D01*
X126660329Y-114015911D01*
X126774567Y-113826094D01*
X126862166Y-113736122D01*
X127472845Y-113736122D01*
X127487505Y-113840882D01*
X127554937Y-113953270D01*
X127646269Y-114231059D01*
X127635158Y-114385302D01*
X127618657Y-114553810D01*
X127675589Y-114616905D01*
X127734765Y-114622500D01*
X127908342Y-114564931D01*
X127980565Y-114503509D01*
X128038932Y-114370632D01*
X127997750Y-114188182D01*
X127988054Y-114164187D01*
X127927238Y-113933972D01*
X127922432Y-113828750D01*
X128139375Y-113828750D01*
X128168417Y-113894084D01*
X128192291Y-113881666D01*
X128201791Y-113787467D01*
X128192291Y-113775833D01*
X128145103Y-113786729D01*
X128139375Y-113828750D01*
X127922432Y-113828750D01*
X127918864Y-113750650D01*
X127886148Y-113584498D01*
X127767382Y-113525236D01*
X127605290Y-113586920D01*
X127554835Y-113630878D01*
X127472845Y-113736122D01*
X126862166Y-113736122D01*
X126889031Y-113708530D01*
X126906461Y-113699702D01*
X126964216Y-113650384D01*
X126953815Y-113547127D01*
X126868968Y-113353669D01*
X126834605Y-113285429D01*
X126542275Y-112839815D01*
X126190976Y-112540589D01*
X125773037Y-112383907D01*
X125280786Y-112365922D01*
X125061472Y-112396681D01*
X124622227Y-112520348D01*
X124301788Y-112716176D01*
X124109332Y-112938434D01*
X124045737Y-113047419D01*
X124067079Y-113098479D01*
X124202134Y-113113645D01*
X124339537Y-113114671D01*
X124694626Y-113167700D01*
X124953432Y-113277668D01*
X125134588Y-113376994D01*
X125245826Y-113390977D01*
X125347162Y-113325482D01*
X125356557Y-113317059D01*
X125493442Y-113219363D01*
X125566687Y-113193750D01*
X125662135Y-113133864D01*
X125738144Y-113037496D01*
X125874933Y-112894917D01*
X126076359Y-112758403D01*
X126094582Y-112748825D01*
X126261014Y-112666178D01*
X126305303Y-112660500D01*
X126246544Y-112736278D01*
X126211104Y-112776208D01*
X126118774Y-112896537D01*
X126136802Y-112957182D01*
X126195383Y-112984596D01*
X126283740Y-112997557D01*
X126284012Y-112971724D01*
X126316399Y-112921905D01*
X126397818Y-112910267D01*
X126495481Y-112936310D01*
X126471366Y-112988508D01*
X126398883Y-113122631D01*
X126420357Y-113238209D01*
X126497016Y-113273124D01*
X126637605Y-113318290D01*
X126754985Y-113391096D01*
X126840230Y-113462847D01*
X126813435Y-113473766D01*
X126656586Y-113428054D01*
X126631250Y-113419951D01*
X126426330Y-113342806D01*
X126288245Y-113270546D01*
X126278031Y-113262291D01*
X126139885Y-113203569D01*
X126051257Y-113193750D01*
X125942619Y-113157361D01*
X125951409Y-113059493D01*
X125948988Y-113006768D01*
X125854846Y-113079763D01*
X125815879Y-113119025D01*
X125641049Y-113280306D01*
X125484669Y-113394863D01*
X125401738Y-113454424D01*
X125387101Y-113532412D01*
X125443402Y-113676181D01*
X125507525Y-113804298D01*
X125625432Y-114097070D01*
X125707523Y-114410735D01*
X125717690Y-114476309D01*
X125760836Y-114820937D01*
X125651025Y-114437355D01*
X125461069Y-113973327D01*
X125176918Y-113613603D01*
X125012899Y-113476466D01*
X124839400Y-113379354D01*
X124617566Y-113329170D01*
X124295131Y-113314625D01*
X124263741Y-113314662D01*
X123697704Y-113390340D01*
X123197316Y-113606027D01*
X122778647Y-113950922D01*
X122457766Y-114414225D01*
X122380624Y-114580294D01*
X122278637Y-114963411D01*
X122304823Y-115348878D01*
X122462418Y-115775514D01*
X122483906Y-115818735D01*
X122714303Y-116171002D01*
X123004190Y-116410490D01*
X123379404Y-116550687D01*
X123865785Y-116605082D01*
X123993690Y-116606874D01*
X124307991Y-116616695D01*
X124489664Y-116644856D01*
X124527812Y-116686250D01*
X124420203Y-116744052D01*
X124251567Y-116765625D01*
X124157837Y-116772972D01*
X124080434Y-116810425D01*
X124005120Y-116901094D01*
X123917658Y-117068093D01*
X123803809Y-117334535D01*
X123649336Y-117723533D01*
X123628133Y-117777656D01*
X123109561Y-119217069D01*
X122691571Y-120624208D01*
X122381361Y-121972770D01*
X122229162Y-122889960D01*
X122178737Y-123259609D01*
X122031731Y-123259609D01*
X122027500Y-123237926D01*
X121982791Y-123161405D01*
X121841622Y-123095174D01*
X121593430Y-123037750D01*
X121227648Y-122987651D01*
X120733713Y-122943392D01*
X120101061Y-122903492D01*
X119408125Y-122870245D01*
X118876129Y-122846203D01*
X118394743Y-122822192D01*
X117987441Y-122799565D01*
X117677699Y-122779677D01*
X117488992Y-122763883D01*
X117443593Y-122756921D01*
X117351293Y-122659302D01*
X117344375Y-122618468D01*
X117362852Y-122607666D01*
X117657015Y-122607666D01*
X117766770Y-122620192D01*
X117820625Y-122620959D01*
X117965033Y-122612684D01*
X117982052Y-122592080D01*
X117959531Y-122584659D01*
X117759425Y-122572389D01*
X118322050Y-122572389D01*
X118419868Y-122608119D01*
X118675710Y-122637961D01*
X118693750Y-122639375D01*
X118956700Y-122659573D01*
X119143462Y-122673866D01*
X119212304Y-122679062D01*
X119233003Y-122653428D01*
X119454409Y-122653428D01*
X119529988Y-122681536D01*
X119722211Y-122703151D01*
X120003437Y-122724037D01*
X120307833Y-122746809D01*
X120549178Y-122767120D01*
X120685201Y-122781346D01*
X120697968Y-122783569D01*
X120756848Y-122741109D01*
X120757315Y-122734162D01*
X120975081Y-122734162D01*
X121029720Y-122789720D01*
X121196138Y-122847177D01*
X121408943Y-122900292D01*
X121738817Y-122975848D01*
X121944013Y-123013164D01*
X122054066Y-123011695D01*
X122098508Y-122970896D01*
X122106872Y-122890222D01*
X122106875Y-122887421D01*
X122122334Y-122702419D01*
X122156484Y-122490546D01*
X122178154Y-122319695D01*
X122120647Y-122253435D01*
X121954884Y-122242500D01*
X121693707Y-122287840D01*
X121395438Y-122402418D01*
X121132145Y-122554072D01*
X121006758Y-122665646D01*
X120975081Y-122734162D01*
X120757315Y-122734162D01*
X120757500Y-122731427D01*
X120816545Y-122649237D01*
X120965956Y-122517990D01*
X121055156Y-122450805D01*
X121352812Y-122236881D01*
X120797187Y-122283429D01*
X120367707Y-122322617D01*
X120063587Y-122360477D01*
X119851653Y-122403927D01*
X119698729Y-122459886D01*
X119571641Y-122535270D01*
X119564140Y-122540543D01*
X119473213Y-122609530D01*
X119454409Y-122653428D01*
X119233003Y-122653428D01*
X119255831Y-122625160D01*
X119330834Y-122528597D01*
X119385567Y-122446821D01*
X119368727Y-122407864D01*
X119252797Y-122404497D01*
X119010261Y-122429495D01*
X118971030Y-122434094D01*
X118598201Y-122484954D01*
X118381684Y-122531193D01*
X118322050Y-122572389D01*
X117759425Y-122572389D01*
X117758218Y-122572315D01*
X117681718Y-122584659D01*
X117657015Y-122607666D01*
X117362852Y-122607666D01*
X117419693Y-122574437D01*
X117630514Y-122520258D01*
X117954138Y-122458951D01*
X118367865Y-122393532D01*
X118848996Y-122327021D01*
X119374829Y-122262437D01*
X119922665Y-122202798D01*
X120469804Y-122151122D01*
X120993546Y-122110429D01*
X121307460Y-122091465D01*
X122214609Y-122044062D01*
X122396460Y-121170937D01*
X122619262Y-120223927D01*
X122889526Y-119277125D01*
X123190673Y-118384102D01*
X123493256Y-117627526D01*
X123634340Y-117302143D01*
X123745698Y-117036066D01*
X123815156Y-116859020D01*
X123831949Y-116800469D01*
X123752166Y-116772294D01*
X123562814Y-116714268D01*
X123339180Y-116648873D01*
X122945635Y-116495660D01*
X122621655Y-116264793D01*
X122525586Y-116173349D01*
X122335387Y-115972445D01*
X122233982Y-115813447D01*
X122193659Y-115630431D01*
X122186692Y-115367162D01*
X122243454Y-114762389D01*
X122418259Y-114258130D01*
X122719768Y-113839850D01*
X123156640Y-113493012D01*
X123377883Y-113367572D01*
X123676183Y-113188949D01*
X123931036Y-112993178D01*
X124072603Y-112843708D01*
X124384670Y-112529984D01*
X124785450Y-112309122D01*
X125232622Y-112192298D01*
X125683867Y-112190687D01*
X126088617Y-112311343D01*
X126088617Y-112311343D01*
G37*
X126088617Y-112311343D02*
X126403318Y-112530788D01*
X126704272Y-112849496D01*
X126943781Y-113211652D01*
X127035742Y-113419606D01*
X127134896Y-113612523D01*
X127262790Y-113655458D01*
X127448305Y-113557180D01*
X127460014Y-113548413D01*
X127710871Y-113440678D01*
X127960059Y-113489356D01*
X128135566Y-113626259D01*
X128275204Y-113856606D01*
X128280927Y-114015522D01*
X128282316Y-114154551D01*
X128371269Y-114268044D01*
X128553930Y-114384774D01*
X128743768Y-114483524D01*
X128865290Y-114531738D01*
X128885288Y-114531292D01*
X128941740Y-114453635D01*
X129048001Y-114305816D01*
X129048586Y-114305000D01*
X129136738Y-114193162D01*
X129149487Y-114213388D01*
X129132323Y-114265312D01*
X129047769Y-114518985D01*
X129028505Y-114655556D01*
X129071546Y-114701239D01*
X129082617Y-114701875D01*
X129168908Y-114660008D01*
X129173618Y-114642343D01*
X129224110Y-114555989D01*
X129352795Y-114392199D01*
X129497060Y-114225625D01*
X129818133Y-113868437D01*
X129494849Y-114359944D01*
X129348704Y-114601638D01*
X129258306Y-114790623D01*
X129240178Y-114891340D01*
X129245297Y-114897020D01*
X129347531Y-114887801D01*
X129366603Y-114865615D01*
X129458886Y-114773485D01*
X129626880Y-114643102D01*
X129669744Y-114613043D01*
X129925312Y-114437445D01*
X129665400Y-114714349D01*
X129512427Y-114883826D01*
X129457465Y-114984440D01*
X129489021Y-115062265D01*
X129561180Y-115132152D01*
X129702004Y-115221380D01*
X129792254Y-115226462D01*
X129896524Y-115240687D01*
X129971284Y-115304760D01*
X130095572Y-115421401D01*
X130296072Y-115578674D01*
X130416840Y-115664886D01*
X130610885Y-115817356D01*
X130734776Y-115951140D01*
X130758750Y-116006757D01*
X130685176Y-116117696D01*
X130487633Y-116219947D01*
X130200890Y-116302774D01*
X129859713Y-116355444D01*
X129586362Y-116368700D01*
X129052187Y-116368651D01*
X129080210Y-116773270D01*
X129083957Y-117017388D01*
X129062617Y-117194544D01*
X129040523Y-117244129D01*
X128930456Y-117287536D01*
X128713374Y-117333039D01*
X128489024Y-117364356D01*
X128005235Y-117418345D01*
X127996169Y-117321250D01*
X128060000Y-117321250D01*
X128298125Y-117321250D01*
X128432057Y-117314444D01*
X128503209Y-117268548D01*
X128531623Y-117145340D01*
X128537342Y-116906599D01*
X128537465Y-116864843D01*
X128546376Y-116610396D01*
X128572951Y-116503549D01*
X128615625Y-116527500D01*
X128666854Y-116682751D01*
X128692987Y-116909940D01*
X128693784Y-116950038D01*
X128708337Y-117149065D01*
X128761877Y-117226495D01*
X128833906Y-117227191D01*
X128936528Y-117135339D01*
X128994231Y-116940268D01*
X128999965Y-116692922D01*
X128946681Y-116444250D01*
X128943449Y-116435591D01*
X128860245Y-116302099D01*
X128706187Y-116215335D01*
X128463323Y-116153839D01*
X128060000Y-116074092D01*
X128060000Y-117321250D01*
X127996169Y-117321250D01*
X127954910Y-116879418D01*
X127915345Y-116596440D01*
X127860586Y-116379598D01*
X127803698Y-116276461D01*
X127661267Y-116233657D01*
X127442758Y-116211856D01*
X127405156Y-116211215D01*
X127107500Y-116210000D01*
X127107500Y-118035625D01*
X127473108Y-118035625D01*
X127783656Y-118000052D01*
X128046367Y-117870758D01*
X128127952Y-117810687D01*
X128333747Y-117662574D01*
X128508158Y-117556927D01*
X128553551Y-117536341D01*
X128695039Y-117522337D01*
X128732154Y-117599719D01*
X128662267Y-117738015D01*
X128578693Y-117827682D01*
X128374075Y-118017315D01*
X128673444Y-118073260D01*
X128972963Y-118154930D01*
X129124112Y-118248828D01*
X129126950Y-118337810D01*
X128981535Y-118404731D01*
X128687924Y-118432449D01*
X128672230Y-118432500D01*
X128261954Y-118432500D01*
X128557852Y-118676403D01*
X128779581Y-118894060D01*
X128864383Y-119050028D01*
X128827231Y-119128751D01*
X128683098Y-119114671D01*
X128446957Y-118992232D01*
X128332108Y-118910958D01*
X128077284Y-118755467D01*
X127846632Y-118679281D01*
X127672532Y-118686462D01*
X127587361Y-118781071D01*
X127583750Y-118817072D01*
X127656001Y-119006918D01*
X127845013Y-119169372D01*
X128060000Y-119255761D01*
X128170401Y-119277806D01*
X128145309Y-119252119D01*
X128020312Y-119189355D01*
X127879816Y-119112426D01*
X127879093Y-119078574D01*
X127940937Y-119073604D01*
X128097308Y-119106734D01*
X128245491Y-119185196D01*
X128333274Y-119274747D01*
X128328727Y-119327939D01*
X128352862Y-119348519D01*
X128440065Y-119333019D01*
X128592647Y-119338085D01*
X128654149Y-119383118D01*
X128660450Y-119505636D01*
X128612323Y-119712384D01*
X128528472Y-119955110D01*
X128427602Y-120185556D01*
X128328418Y-120355469D01*
X128253444Y-120416875D01*
X128118123Y-120471814D01*
X128091659Y-120592645D01*
X128166935Y-120695635D01*
X128259027Y-120836291D01*
X128296503Y-121097124D01*
X128298125Y-121188946D01*
X128326378Y-121452892D01*
X128399568Y-121776287D01*
X128500340Y-122101175D01*
X128611340Y-122369601D01*
X128690162Y-122498169D01*
X128786929Y-122509839D01*
X128982064Y-122477057D01*
X129126003Y-122438638D01*
X129416448Y-122368128D01*
X129696146Y-122326579D01*
X129788896Y-122321875D01*
X129964592Y-122330920D01*
X130008859Y-122370758D01*
X129962002Y-122444549D01*
X129825767Y-122525668D01*
X129740375Y-122521246D01*
X129608040Y-122512049D01*
X129396367Y-122535251D01*
X129156918Y-122580153D01*
X128941257Y-122636057D01*
X128800944Y-122692263D01*
X128774375Y-122721687D01*
X128802521Y-122825541D01*
X128872417Y-123012356D01*
X128895285Y-123068117D01*
X128967055Y-123256624D01*
X128965768Y-123353061D01*
X128882695Y-123410493D01*
X128835754Y-123429967D01*
X128743601Y-123475418D01*
X128777439Y-123496925D01*
X128952976Y-123502844D01*
X128972812Y-123502894D01*
X129276834Y-123486236D01*
X129586865Y-123445126D01*
X129607812Y-123441150D01*
X129802394Y-123400031D01*
X129854537Y-123371356D01*
X129777824Y-123338273D01*
X129707031Y-123318057D01*
X129535407Y-123249183D01*
X129511327Y-123175832D01*
X129638089Y-123093457D01*
X129918992Y-122997516D01*
X129945156Y-122989991D01*
X130289295Y-122880523D01*
X130477782Y-122796768D01*
X130512448Y-122744423D01*
X130395123Y-122729184D01*
X130127638Y-122756747D01*
X129883611Y-122798506D01*
X129598093Y-122843396D01*
X129449545Y-122838838D01*
X129422673Y-122780299D01*
X129487158Y-122680980D01*
X129589972Y-122593179D01*
X129682333Y-122558242D01*
X129712472Y-122590700D01*
X129698064Y-122621776D01*
X129750896Y-122647859D01*
X129925679Y-122659206D01*
X130186115Y-122653713D01*
X130219101Y-122651953D01*
X130547458Y-122649278D01*
X130722056Y-122684890D01*
X130742166Y-122755592D01*
X130607056Y-122858185D01*
X130315998Y-122989471D01*
X130297775Y-122996562D01*
X130024626Y-123115670D01*
X129906713Y-123201633D01*
X129944022Y-123254475D01*
X130136544Y-123274219D01*
X130163437Y-123274375D01*
X130347109Y-123290874D01*
X130438867Y-123331444D01*
X130441250Y-123340029D01*
X130366492Y-123396650D01*
X130160384Y-123456063D01*
X129850173Y-123514105D01*
X129463105Y-123566617D01*
X129026430Y-123609437D01*
X128567392Y-123638404D01*
X128458931Y-123642761D01*
X128092264Y-123660773D01*
X127784616Y-123685273D01*
X127570295Y-123712909D01*
X127485398Y-123737851D01*
X127515730Y-123801074D01*
X127659422Y-123899117D01*
X127821567Y-123980927D01*
X128062290Y-124111374D01*
X128246096Y-124249926D01*
X128307286Y-124323368D01*
X128348874Y-124418276D01*
X128317828Y-124458095D01*
X128183033Y-124454025D01*
X128008749Y-124430844D01*
X127623437Y-124376181D01*
X127980625Y-124690364D01*
X128197235Y-124893524D01*
X128292090Y-125008522D01*
X128275647Y-125035072D01*
X128158360Y-124972885D01*
X127950686Y-124821675D01*
X127795763Y-124695446D01*
X127562789Y-124490825D01*
X127444013Y-124360530D01*
X127425195Y-124285587D01*
X127465406Y-124255303D01*
X127625839Y-124243907D01*
X127847739Y-124281966D01*
X127884356Y-124292498D01*
X128108691Y-124350869D01*
X128194223Y-124348996D01*
X128146154Y-124293443D01*
X127969686Y-124190777D01*
X127701553Y-124061785D01*
X127412555Y-123936979D01*
X127192415Y-123868593D01*
X126975123Y-123845796D01*
X126694672Y-123857761D01*
X126538089Y-123870907D01*
X126247010Y-123903743D01*
X126028989Y-123941803D01*
X125921885Y-123978063D01*
X125916875Y-123986149D01*
X125974203Y-124083145D01*
X126127102Y-124243490D01*
X126346945Y-124444106D01*
X126605104Y-124661911D01*
X126872951Y-124873826D01*
X127121860Y-125056771D01*
X127323202Y-125187665D01*
X127448351Y-125243429D01*
X127471051Y-125239156D01*
X127445676Y-125163184D01*
X127344396Y-125001319D01*
X127219558Y-124829191D01*
X127072070Y-124625985D01*
X126979527Y-124478702D01*
X126961571Y-124425720D01*
X127036929Y-124451725D01*
X127215751Y-124544980D01*
X127466838Y-124688671D01*
X127622411Y-124781876D01*
X127902770Y-124945919D01*
X128131455Y-125067722D01*
X128275871Y-125130517D01*
X128307182Y-125134089D01*
X128390377Y-125156964D01*
X128482034Y-125254090D01*
X128525411Y-125356881D01*
X128515249Y-125385583D01*
X128415953Y-125382458D01*
X128225941Y-125300897D01*
X127980105Y-125159542D01*
X127713337Y-124977035D01*
X127626116Y-124910530D01*
X127311296Y-124663437D01*
X127566585Y-125034926D01*
X127747909Y-125323296D01*
X127819564Y-125502930D01*
X127779950Y-125574235D01*
X127627469Y-125537615D01*
X127360522Y-125393477D01*
X127022414Y-125173075D01*
X126682910Y-124925244D01*
X126329277Y-124642036D01*
X126030801Y-124379278D01*
X125996250Y-124346224D01*
X125559687Y-123922547D01*
X124845312Y-123872586D01*
X124256213Y-123819630D01*
X123694448Y-123747248D01*
X123181049Y-123660178D01*
X122737049Y-123563156D01*
X122383479Y-123460920D01*
X122141372Y-123358207D01*
X122031759Y-123259755D01*
X122031731Y-123259609D01*
X122178737Y-123259609D01*
X122599212Y-123349900D01*
X123631523Y-123539941D01*
X124652312Y-123667531D01*
X125627416Y-123730265D01*
X126522675Y-123725741D01*
X127165925Y-123671114D01*
X127564397Y-123609467D01*
X128002445Y-123526983D01*
X128298155Y-123461856D01*
X128531860Y-123407696D01*
X128689986Y-123359747D01*
X128775970Y-123292391D01*
X128793245Y-123180013D01*
X128745247Y-122996994D01*
X128635410Y-122717718D01*
X128467169Y-122316569D01*
X128455478Y-122288513D01*
X128157044Y-121571540D01*
X127175866Y-121426962D01*
X126672998Y-121343464D01*
X126326628Y-121264079D01*
X126134574Y-121188263D01*
X126100749Y-121159181D01*
X125984783Y-121081912D01*
X125917005Y-121091481D01*
X125781327Y-121116753D01*
X125578901Y-121100580D01*
X125574380Y-121099747D01*
X125321562Y-121052510D01*
X125347183Y-120379421D01*
X125372805Y-119706331D01*
X125018066Y-119486134D01*
X124718803Y-119298742D01*
X124547935Y-119185879D01*
X124497950Y-119140025D01*
X124561339Y-119153660D01*
X124730594Y-119219265D01*
X124765937Y-119233649D01*
X125167065Y-119436324D01*
X125423288Y-119661903D01*
X125548067Y-119922295D01*
X125548966Y-119926340D01*
X125604788Y-120172264D01*
X125644037Y-120337500D01*
X125663908Y-120460552D01*
X125626161Y-120441653D01*
X125615509Y-120427155D01*
X125561542Y-120399392D01*
X125524428Y-120508069D01*
X125507307Y-120645437D01*
X125506273Y-120865028D01*
X125578157Y-120972098D01*
X125754036Y-120992696D01*
X125902919Y-120977072D01*
X126052283Y-121011017D01*
X126111970Y-121049101D01*
X126228569Y-121098547D01*
X126455063Y-121163450D01*
X126744724Y-121233375D01*
X127050823Y-121297887D01*
X127326631Y-121346550D01*
X127525419Y-121368929D01*
X127546144Y-121369375D01*
X127625655Y-121300015D01*
X127638380Y-121151093D01*
X127654299Y-120987377D01*
X127749967Y-120933758D01*
X127775572Y-120932812D01*
X127920839Y-120986957D01*
X127967074Y-121051875D01*
X127979944Y-121128594D01*
X127911966Y-121092292D01*
X127874470Y-121061999D01*
X127774647Y-120999465D01*
X127743968Y-121067856D01*
X127742500Y-121130023D01*
X127776351Y-121259498D01*
X127856434Y-121263263D01*
X127972005Y-121271413D01*
X128000024Y-121308512D01*
X128078586Y-121355677D01*
X128124507Y-121338876D01*
X128174866Y-121227507D01*
X128164585Y-121043628D01*
X128102994Y-120857227D01*
X128049752Y-120778031D01*
X127984013Y-120615016D01*
X128016634Y-120440826D01*
X128089360Y-120361287D01*
X128194294Y-120251657D01*
X128313373Y-120062039D01*
X128420520Y-119845181D01*
X128489656Y-119653834D01*
X128494880Y-119541027D01*
X128381566Y-119470049D01*
X128336105Y-119464375D01*
X128132501Y-119424555D01*
X127828967Y-119315173D01*
X127459858Y-119151339D01*
X127059525Y-118948166D01*
X126706380Y-118747449D01*
X126424634Y-118578895D01*
X126200510Y-118446292D01*
X126064090Y-118367356D01*
X126036836Y-118353125D01*
X125987275Y-118419690D01*
X125907902Y-118584769D01*
X125819590Y-118796433D01*
X125743213Y-119002754D01*
X125699644Y-119151805D01*
X125698995Y-119193579D01*
X125803522Y-119210784D01*
X125905321Y-119190229D01*
X126010571Y-119126911D01*
X126035757Y-118997865D01*
X126019980Y-118865481D01*
X126019976Y-118864657D01*
X126101684Y-118864657D01*
X126121936Y-118937076D01*
X126213380Y-119045093D01*
X126324972Y-119057590D01*
X126391109Y-118972421D01*
X126393125Y-118945946D01*
X126337697Y-118831772D01*
X126220142Y-118756264D01*
X126113554Y-118765231D01*
X126110020Y-118768520D01*
X126101684Y-118864657D01*
X126019976Y-118864657D01*
X126018843Y-118660417D01*
X126096893Y-118588877D01*
X126244322Y-118652926D01*
X126390939Y-118787360D01*
X126508939Y-118941118D01*
X126511969Y-119050786D01*
X126482124Y-119095590D01*
X126434278Y-119198083D01*
X126510161Y-119254176D01*
X126625190Y-119333719D01*
X126600946Y-119409802D01*
X126455534Y-119458141D01*
X126353437Y-119464375D01*
X126149656Y-119482625D01*
X126088969Y-119547638D01*
X126167528Y-119674807D01*
X126274062Y-119781875D01*
X126439475Y-119982701D01*
X126473109Y-120136851D01*
X126377359Y-120225968D01*
X126214531Y-120238536D01*
X126033253Y-120242751D01*
X125963157Y-120308960D01*
X125956562Y-120370572D01*
X126001503Y-120512736D01*
X126055781Y-120555781D01*
X126134796Y-120518425D01*
X126155000Y-120407614D01*
X126173330Y-120287890D01*
X126237745Y-120309308D01*
X126244914Y-120316289D01*
X126311233Y-120456574D01*
X126244524Y-120573963D01*
X126070294Y-120637263D01*
X125979745Y-120640593D01*
X125718375Y-120630767D01*
X125696317Y-120115682D01*
X125690105Y-119970593D01*
X125758125Y-119970593D01*
X125817545Y-120081936D01*
X125877187Y-120099375D01*
X125983094Y-120083058D01*
X125996250Y-120069406D01*
X125943649Y-120000922D01*
X125877187Y-119940625D01*
X125783297Y-119885284D01*
X125758235Y-119958205D01*
X125758125Y-119970593D01*
X125690105Y-119970593D01*
X125674260Y-119600596D01*
X126001064Y-119895843D01*
X126218579Y-120074255D01*
X126343026Y-120140781D01*
X126365226Y-120099726D01*
X126276004Y-119955398D01*
X126163815Y-119819476D01*
X126026081Y-119638414D01*
X125958214Y-119499626D01*
X125959499Y-119459622D01*
X126062261Y-119409240D01*
X126256195Y-119380986D01*
X126298590Y-119379421D01*
X126473057Y-119369552D01*
X126503964Y-119344010D01*
X126432812Y-119305623D01*
X126257292Y-119272248D01*
X126008078Y-119270524D01*
X125916875Y-119278419D01*
X125690124Y-119291466D01*
X125522875Y-119250279D01*
X125345920Y-119130673D01*
X125242187Y-119042646D01*
X125049689Y-118855071D01*
X124975306Y-118743393D01*
X125013310Y-118721289D01*
X125157971Y-118802438D01*
X125297807Y-118909855D01*
X125582711Y-119144697D01*
X125635562Y-118927504D01*
X125775309Y-118572838D01*
X125991044Y-118281108D01*
X125993278Y-118279360D01*
X126201388Y-118279360D01*
X126250413Y-118329293D01*
X126402239Y-118435759D01*
X126621483Y-118577145D01*
X126872760Y-118731840D01*
X127120686Y-118878231D01*
X127329879Y-118994708D01*
X127464954Y-119059657D01*
X127489880Y-119066353D01*
X127489381Y-119003585D01*
X127461740Y-118899466D01*
X127376825Y-118754444D01*
X127213125Y-118555122D01*
X127064024Y-118401454D01*
X126927269Y-118276662D01*
X127197014Y-118276662D01*
X127264542Y-118394027D01*
X127332695Y-118460486D01*
X127545725Y-118556129D01*
X127710876Y-118545981D01*
X127895455Y-118541516D01*
X128083796Y-118622894D01*
X128250657Y-118743817D01*
X128492739Y-118920143D01*
X128631568Y-118982998D01*
X128664723Y-118931508D01*
X128651921Y-118888906D01*
X128564256Y-118780601D01*
X128400288Y-118647007D01*
X128376828Y-118630937D01*
X128220053Y-118510994D01*
X128141654Y-118421774D01*
X128139603Y-118412656D01*
X128211303Y-118380201D01*
X128396672Y-118358578D01*
X128580621Y-118353125D01*
X128847505Y-118337194D01*
X128963004Y-118297141D01*
X128925170Y-118244573D01*
X128732057Y-118191100D01*
X128611004Y-118172072D01*
X128397622Y-118135341D01*
X128260628Y-118096701D01*
X128242723Y-118086056D01*
X128268361Y-118012817D01*
X128384603Y-117883323D01*
X128427872Y-117843766D01*
X128565404Y-117706856D01*
X128588619Y-117647370D01*
X128518669Y-117659972D01*
X128376706Y-117739324D01*
X128183883Y-117880088D01*
X128139375Y-117916562D01*
X127883319Y-118100052D01*
X127655021Y-118182161D01*
X127496865Y-118194375D01*
X127272466Y-118213335D01*
X127197014Y-118276662D01*
X126927269Y-118276662D01*
X126864014Y-118218941D01*
X126726984Y-118131482D01*
X126606424Y-118119181D01*
X126482704Y-118152769D01*
X126303234Y-118223082D01*
X126201830Y-118278916D01*
X126201388Y-118279360D01*
X125993278Y-118279360D01*
X126253704Y-118075678D01*
X126534225Y-117979910D01*
X126779973Y-118007551D01*
X126988437Y-118086244D01*
X126988437Y-117151075D01*
X126986623Y-116752095D01*
X126978175Y-116484377D01*
X126958582Y-116320446D01*
X126923335Y-116232828D01*
X126867921Y-116194049D01*
X126829687Y-116184075D01*
X126806032Y-116164326D01*
X126916438Y-116147961D01*
X127047968Y-116141434D01*
X127267867Y-116123313D01*
X127403733Y-116089358D01*
X127425000Y-116068091D01*
X127437449Y-116051250D01*
X127544062Y-116051250D01*
X127572531Y-116109766D01*
X127702812Y-116130625D01*
X127840753Y-116105936D01*
X127861562Y-116051250D01*
X127746384Y-115977412D01*
X127702812Y-115971875D01*
X127569670Y-116022197D01*
X127544062Y-116051250D01*
X127437449Y-116051250D01*
X127484938Y-115987011D01*
X127636893Y-115864743D01*
X127839070Y-115727543D01*
X128049676Y-115601665D01*
X128226919Y-115513364D01*
X128329005Y-115488895D01*
X128337377Y-115494921D01*
X128306015Y-115575576D01*
X128169873Y-115677625D01*
X128141970Y-115692720D01*
X127979715Y-115792720D01*
X127902326Y-115872069D01*
X127901250Y-115878416D01*
X127972677Y-115923344D01*
X128159153Y-115980380D01*
X128397343Y-116032571D01*
X128727714Y-116100324D01*
X129052505Y-116176259D01*
X129228279Y-116223174D01*
X129437603Y-116275020D01*
X129572871Y-116291271D01*
X129594558Y-116285261D01*
X129621617Y-116192626D01*
X129656669Y-115994177D01*
X129678087Y-115841115D01*
X129723902Y-115481788D01*
X129885625Y-115481788D01*
X129886543Y-115618482D01*
X129886814Y-115634531D01*
X129954269Y-115698628D01*
X130117827Y-115777135D01*
X130144783Y-115787242D01*
X130366564Y-115859381D01*
X130484392Y-115880679D01*
X130481217Y-115850299D01*
X130401562Y-115799871D01*
X130222429Y-115679505D01*
X130064218Y-115550323D01*
X129942053Y-115465055D01*
X129886011Y-115475997D01*
X129885625Y-115481788D01*
X129723902Y-115481788D01*
X129730181Y-115432544D01*
X129232434Y-115078527D01*
X128949539Y-114884333D01*
X128678192Y-114709764D01*
X128475213Y-114591318D01*
X128468619Y-114587904D01*
X128287873Y-114504394D01*
X128174394Y-114502832D01*
X128055955Y-114589384D01*
X128016025Y-114626527D01*
X127808738Y-114753727D01*
X127667016Y-114759268D01*
X127516454Y-114756545D01*
X127457056Y-114793597D01*
X127351986Y-114878588D01*
X127218537Y-114943051D01*
X126963786Y-114974223D01*
X126758621Y-114878988D01*
X126620544Y-114686410D01*
X126567052Y-114425554D01*
X126580309Y-114343690D01*
X126732395Y-114343690D01*
X126751251Y-114600555D01*
X126784173Y-114690988D01*
X126932756Y-114825346D01*
X127133850Y-114855844D01*
X127315437Y-114774753D01*
X127338252Y-114750446D01*
X127389428Y-114619400D01*
X127335481Y-114433497D01*
X127335230Y-114432946D01*
X127281653Y-114205205D01*
X127288640Y-114179322D01*
X127510641Y-114179322D01*
X127525235Y-114282273D01*
X127552330Y-114283502D01*
X127571278Y-114177267D01*
X127558597Y-114131367D01*
X127523352Y-114101301D01*
X127510641Y-114179322D01*
X127288640Y-114179322D01*
X127327574Y-114035106D01*
X127376289Y-113877385D01*
X127366773Y-113796981D01*
X127227191Y-113749575D01*
X127037815Y-113770990D01*
X126885830Y-113849809D01*
X126875253Y-113861354D01*
X126776770Y-114069588D01*
X126732395Y-114343690D01*
X126580309Y-114343690D01*
X126615647Y-114125487D01*
X126660329Y-114015911D01*
X126774567Y-113826094D01*
X126862166Y-113736122D01*
X127472845Y-113736122D01*
X127487505Y-113840882D01*
X127554937Y-113953270D01*
X127646269Y-114231059D01*
X127635158Y-114385302D01*
X127618657Y-114553810D01*
X127675589Y-114616905D01*
X127734765Y-114622500D01*
X127908342Y-114564931D01*
X127980565Y-114503509D01*
X128038932Y-114370632D01*
X127997750Y-114188182D01*
X127988054Y-114164187D01*
X127927238Y-113933972D01*
X127922432Y-113828750D01*
X128139375Y-113828750D01*
X128168417Y-113894084D01*
X128192291Y-113881666D01*
X128201791Y-113787467D01*
X128192291Y-113775833D01*
X128145103Y-113786729D01*
X128139375Y-113828750D01*
X127922432Y-113828750D01*
X127918864Y-113750650D01*
X127886148Y-113584498D01*
X127767382Y-113525236D01*
X127605290Y-113586920D01*
X127554835Y-113630878D01*
X127472845Y-113736122D01*
X126862166Y-113736122D01*
X126889031Y-113708530D01*
X126906461Y-113699702D01*
X126964216Y-113650384D01*
X126953815Y-113547127D01*
X126868968Y-113353669D01*
X126834605Y-113285429D01*
X126542275Y-112839815D01*
X126190976Y-112540589D01*
X125773037Y-112383907D01*
X125280786Y-112365922D01*
X125061472Y-112396681D01*
X124622227Y-112520348D01*
X124301788Y-112716176D01*
X124109332Y-112938434D01*
X124045737Y-113047419D01*
X124067079Y-113098479D01*
X124202134Y-113113645D01*
X124339537Y-113114671D01*
X124694626Y-113167700D01*
X124953432Y-113277668D01*
X125134588Y-113376994D01*
X125245826Y-113390977D01*
X125347162Y-113325482D01*
X125356557Y-113317059D01*
X125493442Y-113219363D01*
X125566687Y-113193750D01*
X125662135Y-113133864D01*
X125738144Y-113037496D01*
X125874933Y-112894917D01*
X126076359Y-112758403D01*
X126094582Y-112748825D01*
X126261014Y-112666178D01*
X126305303Y-112660500D01*
X126246544Y-112736278D01*
X126211104Y-112776208D01*
X126118774Y-112896537D01*
X126136802Y-112957182D01*
X126195383Y-112984596D01*
X126283740Y-112997557D01*
X126284012Y-112971724D01*
X126316399Y-112921905D01*
X126397818Y-112910267D01*
X126495481Y-112936310D01*
X126471366Y-112988508D01*
X126398883Y-113122631D01*
X126420357Y-113238209D01*
X126497016Y-113273124D01*
X126637605Y-113318290D01*
X126754985Y-113391096D01*
X126840230Y-113462847D01*
X126813435Y-113473766D01*
X126656586Y-113428054D01*
X126631250Y-113419951D01*
X126426330Y-113342806D01*
X126288245Y-113270546D01*
X126278031Y-113262291D01*
X126139885Y-113203569D01*
X126051257Y-113193750D01*
X125942619Y-113157361D01*
X125951409Y-113059493D01*
X125948988Y-113006768D01*
X125854846Y-113079763D01*
X125815879Y-113119025D01*
X125641049Y-113280306D01*
X125484669Y-113394863D01*
X125401738Y-113454424D01*
X125387101Y-113532412D01*
X125443402Y-113676181D01*
X125507525Y-113804298D01*
X125625432Y-114097070D01*
X125707523Y-114410735D01*
X125717690Y-114476309D01*
X125760836Y-114820937D01*
X125651025Y-114437355D01*
X125461069Y-113973327D01*
X125176918Y-113613603D01*
X125012899Y-113476466D01*
X124839400Y-113379354D01*
X124617566Y-113329170D01*
X124295131Y-113314625D01*
X124263741Y-113314662D01*
X123697704Y-113390340D01*
X123197316Y-113606027D01*
X122778647Y-113950922D01*
X122457766Y-114414225D01*
X122380624Y-114580294D01*
X122278637Y-114963411D01*
X122304823Y-115348878D01*
X122462418Y-115775514D01*
X122483906Y-115818735D01*
X122714303Y-116171002D01*
X123004190Y-116410490D01*
X123379404Y-116550687D01*
X123865785Y-116605082D01*
X123993690Y-116606874D01*
X124307991Y-116616695D01*
X124489664Y-116644856D01*
X124527812Y-116686250D01*
X124420203Y-116744052D01*
X124251567Y-116765625D01*
X124157837Y-116772972D01*
X124080434Y-116810425D01*
X124005120Y-116901094D01*
X123917658Y-117068093D01*
X123803809Y-117334535D01*
X123649336Y-117723533D01*
X123628133Y-117777656D01*
X123109561Y-119217069D01*
X122691571Y-120624208D01*
X122381361Y-121972770D01*
X122229162Y-122889960D01*
X122178737Y-123259609D01*
X122031731Y-123259609D01*
X122027500Y-123237926D01*
X121982791Y-123161405D01*
X121841622Y-123095174D01*
X121593430Y-123037750D01*
X121227648Y-122987651D01*
X120733713Y-122943392D01*
X120101061Y-122903492D01*
X119408125Y-122870245D01*
X118876129Y-122846203D01*
X118394743Y-122822192D01*
X117987441Y-122799565D01*
X117677699Y-122779677D01*
X117488992Y-122763883D01*
X117443593Y-122756921D01*
X117351293Y-122659302D01*
X117344375Y-122618468D01*
X117362852Y-122607666D01*
X117657015Y-122607666D01*
X117766770Y-122620192D01*
X117820625Y-122620959D01*
X117965033Y-122612684D01*
X117982052Y-122592080D01*
X117959531Y-122584659D01*
X117759425Y-122572389D01*
X118322050Y-122572389D01*
X118419868Y-122608119D01*
X118675710Y-122637961D01*
X118693750Y-122639375D01*
X118956700Y-122659573D01*
X119143462Y-122673866D01*
X119212304Y-122679062D01*
X119233003Y-122653428D01*
X119454409Y-122653428D01*
X119529988Y-122681536D01*
X119722211Y-122703151D01*
X120003437Y-122724037D01*
X120307833Y-122746809D01*
X120549178Y-122767120D01*
X120685201Y-122781346D01*
X120697968Y-122783569D01*
X120756848Y-122741109D01*
X120757315Y-122734162D01*
X120975081Y-122734162D01*
X121029720Y-122789720D01*
X121196138Y-122847177D01*
X121408943Y-122900292D01*
X121738817Y-122975848D01*
X121944013Y-123013164D01*
X122054066Y-123011695D01*
X122098508Y-122970896D01*
X122106872Y-122890222D01*
X122106875Y-122887421D01*
X122122334Y-122702419D01*
X122156484Y-122490546D01*
X122178154Y-122319695D01*
X122120647Y-122253435D01*
X121954884Y-122242500D01*
X121693707Y-122287840D01*
X121395438Y-122402418D01*
X121132145Y-122554072D01*
X121006758Y-122665646D01*
X120975081Y-122734162D01*
X120757315Y-122734162D01*
X120757500Y-122731427D01*
X120816545Y-122649237D01*
X120965956Y-122517990D01*
X121055156Y-122450805D01*
X121352812Y-122236881D01*
X120797187Y-122283429D01*
X120367707Y-122322617D01*
X120063587Y-122360477D01*
X119851653Y-122403927D01*
X119698729Y-122459886D01*
X119571641Y-122535270D01*
X119564140Y-122540543D01*
X119473213Y-122609530D01*
X119454409Y-122653428D01*
X119233003Y-122653428D01*
X119255831Y-122625160D01*
X119330834Y-122528597D01*
X119385567Y-122446821D01*
X119368727Y-122407864D01*
X119252797Y-122404497D01*
X119010261Y-122429495D01*
X118971030Y-122434094D01*
X118598201Y-122484954D01*
X118381684Y-122531193D01*
X118322050Y-122572389D01*
X117759425Y-122572389D01*
X117758218Y-122572315D01*
X117681718Y-122584659D01*
X117657015Y-122607666D01*
X117362852Y-122607666D01*
X117419693Y-122574437D01*
X117630514Y-122520258D01*
X117954138Y-122458951D01*
X118367865Y-122393532D01*
X118848996Y-122327021D01*
X119374829Y-122262437D01*
X119922665Y-122202798D01*
X120469804Y-122151122D01*
X120993546Y-122110429D01*
X121307460Y-122091465D01*
X122214609Y-122044062D01*
X122396460Y-121170937D01*
X122619262Y-120223927D01*
X122889526Y-119277125D01*
X123190673Y-118384102D01*
X123493256Y-117627526D01*
X123634340Y-117302143D01*
X123745698Y-117036066D01*
X123815156Y-116859020D01*
X123831949Y-116800469D01*
X123752166Y-116772294D01*
X123562814Y-116714268D01*
X123339180Y-116648873D01*
X122945635Y-116495660D01*
X122621655Y-116264793D01*
X122525586Y-116173349D01*
X122335387Y-115972445D01*
X122233982Y-115813447D01*
X122193659Y-115630431D01*
X122186692Y-115367162D01*
X122243454Y-114762389D01*
X122418259Y-114258130D01*
X122719768Y-113839850D01*
X123156640Y-113493012D01*
X123377883Y-113367572D01*
X123676183Y-113188949D01*
X123931036Y-112993178D01*
X124072603Y-112843708D01*
X124384670Y-112529984D01*
X124785450Y-112309122D01*
X125232622Y-112192298D01*
X125683867Y-112190687D01*
X126088617Y-112311343D01*
G36*
X126999409Y-120635729D02*
X127119010Y-120777315D01*
X127159504Y-120956226D01*
X127109745Y-121088856D01*
X126980824Y-121197361D01*
X126853623Y-121169756D01*
X126751758Y-121081668D01*
X126654931Y-120908002D01*
X126658431Y-120842706D01*
X126740494Y-120842706D01*
X126795495Y-120983108D01*
X126912571Y-121051773D01*
X126917554Y-121051875D01*
X127008099Y-120985966D01*
X127028125Y-120897809D01*
X126983329Y-120738551D01*
X126879943Y-120671065D01*
X126780481Y-120712143D01*
X126740494Y-120842706D01*
X126658431Y-120842706D01*
X126664370Y-120731946D01*
X126770342Y-120611297D01*
X126834236Y-120591952D01*
X126999409Y-120635729D01*
X126999409Y-120635729D01*
G37*
X126999409Y-120635729D02*
X127119010Y-120777315D01*
X127159504Y-120956226D01*
X127109745Y-121088856D01*
X126980824Y-121197361D01*
X126853623Y-121169756D01*
X126751758Y-121081668D01*
X126654931Y-120908002D01*
X126658431Y-120842706D01*
X126740494Y-120842706D01*
X126795495Y-120983108D01*
X126912571Y-121051773D01*
X126917554Y-121051875D01*
X127008099Y-120985966D01*
X127028125Y-120897809D01*
X126983329Y-120738551D01*
X126879943Y-120671065D01*
X126780481Y-120712143D01*
X126740494Y-120842706D01*
X126658431Y-120842706D01*
X126664370Y-120731946D01*
X126770342Y-120611297D01*
X126834236Y-120591952D01*
X126999409Y-120635729D01*
G36*
X127916240Y-119637015D02*
X127931808Y-119660019D01*
X128039063Y-119857726D01*
X128038610Y-119997532D01*
X127935267Y-120133392D01*
X127787836Y-120242281D01*
X127666000Y-120216703D01*
X127534632Y-120056435D01*
X127448883Y-119871928D01*
X127450459Y-119861250D01*
X127583750Y-119861250D01*
X127608697Y-120035550D01*
X127701520Y-120096918D01*
X127742500Y-120099375D01*
X127871216Y-120052494D01*
X127901250Y-119986804D01*
X127861112Y-119772637D01*
X127759464Y-119641818D01*
X127694320Y-119623125D01*
X127608919Y-119694646D01*
X127583750Y-119861250D01*
X127450459Y-119861250D01*
X127474337Y-119699497D01*
X127491413Y-119659560D01*
X127615220Y-119496477D01*
X127760267Y-119488966D01*
X127916240Y-119637015D01*
X127916240Y-119637015D01*
G37*
X127916240Y-119637015D02*
X127931808Y-119660019D01*
X128039063Y-119857726D01*
X128038610Y-119997532D01*
X127935267Y-120133392D01*
X127787836Y-120242281D01*
X127666000Y-120216703D01*
X127534632Y-120056435D01*
X127448883Y-119871928D01*
X127450459Y-119861250D01*
X127583750Y-119861250D01*
X127608697Y-120035550D01*
X127701520Y-120096918D01*
X127742500Y-120099375D01*
X127871216Y-120052494D01*
X127901250Y-119986804D01*
X127861112Y-119772637D01*
X127759464Y-119641818D01*
X127694320Y-119623125D01*
X127608919Y-119694646D01*
X127583750Y-119861250D01*
X127450459Y-119861250D01*
X127474337Y-119699497D01*
X127491413Y-119659560D01*
X127615220Y-119496477D01*
X127760267Y-119488966D01*
X127916240Y-119637015D01*
G36*
X126946275Y-119594462D02*
X127035854Y-119694672D01*
X127152366Y-119891099D01*
X127124890Y-120021300D01*
X126961884Y-120085116D01*
X126799520Y-120050847D01*
X126718015Y-119926366D01*
X126705414Y-119820041D01*
X126815605Y-119820041D01*
X126869270Y-119950559D01*
X126948418Y-120019784D01*
X126952557Y-120020000D01*
X127052549Y-119963281D01*
X127062254Y-119949618D01*
X127047136Y-119858282D01*
X126959397Y-119758044D01*
X126859921Y-119708177D01*
X126825900Y-119719515D01*
X126815605Y-119820041D01*
X126705414Y-119820041D01*
X126695226Y-119734077D01*
X126763315Y-119623125D01*
X126857150Y-119555030D01*
X126946275Y-119594462D01*
X126946275Y-119594462D01*
G37*
X126946275Y-119594462D02*
X127035854Y-119694672D01*
X127152366Y-119891099D01*
X127124890Y-120021300D01*
X126961884Y-120085116D01*
X126799520Y-120050847D01*
X126718015Y-119926366D01*
X126705414Y-119820041D01*
X126815605Y-119820041D01*
X126869270Y-119950559D01*
X126948418Y-120019784D01*
X126952557Y-120020000D01*
X127052549Y-119963281D01*
X127062254Y-119949618D01*
X127047136Y-119858282D01*
X126959397Y-119758044D01*
X126859921Y-119708177D01*
X126825900Y-119719515D01*
X126815605Y-119820041D01*
X126705414Y-119820041D01*
X126695226Y-119734077D01*
X126763315Y-119623125D01*
X126857150Y-119555030D01*
X126946275Y-119594462D01*
G36*
X128089245Y-115413745D02*
X128068712Y-115476665D01*
X127921046Y-115547043D01*
X127851815Y-115568001D01*
X127634282Y-115627748D01*
X127319552Y-115714704D01*
X126963349Y-115813460D01*
X126829687Y-115850606D01*
X126436681Y-115957628D01*
X126177971Y-116021813D01*
X126036007Y-116046636D01*
X125993240Y-116035569D01*
X126007740Y-116013301D01*
X126113754Y-115958596D01*
X126331836Y-115877987D01*
X126627322Y-115781458D01*
X126965547Y-115678994D01*
X127311848Y-115580580D01*
X127631559Y-115496201D01*
X127890015Y-115435841D01*
X128052552Y-115409486D01*
X128089245Y-115413745D01*
X128089245Y-115413745D01*
G37*
X128089245Y-115413745D02*
X128068712Y-115476665D01*
X127921046Y-115547043D01*
X127851815Y-115568001D01*
X127634282Y-115627748D01*
X127319552Y-115714704D01*
X126963349Y-115813460D01*
X126829687Y-115850606D01*
X126436681Y-115957628D01*
X126177971Y-116021813D01*
X126036007Y-116046636D01*
X125993240Y-116035569D01*
X126007740Y-116013301D01*
X126113754Y-115958596D01*
X126331836Y-115877987D01*
X126627322Y-115781458D01*
X126965547Y-115678994D01*
X127311848Y-115580580D01*
X127631559Y-115496201D01*
X127890015Y-115435841D01*
X128052552Y-115409486D01*
X128089245Y-115413745D01*
G36*
X127345625Y-115852812D02*
X127305937Y-115892500D01*
X127266250Y-115852812D01*
X127305937Y-115813125D01*
X127345625Y-115852812D01*
X127345625Y-115852812D01*
G37*
X127345625Y-115852812D02*
X127305937Y-115892500D01*
X127266250Y-115852812D01*
X127305937Y-115813125D01*
X127345625Y-115852812D01*
G36*
X124313124Y-113637552D02*
X124672614Y-113783512D01*
X124984157Y-114051571D01*
X125179254Y-114344687D01*
X125242690Y-114476239D01*
X125240500Y-114506240D01*
X125157765Y-114429185D01*
X125024223Y-114287472D01*
X124655062Y-113986588D01*
X124256857Y-113840268D01*
X123836703Y-113849890D01*
X123463072Y-113984019D01*
X123111872Y-114218160D01*
X122853877Y-114526843D01*
X122672134Y-114936941D01*
X122559526Y-115416250D01*
X122538774Y-115461935D01*
X122521677Y-115368594D01*
X122514559Y-115233714D01*
X122575946Y-114770897D01*
X122775169Y-114357322D01*
X123093914Y-114013615D01*
X123513867Y-113760402D01*
X123937017Y-113631673D01*
X124313124Y-113637552D01*
X124313124Y-113637552D01*
G37*
X124313124Y-113637552D02*
X124672614Y-113783512D01*
X124984157Y-114051571D01*
X125179254Y-114344687D01*
X125242690Y-114476239D01*
X125240500Y-114506240D01*
X125157765Y-114429185D01*
X125024223Y-114287472D01*
X124655062Y-113986588D01*
X124256857Y-113840268D01*
X123836703Y-113849890D01*
X123463072Y-113984019D01*
X123111872Y-114218160D01*
X122853877Y-114526843D01*
X122672134Y-114936941D01*
X122559526Y-115416250D01*
X122538774Y-115461935D01*
X122521677Y-115368594D01*
X122514559Y-115233714D01*
X122575946Y-114770897D01*
X122775169Y-114357322D01*
X123093914Y-114013615D01*
X123513867Y-113760402D01*
X123937017Y-113631673D01*
X124313124Y-113637552D01*
G36*
X128114338Y-115151965D02*
X128174953Y-115161638D01*
X128184603Y-115213132D01*
X128050955Y-115256913D01*
X127789365Y-115290917D01*
X127415184Y-115313078D01*
X126988437Y-115321217D01*
X126665789Y-115319769D01*
X126422439Y-115313389D01*
X126287646Y-115303186D01*
X126274062Y-115294161D01*
X126409770Y-115266238D01*
X126653892Y-115236250D01*
X126966816Y-115206956D01*
X127308933Y-115181120D01*
X127640633Y-115161501D01*
X127922305Y-115150863D01*
X128114338Y-115151965D01*
X128114338Y-115151965D01*
G37*
X128114338Y-115151965D02*
X128174953Y-115161638D01*
X128184603Y-115213132D01*
X128050955Y-115256913D01*
X127789365Y-115290917D01*
X127415184Y-115313078D01*
X126988437Y-115321217D01*
X126665789Y-115319769D01*
X126422439Y-115313389D01*
X126287646Y-115303186D01*
X126274062Y-115294161D01*
X126409770Y-115266238D01*
X126653892Y-115236250D01*
X126966816Y-115206956D01*
X127308933Y-115181120D01*
X127640633Y-115161501D01*
X127922305Y-115150863D01*
X128114338Y-115151965D01*
G36*
X128615625Y-116329062D02*
X128575937Y-116368750D01*
X128536250Y-116329062D01*
X128575937Y-116289375D01*
X128615625Y-116329062D01*
X128615625Y-116329062D01*
G37*
X128615625Y-116329062D02*
X128575937Y-116368750D01*
X128536250Y-116329062D01*
X128575937Y-116289375D01*
X128615625Y-116329062D01*
D13*
X83100000Y-126800000D02*
X83100000Y-126550000D01*
X83100000Y-126550000D02*
X89400000Y-126550000D01*
X89400000Y-126550000D02*
X89400000Y-126800000D01*
X83100000Y-131300000D02*
X83100000Y-128700000D01*
X89400000Y-133200000D02*
X89400000Y-133450000D01*
X89400000Y-133450000D02*
X83100000Y-133450000D01*
X83100000Y-133450000D02*
X83100000Y-133200000D01*
X89400000Y-128700000D02*
X89400000Y-131300000D01*
D12*
X99719673Y-112678021D02*
X99719673Y-113392307D01*
X99672053Y-113535164D01*
X99576815Y-113630402D01*
X99433958Y-113678021D01*
X99338720Y-113678021D01*
X100148244Y-112773259D02*
X100195863Y-112725640D01*
X100291101Y-112678021D01*
X100529197Y-112678021D01*
X100624435Y-112725640D01*
X100672054Y-112773259D01*
X100719673Y-112868497D01*
X100719673Y-112963735D01*
X100672054Y-113106592D01*
X100100625Y-113678021D01*
X100719673Y-113678021D01*
X113386340Y-94378021D02*
X113053006Y-93901830D01*
X112814911Y-94378021D02*
X112814911Y-93378021D01*
X113195864Y-93378021D01*
X113291102Y-93425640D01*
X113338721Y-93473259D01*
X113386340Y-93568497D01*
X113386340Y-93711354D01*
X113338721Y-93806592D01*
X113291102Y-93854211D01*
X113195864Y-93901830D01*
X112814911Y-93901830D01*
X114338721Y-94378021D02*
X113767292Y-94378021D01*
X114053006Y-94378021D02*
X114053006Y-93378021D01*
X113957768Y-93520878D01*
X113862530Y-93616116D01*
X113767292Y-93663735D01*
X93410149Y-102392306D02*
X93457768Y-102439925D01*
X93505387Y-102582782D01*
X93505387Y-102678020D01*
X93457768Y-102820878D01*
X93362530Y-102916116D01*
X93267292Y-102963735D01*
X93076816Y-103011354D01*
X92933958Y-103011354D01*
X92743482Y-102963735D01*
X92648244Y-102916116D01*
X92553006Y-102820878D01*
X92505387Y-102678020D01*
X92505387Y-102582782D01*
X92553006Y-102439925D01*
X92600625Y-102392306D01*
X93505387Y-101439925D02*
X93505387Y-102011354D01*
X93505387Y-101725640D02*
X92505387Y-101725640D01*
X92648244Y-101820878D01*
X92743482Y-101916116D01*
X92791101Y-102011354D01*
X90886340Y-118832783D02*
X90838721Y-118880402D01*
X90695864Y-118928021D01*
X90600626Y-118928021D01*
X90457768Y-118880402D01*
X90362530Y-118785164D01*
X90314911Y-118689926D01*
X90267292Y-118499450D01*
X90267292Y-118356592D01*
X90314911Y-118166116D01*
X90362530Y-118070878D01*
X90457768Y-117975640D01*
X90600626Y-117928021D01*
X90695864Y-117928021D01*
X90838721Y-117975640D01*
X90886340Y-118023259D01*
X91267292Y-118023259D02*
X91314911Y-117975640D01*
X91410149Y-117928021D01*
X91648245Y-117928021D01*
X91743483Y-117975640D01*
X91791102Y-118023259D01*
X91838721Y-118118497D01*
X91838721Y-118213735D01*
X91791102Y-118356592D01*
X91219673Y-118928021D01*
X91838721Y-118928021D01*
X111357143Y-119202381D02*
X111357143Y-118202381D01*
X111738096Y-118202381D01*
X111833334Y-118250000D01*
X111880953Y-118297619D01*
X111928572Y-118392857D01*
X111928572Y-118535714D01*
X111880953Y-118630952D01*
X111833334Y-118678571D01*
X111738096Y-118726190D01*
X111357143Y-118726190D01*
X112547619Y-118202381D02*
X112738096Y-118202381D01*
X112833334Y-118250000D01*
X112928572Y-118345238D01*
X112976191Y-118535714D01*
X112976191Y-118869048D01*
X112928572Y-119059524D01*
X112833334Y-119154762D01*
X112738096Y-119202381D01*
X112547619Y-119202381D01*
X112452381Y-119154762D01*
X112357143Y-119059524D01*
X112309524Y-118869048D01*
X112309524Y-118535714D01*
X112357143Y-118345238D01*
X112452381Y-118250000D01*
X112547619Y-118202381D01*
X113261905Y-118202381D02*
X113833334Y-118202381D01*
X113547619Y-119202381D02*
X113547619Y-118202381D01*
X114690477Y-119202381D02*
X114119048Y-119202381D01*
X114404762Y-119202381D02*
X114404762Y-118202381D01*
X114309524Y-118345238D01*
X114214286Y-118440476D01*
X114119048Y-118488095D01*
X84916667Y-134904762D02*
X85059524Y-134952381D01*
X85297620Y-134952381D01*
X85392858Y-134904762D01*
X85440477Y-134857143D01*
X85488096Y-134761905D01*
X85488096Y-134666667D01*
X85440477Y-134571429D01*
X85392858Y-134523810D01*
X85297620Y-134476190D01*
X85107143Y-134428571D01*
X85011905Y-134380952D01*
X84964286Y-134333333D01*
X84916667Y-134238095D01*
X84916667Y-134142857D01*
X84964286Y-134047619D01*
X85011905Y-134000000D01*
X85107143Y-133952381D01*
X85345239Y-133952381D01*
X85488096Y-134000000D01*
X85821429Y-133952381D02*
X86059524Y-134952381D01*
X86250001Y-134238095D01*
X86440477Y-134952381D01*
X86678572Y-133952381D01*
X87583334Y-134952381D02*
X87011905Y-134952381D01*
X87297619Y-134952381D02*
X87297619Y-133952381D01*
X87202381Y-134095238D01*
X87107143Y-134190476D01*
X87011905Y-134238095D01*
M02*
