G04 #@! TF.FileFunction,Copper,L2,Bot,Signal*
%FSLAX46Y46*%
G04 Gerber Fmt 4.6, Leading zero omitted, Abs format (unit mm)*
G04 Created by KiCad (PCBNEW 4.0.7) date Sunday, March 11, 2018 'AMt' 08:20:36 AM*
%MOMM*%
%LPD*%
G01*
G04 APERTURE LIST*
%ADD10C,0.100000*%
%ADD11R,1.700000X1.700000*%
%ADD12C,1.700000*%
%ADD13R,1.070000X1.800000*%
%ADD14O,1.070000X1.800000*%
%ADD15C,1.350000*%
%ADD16O,1.350000X1.350000*%
%ADD17R,1.600000X1.600000*%
%ADD18O,1.600000X1.600000*%
%ADD19C,0.600000*%
%ADD20C,0.250000*%
%ADD21C,0.254000*%
G04 APERTURE END LIST*
D10*
D11*
X103553006Y-110225640D03*
D12*
X101053006Y-110225640D03*
X99053006Y-110225640D03*
X96553006Y-110225640D03*
D13*
X114053006Y-98725640D03*
D14*
X112783006Y-98725640D03*
X111513006Y-98725640D03*
X110243006Y-98725640D03*
D13*
X126053006Y-91725640D03*
D14*
X124783006Y-91725640D03*
X123513006Y-91725640D03*
X122243006Y-91725640D03*
D13*
X138053006Y-82725640D03*
D14*
X136783006Y-82725640D03*
X135513006Y-82725640D03*
X134243006Y-82725640D03*
D13*
X113053006Y-107725640D03*
D14*
X111783006Y-107725640D03*
X110513006Y-107725640D03*
X109243006Y-107725640D03*
D13*
X125053006Y-102725640D03*
D14*
X123783006Y-102725640D03*
X122513006Y-102725640D03*
X121243006Y-102725640D03*
D13*
X137053006Y-95725640D03*
D14*
X135783006Y-95725640D03*
X134513006Y-95725640D03*
X133243006Y-95725640D03*
D13*
X121053006Y-112725640D03*
D14*
X119783006Y-112725640D03*
X118513006Y-112725640D03*
X117243006Y-112725640D03*
D13*
X125053006Y-127725640D03*
D14*
X123783006Y-127725640D03*
X122513006Y-127725640D03*
X121243006Y-127725640D03*
D13*
X116053006Y-122725640D03*
D14*
X114783006Y-122725640D03*
X113513006Y-122725640D03*
X112243006Y-122725640D03*
D13*
X90053006Y-98725640D03*
D14*
X88783006Y-98725640D03*
X87513006Y-98725640D03*
X86243006Y-98725640D03*
D13*
X77553006Y-91725640D03*
D14*
X76283006Y-91725640D03*
X75013006Y-91725640D03*
X73743006Y-91725640D03*
D13*
X66053006Y-82725640D03*
D14*
X64783006Y-82725640D03*
X63513006Y-82725640D03*
X62243006Y-82725640D03*
D13*
X91053006Y-107725640D03*
D14*
X89783006Y-107725640D03*
X88513006Y-107725640D03*
X87243006Y-107725640D03*
D13*
X79053006Y-102725640D03*
D14*
X77783006Y-102725640D03*
X76513006Y-102725640D03*
X75243006Y-102725640D03*
D13*
X67053006Y-95725640D03*
D14*
X65783006Y-95725640D03*
X64513006Y-95725640D03*
X63243006Y-95725640D03*
D13*
X83053006Y-112725640D03*
D14*
X81783006Y-112725640D03*
X80513006Y-112725640D03*
X79243006Y-112725640D03*
D13*
X79053006Y-127725640D03*
D14*
X77783006Y-127725640D03*
X76513006Y-127725640D03*
X75243006Y-127725640D03*
D13*
X88053006Y-122725640D03*
D14*
X86783006Y-122725640D03*
X85513006Y-122725640D03*
X84243006Y-122725640D03*
D15*
X99053006Y-94225640D03*
D16*
X101053006Y-94225640D03*
D17*
X103863006Y-97225640D03*
D18*
X96243006Y-104845640D03*
X103863006Y-99765640D03*
X96243006Y-102305640D03*
X103863006Y-102305640D03*
X96243006Y-99765640D03*
X103863006Y-104845640D03*
X96243006Y-97225640D03*
D19*
X100326533Y-104933047D03*
X100295559Y-102300317D03*
X100000000Y-99250000D03*
D20*
X100295559Y-102300317D02*
X100295559Y-104902073D01*
X100295559Y-104902073D02*
X100326533Y-104933047D01*
D21*
X100000000Y-101088646D02*
X96243006Y-104845640D01*
X100000000Y-99250000D02*
X100000000Y-101088646D01*
G36*
X140746838Y-75689863D02*
X140968436Y-75728049D01*
X141189760Y-75806228D01*
X141477726Y-75941058D01*
X141726528Y-76075477D01*
X142356893Y-76542147D01*
X142892423Y-77137363D01*
X143328919Y-77858401D01*
X143487044Y-78200256D01*
X143662798Y-78674944D01*
X143767720Y-79134617D01*
X143809131Y-79627464D01*
X143791884Y-80200275D01*
X143720149Y-80897778D01*
X143716781Y-80924403D01*
X143633962Y-81512892D01*
X143534678Y-82088938D01*
X143413383Y-82672131D01*
X143264544Y-83281542D01*
X143082634Y-83935985D01*
X142862111Y-84654243D01*
X142597490Y-85454892D01*
X142283320Y-86356449D01*
X141914183Y-87377377D01*
X141484576Y-88536403D01*
X141272211Y-89107901D01*
X141271863Y-89108849D01*
X140871892Y-90212014D01*
X140871285Y-90213729D01*
X140531046Y-91195809D01*
X140530277Y-91198098D01*
X140242893Y-92081594D01*
X140241986Y-92084499D01*
X140000578Y-92891912D01*
X139999596Y-92895373D01*
X139797288Y-93649202D01*
X139796325Y-93653028D01*
X139626239Y-94375775D01*
X139625393Y-94379641D01*
X139480651Y-95093806D01*
X139480584Y-95094137D01*
X139456393Y-95215150D01*
X139287869Y-95864143D01*
X139042266Y-96602084D01*
X138734161Y-97387623D01*
X138378961Y-98177480D01*
X137914568Y-99078517D01*
X137026658Y-100541884D01*
X135981360Y-101993584D01*
X134784892Y-103425754D01*
X133444173Y-104829508D01*
X131964779Y-106197284D01*
X131219915Y-106845969D01*
X130210892Y-106993519D01*
X130209867Y-106993674D01*
X129855254Y-107048489D01*
X129851008Y-107049219D01*
X129167056Y-107178837D01*
X129158506Y-107180765D01*
X128595483Y-107328321D01*
X128583791Y-107331997D01*
X128108306Y-107507107D01*
X128095053Y-107512863D01*
X127673715Y-107725140D01*
X127660644Y-107732733D01*
X127382208Y-107917467D01*
X127364531Y-107931618D01*
X126887086Y-108389354D01*
X126868917Y-108411168D01*
X126505045Y-108963577D01*
X126492539Y-108987925D01*
X126255692Y-109604934D01*
X126248624Y-109631865D01*
X126152256Y-110283401D01*
X126151375Y-110313084D01*
X126208937Y-110969072D01*
X126212676Y-110990455D01*
X126310319Y-111359506D01*
X126315588Y-111375202D01*
X126499911Y-111824742D01*
X126508361Y-111841646D01*
X126779585Y-112296116D01*
X126787325Y-112307609D01*
X127169976Y-112813880D01*
X127552690Y-113331951D01*
X128078677Y-114263414D01*
X128487222Y-115308837D01*
X128779315Y-116472456D01*
X128954807Y-117756396D01*
X129013585Y-119162837D01*
X128977325Y-120342781D01*
X128830033Y-121852427D01*
X128576211Y-123345165D01*
X128223068Y-124787689D01*
X127778016Y-126146198D01*
X127248448Y-127387474D01*
X126543999Y-128694427D01*
X125593789Y-130135457D01*
X124508970Y-131488472D01*
X123301356Y-132738943D01*
X121982223Y-133872741D01*
X121367988Y-134321903D01*
X120291969Y-134966031D01*
X119189424Y-135448329D01*
X118048297Y-135774689D01*
X117697987Y-135837466D01*
X116891138Y-135897868D01*
X116095983Y-135850395D01*
X115354880Y-135699918D01*
X114707081Y-135450457D01*
X114594875Y-135390783D01*
X114140989Y-135112349D01*
X113607800Y-134741128D01*
X113024257Y-134300538D01*
X112420304Y-133814928D01*
X111825492Y-133308492D01*
X111269169Y-132805340D01*
X110781073Y-132330055D01*
X110390392Y-131906970D01*
X109941585Y-131347509D01*
X109455243Y-130612861D01*
X109092958Y-129870737D01*
X108833284Y-129076274D01*
X108656114Y-128181896D01*
X108632041Y-128030500D01*
X108631735Y-128028663D01*
X108567057Y-127657113D01*
X108566869Y-127656055D01*
X108507368Y-127330568D01*
X120073006Y-127330568D01*
X120073006Y-128120712D01*
X120162067Y-128568452D01*
X120415691Y-128948027D01*
X120795266Y-129201651D01*
X121243006Y-129290712D01*
X121690746Y-129201651D01*
X121893772Y-129065994D01*
X122205623Y-129219540D01*
X122386006Y-129093884D01*
X122386006Y-128256450D01*
X122413006Y-128120712D01*
X122413006Y-127330568D01*
X122613006Y-127330568D01*
X122613006Y-128120712D01*
X122640006Y-128256450D01*
X122640006Y-129093884D01*
X122820389Y-129219540D01*
X123132240Y-129065994D01*
X123335266Y-129201651D01*
X123783006Y-129290712D01*
X124230746Y-129201651D01*
X124233519Y-129199798D01*
X124266116Y-129222071D01*
X124518006Y-129273080D01*
X125588006Y-129273080D01*
X125823323Y-129228802D01*
X126039447Y-129089730D01*
X126184437Y-128877530D01*
X126235446Y-128625640D01*
X126235446Y-126825640D01*
X126191168Y-126590323D01*
X126052096Y-126374199D01*
X125839896Y-126229209D01*
X125588006Y-126178200D01*
X124518006Y-126178200D01*
X124282689Y-126222478D01*
X124235529Y-126252825D01*
X124230746Y-126249629D01*
X123783006Y-126160568D01*
X123335266Y-126249629D01*
X123132240Y-126385286D01*
X122820389Y-126231740D01*
X122640006Y-126357396D01*
X122640006Y-127194830D01*
X122613006Y-127330568D01*
X122413006Y-127330568D01*
X122386006Y-127194830D01*
X122386006Y-126357396D01*
X122205623Y-126231740D01*
X121893772Y-126385286D01*
X121690746Y-126249629D01*
X121243006Y-126160568D01*
X120795266Y-126249629D01*
X120415691Y-126503253D01*
X120162067Y-126882828D01*
X120073006Y-127330568D01*
X108507368Y-127330568D01*
X108475209Y-127154655D01*
X108475096Y-127154045D01*
X108360714Y-126545162D01*
X108360632Y-126544733D01*
X108227788Y-125850737D01*
X108227721Y-125850389D01*
X108080674Y-125093649D01*
X108080612Y-125093333D01*
X107923622Y-124296219D01*
X107923560Y-124295905D01*
X107760886Y-123480785D01*
X107760876Y-123480737D01*
X107530876Y-122330568D01*
X111073006Y-122330568D01*
X111073006Y-123120712D01*
X111162067Y-123568452D01*
X111415691Y-123948027D01*
X111795266Y-124201651D01*
X112243006Y-124290712D01*
X112690746Y-124201651D01*
X112893772Y-124065994D01*
X113205623Y-124219540D01*
X113386006Y-124093884D01*
X113386006Y-123256450D01*
X113413006Y-123120712D01*
X113413006Y-122330568D01*
X113613006Y-122330568D01*
X113613006Y-123120712D01*
X113640006Y-123256450D01*
X113640006Y-124093884D01*
X113820389Y-124219540D01*
X114132240Y-124065994D01*
X114335266Y-124201651D01*
X114783006Y-124290712D01*
X115230746Y-124201651D01*
X115233519Y-124199798D01*
X115266116Y-124222071D01*
X115518006Y-124273080D01*
X116588006Y-124273080D01*
X116823323Y-124228802D01*
X117039447Y-124089730D01*
X117184437Y-123877530D01*
X117235446Y-123625640D01*
X117235446Y-121825640D01*
X117191168Y-121590323D01*
X117052096Y-121374199D01*
X116839896Y-121229209D01*
X116588006Y-121178200D01*
X115518006Y-121178200D01*
X115282689Y-121222478D01*
X115235529Y-121252825D01*
X115230746Y-121249629D01*
X114783006Y-121160568D01*
X114335266Y-121249629D01*
X114132240Y-121385286D01*
X113820389Y-121231740D01*
X113640006Y-121357396D01*
X113640006Y-122194830D01*
X113613006Y-122330568D01*
X113413006Y-122330568D01*
X113386006Y-122194830D01*
X113386006Y-121357396D01*
X113205623Y-121231740D01*
X112893772Y-121385286D01*
X112690746Y-121249629D01*
X112243006Y-121160568D01*
X111795266Y-121249629D01*
X111415691Y-121503253D01*
X111162067Y-121882828D01*
X111073006Y-122330568D01*
X107530876Y-122330568D01*
X107506064Y-122206492D01*
X107270086Y-121009636D01*
X107063687Y-119939070D01*
X106883893Y-118975484D01*
X106727469Y-118098239D01*
X106591326Y-117287439D01*
X106472335Y-116523003D01*
X106367361Y-115784788D01*
X106273261Y-115052560D01*
X106186895Y-114306031D01*
X106105164Y-113525208D01*
X106024963Y-112690100D01*
X105992633Y-112330568D01*
X116073006Y-112330568D01*
X116073006Y-113120712D01*
X116162067Y-113568452D01*
X116415691Y-113948027D01*
X116795266Y-114201651D01*
X117243006Y-114290712D01*
X117690746Y-114201651D01*
X117893772Y-114065994D01*
X118205623Y-114219540D01*
X118386006Y-114093884D01*
X118386006Y-113256450D01*
X118413006Y-113120712D01*
X118413006Y-112330568D01*
X118613006Y-112330568D01*
X118613006Y-113120712D01*
X118640006Y-113256450D01*
X118640006Y-114093884D01*
X118820389Y-114219540D01*
X119132240Y-114065994D01*
X119335266Y-114201651D01*
X119783006Y-114290712D01*
X120230746Y-114201651D01*
X120233519Y-114199798D01*
X120266116Y-114222071D01*
X120518006Y-114273080D01*
X121588006Y-114273080D01*
X121823323Y-114228802D01*
X122039447Y-114089730D01*
X122184437Y-113877530D01*
X122235446Y-113625640D01*
X122235446Y-111825640D01*
X122191168Y-111590323D01*
X122052096Y-111374199D01*
X121839896Y-111229209D01*
X121588006Y-111178200D01*
X120518006Y-111178200D01*
X120282689Y-111222478D01*
X120235529Y-111252825D01*
X120230746Y-111249629D01*
X119783006Y-111160568D01*
X119335266Y-111249629D01*
X119132240Y-111385286D01*
X118820389Y-111231740D01*
X118640006Y-111357396D01*
X118640006Y-112194830D01*
X118613006Y-112330568D01*
X118413006Y-112330568D01*
X118386006Y-112194830D01*
X118386006Y-111357396D01*
X118205623Y-111231740D01*
X117893772Y-111385286D01*
X117690746Y-111249629D01*
X117243006Y-111160568D01*
X116795266Y-111249629D01*
X116415691Y-111503253D01*
X116162067Y-111882828D01*
X116073006Y-112330568D01*
X105992633Y-112330568D01*
X105943116Y-111779930D01*
X105930342Y-111635359D01*
X105930302Y-111634918D01*
X105873495Y-111016537D01*
X105873423Y-111015773D01*
X105818545Y-110455577D01*
X105818452Y-110454658D01*
X105767912Y-109974761D01*
X105767764Y-109973426D01*
X105723969Y-109595941D01*
X105723641Y-109593346D01*
X105689000Y-109340389D01*
X105687283Y-109330676D01*
X105664786Y-109227052D01*
X105652701Y-109156879D01*
X105635606Y-108931765D01*
X105616961Y-108568953D01*
X105597953Y-108092856D01*
X105579400Y-107523864D01*
X105574190Y-107330568D01*
X108073006Y-107330568D01*
X108073006Y-108120712D01*
X108162067Y-108568452D01*
X108415691Y-108948027D01*
X108795266Y-109201651D01*
X109243006Y-109290712D01*
X109690746Y-109201651D01*
X109893772Y-109065994D01*
X110205623Y-109219540D01*
X110386006Y-109093884D01*
X110386006Y-108256450D01*
X110413006Y-108120712D01*
X110413006Y-107330568D01*
X110613006Y-107330568D01*
X110613006Y-108120712D01*
X110640006Y-108256450D01*
X110640006Y-109093884D01*
X110820389Y-109219540D01*
X111132240Y-109065994D01*
X111335266Y-109201651D01*
X111783006Y-109290712D01*
X112230746Y-109201651D01*
X112233519Y-109199798D01*
X112266116Y-109222071D01*
X112518006Y-109273080D01*
X113588006Y-109273080D01*
X113823323Y-109228802D01*
X114039447Y-109089730D01*
X114184437Y-108877530D01*
X114235446Y-108625640D01*
X114235446Y-106825640D01*
X114191168Y-106590323D01*
X114052096Y-106374199D01*
X113839896Y-106229209D01*
X113588006Y-106178200D01*
X112518006Y-106178200D01*
X112282689Y-106222478D01*
X112235529Y-106252825D01*
X112230746Y-106249629D01*
X111783006Y-106160568D01*
X111335266Y-106249629D01*
X111132240Y-106385286D01*
X110820389Y-106231740D01*
X110640006Y-106357396D01*
X110640006Y-107194830D01*
X110613006Y-107330568D01*
X110413006Y-107330568D01*
X110386006Y-107194830D01*
X110386006Y-106357396D01*
X110205623Y-106231740D01*
X109893772Y-106385286D01*
X109690746Y-106249629D01*
X109243006Y-106160568D01*
X108795266Y-106249629D01*
X108415691Y-106503253D01*
X108162067Y-106882828D01*
X108073006Y-107330568D01*
X105574190Y-107330568D01*
X105562112Y-106882469D01*
X105546876Y-106188682D01*
X105529653Y-105355474D01*
X105529643Y-105355029D01*
X105497593Y-104029709D01*
X105497573Y-104028989D01*
X105462883Y-102867127D01*
X105462851Y-102866166D01*
X105442799Y-102330568D01*
X120073006Y-102330568D01*
X120073006Y-103120712D01*
X120162067Y-103568452D01*
X120415691Y-103948027D01*
X120795266Y-104201651D01*
X121243006Y-104290712D01*
X121690746Y-104201651D01*
X121893772Y-104065994D01*
X122205623Y-104219540D01*
X122386006Y-104093884D01*
X122386006Y-103256450D01*
X122413006Y-103120712D01*
X122413006Y-102330568D01*
X122613006Y-102330568D01*
X122613006Y-103120712D01*
X122640006Y-103256450D01*
X122640006Y-104093884D01*
X122820389Y-104219540D01*
X123132240Y-104065994D01*
X123335266Y-104201651D01*
X123783006Y-104290712D01*
X124230746Y-104201651D01*
X124233519Y-104199798D01*
X124266116Y-104222071D01*
X124518006Y-104273080D01*
X125588006Y-104273080D01*
X125823323Y-104228802D01*
X126039447Y-104089730D01*
X126184437Y-103877530D01*
X126235446Y-103625640D01*
X126235446Y-101825640D01*
X126191168Y-101590323D01*
X126052096Y-101374199D01*
X125839896Y-101229209D01*
X125588006Y-101178200D01*
X124518006Y-101178200D01*
X124282689Y-101222478D01*
X124235529Y-101252825D01*
X124230746Y-101249629D01*
X123783006Y-101160568D01*
X123335266Y-101249629D01*
X123132240Y-101385286D01*
X122820389Y-101231740D01*
X122640006Y-101357396D01*
X122640006Y-102194830D01*
X122613006Y-102330568D01*
X122413006Y-102330568D01*
X122386006Y-102194830D01*
X122386006Y-101357396D01*
X122205623Y-101231740D01*
X121893772Y-101385286D01*
X121690746Y-101249629D01*
X121243006Y-101160568D01*
X120795266Y-101249629D01*
X120415691Y-101503253D01*
X120162067Y-101882828D01*
X120073006Y-102330568D01*
X105442799Y-102330568D01*
X105425332Y-101864036D01*
X105425276Y-101862710D01*
X105384739Y-101016585D01*
X105384632Y-101014671D01*
X105340889Y-100320823D01*
X105340669Y-100317876D01*
X105302985Y-99881943D01*
X105326119Y-99765640D01*
X105216886Y-99216489D01*
X105208388Y-99203771D01*
X105186072Y-99097555D01*
X105184742Y-99091876D01*
X105144935Y-98937920D01*
X105079215Y-98565402D01*
X105075088Y-98511583D01*
X105201333Y-98385339D01*
X105224019Y-98330568D01*
X109073006Y-98330568D01*
X109073006Y-99120712D01*
X109162067Y-99568452D01*
X109415691Y-99948027D01*
X109795266Y-100201651D01*
X110243006Y-100290712D01*
X110690746Y-100201651D01*
X110893772Y-100065994D01*
X111205623Y-100219540D01*
X111386006Y-100093884D01*
X111386006Y-99256450D01*
X111413006Y-99120712D01*
X111413006Y-98330568D01*
X111613006Y-98330568D01*
X111613006Y-99120712D01*
X111640006Y-99256450D01*
X111640006Y-100093884D01*
X111820389Y-100219540D01*
X112132240Y-100065994D01*
X112335266Y-100201651D01*
X112783006Y-100290712D01*
X113230746Y-100201651D01*
X113233519Y-100199798D01*
X113266116Y-100222071D01*
X113518006Y-100273080D01*
X114588006Y-100273080D01*
X114823323Y-100228802D01*
X115039447Y-100089730D01*
X115184437Y-99877530D01*
X115235446Y-99625640D01*
X115235446Y-97825640D01*
X115191168Y-97590323D01*
X115052096Y-97374199D01*
X114839896Y-97229209D01*
X114588006Y-97178200D01*
X113518006Y-97178200D01*
X113282689Y-97222478D01*
X113235529Y-97252825D01*
X113230746Y-97249629D01*
X112783006Y-97160568D01*
X112335266Y-97249629D01*
X112132240Y-97385286D01*
X111820389Y-97231740D01*
X111640006Y-97357396D01*
X111640006Y-98194830D01*
X111613006Y-98330568D01*
X111413006Y-98330568D01*
X111386006Y-98194830D01*
X111386006Y-97357396D01*
X111205623Y-97231740D01*
X110893772Y-97385286D01*
X110690746Y-97249629D01*
X110243006Y-97160568D01*
X109795266Y-97249629D01*
X109415691Y-97503253D01*
X109162067Y-97882828D01*
X109073006Y-98330568D01*
X105224019Y-98330568D01*
X105298006Y-98151950D01*
X105298006Y-97781563D01*
X105459117Y-97714786D01*
X105466915Y-97711241D01*
X105744178Y-97573738D01*
X105761742Y-97563182D01*
X106113643Y-97310937D01*
X106127552Y-97299384D01*
X106509943Y-96932719D01*
X106514165Y-96928475D01*
X106553895Y-96886611D01*
X106830458Y-96595204D01*
X107176099Y-96231029D01*
X107550623Y-95836435D01*
X107913804Y-95453805D01*
X107930087Y-95436664D01*
X108033963Y-95330568D01*
X132073006Y-95330568D01*
X132073006Y-96120712D01*
X132162067Y-96568452D01*
X132415691Y-96948027D01*
X132795266Y-97201651D01*
X133243006Y-97290712D01*
X133690746Y-97201651D01*
X133893772Y-97065994D01*
X134205623Y-97219540D01*
X134386006Y-97093884D01*
X134386006Y-96256450D01*
X134413006Y-96120712D01*
X134413006Y-95330568D01*
X134613006Y-95330568D01*
X134613006Y-96120712D01*
X134640006Y-96256450D01*
X134640006Y-97093884D01*
X134820389Y-97219540D01*
X135132240Y-97065994D01*
X135335266Y-97201651D01*
X135783006Y-97290712D01*
X136230746Y-97201651D01*
X136233519Y-97199798D01*
X136266116Y-97222071D01*
X136518006Y-97273080D01*
X137588006Y-97273080D01*
X137823323Y-97228802D01*
X138039447Y-97089730D01*
X138184437Y-96877530D01*
X138235446Y-96625640D01*
X138235446Y-94825640D01*
X138191168Y-94590323D01*
X138052096Y-94374199D01*
X137839896Y-94229209D01*
X137588006Y-94178200D01*
X136518006Y-94178200D01*
X136282689Y-94222478D01*
X136235529Y-94252825D01*
X136230746Y-94249629D01*
X135783006Y-94160568D01*
X135335266Y-94249629D01*
X135132240Y-94385286D01*
X134820389Y-94231740D01*
X134640006Y-94357396D01*
X134640006Y-95194830D01*
X134613006Y-95330568D01*
X134413006Y-95330568D01*
X134386006Y-95194830D01*
X134386006Y-94357396D01*
X134205623Y-94231740D01*
X133893772Y-94385286D01*
X133690746Y-94249629D01*
X133243006Y-94160568D01*
X132795266Y-94249629D01*
X132415691Y-94503253D01*
X132162067Y-94882828D01*
X132073006Y-95330568D01*
X108033963Y-95330568D01*
X108574510Y-94778472D01*
X109255735Y-94122748D01*
X109983708Y-93461909D01*
X110767818Y-92788959D01*
X111617357Y-92096998D01*
X112541755Y-91379026D01*
X112606842Y-91330568D01*
X121073006Y-91330568D01*
X121073006Y-92120712D01*
X121162067Y-92568452D01*
X121415691Y-92948027D01*
X121795266Y-93201651D01*
X122243006Y-93290712D01*
X122690746Y-93201651D01*
X122893772Y-93065994D01*
X123205623Y-93219540D01*
X123386006Y-93093884D01*
X123386006Y-92256450D01*
X123413006Y-92120712D01*
X123413006Y-91330568D01*
X123613006Y-91330568D01*
X123613006Y-92120712D01*
X123640006Y-92256450D01*
X123640006Y-93093884D01*
X123820389Y-93219540D01*
X124132240Y-93065994D01*
X124335266Y-93201651D01*
X124783006Y-93290712D01*
X125230746Y-93201651D01*
X125233519Y-93199798D01*
X125266116Y-93222071D01*
X125518006Y-93273080D01*
X126588006Y-93273080D01*
X126823323Y-93228802D01*
X127039447Y-93089730D01*
X127184437Y-92877530D01*
X127235446Y-92625640D01*
X127235446Y-90825640D01*
X127191168Y-90590323D01*
X127052096Y-90374199D01*
X126839896Y-90229209D01*
X126588006Y-90178200D01*
X125518006Y-90178200D01*
X125282689Y-90222478D01*
X125235529Y-90252825D01*
X125230746Y-90249629D01*
X124783006Y-90160568D01*
X124335266Y-90249629D01*
X124132240Y-90385286D01*
X123820389Y-90231740D01*
X123640006Y-90357396D01*
X123640006Y-91194830D01*
X123613006Y-91330568D01*
X123413006Y-91330568D01*
X123386006Y-91194830D01*
X123386006Y-90357396D01*
X123205623Y-90231740D01*
X122893772Y-90385286D01*
X122690746Y-90249629D01*
X122243006Y-90160568D01*
X121795266Y-90249629D01*
X121415691Y-90503253D01*
X121162067Y-90882828D01*
X121073006Y-91330568D01*
X112606842Y-91330568D01*
X113550196Y-90628233D01*
X114652010Y-89837692D01*
X115856474Y-89000515D01*
X117172748Y-88109885D01*
X118610219Y-87158832D01*
X120178003Y-86140559D01*
X121885786Y-85047900D01*
X122120186Y-84898708D01*
X122120403Y-84898570D01*
X122910753Y-84393279D01*
X122911035Y-84393098D01*
X123732230Y-83865025D01*
X123732484Y-83864862D01*
X124555505Y-83332847D01*
X124555757Y-83332683D01*
X125351585Y-82815567D01*
X125351867Y-82815384D01*
X126091482Y-82332008D01*
X126091836Y-82331775D01*
X126093669Y-82330568D01*
X133073006Y-82330568D01*
X133073006Y-83120712D01*
X133162067Y-83568452D01*
X133415691Y-83948027D01*
X133795266Y-84201651D01*
X134243006Y-84290712D01*
X134690746Y-84201651D01*
X134893772Y-84065994D01*
X135205623Y-84219540D01*
X135386006Y-84093884D01*
X135386006Y-83256450D01*
X135413006Y-83120712D01*
X135413006Y-82330568D01*
X135613006Y-82330568D01*
X135613006Y-83120712D01*
X135640006Y-83256450D01*
X135640006Y-84093884D01*
X135820389Y-84219540D01*
X136132240Y-84065994D01*
X136335266Y-84201651D01*
X136783006Y-84290712D01*
X137230746Y-84201651D01*
X137233519Y-84199798D01*
X137266116Y-84222071D01*
X137518006Y-84273080D01*
X138588006Y-84273080D01*
X138823323Y-84228802D01*
X139039447Y-84089730D01*
X139184437Y-83877530D01*
X139235446Y-83625640D01*
X139235446Y-81825640D01*
X139191168Y-81590323D01*
X139052096Y-81374199D01*
X138839896Y-81229209D01*
X138588006Y-81178200D01*
X137518006Y-81178200D01*
X137282689Y-81222478D01*
X137235529Y-81252825D01*
X137230746Y-81249629D01*
X136783006Y-81160568D01*
X136335266Y-81249629D01*
X136132240Y-81385286D01*
X135820389Y-81231740D01*
X135640006Y-81357396D01*
X135640006Y-82194830D01*
X135613006Y-82330568D01*
X135413006Y-82330568D01*
X135386006Y-82194830D01*
X135386006Y-81357396D01*
X135205623Y-81231740D01*
X134893772Y-81385286D01*
X134690746Y-81249629D01*
X134243006Y-81160568D01*
X133795266Y-81249629D01*
X133415691Y-81503253D01*
X133162067Y-81882828D01*
X133073006Y-82330568D01*
X126093669Y-82330568D01*
X126746218Y-81900979D01*
X126746735Y-81900637D01*
X127286722Y-81541359D01*
X128518850Y-80727237D01*
X130080787Y-79735014D01*
X131536846Y-78859726D01*
X132893923Y-78098183D01*
X134158873Y-77447198D01*
X135338387Y-76903629D01*
X136439279Y-76464211D01*
X137468275Y-76125655D01*
X138432213Y-75884557D01*
X139337984Y-75737438D01*
X140195660Y-75680556D01*
X140451875Y-75678482D01*
X140746838Y-75689863D01*
X140746838Y-75689863D01*
G37*
X140746838Y-75689863D02*
X140968436Y-75728049D01*
X141189760Y-75806228D01*
X141477726Y-75941058D01*
X141726528Y-76075477D01*
X142356893Y-76542147D01*
X142892423Y-77137363D01*
X143328919Y-77858401D01*
X143487044Y-78200256D01*
X143662798Y-78674944D01*
X143767720Y-79134617D01*
X143809131Y-79627464D01*
X143791884Y-80200275D01*
X143720149Y-80897778D01*
X143716781Y-80924403D01*
X143633962Y-81512892D01*
X143534678Y-82088938D01*
X143413383Y-82672131D01*
X143264544Y-83281542D01*
X143082634Y-83935985D01*
X142862111Y-84654243D01*
X142597490Y-85454892D01*
X142283320Y-86356449D01*
X141914183Y-87377377D01*
X141484576Y-88536403D01*
X141272211Y-89107901D01*
X141271863Y-89108849D01*
X140871892Y-90212014D01*
X140871285Y-90213729D01*
X140531046Y-91195809D01*
X140530277Y-91198098D01*
X140242893Y-92081594D01*
X140241986Y-92084499D01*
X140000578Y-92891912D01*
X139999596Y-92895373D01*
X139797288Y-93649202D01*
X139796325Y-93653028D01*
X139626239Y-94375775D01*
X139625393Y-94379641D01*
X139480651Y-95093806D01*
X139480584Y-95094137D01*
X139456393Y-95215150D01*
X139287869Y-95864143D01*
X139042266Y-96602084D01*
X138734161Y-97387623D01*
X138378961Y-98177480D01*
X137914568Y-99078517D01*
X137026658Y-100541884D01*
X135981360Y-101993584D01*
X134784892Y-103425754D01*
X133444173Y-104829508D01*
X131964779Y-106197284D01*
X131219915Y-106845969D01*
X130210892Y-106993519D01*
X130209867Y-106993674D01*
X129855254Y-107048489D01*
X129851008Y-107049219D01*
X129167056Y-107178837D01*
X129158506Y-107180765D01*
X128595483Y-107328321D01*
X128583791Y-107331997D01*
X128108306Y-107507107D01*
X128095053Y-107512863D01*
X127673715Y-107725140D01*
X127660644Y-107732733D01*
X127382208Y-107917467D01*
X127364531Y-107931618D01*
X126887086Y-108389354D01*
X126868917Y-108411168D01*
X126505045Y-108963577D01*
X126492539Y-108987925D01*
X126255692Y-109604934D01*
X126248624Y-109631865D01*
X126152256Y-110283401D01*
X126151375Y-110313084D01*
X126208937Y-110969072D01*
X126212676Y-110990455D01*
X126310319Y-111359506D01*
X126315588Y-111375202D01*
X126499911Y-111824742D01*
X126508361Y-111841646D01*
X126779585Y-112296116D01*
X126787325Y-112307609D01*
X127169976Y-112813880D01*
X127552690Y-113331951D01*
X128078677Y-114263414D01*
X128487222Y-115308837D01*
X128779315Y-116472456D01*
X128954807Y-117756396D01*
X129013585Y-119162837D01*
X128977325Y-120342781D01*
X128830033Y-121852427D01*
X128576211Y-123345165D01*
X128223068Y-124787689D01*
X127778016Y-126146198D01*
X127248448Y-127387474D01*
X126543999Y-128694427D01*
X125593789Y-130135457D01*
X124508970Y-131488472D01*
X123301356Y-132738943D01*
X121982223Y-133872741D01*
X121367988Y-134321903D01*
X120291969Y-134966031D01*
X119189424Y-135448329D01*
X118048297Y-135774689D01*
X117697987Y-135837466D01*
X116891138Y-135897868D01*
X116095983Y-135850395D01*
X115354880Y-135699918D01*
X114707081Y-135450457D01*
X114594875Y-135390783D01*
X114140989Y-135112349D01*
X113607800Y-134741128D01*
X113024257Y-134300538D01*
X112420304Y-133814928D01*
X111825492Y-133308492D01*
X111269169Y-132805340D01*
X110781073Y-132330055D01*
X110390392Y-131906970D01*
X109941585Y-131347509D01*
X109455243Y-130612861D01*
X109092958Y-129870737D01*
X108833284Y-129076274D01*
X108656114Y-128181896D01*
X108632041Y-128030500D01*
X108631735Y-128028663D01*
X108567057Y-127657113D01*
X108566869Y-127656055D01*
X108507368Y-127330568D01*
X120073006Y-127330568D01*
X120073006Y-128120712D01*
X120162067Y-128568452D01*
X120415691Y-128948027D01*
X120795266Y-129201651D01*
X121243006Y-129290712D01*
X121690746Y-129201651D01*
X121893772Y-129065994D01*
X122205623Y-129219540D01*
X122386006Y-129093884D01*
X122386006Y-128256450D01*
X122413006Y-128120712D01*
X122413006Y-127330568D01*
X122613006Y-127330568D01*
X122613006Y-128120712D01*
X122640006Y-128256450D01*
X122640006Y-129093884D01*
X122820389Y-129219540D01*
X123132240Y-129065994D01*
X123335266Y-129201651D01*
X123783006Y-129290712D01*
X124230746Y-129201651D01*
X124233519Y-129199798D01*
X124266116Y-129222071D01*
X124518006Y-129273080D01*
X125588006Y-129273080D01*
X125823323Y-129228802D01*
X126039447Y-129089730D01*
X126184437Y-128877530D01*
X126235446Y-128625640D01*
X126235446Y-126825640D01*
X126191168Y-126590323D01*
X126052096Y-126374199D01*
X125839896Y-126229209D01*
X125588006Y-126178200D01*
X124518006Y-126178200D01*
X124282689Y-126222478D01*
X124235529Y-126252825D01*
X124230746Y-126249629D01*
X123783006Y-126160568D01*
X123335266Y-126249629D01*
X123132240Y-126385286D01*
X122820389Y-126231740D01*
X122640006Y-126357396D01*
X122640006Y-127194830D01*
X122613006Y-127330568D01*
X122413006Y-127330568D01*
X122386006Y-127194830D01*
X122386006Y-126357396D01*
X122205623Y-126231740D01*
X121893772Y-126385286D01*
X121690746Y-126249629D01*
X121243006Y-126160568D01*
X120795266Y-126249629D01*
X120415691Y-126503253D01*
X120162067Y-126882828D01*
X120073006Y-127330568D01*
X108507368Y-127330568D01*
X108475209Y-127154655D01*
X108475096Y-127154045D01*
X108360714Y-126545162D01*
X108360632Y-126544733D01*
X108227788Y-125850737D01*
X108227721Y-125850389D01*
X108080674Y-125093649D01*
X108080612Y-125093333D01*
X107923622Y-124296219D01*
X107923560Y-124295905D01*
X107760886Y-123480785D01*
X107760876Y-123480737D01*
X107530876Y-122330568D01*
X111073006Y-122330568D01*
X111073006Y-123120712D01*
X111162067Y-123568452D01*
X111415691Y-123948027D01*
X111795266Y-124201651D01*
X112243006Y-124290712D01*
X112690746Y-124201651D01*
X112893772Y-124065994D01*
X113205623Y-124219540D01*
X113386006Y-124093884D01*
X113386006Y-123256450D01*
X113413006Y-123120712D01*
X113413006Y-122330568D01*
X113613006Y-122330568D01*
X113613006Y-123120712D01*
X113640006Y-123256450D01*
X113640006Y-124093884D01*
X113820389Y-124219540D01*
X114132240Y-124065994D01*
X114335266Y-124201651D01*
X114783006Y-124290712D01*
X115230746Y-124201651D01*
X115233519Y-124199798D01*
X115266116Y-124222071D01*
X115518006Y-124273080D01*
X116588006Y-124273080D01*
X116823323Y-124228802D01*
X117039447Y-124089730D01*
X117184437Y-123877530D01*
X117235446Y-123625640D01*
X117235446Y-121825640D01*
X117191168Y-121590323D01*
X117052096Y-121374199D01*
X116839896Y-121229209D01*
X116588006Y-121178200D01*
X115518006Y-121178200D01*
X115282689Y-121222478D01*
X115235529Y-121252825D01*
X115230746Y-121249629D01*
X114783006Y-121160568D01*
X114335266Y-121249629D01*
X114132240Y-121385286D01*
X113820389Y-121231740D01*
X113640006Y-121357396D01*
X113640006Y-122194830D01*
X113613006Y-122330568D01*
X113413006Y-122330568D01*
X113386006Y-122194830D01*
X113386006Y-121357396D01*
X113205623Y-121231740D01*
X112893772Y-121385286D01*
X112690746Y-121249629D01*
X112243006Y-121160568D01*
X111795266Y-121249629D01*
X111415691Y-121503253D01*
X111162067Y-121882828D01*
X111073006Y-122330568D01*
X107530876Y-122330568D01*
X107506064Y-122206492D01*
X107270086Y-121009636D01*
X107063687Y-119939070D01*
X106883893Y-118975484D01*
X106727469Y-118098239D01*
X106591326Y-117287439D01*
X106472335Y-116523003D01*
X106367361Y-115784788D01*
X106273261Y-115052560D01*
X106186895Y-114306031D01*
X106105164Y-113525208D01*
X106024963Y-112690100D01*
X105992633Y-112330568D01*
X116073006Y-112330568D01*
X116073006Y-113120712D01*
X116162067Y-113568452D01*
X116415691Y-113948027D01*
X116795266Y-114201651D01*
X117243006Y-114290712D01*
X117690746Y-114201651D01*
X117893772Y-114065994D01*
X118205623Y-114219540D01*
X118386006Y-114093884D01*
X118386006Y-113256450D01*
X118413006Y-113120712D01*
X118413006Y-112330568D01*
X118613006Y-112330568D01*
X118613006Y-113120712D01*
X118640006Y-113256450D01*
X118640006Y-114093884D01*
X118820389Y-114219540D01*
X119132240Y-114065994D01*
X119335266Y-114201651D01*
X119783006Y-114290712D01*
X120230746Y-114201651D01*
X120233519Y-114199798D01*
X120266116Y-114222071D01*
X120518006Y-114273080D01*
X121588006Y-114273080D01*
X121823323Y-114228802D01*
X122039447Y-114089730D01*
X122184437Y-113877530D01*
X122235446Y-113625640D01*
X122235446Y-111825640D01*
X122191168Y-111590323D01*
X122052096Y-111374199D01*
X121839896Y-111229209D01*
X121588006Y-111178200D01*
X120518006Y-111178200D01*
X120282689Y-111222478D01*
X120235529Y-111252825D01*
X120230746Y-111249629D01*
X119783006Y-111160568D01*
X119335266Y-111249629D01*
X119132240Y-111385286D01*
X118820389Y-111231740D01*
X118640006Y-111357396D01*
X118640006Y-112194830D01*
X118613006Y-112330568D01*
X118413006Y-112330568D01*
X118386006Y-112194830D01*
X118386006Y-111357396D01*
X118205623Y-111231740D01*
X117893772Y-111385286D01*
X117690746Y-111249629D01*
X117243006Y-111160568D01*
X116795266Y-111249629D01*
X116415691Y-111503253D01*
X116162067Y-111882828D01*
X116073006Y-112330568D01*
X105992633Y-112330568D01*
X105943116Y-111779930D01*
X105930342Y-111635359D01*
X105930302Y-111634918D01*
X105873495Y-111016537D01*
X105873423Y-111015773D01*
X105818545Y-110455577D01*
X105818452Y-110454658D01*
X105767912Y-109974761D01*
X105767764Y-109973426D01*
X105723969Y-109595941D01*
X105723641Y-109593346D01*
X105689000Y-109340389D01*
X105687283Y-109330676D01*
X105664786Y-109227052D01*
X105652701Y-109156879D01*
X105635606Y-108931765D01*
X105616961Y-108568953D01*
X105597953Y-108092856D01*
X105579400Y-107523864D01*
X105574190Y-107330568D01*
X108073006Y-107330568D01*
X108073006Y-108120712D01*
X108162067Y-108568452D01*
X108415691Y-108948027D01*
X108795266Y-109201651D01*
X109243006Y-109290712D01*
X109690746Y-109201651D01*
X109893772Y-109065994D01*
X110205623Y-109219540D01*
X110386006Y-109093884D01*
X110386006Y-108256450D01*
X110413006Y-108120712D01*
X110413006Y-107330568D01*
X110613006Y-107330568D01*
X110613006Y-108120712D01*
X110640006Y-108256450D01*
X110640006Y-109093884D01*
X110820389Y-109219540D01*
X111132240Y-109065994D01*
X111335266Y-109201651D01*
X111783006Y-109290712D01*
X112230746Y-109201651D01*
X112233519Y-109199798D01*
X112266116Y-109222071D01*
X112518006Y-109273080D01*
X113588006Y-109273080D01*
X113823323Y-109228802D01*
X114039447Y-109089730D01*
X114184437Y-108877530D01*
X114235446Y-108625640D01*
X114235446Y-106825640D01*
X114191168Y-106590323D01*
X114052096Y-106374199D01*
X113839896Y-106229209D01*
X113588006Y-106178200D01*
X112518006Y-106178200D01*
X112282689Y-106222478D01*
X112235529Y-106252825D01*
X112230746Y-106249629D01*
X111783006Y-106160568D01*
X111335266Y-106249629D01*
X111132240Y-106385286D01*
X110820389Y-106231740D01*
X110640006Y-106357396D01*
X110640006Y-107194830D01*
X110613006Y-107330568D01*
X110413006Y-107330568D01*
X110386006Y-107194830D01*
X110386006Y-106357396D01*
X110205623Y-106231740D01*
X109893772Y-106385286D01*
X109690746Y-106249629D01*
X109243006Y-106160568D01*
X108795266Y-106249629D01*
X108415691Y-106503253D01*
X108162067Y-106882828D01*
X108073006Y-107330568D01*
X105574190Y-107330568D01*
X105562112Y-106882469D01*
X105546876Y-106188682D01*
X105529653Y-105355474D01*
X105529643Y-105355029D01*
X105497593Y-104029709D01*
X105497573Y-104028989D01*
X105462883Y-102867127D01*
X105462851Y-102866166D01*
X105442799Y-102330568D01*
X120073006Y-102330568D01*
X120073006Y-103120712D01*
X120162067Y-103568452D01*
X120415691Y-103948027D01*
X120795266Y-104201651D01*
X121243006Y-104290712D01*
X121690746Y-104201651D01*
X121893772Y-104065994D01*
X122205623Y-104219540D01*
X122386006Y-104093884D01*
X122386006Y-103256450D01*
X122413006Y-103120712D01*
X122413006Y-102330568D01*
X122613006Y-102330568D01*
X122613006Y-103120712D01*
X122640006Y-103256450D01*
X122640006Y-104093884D01*
X122820389Y-104219540D01*
X123132240Y-104065994D01*
X123335266Y-104201651D01*
X123783006Y-104290712D01*
X124230746Y-104201651D01*
X124233519Y-104199798D01*
X124266116Y-104222071D01*
X124518006Y-104273080D01*
X125588006Y-104273080D01*
X125823323Y-104228802D01*
X126039447Y-104089730D01*
X126184437Y-103877530D01*
X126235446Y-103625640D01*
X126235446Y-101825640D01*
X126191168Y-101590323D01*
X126052096Y-101374199D01*
X125839896Y-101229209D01*
X125588006Y-101178200D01*
X124518006Y-101178200D01*
X124282689Y-101222478D01*
X124235529Y-101252825D01*
X124230746Y-101249629D01*
X123783006Y-101160568D01*
X123335266Y-101249629D01*
X123132240Y-101385286D01*
X122820389Y-101231740D01*
X122640006Y-101357396D01*
X122640006Y-102194830D01*
X122613006Y-102330568D01*
X122413006Y-102330568D01*
X122386006Y-102194830D01*
X122386006Y-101357396D01*
X122205623Y-101231740D01*
X121893772Y-101385286D01*
X121690746Y-101249629D01*
X121243006Y-101160568D01*
X120795266Y-101249629D01*
X120415691Y-101503253D01*
X120162067Y-101882828D01*
X120073006Y-102330568D01*
X105442799Y-102330568D01*
X105425332Y-101864036D01*
X105425276Y-101862710D01*
X105384739Y-101016585D01*
X105384632Y-101014671D01*
X105340889Y-100320823D01*
X105340669Y-100317876D01*
X105302985Y-99881943D01*
X105326119Y-99765640D01*
X105216886Y-99216489D01*
X105208388Y-99203771D01*
X105186072Y-99097555D01*
X105184742Y-99091876D01*
X105144935Y-98937920D01*
X105079215Y-98565402D01*
X105075088Y-98511583D01*
X105201333Y-98385339D01*
X105224019Y-98330568D01*
X109073006Y-98330568D01*
X109073006Y-99120712D01*
X109162067Y-99568452D01*
X109415691Y-99948027D01*
X109795266Y-100201651D01*
X110243006Y-100290712D01*
X110690746Y-100201651D01*
X110893772Y-100065994D01*
X111205623Y-100219540D01*
X111386006Y-100093884D01*
X111386006Y-99256450D01*
X111413006Y-99120712D01*
X111413006Y-98330568D01*
X111613006Y-98330568D01*
X111613006Y-99120712D01*
X111640006Y-99256450D01*
X111640006Y-100093884D01*
X111820389Y-100219540D01*
X112132240Y-100065994D01*
X112335266Y-100201651D01*
X112783006Y-100290712D01*
X113230746Y-100201651D01*
X113233519Y-100199798D01*
X113266116Y-100222071D01*
X113518006Y-100273080D01*
X114588006Y-100273080D01*
X114823323Y-100228802D01*
X115039447Y-100089730D01*
X115184437Y-99877530D01*
X115235446Y-99625640D01*
X115235446Y-97825640D01*
X115191168Y-97590323D01*
X115052096Y-97374199D01*
X114839896Y-97229209D01*
X114588006Y-97178200D01*
X113518006Y-97178200D01*
X113282689Y-97222478D01*
X113235529Y-97252825D01*
X113230746Y-97249629D01*
X112783006Y-97160568D01*
X112335266Y-97249629D01*
X112132240Y-97385286D01*
X111820389Y-97231740D01*
X111640006Y-97357396D01*
X111640006Y-98194830D01*
X111613006Y-98330568D01*
X111413006Y-98330568D01*
X111386006Y-98194830D01*
X111386006Y-97357396D01*
X111205623Y-97231740D01*
X110893772Y-97385286D01*
X110690746Y-97249629D01*
X110243006Y-97160568D01*
X109795266Y-97249629D01*
X109415691Y-97503253D01*
X109162067Y-97882828D01*
X109073006Y-98330568D01*
X105224019Y-98330568D01*
X105298006Y-98151950D01*
X105298006Y-97781563D01*
X105459117Y-97714786D01*
X105466915Y-97711241D01*
X105744178Y-97573738D01*
X105761742Y-97563182D01*
X106113643Y-97310937D01*
X106127552Y-97299384D01*
X106509943Y-96932719D01*
X106514165Y-96928475D01*
X106553895Y-96886611D01*
X106830458Y-96595204D01*
X107176099Y-96231029D01*
X107550623Y-95836435D01*
X107913804Y-95453805D01*
X107930087Y-95436664D01*
X108033963Y-95330568D01*
X132073006Y-95330568D01*
X132073006Y-96120712D01*
X132162067Y-96568452D01*
X132415691Y-96948027D01*
X132795266Y-97201651D01*
X133243006Y-97290712D01*
X133690746Y-97201651D01*
X133893772Y-97065994D01*
X134205623Y-97219540D01*
X134386006Y-97093884D01*
X134386006Y-96256450D01*
X134413006Y-96120712D01*
X134413006Y-95330568D01*
X134613006Y-95330568D01*
X134613006Y-96120712D01*
X134640006Y-96256450D01*
X134640006Y-97093884D01*
X134820389Y-97219540D01*
X135132240Y-97065994D01*
X135335266Y-97201651D01*
X135783006Y-97290712D01*
X136230746Y-97201651D01*
X136233519Y-97199798D01*
X136266116Y-97222071D01*
X136518006Y-97273080D01*
X137588006Y-97273080D01*
X137823323Y-97228802D01*
X138039447Y-97089730D01*
X138184437Y-96877530D01*
X138235446Y-96625640D01*
X138235446Y-94825640D01*
X138191168Y-94590323D01*
X138052096Y-94374199D01*
X137839896Y-94229209D01*
X137588006Y-94178200D01*
X136518006Y-94178200D01*
X136282689Y-94222478D01*
X136235529Y-94252825D01*
X136230746Y-94249629D01*
X135783006Y-94160568D01*
X135335266Y-94249629D01*
X135132240Y-94385286D01*
X134820389Y-94231740D01*
X134640006Y-94357396D01*
X134640006Y-95194830D01*
X134613006Y-95330568D01*
X134413006Y-95330568D01*
X134386006Y-95194830D01*
X134386006Y-94357396D01*
X134205623Y-94231740D01*
X133893772Y-94385286D01*
X133690746Y-94249629D01*
X133243006Y-94160568D01*
X132795266Y-94249629D01*
X132415691Y-94503253D01*
X132162067Y-94882828D01*
X132073006Y-95330568D01*
X108033963Y-95330568D01*
X108574510Y-94778472D01*
X109255735Y-94122748D01*
X109983708Y-93461909D01*
X110767818Y-92788959D01*
X111617357Y-92096998D01*
X112541755Y-91379026D01*
X112606842Y-91330568D01*
X121073006Y-91330568D01*
X121073006Y-92120712D01*
X121162067Y-92568452D01*
X121415691Y-92948027D01*
X121795266Y-93201651D01*
X122243006Y-93290712D01*
X122690746Y-93201651D01*
X122893772Y-93065994D01*
X123205623Y-93219540D01*
X123386006Y-93093884D01*
X123386006Y-92256450D01*
X123413006Y-92120712D01*
X123413006Y-91330568D01*
X123613006Y-91330568D01*
X123613006Y-92120712D01*
X123640006Y-92256450D01*
X123640006Y-93093884D01*
X123820389Y-93219540D01*
X124132240Y-93065994D01*
X124335266Y-93201651D01*
X124783006Y-93290712D01*
X125230746Y-93201651D01*
X125233519Y-93199798D01*
X125266116Y-93222071D01*
X125518006Y-93273080D01*
X126588006Y-93273080D01*
X126823323Y-93228802D01*
X127039447Y-93089730D01*
X127184437Y-92877530D01*
X127235446Y-92625640D01*
X127235446Y-90825640D01*
X127191168Y-90590323D01*
X127052096Y-90374199D01*
X126839896Y-90229209D01*
X126588006Y-90178200D01*
X125518006Y-90178200D01*
X125282689Y-90222478D01*
X125235529Y-90252825D01*
X125230746Y-90249629D01*
X124783006Y-90160568D01*
X124335266Y-90249629D01*
X124132240Y-90385286D01*
X123820389Y-90231740D01*
X123640006Y-90357396D01*
X123640006Y-91194830D01*
X123613006Y-91330568D01*
X123413006Y-91330568D01*
X123386006Y-91194830D01*
X123386006Y-90357396D01*
X123205623Y-90231740D01*
X122893772Y-90385286D01*
X122690746Y-90249629D01*
X122243006Y-90160568D01*
X121795266Y-90249629D01*
X121415691Y-90503253D01*
X121162067Y-90882828D01*
X121073006Y-91330568D01*
X112606842Y-91330568D01*
X113550196Y-90628233D01*
X114652010Y-89837692D01*
X115856474Y-89000515D01*
X117172748Y-88109885D01*
X118610219Y-87158832D01*
X120178003Y-86140559D01*
X121885786Y-85047900D01*
X122120186Y-84898708D01*
X122120403Y-84898570D01*
X122910753Y-84393279D01*
X122911035Y-84393098D01*
X123732230Y-83865025D01*
X123732484Y-83864862D01*
X124555505Y-83332847D01*
X124555757Y-83332683D01*
X125351585Y-82815567D01*
X125351867Y-82815384D01*
X126091482Y-82332008D01*
X126091836Y-82331775D01*
X126093669Y-82330568D01*
X133073006Y-82330568D01*
X133073006Y-83120712D01*
X133162067Y-83568452D01*
X133415691Y-83948027D01*
X133795266Y-84201651D01*
X134243006Y-84290712D01*
X134690746Y-84201651D01*
X134893772Y-84065994D01*
X135205623Y-84219540D01*
X135386006Y-84093884D01*
X135386006Y-83256450D01*
X135413006Y-83120712D01*
X135413006Y-82330568D01*
X135613006Y-82330568D01*
X135613006Y-83120712D01*
X135640006Y-83256450D01*
X135640006Y-84093884D01*
X135820389Y-84219540D01*
X136132240Y-84065994D01*
X136335266Y-84201651D01*
X136783006Y-84290712D01*
X137230746Y-84201651D01*
X137233519Y-84199798D01*
X137266116Y-84222071D01*
X137518006Y-84273080D01*
X138588006Y-84273080D01*
X138823323Y-84228802D01*
X139039447Y-84089730D01*
X139184437Y-83877530D01*
X139235446Y-83625640D01*
X139235446Y-81825640D01*
X139191168Y-81590323D01*
X139052096Y-81374199D01*
X138839896Y-81229209D01*
X138588006Y-81178200D01*
X137518006Y-81178200D01*
X137282689Y-81222478D01*
X137235529Y-81252825D01*
X137230746Y-81249629D01*
X136783006Y-81160568D01*
X136335266Y-81249629D01*
X136132240Y-81385286D01*
X135820389Y-81231740D01*
X135640006Y-81357396D01*
X135640006Y-82194830D01*
X135613006Y-82330568D01*
X135413006Y-82330568D01*
X135386006Y-82194830D01*
X135386006Y-81357396D01*
X135205623Y-81231740D01*
X134893772Y-81385286D01*
X134690746Y-81249629D01*
X134243006Y-81160568D01*
X133795266Y-81249629D01*
X133415691Y-81503253D01*
X133162067Y-81882828D01*
X133073006Y-82330568D01*
X126093669Y-82330568D01*
X126746218Y-81900979D01*
X126746735Y-81900637D01*
X127286722Y-81541359D01*
X128518850Y-80727237D01*
X130080787Y-79735014D01*
X131536846Y-78859726D01*
X132893923Y-78098183D01*
X134158873Y-77447198D01*
X135338387Y-76903629D01*
X136439279Y-76464211D01*
X137468275Y-76125655D01*
X138432213Y-75884557D01*
X139337984Y-75737438D01*
X140195660Y-75680556D01*
X140451875Y-75678482D01*
X140746838Y-75689863D01*
G36*
X59910352Y-75680556D02*
X60768028Y-75737438D01*
X61673799Y-75884557D01*
X62637737Y-76125655D01*
X63666733Y-76464211D01*
X64767625Y-76903629D01*
X65947139Y-77447198D01*
X67212089Y-78098183D01*
X68569166Y-78859726D01*
X70025225Y-79735014D01*
X71587162Y-80727237D01*
X72819290Y-81541359D01*
X73359277Y-81900637D01*
X73359794Y-81900979D01*
X74014176Y-82331775D01*
X74014530Y-82332008D01*
X74754145Y-82815384D01*
X74754427Y-82815567D01*
X75550255Y-83332683D01*
X75550507Y-83332847D01*
X76373528Y-83864862D01*
X76373782Y-83865025D01*
X77194977Y-84393098D01*
X77195259Y-84393279D01*
X77985609Y-84898570D01*
X77985826Y-84898708D01*
X78220226Y-85047900D01*
X79928009Y-86140559D01*
X81495793Y-87158832D01*
X82933264Y-88109885D01*
X84249538Y-89000515D01*
X85454002Y-89837692D01*
X86555816Y-90628233D01*
X87564257Y-91379026D01*
X88488655Y-92096998D01*
X89338194Y-92788959D01*
X90122304Y-93461909D01*
X90850277Y-94122748D01*
X91531502Y-94778472D01*
X92175925Y-95436664D01*
X92192171Y-95453766D01*
X92555387Y-95836433D01*
X92929912Y-96231028D01*
X93275552Y-96595202D01*
X93552115Y-96886609D01*
X93591847Y-96928475D01*
X93596069Y-96932719D01*
X93978460Y-97299384D01*
X93992369Y-97310937D01*
X94344270Y-97563182D01*
X94361834Y-97573738D01*
X94639097Y-97711241D01*
X94646895Y-97714786D01*
X94963481Y-97846003D01*
X95011965Y-97963063D01*
X95052672Y-98008000D01*
X95052672Y-98227993D01*
X95026797Y-98565402D01*
X94961077Y-98937920D01*
X94921270Y-99091876D01*
X94919940Y-99097555D01*
X94897624Y-99203771D01*
X94889126Y-99216489D01*
X94779893Y-99765640D01*
X94803027Y-99881943D01*
X94765343Y-100317876D01*
X94765123Y-100320823D01*
X94721380Y-101014671D01*
X94721273Y-101016585D01*
X94680736Y-101862710D01*
X94680680Y-101864036D01*
X94643161Y-102866166D01*
X94643129Y-102867127D01*
X94608439Y-104028989D01*
X94608419Y-104029709D01*
X94576369Y-105355029D01*
X94576359Y-105355474D01*
X94559136Y-106188682D01*
X94543900Y-106882469D01*
X94526612Y-107523864D01*
X94508059Y-108092856D01*
X94489051Y-108568953D01*
X94470406Y-108931765D01*
X94453311Y-109156879D01*
X94441226Y-109227052D01*
X94418729Y-109330676D01*
X94417012Y-109340389D01*
X94382371Y-109593346D01*
X94382043Y-109595941D01*
X94338248Y-109973426D01*
X94338100Y-109974761D01*
X94287560Y-110454658D01*
X94287467Y-110455577D01*
X94232589Y-111015773D01*
X94232517Y-111016537D01*
X94175710Y-111634918D01*
X94175670Y-111635359D01*
X94162896Y-111779930D01*
X94081049Y-112690100D01*
X94000848Y-113525208D01*
X93919117Y-114306031D01*
X93832751Y-115052560D01*
X93738651Y-115784788D01*
X93633677Y-116523003D01*
X93514686Y-117287439D01*
X93378543Y-118098239D01*
X93222119Y-118975484D01*
X93042325Y-119939070D01*
X92835926Y-121009636D01*
X92599948Y-122206492D01*
X92345136Y-123480737D01*
X92345126Y-123480785D01*
X92182452Y-124295905D01*
X92182390Y-124296219D01*
X92025400Y-125093333D01*
X92025338Y-125093649D01*
X91878291Y-125850389D01*
X91878224Y-125850737D01*
X91745380Y-126544733D01*
X91745298Y-126545162D01*
X91630916Y-127154045D01*
X91630803Y-127154655D01*
X91539143Y-127656055D01*
X91538955Y-127657113D01*
X91474277Y-128028663D01*
X91473971Y-128030500D01*
X91449898Y-128181896D01*
X91272728Y-129076274D01*
X91013054Y-129870737D01*
X90650769Y-130612861D01*
X90164427Y-131347509D01*
X89715620Y-131906970D01*
X89324939Y-132330055D01*
X88836843Y-132805340D01*
X88280520Y-133308492D01*
X87685708Y-133814928D01*
X87081755Y-134300538D01*
X86498212Y-134741128D01*
X85965023Y-135112349D01*
X85511137Y-135390783D01*
X85398931Y-135450457D01*
X84751132Y-135699918D01*
X84010029Y-135850395D01*
X83214874Y-135897868D01*
X82408025Y-135837466D01*
X82057715Y-135774689D01*
X80916588Y-135448329D01*
X79814043Y-134966031D01*
X78738024Y-134321903D01*
X78123789Y-133872741D01*
X76804656Y-132738943D01*
X75597042Y-131488472D01*
X74512223Y-130135457D01*
X73562013Y-128694427D01*
X72857564Y-127387474D01*
X72833287Y-127330568D01*
X74073006Y-127330568D01*
X74073006Y-128120712D01*
X74162067Y-128568452D01*
X74415691Y-128948027D01*
X74795266Y-129201651D01*
X75243006Y-129290712D01*
X75690746Y-129201651D01*
X75893772Y-129065994D01*
X76205623Y-129219540D01*
X76386006Y-129093884D01*
X76386006Y-128256450D01*
X76413006Y-128120712D01*
X76413006Y-127330568D01*
X76613006Y-127330568D01*
X76613006Y-128120712D01*
X76640006Y-128256450D01*
X76640006Y-129093884D01*
X76820389Y-129219540D01*
X77132240Y-129065994D01*
X77335266Y-129201651D01*
X77783006Y-129290712D01*
X78230746Y-129201651D01*
X78233519Y-129199798D01*
X78266116Y-129222071D01*
X78518006Y-129273080D01*
X79588006Y-129273080D01*
X79823323Y-129228802D01*
X80039447Y-129089730D01*
X80184437Y-128877530D01*
X80235446Y-128625640D01*
X80235446Y-126825640D01*
X80191168Y-126590323D01*
X80052096Y-126374199D01*
X79839896Y-126229209D01*
X79588006Y-126178200D01*
X78518006Y-126178200D01*
X78282689Y-126222478D01*
X78235529Y-126252825D01*
X78230746Y-126249629D01*
X77783006Y-126160568D01*
X77335266Y-126249629D01*
X77132240Y-126385286D01*
X76820389Y-126231740D01*
X76640006Y-126357396D01*
X76640006Y-127194830D01*
X76613006Y-127330568D01*
X76413006Y-127330568D01*
X76386006Y-127194830D01*
X76386006Y-126357396D01*
X76205623Y-126231740D01*
X75893772Y-126385286D01*
X75690746Y-126249629D01*
X75243006Y-126160568D01*
X74795266Y-126249629D01*
X74415691Y-126503253D01*
X74162067Y-126882828D01*
X74073006Y-127330568D01*
X72833287Y-127330568D01*
X72327996Y-126146198D01*
X71882944Y-124787689D01*
X71529801Y-123345165D01*
X71357282Y-122330568D01*
X83073006Y-122330568D01*
X83073006Y-123120712D01*
X83162067Y-123568452D01*
X83415691Y-123948027D01*
X83795266Y-124201651D01*
X84243006Y-124290712D01*
X84690746Y-124201651D01*
X84893772Y-124065994D01*
X85205623Y-124219540D01*
X85386006Y-124093884D01*
X85386006Y-123256450D01*
X85413006Y-123120712D01*
X85413006Y-122330568D01*
X85613006Y-122330568D01*
X85613006Y-123120712D01*
X85640006Y-123256450D01*
X85640006Y-124093884D01*
X85820389Y-124219540D01*
X86132240Y-124065994D01*
X86335266Y-124201651D01*
X86783006Y-124290712D01*
X87230746Y-124201651D01*
X87233519Y-124199798D01*
X87266116Y-124222071D01*
X87518006Y-124273080D01*
X88588006Y-124273080D01*
X88823323Y-124228802D01*
X89039447Y-124089730D01*
X89184437Y-123877530D01*
X89235446Y-123625640D01*
X89235446Y-121825640D01*
X89191168Y-121590323D01*
X89052096Y-121374199D01*
X88839896Y-121229209D01*
X88588006Y-121178200D01*
X87518006Y-121178200D01*
X87282689Y-121222478D01*
X87235529Y-121252825D01*
X87230746Y-121249629D01*
X86783006Y-121160568D01*
X86335266Y-121249629D01*
X86132240Y-121385286D01*
X85820389Y-121231740D01*
X85640006Y-121357396D01*
X85640006Y-122194830D01*
X85613006Y-122330568D01*
X85413006Y-122330568D01*
X85386006Y-122194830D01*
X85386006Y-121357396D01*
X85205623Y-121231740D01*
X84893772Y-121385286D01*
X84690746Y-121249629D01*
X84243006Y-121160568D01*
X83795266Y-121249629D01*
X83415691Y-121503253D01*
X83162067Y-121882828D01*
X83073006Y-122330568D01*
X71357282Y-122330568D01*
X71275979Y-121852427D01*
X71128687Y-120342781D01*
X71092427Y-119162837D01*
X71151205Y-117756396D01*
X71326697Y-116472456D01*
X71618790Y-115308837D01*
X72027335Y-114263414D01*
X72553322Y-113331951D01*
X72936036Y-112813880D01*
X73301334Y-112330568D01*
X78073006Y-112330568D01*
X78073006Y-113120712D01*
X78162067Y-113568452D01*
X78415691Y-113948027D01*
X78795266Y-114201651D01*
X79243006Y-114290712D01*
X79690746Y-114201651D01*
X79893772Y-114065994D01*
X80205623Y-114219540D01*
X80386006Y-114093884D01*
X80386006Y-113256450D01*
X80413006Y-113120712D01*
X80413006Y-112330568D01*
X80613006Y-112330568D01*
X80613006Y-113120712D01*
X80640006Y-113256450D01*
X80640006Y-114093884D01*
X80820389Y-114219540D01*
X81132240Y-114065994D01*
X81335266Y-114201651D01*
X81783006Y-114290712D01*
X82230746Y-114201651D01*
X82233519Y-114199798D01*
X82266116Y-114222071D01*
X82518006Y-114273080D01*
X83588006Y-114273080D01*
X83823323Y-114228802D01*
X84039447Y-114089730D01*
X84184437Y-113877530D01*
X84235446Y-113625640D01*
X84235446Y-111825640D01*
X84191168Y-111590323D01*
X84052096Y-111374199D01*
X83839896Y-111229209D01*
X83588006Y-111178200D01*
X82518006Y-111178200D01*
X82282689Y-111222478D01*
X82235529Y-111252825D01*
X82230746Y-111249629D01*
X81783006Y-111160568D01*
X81335266Y-111249629D01*
X81132240Y-111385286D01*
X80820389Y-111231740D01*
X80640006Y-111357396D01*
X80640006Y-112194830D01*
X80613006Y-112330568D01*
X80413006Y-112330568D01*
X80386006Y-112194830D01*
X80386006Y-111357396D01*
X80205623Y-111231740D01*
X79893772Y-111385286D01*
X79690746Y-111249629D01*
X79243006Y-111160568D01*
X78795266Y-111249629D01*
X78415691Y-111503253D01*
X78162067Y-111882828D01*
X78073006Y-112330568D01*
X73301334Y-112330568D01*
X73318687Y-112307609D01*
X73326427Y-112296116D01*
X73597651Y-111841646D01*
X73606101Y-111824742D01*
X73790424Y-111375202D01*
X73795693Y-111359506D01*
X73893336Y-110990455D01*
X73897075Y-110969072D01*
X73954637Y-110313084D01*
X73953756Y-110283401D01*
X73857388Y-109631865D01*
X73850320Y-109604934D01*
X73613473Y-108987925D01*
X73600967Y-108963577D01*
X73237095Y-108411168D01*
X73218926Y-108389354D01*
X72741481Y-107931618D01*
X72723804Y-107917467D01*
X72445368Y-107732733D01*
X72432297Y-107725140D01*
X72010959Y-107512863D01*
X71997706Y-107507107D01*
X71522221Y-107331997D01*
X71517676Y-107330568D01*
X86073006Y-107330568D01*
X86073006Y-108120712D01*
X86162067Y-108568452D01*
X86415691Y-108948027D01*
X86795266Y-109201651D01*
X87243006Y-109290712D01*
X87690746Y-109201651D01*
X87893772Y-109065994D01*
X88205623Y-109219540D01*
X88386006Y-109093884D01*
X88386006Y-108256450D01*
X88413006Y-108120712D01*
X88413006Y-107330568D01*
X88613006Y-107330568D01*
X88613006Y-108120712D01*
X88640006Y-108256450D01*
X88640006Y-109093884D01*
X88820389Y-109219540D01*
X89132240Y-109065994D01*
X89335266Y-109201651D01*
X89783006Y-109290712D01*
X90230746Y-109201651D01*
X90233519Y-109199798D01*
X90266116Y-109222071D01*
X90518006Y-109273080D01*
X91588006Y-109273080D01*
X91823323Y-109228802D01*
X92039447Y-109089730D01*
X92184437Y-108877530D01*
X92235446Y-108625640D01*
X92235446Y-106825640D01*
X92191168Y-106590323D01*
X92052096Y-106374199D01*
X91839896Y-106229209D01*
X91588006Y-106178200D01*
X90518006Y-106178200D01*
X90282689Y-106222478D01*
X90235529Y-106252825D01*
X90230746Y-106249629D01*
X89783006Y-106160568D01*
X89335266Y-106249629D01*
X89132240Y-106385286D01*
X88820389Y-106231740D01*
X88640006Y-106357396D01*
X88640006Y-107194830D01*
X88613006Y-107330568D01*
X88413006Y-107330568D01*
X88386006Y-107194830D01*
X88386006Y-106357396D01*
X88205623Y-106231740D01*
X87893772Y-106385286D01*
X87690746Y-106249629D01*
X87243006Y-106160568D01*
X86795266Y-106249629D01*
X86415691Y-106503253D01*
X86162067Y-106882828D01*
X86073006Y-107330568D01*
X71517676Y-107330568D01*
X71510529Y-107328321D01*
X70947506Y-107180765D01*
X70938956Y-107178837D01*
X70255004Y-107049219D01*
X70250758Y-107048489D01*
X69896145Y-106993674D01*
X69895120Y-106993519D01*
X68886097Y-106845969D01*
X68141233Y-106197284D01*
X66661839Y-104829508D01*
X65321120Y-103425754D01*
X64406177Y-102330568D01*
X74073006Y-102330568D01*
X74073006Y-103120712D01*
X74162067Y-103568452D01*
X74415691Y-103948027D01*
X74795266Y-104201651D01*
X75243006Y-104290712D01*
X75690746Y-104201651D01*
X75893772Y-104065994D01*
X76205623Y-104219540D01*
X76386006Y-104093884D01*
X76386006Y-103256450D01*
X76413006Y-103120712D01*
X76413006Y-102330568D01*
X76613006Y-102330568D01*
X76613006Y-103120712D01*
X76640006Y-103256450D01*
X76640006Y-104093884D01*
X76820389Y-104219540D01*
X77132240Y-104065994D01*
X77335266Y-104201651D01*
X77783006Y-104290712D01*
X78230746Y-104201651D01*
X78233519Y-104199798D01*
X78266116Y-104222071D01*
X78518006Y-104273080D01*
X79588006Y-104273080D01*
X79823323Y-104228802D01*
X80039447Y-104089730D01*
X80184437Y-103877530D01*
X80235446Y-103625640D01*
X80235446Y-101825640D01*
X80191168Y-101590323D01*
X80052096Y-101374199D01*
X79839896Y-101229209D01*
X79588006Y-101178200D01*
X78518006Y-101178200D01*
X78282689Y-101222478D01*
X78235529Y-101252825D01*
X78230746Y-101249629D01*
X77783006Y-101160568D01*
X77335266Y-101249629D01*
X77132240Y-101385286D01*
X76820389Y-101231740D01*
X76640006Y-101357396D01*
X76640006Y-102194830D01*
X76613006Y-102330568D01*
X76413006Y-102330568D01*
X76386006Y-102194830D01*
X76386006Y-101357396D01*
X76205623Y-101231740D01*
X75893772Y-101385286D01*
X75690746Y-101249629D01*
X75243006Y-101160568D01*
X74795266Y-101249629D01*
X74415691Y-101503253D01*
X74162067Y-101882828D01*
X74073006Y-102330568D01*
X64406177Y-102330568D01*
X64124652Y-101993584D01*
X63079354Y-100541884D01*
X62191444Y-99078517D01*
X61805953Y-98330568D01*
X85073006Y-98330568D01*
X85073006Y-99120712D01*
X85162067Y-99568452D01*
X85415691Y-99948027D01*
X85795266Y-100201651D01*
X86243006Y-100290712D01*
X86690746Y-100201651D01*
X86893772Y-100065994D01*
X87205623Y-100219540D01*
X87386006Y-100093884D01*
X87386006Y-99256450D01*
X87413006Y-99120712D01*
X87413006Y-98330568D01*
X87613006Y-98330568D01*
X87613006Y-99120712D01*
X87640006Y-99256450D01*
X87640006Y-100093884D01*
X87820389Y-100219540D01*
X88132240Y-100065994D01*
X88335266Y-100201651D01*
X88783006Y-100290712D01*
X89230746Y-100201651D01*
X89233519Y-100199798D01*
X89266116Y-100222071D01*
X89518006Y-100273080D01*
X90588006Y-100273080D01*
X90823323Y-100228802D01*
X91039447Y-100089730D01*
X91184437Y-99877530D01*
X91235446Y-99625640D01*
X91235446Y-97825640D01*
X91191168Y-97590323D01*
X91052096Y-97374199D01*
X90839896Y-97229209D01*
X90588006Y-97178200D01*
X89518006Y-97178200D01*
X89282689Y-97222478D01*
X89235529Y-97252825D01*
X89230746Y-97249629D01*
X88783006Y-97160568D01*
X88335266Y-97249629D01*
X88132240Y-97385286D01*
X87820389Y-97231740D01*
X87640006Y-97357396D01*
X87640006Y-98194830D01*
X87613006Y-98330568D01*
X87413006Y-98330568D01*
X87386006Y-98194830D01*
X87386006Y-97357396D01*
X87205623Y-97231740D01*
X86893772Y-97385286D01*
X86690746Y-97249629D01*
X86243006Y-97160568D01*
X85795266Y-97249629D01*
X85415691Y-97503253D01*
X85162067Y-97882828D01*
X85073006Y-98330568D01*
X61805953Y-98330568D01*
X61727051Y-98177480D01*
X61371851Y-97387623D01*
X61063746Y-96602084D01*
X60818143Y-95864143D01*
X60679590Y-95330568D01*
X62073006Y-95330568D01*
X62073006Y-96120712D01*
X62162067Y-96568452D01*
X62415691Y-96948027D01*
X62795266Y-97201651D01*
X63243006Y-97290712D01*
X63690746Y-97201651D01*
X63893772Y-97065994D01*
X64205623Y-97219540D01*
X64386006Y-97093884D01*
X64386006Y-96256450D01*
X64413006Y-96120712D01*
X64413006Y-95330568D01*
X64613006Y-95330568D01*
X64613006Y-96120712D01*
X64640006Y-96256450D01*
X64640006Y-97093884D01*
X64820389Y-97219540D01*
X65132240Y-97065994D01*
X65335266Y-97201651D01*
X65783006Y-97290712D01*
X66230746Y-97201651D01*
X66233519Y-97199798D01*
X66266116Y-97222071D01*
X66518006Y-97273080D01*
X67588006Y-97273080D01*
X67823323Y-97228802D01*
X68039447Y-97089730D01*
X68184437Y-96877530D01*
X68235446Y-96625640D01*
X68235446Y-94825640D01*
X68191168Y-94590323D01*
X68052096Y-94374199D01*
X67839896Y-94229209D01*
X67588006Y-94178200D01*
X66518006Y-94178200D01*
X66282689Y-94222478D01*
X66235529Y-94252825D01*
X66230746Y-94249629D01*
X65783006Y-94160568D01*
X65335266Y-94249629D01*
X65132240Y-94385286D01*
X64820389Y-94231740D01*
X64640006Y-94357396D01*
X64640006Y-95194830D01*
X64613006Y-95330568D01*
X64413006Y-95330568D01*
X64386006Y-95194830D01*
X64386006Y-94357396D01*
X64205623Y-94231740D01*
X63893772Y-94385286D01*
X63690746Y-94249629D01*
X63243006Y-94160568D01*
X62795266Y-94249629D01*
X62415691Y-94503253D01*
X62162067Y-94882828D01*
X62073006Y-95330568D01*
X60679590Y-95330568D01*
X60649619Y-95215150D01*
X60625428Y-95094137D01*
X60625361Y-95093806D01*
X60480619Y-94379641D01*
X60479773Y-94375775D01*
X60309687Y-93653028D01*
X60308724Y-93649202D01*
X60106416Y-92895373D01*
X60105434Y-92891912D01*
X59864026Y-92084499D01*
X59863119Y-92081594D01*
X59618825Y-91330568D01*
X72573006Y-91330568D01*
X72573006Y-92120712D01*
X72662067Y-92568452D01*
X72915691Y-92948027D01*
X73295266Y-93201651D01*
X73743006Y-93290712D01*
X74190746Y-93201651D01*
X74393772Y-93065994D01*
X74705623Y-93219540D01*
X74886006Y-93093884D01*
X74886006Y-92256450D01*
X74913006Y-92120712D01*
X74913006Y-91330568D01*
X75113006Y-91330568D01*
X75113006Y-92120712D01*
X75140006Y-92256450D01*
X75140006Y-93093884D01*
X75320389Y-93219540D01*
X75632240Y-93065994D01*
X75835266Y-93201651D01*
X76283006Y-93290712D01*
X76730746Y-93201651D01*
X76733519Y-93199798D01*
X76766116Y-93222071D01*
X77018006Y-93273080D01*
X78088006Y-93273080D01*
X78323323Y-93228802D01*
X78539447Y-93089730D01*
X78684437Y-92877530D01*
X78735446Y-92625640D01*
X78735446Y-90825640D01*
X78691168Y-90590323D01*
X78552096Y-90374199D01*
X78339896Y-90229209D01*
X78088006Y-90178200D01*
X77018006Y-90178200D01*
X76782689Y-90222478D01*
X76735529Y-90252825D01*
X76730746Y-90249629D01*
X76283006Y-90160568D01*
X75835266Y-90249629D01*
X75632240Y-90385286D01*
X75320389Y-90231740D01*
X75140006Y-90357396D01*
X75140006Y-91194830D01*
X75113006Y-91330568D01*
X74913006Y-91330568D01*
X74886006Y-91194830D01*
X74886006Y-90357396D01*
X74705623Y-90231740D01*
X74393772Y-90385286D01*
X74190746Y-90249629D01*
X73743006Y-90160568D01*
X73295266Y-90249629D01*
X72915691Y-90503253D01*
X72662067Y-90882828D01*
X72573006Y-91330568D01*
X59618825Y-91330568D01*
X59575735Y-91198098D01*
X59574966Y-91195809D01*
X59234727Y-90213729D01*
X59234120Y-90212014D01*
X58834149Y-89108849D01*
X58833801Y-89107901D01*
X58621436Y-88536403D01*
X58191829Y-87377377D01*
X57822692Y-86356449D01*
X57508522Y-85454892D01*
X57243901Y-84654243D01*
X57023378Y-83935985D01*
X56841468Y-83281542D01*
X56692629Y-82672131D01*
X56621590Y-82330568D01*
X61073006Y-82330568D01*
X61073006Y-83120712D01*
X61162067Y-83568452D01*
X61415691Y-83948027D01*
X61795266Y-84201651D01*
X62243006Y-84290712D01*
X62690746Y-84201651D01*
X62893772Y-84065994D01*
X63205623Y-84219540D01*
X63386006Y-84093884D01*
X63386006Y-83256450D01*
X63413006Y-83120712D01*
X63413006Y-82330568D01*
X63613006Y-82330568D01*
X63613006Y-83120712D01*
X63640006Y-83256450D01*
X63640006Y-84093884D01*
X63820389Y-84219540D01*
X64132240Y-84065994D01*
X64335266Y-84201651D01*
X64783006Y-84290712D01*
X65230746Y-84201651D01*
X65233519Y-84199798D01*
X65266116Y-84222071D01*
X65518006Y-84273080D01*
X66588006Y-84273080D01*
X66823323Y-84228802D01*
X67039447Y-84089730D01*
X67184437Y-83877530D01*
X67235446Y-83625640D01*
X67235446Y-81825640D01*
X67191168Y-81590323D01*
X67052096Y-81374199D01*
X66839896Y-81229209D01*
X66588006Y-81178200D01*
X65518006Y-81178200D01*
X65282689Y-81222478D01*
X65235529Y-81252825D01*
X65230746Y-81249629D01*
X64783006Y-81160568D01*
X64335266Y-81249629D01*
X64132240Y-81385286D01*
X63820389Y-81231740D01*
X63640006Y-81357396D01*
X63640006Y-82194830D01*
X63613006Y-82330568D01*
X63413006Y-82330568D01*
X63386006Y-82194830D01*
X63386006Y-81357396D01*
X63205623Y-81231740D01*
X62893772Y-81385286D01*
X62690746Y-81249629D01*
X62243006Y-81160568D01*
X61795266Y-81249629D01*
X61415691Y-81503253D01*
X61162067Y-81882828D01*
X61073006Y-82330568D01*
X56621590Y-82330568D01*
X56571334Y-82088938D01*
X56472050Y-81512892D01*
X56389231Y-80924403D01*
X56385863Y-80897778D01*
X56314128Y-80200275D01*
X56296881Y-79627464D01*
X56338292Y-79134617D01*
X56443214Y-78674944D01*
X56618968Y-78200256D01*
X56777093Y-77858401D01*
X57213589Y-77137363D01*
X57749119Y-76542147D01*
X58379484Y-76075477D01*
X58628286Y-75941058D01*
X58916252Y-75806228D01*
X59137576Y-75728049D01*
X59359174Y-75689863D01*
X59654137Y-75678482D01*
X59910352Y-75680556D01*
X59910352Y-75680556D01*
G37*
X59910352Y-75680556D02*
X60768028Y-75737438D01*
X61673799Y-75884557D01*
X62637737Y-76125655D01*
X63666733Y-76464211D01*
X64767625Y-76903629D01*
X65947139Y-77447198D01*
X67212089Y-78098183D01*
X68569166Y-78859726D01*
X70025225Y-79735014D01*
X71587162Y-80727237D01*
X72819290Y-81541359D01*
X73359277Y-81900637D01*
X73359794Y-81900979D01*
X74014176Y-82331775D01*
X74014530Y-82332008D01*
X74754145Y-82815384D01*
X74754427Y-82815567D01*
X75550255Y-83332683D01*
X75550507Y-83332847D01*
X76373528Y-83864862D01*
X76373782Y-83865025D01*
X77194977Y-84393098D01*
X77195259Y-84393279D01*
X77985609Y-84898570D01*
X77985826Y-84898708D01*
X78220226Y-85047900D01*
X79928009Y-86140559D01*
X81495793Y-87158832D01*
X82933264Y-88109885D01*
X84249538Y-89000515D01*
X85454002Y-89837692D01*
X86555816Y-90628233D01*
X87564257Y-91379026D01*
X88488655Y-92096998D01*
X89338194Y-92788959D01*
X90122304Y-93461909D01*
X90850277Y-94122748D01*
X91531502Y-94778472D01*
X92175925Y-95436664D01*
X92192171Y-95453766D01*
X92555387Y-95836433D01*
X92929912Y-96231028D01*
X93275552Y-96595202D01*
X93552115Y-96886609D01*
X93591847Y-96928475D01*
X93596069Y-96932719D01*
X93978460Y-97299384D01*
X93992369Y-97310937D01*
X94344270Y-97563182D01*
X94361834Y-97573738D01*
X94639097Y-97711241D01*
X94646895Y-97714786D01*
X94963481Y-97846003D01*
X95011965Y-97963063D01*
X95052672Y-98008000D01*
X95052672Y-98227993D01*
X95026797Y-98565402D01*
X94961077Y-98937920D01*
X94921270Y-99091876D01*
X94919940Y-99097555D01*
X94897624Y-99203771D01*
X94889126Y-99216489D01*
X94779893Y-99765640D01*
X94803027Y-99881943D01*
X94765343Y-100317876D01*
X94765123Y-100320823D01*
X94721380Y-101014671D01*
X94721273Y-101016585D01*
X94680736Y-101862710D01*
X94680680Y-101864036D01*
X94643161Y-102866166D01*
X94643129Y-102867127D01*
X94608439Y-104028989D01*
X94608419Y-104029709D01*
X94576369Y-105355029D01*
X94576359Y-105355474D01*
X94559136Y-106188682D01*
X94543900Y-106882469D01*
X94526612Y-107523864D01*
X94508059Y-108092856D01*
X94489051Y-108568953D01*
X94470406Y-108931765D01*
X94453311Y-109156879D01*
X94441226Y-109227052D01*
X94418729Y-109330676D01*
X94417012Y-109340389D01*
X94382371Y-109593346D01*
X94382043Y-109595941D01*
X94338248Y-109973426D01*
X94338100Y-109974761D01*
X94287560Y-110454658D01*
X94287467Y-110455577D01*
X94232589Y-111015773D01*
X94232517Y-111016537D01*
X94175710Y-111634918D01*
X94175670Y-111635359D01*
X94162896Y-111779930D01*
X94081049Y-112690100D01*
X94000848Y-113525208D01*
X93919117Y-114306031D01*
X93832751Y-115052560D01*
X93738651Y-115784788D01*
X93633677Y-116523003D01*
X93514686Y-117287439D01*
X93378543Y-118098239D01*
X93222119Y-118975484D01*
X93042325Y-119939070D01*
X92835926Y-121009636D01*
X92599948Y-122206492D01*
X92345136Y-123480737D01*
X92345126Y-123480785D01*
X92182452Y-124295905D01*
X92182390Y-124296219D01*
X92025400Y-125093333D01*
X92025338Y-125093649D01*
X91878291Y-125850389D01*
X91878224Y-125850737D01*
X91745380Y-126544733D01*
X91745298Y-126545162D01*
X91630916Y-127154045D01*
X91630803Y-127154655D01*
X91539143Y-127656055D01*
X91538955Y-127657113D01*
X91474277Y-128028663D01*
X91473971Y-128030500D01*
X91449898Y-128181896D01*
X91272728Y-129076274D01*
X91013054Y-129870737D01*
X90650769Y-130612861D01*
X90164427Y-131347509D01*
X89715620Y-131906970D01*
X89324939Y-132330055D01*
X88836843Y-132805340D01*
X88280520Y-133308492D01*
X87685708Y-133814928D01*
X87081755Y-134300538D01*
X86498212Y-134741128D01*
X85965023Y-135112349D01*
X85511137Y-135390783D01*
X85398931Y-135450457D01*
X84751132Y-135699918D01*
X84010029Y-135850395D01*
X83214874Y-135897868D01*
X82408025Y-135837466D01*
X82057715Y-135774689D01*
X80916588Y-135448329D01*
X79814043Y-134966031D01*
X78738024Y-134321903D01*
X78123789Y-133872741D01*
X76804656Y-132738943D01*
X75597042Y-131488472D01*
X74512223Y-130135457D01*
X73562013Y-128694427D01*
X72857564Y-127387474D01*
X72833287Y-127330568D01*
X74073006Y-127330568D01*
X74073006Y-128120712D01*
X74162067Y-128568452D01*
X74415691Y-128948027D01*
X74795266Y-129201651D01*
X75243006Y-129290712D01*
X75690746Y-129201651D01*
X75893772Y-129065994D01*
X76205623Y-129219540D01*
X76386006Y-129093884D01*
X76386006Y-128256450D01*
X76413006Y-128120712D01*
X76413006Y-127330568D01*
X76613006Y-127330568D01*
X76613006Y-128120712D01*
X76640006Y-128256450D01*
X76640006Y-129093884D01*
X76820389Y-129219540D01*
X77132240Y-129065994D01*
X77335266Y-129201651D01*
X77783006Y-129290712D01*
X78230746Y-129201651D01*
X78233519Y-129199798D01*
X78266116Y-129222071D01*
X78518006Y-129273080D01*
X79588006Y-129273080D01*
X79823323Y-129228802D01*
X80039447Y-129089730D01*
X80184437Y-128877530D01*
X80235446Y-128625640D01*
X80235446Y-126825640D01*
X80191168Y-126590323D01*
X80052096Y-126374199D01*
X79839896Y-126229209D01*
X79588006Y-126178200D01*
X78518006Y-126178200D01*
X78282689Y-126222478D01*
X78235529Y-126252825D01*
X78230746Y-126249629D01*
X77783006Y-126160568D01*
X77335266Y-126249629D01*
X77132240Y-126385286D01*
X76820389Y-126231740D01*
X76640006Y-126357396D01*
X76640006Y-127194830D01*
X76613006Y-127330568D01*
X76413006Y-127330568D01*
X76386006Y-127194830D01*
X76386006Y-126357396D01*
X76205623Y-126231740D01*
X75893772Y-126385286D01*
X75690746Y-126249629D01*
X75243006Y-126160568D01*
X74795266Y-126249629D01*
X74415691Y-126503253D01*
X74162067Y-126882828D01*
X74073006Y-127330568D01*
X72833287Y-127330568D01*
X72327996Y-126146198D01*
X71882944Y-124787689D01*
X71529801Y-123345165D01*
X71357282Y-122330568D01*
X83073006Y-122330568D01*
X83073006Y-123120712D01*
X83162067Y-123568452D01*
X83415691Y-123948027D01*
X83795266Y-124201651D01*
X84243006Y-124290712D01*
X84690746Y-124201651D01*
X84893772Y-124065994D01*
X85205623Y-124219540D01*
X85386006Y-124093884D01*
X85386006Y-123256450D01*
X85413006Y-123120712D01*
X85413006Y-122330568D01*
X85613006Y-122330568D01*
X85613006Y-123120712D01*
X85640006Y-123256450D01*
X85640006Y-124093884D01*
X85820389Y-124219540D01*
X86132240Y-124065994D01*
X86335266Y-124201651D01*
X86783006Y-124290712D01*
X87230746Y-124201651D01*
X87233519Y-124199798D01*
X87266116Y-124222071D01*
X87518006Y-124273080D01*
X88588006Y-124273080D01*
X88823323Y-124228802D01*
X89039447Y-124089730D01*
X89184437Y-123877530D01*
X89235446Y-123625640D01*
X89235446Y-121825640D01*
X89191168Y-121590323D01*
X89052096Y-121374199D01*
X88839896Y-121229209D01*
X88588006Y-121178200D01*
X87518006Y-121178200D01*
X87282689Y-121222478D01*
X87235529Y-121252825D01*
X87230746Y-121249629D01*
X86783006Y-121160568D01*
X86335266Y-121249629D01*
X86132240Y-121385286D01*
X85820389Y-121231740D01*
X85640006Y-121357396D01*
X85640006Y-122194830D01*
X85613006Y-122330568D01*
X85413006Y-122330568D01*
X85386006Y-122194830D01*
X85386006Y-121357396D01*
X85205623Y-121231740D01*
X84893772Y-121385286D01*
X84690746Y-121249629D01*
X84243006Y-121160568D01*
X83795266Y-121249629D01*
X83415691Y-121503253D01*
X83162067Y-121882828D01*
X83073006Y-122330568D01*
X71357282Y-122330568D01*
X71275979Y-121852427D01*
X71128687Y-120342781D01*
X71092427Y-119162837D01*
X71151205Y-117756396D01*
X71326697Y-116472456D01*
X71618790Y-115308837D01*
X72027335Y-114263414D01*
X72553322Y-113331951D01*
X72936036Y-112813880D01*
X73301334Y-112330568D01*
X78073006Y-112330568D01*
X78073006Y-113120712D01*
X78162067Y-113568452D01*
X78415691Y-113948027D01*
X78795266Y-114201651D01*
X79243006Y-114290712D01*
X79690746Y-114201651D01*
X79893772Y-114065994D01*
X80205623Y-114219540D01*
X80386006Y-114093884D01*
X80386006Y-113256450D01*
X80413006Y-113120712D01*
X80413006Y-112330568D01*
X80613006Y-112330568D01*
X80613006Y-113120712D01*
X80640006Y-113256450D01*
X80640006Y-114093884D01*
X80820389Y-114219540D01*
X81132240Y-114065994D01*
X81335266Y-114201651D01*
X81783006Y-114290712D01*
X82230746Y-114201651D01*
X82233519Y-114199798D01*
X82266116Y-114222071D01*
X82518006Y-114273080D01*
X83588006Y-114273080D01*
X83823323Y-114228802D01*
X84039447Y-114089730D01*
X84184437Y-113877530D01*
X84235446Y-113625640D01*
X84235446Y-111825640D01*
X84191168Y-111590323D01*
X84052096Y-111374199D01*
X83839896Y-111229209D01*
X83588006Y-111178200D01*
X82518006Y-111178200D01*
X82282689Y-111222478D01*
X82235529Y-111252825D01*
X82230746Y-111249629D01*
X81783006Y-111160568D01*
X81335266Y-111249629D01*
X81132240Y-111385286D01*
X80820389Y-111231740D01*
X80640006Y-111357396D01*
X80640006Y-112194830D01*
X80613006Y-112330568D01*
X80413006Y-112330568D01*
X80386006Y-112194830D01*
X80386006Y-111357396D01*
X80205623Y-111231740D01*
X79893772Y-111385286D01*
X79690746Y-111249629D01*
X79243006Y-111160568D01*
X78795266Y-111249629D01*
X78415691Y-111503253D01*
X78162067Y-111882828D01*
X78073006Y-112330568D01*
X73301334Y-112330568D01*
X73318687Y-112307609D01*
X73326427Y-112296116D01*
X73597651Y-111841646D01*
X73606101Y-111824742D01*
X73790424Y-111375202D01*
X73795693Y-111359506D01*
X73893336Y-110990455D01*
X73897075Y-110969072D01*
X73954637Y-110313084D01*
X73953756Y-110283401D01*
X73857388Y-109631865D01*
X73850320Y-109604934D01*
X73613473Y-108987925D01*
X73600967Y-108963577D01*
X73237095Y-108411168D01*
X73218926Y-108389354D01*
X72741481Y-107931618D01*
X72723804Y-107917467D01*
X72445368Y-107732733D01*
X72432297Y-107725140D01*
X72010959Y-107512863D01*
X71997706Y-107507107D01*
X71522221Y-107331997D01*
X71517676Y-107330568D01*
X86073006Y-107330568D01*
X86073006Y-108120712D01*
X86162067Y-108568452D01*
X86415691Y-108948027D01*
X86795266Y-109201651D01*
X87243006Y-109290712D01*
X87690746Y-109201651D01*
X87893772Y-109065994D01*
X88205623Y-109219540D01*
X88386006Y-109093884D01*
X88386006Y-108256450D01*
X88413006Y-108120712D01*
X88413006Y-107330568D01*
X88613006Y-107330568D01*
X88613006Y-108120712D01*
X88640006Y-108256450D01*
X88640006Y-109093884D01*
X88820389Y-109219540D01*
X89132240Y-109065994D01*
X89335266Y-109201651D01*
X89783006Y-109290712D01*
X90230746Y-109201651D01*
X90233519Y-109199798D01*
X90266116Y-109222071D01*
X90518006Y-109273080D01*
X91588006Y-109273080D01*
X91823323Y-109228802D01*
X92039447Y-109089730D01*
X92184437Y-108877530D01*
X92235446Y-108625640D01*
X92235446Y-106825640D01*
X92191168Y-106590323D01*
X92052096Y-106374199D01*
X91839896Y-106229209D01*
X91588006Y-106178200D01*
X90518006Y-106178200D01*
X90282689Y-106222478D01*
X90235529Y-106252825D01*
X90230746Y-106249629D01*
X89783006Y-106160568D01*
X89335266Y-106249629D01*
X89132240Y-106385286D01*
X88820389Y-106231740D01*
X88640006Y-106357396D01*
X88640006Y-107194830D01*
X88613006Y-107330568D01*
X88413006Y-107330568D01*
X88386006Y-107194830D01*
X88386006Y-106357396D01*
X88205623Y-106231740D01*
X87893772Y-106385286D01*
X87690746Y-106249629D01*
X87243006Y-106160568D01*
X86795266Y-106249629D01*
X86415691Y-106503253D01*
X86162067Y-106882828D01*
X86073006Y-107330568D01*
X71517676Y-107330568D01*
X71510529Y-107328321D01*
X70947506Y-107180765D01*
X70938956Y-107178837D01*
X70255004Y-107049219D01*
X70250758Y-107048489D01*
X69896145Y-106993674D01*
X69895120Y-106993519D01*
X68886097Y-106845969D01*
X68141233Y-106197284D01*
X66661839Y-104829508D01*
X65321120Y-103425754D01*
X64406177Y-102330568D01*
X74073006Y-102330568D01*
X74073006Y-103120712D01*
X74162067Y-103568452D01*
X74415691Y-103948027D01*
X74795266Y-104201651D01*
X75243006Y-104290712D01*
X75690746Y-104201651D01*
X75893772Y-104065994D01*
X76205623Y-104219540D01*
X76386006Y-104093884D01*
X76386006Y-103256450D01*
X76413006Y-103120712D01*
X76413006Y-102330568D01*
X76613006Y-102330568D01*
X76613006Y-103120712D01*
X76640006Y-103256450D01*
X76640006Y-104093884D01*
X76820389Y-104219540D01*
X77132240Y-104065994D01*
X77335266Y-104201651D01*
X77783006Y-104290712D01*
X78230746Y-104201651D01*
X78233519Y-104199798D01*
X78266116Y-104222071D01*
X78518006Y-104273080D01*
X79588006Y-104273080D01*
X79823323Y-104228802D01*
X80039447Y-104089730D01*
X80184437Y-103877530D01*
X80235446Y-103625640D01*
X80235446Y-101825640D01*
X80191168Y-101590323D01*
X80052096Y-101374199D01*
X79839896Y-101229209D01*
X79588006Y-101178200D01*
X78518006Y-101178200D01*
X78282689Y-101222478D01*
X78235529Y-101252825D01*
X78230746Y-101249629D01*
X77783006Y-101160568D01*
X77335266Y-101249629D01*
X77132240Y-101385286D01*
X76820389Y-101231740D01*
X76640006Y-101357396D01*
X76640006Y-102194830D01*
X76613006Y-102330568D01*
X76413006Y-102330568D01*
X76386006Y-102194830D01*
X76386006Y-101357396D01*
X76205623Y-101231740D01*
X75893772Y-101385286D01*
X75690746Y-101249629D01*
X75243006Y-101160568D01*
X74795266Y-101249629D01*
X74415691Y-101503253D01*
X74162067Y-101882828D01*
X74073006Y-102330568D01*
X64406177Y-102330568D01*
X64124652Y-101993584D01*
X63079354Y-100541884D01*
X62191444Y-99078517D01*
X61805953Y-98330568D01*
X85073006Y-98330568D01*
X85073006Y-99120712D01*
X85162067Y-99568452D01*
X85415691Y-99948027D01*
X85795266Y-100201651D01*
X86243006Y-100290712D01*
X86690746Y-100201651D01*
X86893772Y-100065994D01*
X87205623Y-100219540D01*
X87386006Y-100093884D01*
X87386006Y-99256450D01*
X87413006Y-99120712D01*
X87413006Y-98330568D01*
X87613006Y-98330568D01*
X87613006Y-99120712D01*
X87640006Y-99256450D01*
X87640006Y-100093884D01*
X87820389Y-100219540D01*
X88132240Y-100065994D01*
X88335266Y-100201651D01*
X88783006Y-100290712D01*
X89230746Y-100201651D01*
X89233519Y-100199798D01*
X89266116Y-100222071D01*
X89518006Y-100273080D01*
X90588006Y-100273080D01*
X90823323Y-100228802D01*
X91039447Y-100089730D01*
X91184437Y-99877530D01*
X91235446Y-99625640D01*
X91235446Y-97825640D01*
X91191168Y-97590323D01*
X91052096Y-97374199D01*
X90839896Y-97229209D01*
X90588006Y-97178200D01*
X89518006Y-97178200D01*
X89282689Y-97222478D01*
X89235529Y-97252825D01*
X89230746Y-97249629D01*
X88783006Y-97160568D01*
X88335266Y-97249629D01*
X88132240Y-97385286D01*
X87820389Y-97231740D01*
X87640006Y-97357396D01*
X87640006Y-98194830D01*
X87613006Y-98330568D01*
X87413006Y-98330568D01*
X87386006Y-98194830D01*
X87386006Y-97357396D01*
X87205623Y-97231740D01*
X86893772Y-97385286D01*
X86690746Y-97249629D01*
X86243006Y-97160568D01*
X85795266Y-97249629D01*
X85415691Y-97503253D01*
X85162067Y-97882828D01*
X85073006Y-98330568D01*
X61805953Y-98330568D01*
X61727051Y-98177480D01*
X61371851Y-97387623D01*
X61063746Y-96602084D01*
X60818143Y-95864143D01*
X60679590Y-95330568D01*
X62073006Y-95330568D01*
X62073006Y-96120712D01*
X62162067Y-96568452D01*
X62415691Y-96948027D01*
X62795266Y-97201651D01*
X63243006Y-97290712D01*
X63690746Y-97201651D01*
X63893772Y-97065994D01*
X64205623Y-97219540D01*
X64386006Y-97093884D01*
X64386006Y-96256450D01*
X64413006Y-96120712D01*
X64413006Y-95330568D01*
X64613006Y-95330568D01*
X64613006Y-96120712D01*
X64640006Y-96256450D01*
X64640006Y-97093884D01*
X64820389Y-97219540D01*
X65132240Y-97065994D01*
X65335266Y-97201651D01*
X65783006Y-97290712D01*
X66230746Y-97201651D01*
X66233519Y-97199798D01*
X66266116Y-97222071D01*
X66518006Y-97273080D01*
X67588006Y-97273080D01*
X67823323Y-97228802D01*
X68039447Y-97089730D01*
X68184437Y-96877530D01*
X68235446Y-96625640D01*
X68235446Y-94825640D01*
X68191168Y-94590323D01*
X68052096Y-94374199D01*
X67839896Y-94229209D01*
X67588006Y-94178200D01*
X66518006Y-94178200D01*
X66282689Y-94222478D01*
X66235529Y-94252825D01*
X66230746Y-94249629D01*
X65783006Y-94160568D01*
X65335266Y-94249629D01*
X65132240Y-94385286D01*
X64820389Y-94231740D01*
X64640006Y-94357396D01*
X64640006Y-95194830D01*
X64613006Y-95330568D01*
X64413006Y-95330568D01*
X64386006Y-95194830D01*
X64386006Y-94357396D01*
X64205623Y-94231740D01*
X63893772Y-94385286D01*
X63690746Y-94249629D01*
X63243006Y-94160568D01*
X62795266Y-94249629D01*
X62415691Y-94503253D01*
X62162067Y-94882828D01*
X62073006Y-95330568D01*
X60679590Y-95330568D01*
X60649619Y-95215150D01*
X60625428Y-95094137D01*
X60625361Y-95093806D01*
X60480619Y-94379641D01*
X60479773Y-94375775D01*
X60309687Y-93653028D01*
X60308724Y-93649202D01*
X60106416Y-92895373D01*
X60105434Y-92891912D01*
X59864026Y-92084499D01*
X59863119Y-92081594D01*
X59618825Y-91330568D01*
X72573006Y-91330568D01*
X72573006Y-92120712D01*
X72662067Y-92568452D01*
X72915691Y-92948027D01*
X73295266Y-93201651D01*
X73743006Y-93290712D01*
X74190746Y-93201651D01*
X74393772Y-93065994D01*
X74705623Y-93219540D01*
X74886006Y-93093884D01*
X74886006Y-92256450D01*
X74913006Y-92120712D01*
X74913006Y-91330568D01*
X75113006Y-91330568D01*
X75113006Y-92120712D01*
X75140006Y-92256450D01*
X75140006Y-93093884D01*
X75320389Y-93219540D01*
X75632240Y-93065994D01*
X75835266Y-93201651D01*
X76283006Y-93290712D01*
X76730746Y-93201651D01*
X76733519Y-93199798D01*
X76766116Y-93222071D01*
X77018006Y-93273080D01*
X78088006Y-93273080D01*
X78323323Y-93228802D01*
X78539447Y-93089730D01*
X78684437Y-92877530D01*
X78735446Y-92625640D01*
X78735446Y-90825640D01*
X78691168Y-90590323D01*
X78552096Y-90374199D01*
X78339896Y-90229209D01*
X78088006Y-90178200D01*
X77018006Y-90178200D01*
X76782689Y-90222478D01*
X76735529Y-90252825D01*
X76730746Y-90249629D01*
X76283006Y-90160568D01*
X75835266Y-90249629D01*
X75632240Y-90385286D01*
X75320389Y-90231740D01*
X75140006Y-90357396D01*
X75140006Y-91194830D01*
X75113006Y-91330568D01*
X74913006Y-91330568D01*
X74886006Y-91194830D01*
X74886006Y-90357396D01*
X74705623Y-90231740D01*
X74393772Y-90385286D01*
X74190746Y-90249629D01*
X73743006Y-90160568D01*
X73295266Y-90249629D01*
X72915691Y-90503253D01*
X72662067Y-90882828D01*
X72573006Y-91330568D01*
X59618825Y-91330568D01*
X59575735Y-91198098D01*
X59574966Y-91195809D01*
X59234727Y-90213729D01*
X59234120Y-90212014D01*
X58834149Y-89108849D01*
X58833801Y-89107901D01*
X58621436Y-88536403D01*
X58191829Y-87377377D01*
X57822692Y-86356449D01*
X57508522Y-85454892D01*
X57243901Y-84654243D01*
X57023378Y-83935985D01*
X56841468Y-83281542D01*
X56692629Y-82672131D01*
X56621590Y-82330568D01*
X61073006Y-82330568D01*
X61073006Y-83120712D01*
X61162067Y-83568452D01*
X61415691Y-83948027D01*
X61795266Y-84201651D01*
X62243006Y-84290712D01*
X62690746Y-84201651D01*
X62893772Y-84065994D01*
X63205623Y-84219540D01*
X63386006Y-84093884D01*
X63386006Y-83256450D01*
X63413006Y-83120712D01*
X63413006Y-82330568D01*
X63613006Y-82330568D01*
X63613006Y-83120712D01*
X63640006Y-83256450D01*
X63640006Y-84093884D01*
X63820389Y-84219540D01*
X64132240Y-84065994D01*
X64335266Y-84201651D01*
X64783006Y-84290712D01*
X65230746Y-84201651D01*
X65233519Y-84199798D01*
X65266116Y-84222071D01*
X65518006Y-84273080D01*
X66588006Y-84273080D01*
X66823323Y-84228802D01*
X67039447Y-84089730D01*
X67184437Y-83877530D01*
X67235446Y-83625640D01*
X67235446Y-81825640D01*
X67191168Y-81590323D01*
X67052096Y-81374199D01*
X66839896Y-81229209D01*
X66588006Y-81178200D01*
X65518006Y-81178200D01*
X65282689Y-81222478D01*
X65235529Y-81252825D01*
X65230746Y-81249629D01*
X64783006Y-81160568D01*
X64335266Y-81249629D01*
X64132240Y-81385286D01*
X63820389Y-81231740D01*
X63640006Y-81357396D01*
X63640006Y-82194830D01*
X63613006Y-82330568D01*
X63413006Y-82330568D01*
X63386006Y-82194830D01*
X63386006Y-81357396D01*
X63205623Y-81231740D01*
X62893772Y-81385286D01*
X62690746Y-81249629D01*
X62243006Y-81160568D01*
X61795266Y-81249629D01*
X61415691Y-81503253D01*
X61162067Y-81882828D01*
X61073006Y-82330568D01*
X56621590Y-82330568D01*
X56571334Y-82088938D01*
X56472050Y-81512892D01*
X56389231Y-80924403D01*
X56385863Y-80897778D01*
X56314128Y-80200275D01*
X56296881Y-79627464D01*
X56338292Y-79134617D01*
X56443214Y-78674944D01*
X56618968Y-78200256D01*
X56777093Y-77858401D01*
X57213589Y-77137363D01*
X57749119Y-76542147D01*
X58379484Y-76075477D01*
X58628286Y-75941058D01*
X58916252Y-75806228D01*
X59137576Y-75728049D01*
X59359174Y-75689863D01*
X59654137Y-75678482D01*
X59910352Y-75680556D01*
M02*
