G04 #@! TF.FileFunction,Soldermask,Top*
%FSLAX46Y46*%
G04 Gerber Fmt 4.6, Leading zero omitted, Abs format (unit mm)*
G04 Created by KiCad (PCBNEW 4.0.7) date Sunday, March 11, 2018 'AMt' 08:20:36 AM*
%MOMM*%
%LPD*%
G01*
G04 APERTURE LIST*
%ADD10C,0.100000*%
%ADD11R,1.700000X1.700000*%
%ADD12C,1.700000*%
%ADD13R,14.000000X2.000000*%
%ADD14R,2.000000X6.500000*%
%ADD15R,1.500000X1.300000*%
%ADD16R,1.250000X1.500000*%
%ADD17R,1.500000X1.250000*%
%ADD18R,1.070000X1.800000*%
%ADD19O,1.070000X1.800000*%
%ADD20C,1.350000*%
%ADD21O,1.350000X1.350000*%
%ADD22R,1.600000X1.600000*%
%ADD23O,1.600000X1.600000*%
%ADD24R,1.600000X2.500000*%
%ADD25R,1.200000X2.200000*%
%ADD26R,1.550000X1.300000*%
G04 APERTURE END LIST*
D10*
D11*
X103553006Y-110225640D03*
D12*
X101053006Y-110225640D03*
X99053006Y-110225640D03*
X96553006Y-110225640D03*
D13*
X100053006Y-107975640D03*
D14*
X94053006Y-110225640D03*
X106053006Y-110225640D03*
D15*
X114903006Y-92225640D03*
X112203006Y-92225640D03*
D16*
X93053006Y-96975640D03*
X93053006Y-99475640D03*
D17*
X92303006Y-116725640D03*
X89803006Y-116725640D03*
D18*
X114053006Y-98725640D03*
D19*
X112783006Y-98725640D03*
X111513006Y-98725640D03*
X110243006Y-98725640D03*
D18*
X126053006Y-91725640D03*
D19*
X124783006Y-91725640D03*
X123513006Y-91725640D03*
X122243006Y-91725640D03*
D18*
X138053006Y-82725640D03*
D19*
X136783006Y-82725640D03*
X135513006Y-82725640D03*
X134243006Y-82725640D03*
D18*
X113053006Y-107725640D03*
D19*
X111783006Y-107725640D03*
X110513006Y-107725640D03*
X109243006Y-107725640D03*
D18*
X125053006Y-102725640D03*
D19*
X123783006Y-102725640D03*
X122513006Y-102725640D03*
X121243006Y-102725640D03*
D18*
X137053006Y-95725640D03*
D19*
X135783006Y-95725640D03*
X134513006Y-95725640D03*
X133243006Y-95725640D03*
D18*
X121053006Y-112725640D03*
D19*
X119783006Y-112725640D03*
X118513006Y-112725640D03*
X117243006Y-112725640D03*
D18*
X125053006Y-127725640D03*
D19*
X123783006Y-127725640D03*
X122513006Y-127725640D03*
X121243006Y-127725640D03*
D18*
X116053006Y-122725640D03*
D19*
X114783006Y-122725640D03*
X113513006Y-122725640D03*
X112243006Y-122725640D03*
D18*
X90053006Y-98725640D03*
D19*
X88783006Y-98725640D03*
X87513006Y-98725640D03*
X86243006Y-98725640D03*
D18*
X77553006Y-91725640D03*
D19*
X76283006Y-91725640D03*
X75013006Y-91725640D03*
X73743006Y-91725640D03*
D18*
X66053006Y-82725640D03*
D19*
X64783006Y-82725640D03*
X63513006Y-82725640D03*
X62243006Y-82725640D03*
D18*
X91053006Y-107725640D03*
D19*
X89783006Y-107725640D03*
X88513006Y-107725640D03*
X87243006Y-107725640D03*
D18*
X79053006Y-102725640D03*
D19*
X77783006Y-102725640D03*
X76513006Y-102725640D03*
X75243006Y-102725640D03*
D18*
X67053006Y-95725640D03*
D19*
X65783006Y-95725640D03*
X64513006Y-95725640D03*
X63243006Y-95725640D03*
D18*
X83053006Y-112725640D03*
D19*
X81783006Y-112725640D03*
X80513006Y-112725640D03*
X79243006Y-112725640D03*
D18*
X79053006Y-127725640D03*
D19*
X77783006Y-127725640D03*
X76513006Y-127725640D03*
X75243006Y-127725640D03*
D18*
X88053006Y-122725640D03*
D19*
X86783006Y-122725640D03*
X85513006Y-122725640D03*
X84243006Y-122725640D03*
D20*
X99053006Y-94225640D03*
D21*
X101053006Y-94225640D03*
D22*
X103863006Y-97225640D03*
D23*
X96243006Y-104845640D03*
X103863006Y-99765640D03*
X96243006Y-102305640D03*
X103863006Y-102305640D03*
X96243006Y-99765640D03*
X103863006Y-104845640D03*
X96243006Y-97225640D03*
D24*
X113053006Y-112275640D03*
D25*
X112053006Y-116525640D03*
X114053006Y-116525640D03*
D26*
X82275000Y-127750000D03*
X90225000Y-127750000D03*
X82275000Y-132250000D03*
X90225000Y-132250000D03*
M02*
