G04 #@! TF.FileFunction,Legend,Top*
%FSLAX46Y46*%
G04 Gerber Fmt 4.6, Leading zero omitted, Abs format (unit mm)*
G04 Created by KiCad (PCBNEW 4.0.7) date Thursday, January 18, 2018 'PMt' 12:02:38 PM*
%MOMM*%
%LPD*%
G01*
G04 APERTURE LIST*
%ADD10C,0.100000*%
%ADD11C,0.150000*%
%ADD12C,0.200000*%
%ADD13C,0.120000*%
%ADD14C,0.010000*%
G04 APERTURE END LIST*
D10*
D11*
X109201786Y-115714285D02*
X108808929Y-115714285D01*
X108737500Y-115749999D01*
X108701786Y-115821428D01*
X108701786Y-115964285D01*
X108737500Y-116035714D01*
X109166071Y-115714285D02*
X109201786Y-115785714D01*
X109201786Y-115964285D01*
X109166071Y-116035714D01*
X109094643Y-116071428D01*
X109023214Y-116071428D01*
X108951786Y-116035714D01*
X108916071Y-115964285D01*
X108916071Y-115785714D01*
X108880357Y-115714285D01*
X109201786Y-115035714D02*
X108451786Y-115035714D01*
X109166071Y-115035714D02*
X109201786Y-115107143D01*
X109201786Y-115250000D01*
X109166071Y-115321428D01*
X109130357Y-115357143D01*
X109058929Y-115392857D01*
X108844643Y-115392857D01*
X108773214Y-115357143D01*
X108737500Y-115321428D01*
X108701786Y-115250000D01*
X108701786Y-115107143D01*
X108737500Y-115035714D01*
X108701786Y-114678572D02*
X109344643Y-114678572D01*
X109416071Y-114714286D01*
X109451786Y-114785714D01*
X109451786Y-114821429D01*
X108451786Y-114678572D02*
X108487500Y-114714286D01*
X108523214Y-114678572D01*
X108487500Y-114642857D01*
X108451786Y-114678572D01*
X108523214Y-114678572D01*
X108701786Y-114000000D02*
X109201786Y-114000000D01*
X108701786Y-114321429D02*
X109094643Y-114321429D01*
X109166071Y-114285714D01*
X109201786Y-114214286D01*
X109201786Y-114107143D01*
X109166071Y-114035714D01*
X109130357Y-114000000D01*
X109166071Y-113678572D02*
X109201786Y-113607143D01*
X109201786Y-113464286D01*
X109166071Y-113392858D01*
X109094643Y-113357143D01*
X109058929Y-113357143D01*
X108987500Y-113392858D01*
X108951786Y-113464286D01*
X108951786Y-113571429D01*
X108916071Y-113642858D01*
X108844643Y-113678572D01*
X108808929Y-113678572D01*
X108737500Y-113642858D01*
X108701786Y-113571429D01*
X108701786Y-113464286D01*
X108737500Y-113392858D01*
X108701786Y-113142857D02*
X108701786Y-112857143D01*
X108451786Y-113035715D02*
X109094643Y-113035715D01*
X109166071Y-113000000D01*
X109201786Y-112928572D01*
X109201786Y-112857143D01*
X110476786Y-117232142D02*
X109726786Y-117232142D01*
X110012500Y-117232142D02*
X109976786Y-117160713D01*
X109976786Y-117017856D01*
X110012500Y-116946427D01*
X110048214Y-116910713D01*
X110119643Y-116874999D01*
X110333929Y-116874999D01*
X110405357Y-116910713D01*
X110441071Y-116946427D01*
X110476786Y-117017856D01*
X110476786Y-117160713D01*
X110441071Y-117232142D01*
X110476786Y-116553571D02*
X109976786Y-116553571D01*
X110119643Y-116553571D02*
X110048214Y-116517856D01*
X110012500Y-116482142D01*
X109976786Y-116410713D01*
X109976786Y-116339285D01*
X110476786Y-116089285D02*
X109976786Y-116089285D01*
X109726786Y-116089285D02*
X109762500Y-116124999D01*
X109798214Y-116089285D01*
X109762500Y-116053570D01*
X109726786Y-116089285D01*
X109798214Y-116089285D01*
X109976786Y-115410713D02*
X110583929Y-115410713D01*
X110655357Y-115446427D01*
X110691071Y-115482142D01*
X110726786Y-115553570D01*
X110726786Y-115660713D01*
X110691071Y-115732142D01*
X110441071Y-115410713D02*
X110476786Y-115482142D01*
X110476786Y-115624999D01*
X110441071Y-115696427D01*
X110405357Y-115732142D01*
X110333929Y-115767856D01*
X110119643Y-115767856D01*
X110048214Y-115732142D01*
X110012500Y-115696427D01*
X109976786Y-115624999D01*
X109976786Y-115482142D01*
X110012500Y-115410713D01*
X110476786Y-115053571D02*
X109726786Y-115053571D01*
X110476786Y-114732142D02*
X110083929Y-114732142D01*
X110012500Y-114767856D01*
X109976786Y-114839285D01*
X109976786Y-114946428D01*
X110012500Y-115017856D01*
X110048214Y-115053571D01*
X109976786Y-114482142D02*
X109976786Y-114196428D01*
X109726786Y-114375000D02*
X110369643Y-114375000D01*
X110441071Y-114339285D01*
X110476786Y-114267857D01*
X110476786Y-114196428D01*
X109976786Y-113946429D02*
X110476786Y-113946429D01*
X110048214Y-113946429D02*
X110012500Y-113910714D01*
X109976786Y-113839286D01*
X109976786Y-113732143D01*
X110012500Y-113660714D01*
X110083929Y-113625000D01*
X110476786Y-113625000D01*
X110441071Y-112982143D02*
X110476786Y-113053572D01*
X110476786Y-113196429D01*
X110441071Y-113267858D01*
X110369643Y-113303572D01*
X110083929Y-113303572D01*
X110012500Y-113267858D01*
X109976786Y-113196429D01*
X109976786Y-113053572D01*
X110012500Y-112982143D01*
X110083929Y-112946429D01*
X110155357Y-112946429D01*
X110226786Y-113303572D01*
X110441071Y-112660715D02*
X110476786Y-112589286D01*
X110476786Y-112446429D01*
X110441071Y-112375001D01*
X110369643Y-112339286D01*
X110333929Y-112339286D01*
X110262500Y-112375001D01*
X110226786Y-112446429D01*
X110226786Y-112553572D01*
X110191071Y-112625001D01*
X110119643Y-112660715D01*
X110083929Y-112660715D01*
X110012500Y-112625001D01*
X109976786Y-112553572D01*
X109976786Y-112446429D01*
X110012500Y-112375001D01*
X110441071Y-112053572D02*
X110476786Y-111982143D01*
X110476786Y-111839286D01*
X110441071Y-111767858D01*
X110369643Y-111732143D01*
X110333929Y-111732143D01*
X110262500Y-111767858D01*
X110226786Y-111839286D01*
X110226786Y-111946429D01*
X110191071Y-112017858D01*
X110119643Y-112053572D01*
X110083929Y-112053572D01*
X110012500Y-112017858D01*
X109976786Y-111946429D01*
X109976786Y-111839286D01*
X110012500Y-111767858D01*
D12*
X118230280Y-88153010D02*
X118374615Y-88110078D01*
X118440936Y-88121773D01*
X118534569Y-88172474D01*
X118616509Y-88289496D01*
X118632128Y-88394823D01*
X118620434Y-88461144D01*
X118569732Y-88554777D01*
X118257674Y-88773283D01*
X117684097Y-87954131D01*
X117957149Y-87762938D01*
X118062476Y-87747319D01*
X118128797Y-87759013D01*
X118222430Y-87809715D01*
X118277056Y-87887729D01*
X118292675Y-87993056D01*
X118280981Y-88059377D01*
X118230280Y-88153010D01*
X117957229Y-88344203D01*
X119045507Y-87407786D02*
X119427892Y-87953888D01*
X118694441Y-87653605D02*
X118994887Y-88082685D01*
X119088520Y-88133386D01*
X119193848Y-88117767D01*
X119310870Y-88035827D01*
X119361571Y-87942194D01*
X119373265Y-87875873D01*
X119318557Y-87216594D02*
X119630615Y-86998089D01*
X119244387Y-86861604D02*
X119736024Y-87563735D01*
X119829658Y-87614436D01*
X119934985Y-87598817D01*
X120013000Y-87544191D01*
X119786645Y-86888836D02*
X120098702Y-86670331D01*
X119712474Y-86533846D02*
X120204111Y-87235976D01*
X120297745Y-87286678D01*
X120403072Y-87271059D01*
X120481087Y-87216432D01*
X121038883Y-86767727D02*
X120988182Y-86861360D01*
X120832152Y-86970614D01*
X120726825Y-86986233D01*
X120633191Y-86935531D01*
X120414686Y-86623473D01*
X120399067Y-86518145D01*
X120449768Y-86424512D01*
X120605798Y-86315259D01*
X120711125Y-86299640D01*
X120804759Y-86350341D01*
X120859385Y-86428356D01*
X120523939Y-86779503D01*
X121456268Y-86533603D02*
X121073884Y-85987501D01*
X121183137Y-86143530D02*
X121167517Y-86038202D01*
X121179212Y-85971882D01*
X121229913Y-85878249D01*
X121307928Y-85823622D01*
X121463957Y-85714369D02*
X121776014Y-85495864D01*
X121963363Y-86178531D02*
X121471726Y-85476401D01*
X121456107Y-85371073D01*
X121506808Y-85277440D01*
X121584822Y-85222814D01*
X122548472Y-85768834D02*
X122443144Y-85784453D01*
X122349511Y-85733752D01*
X121857874Y-85031621D01*
X122400131Y-85058853D02*
X122977552Y-85468389D01*
X122790204Y-84785721D02*
X122977552Y-85468389D01*
X123036103Y-85718051D01*
X123024409Y-85784371D01*
X122973708Y-85878005D01*
X124108762Y-84676307D02*
X123535186Y-83857155D01*
X124576849Y-84348548D01*
X124003273Y-83529396D01*
X124966921Y-84075417D02*
X124584537Y-83529315D01*
X124393345Y-83256265D02*
X124381651Y-83322585D01*
X124447971Y-83334279D01*
X124459665Y-83267959D01*
X124393345Y-83256265D01*
X124447971Y-83334279D01*
X125325675Y-83010365D02*
X125789999Y-83673488D01*
X125805618Y-83778816D01*
X125793924Y-83845136D01*
X125743221Y-83938770D01*
X125626200Y-84020710D01*
X125520872Y-84036329D01*
X125680746Y-83517460D02*
X125630045Y-83611093D01*
X125474015Y-83720346D01*
X125368688Y-83735965D01*
X125302367Y-83724271D01*
X125208734Y-83673570D01*
X125044854Y-83439526D01*
X125029235Y-83334198D01*
X125040929Y-83267878D01*
X125091631Y-83174245D01*
X125247660Y-83064992D01*
X125352988Y-83049372D01*
X126098131Y-83283336D02*
X125524555Y-82464183D01*
X126449197Y-83037517D02*
X126148752Y-82608437D01*
X126055118Y-82557735D01*
X125949791Y-82573355D01*
X125832768Y-82655294D01*
X125782067Y-82748928D01*
X125770373Y-82815248D01*
X126339863Y-82300223D02*
X126651920Y-82081718D01*
X126265692Y-81945233D02*
X126757329Y-82647364D01*
X126850963Y-82698065D01*
X126956290Y-82682446D01*
X127034305Y-82627820D01*
X127424378Y-82354688D02*
X127319050Y-82370307D01*
X127225417Y-82319606D01*
X126733780Y-81617475D01*
X127736436Y-82136182D02*
X127354052Y-81590080D01*
X127162860Y-81317030D02*
X127151166Y-81383350D01*
X127217486Y-81395044D01*
X127229180Y-81328724D01*
X127162860Y-81317030D01*
X127217486Y-81395044D01*
X128095189Y-81071130D02*
X128559513Y-81734254D01*
X128575132Y-81839581D01*
X128563438Y-81905901D01*
X128512736Y-81999535D01*
X128395714Y-82081475D01*
X128290387Y-82097094D01*
X128450261Y-81578225D02*
X128399559Y-81671858D01*
X128243530Y-81781111D01*
X128138202Y-81796730D01*
X128071882Y-81785036D01*
X127978248Y-81734335D01*
X127814369Y-81500291D01*
X127798750Y-81394963D01*
X127810444Y-81328643D01*
X127861145Y-81235010D01*
X128017175Y-81125757D01*
X128122502Y-81110137D01*
X128867646Y-81344101D02*
X128294069Y-80524949D01*
X129218711Y-81098282D02*
X128918266Y-80669202D01*
X128824633Y-80618500D01*
X128719305Y-80634120D01*
X128602283Y-80716060D01*
X128551582Y-80809693D01*
X128539887Y-80876013D01*
X129109377Y-80360988D02*
X129421435Y-80142483D01*
X129035207Y-80005998D02*
X129526844Y-80708129D01*
X129620477Y-80758830D01*
X129725805Y-80743211D01*
X129803819Y-80688585D01*
X131130067Y-79759936D02*
X130661979Y-80087695D01*
X130896023Y-79923816D02*
X130322446Y-79104664D01*
X130326371Y-79276312D01*
X130302983Y-79408952D01*
X130252282Y-79502586D01*
X131426505Y-79436104D02*
X131492826Y-79447798D01*
X131481131Y-79514118D01*
X131414811Y-79502424D01*
X131426505Y-79436104D01*
X131481131Y-79514118D01*
X131453656Y-78312582D02*
X131531671Y-78257955D01*
X131636999Y-78242336D01*
X131703319Y-78254030D01*
X131796952Y-78304732D01*
X131945212Y-78433447D01*
X132081778Y-78628484D01*
X132152024Y-78811826D01*
X132167643Y-78917154D01*
X132155949Y-78983474D01*
X132105247Y-79077107D01*
X132027232Y-79131734D01*
X131921905Y-79147353D01*
X131855584Y-79135659D01*
X131761951Y-79084958D01*
X131613691Y-78956242D01*
X131477125Y-78761205D01*
X131406880Y-78577864D01*
X131391261Y-78472536D01*
X131402955Y-78406216D01*
X131453656Y-78312582D01*
X65472746Y-77280577D02*
X66046322Y-76461425D01*
X65823811Y-77526396D02*
X66124257Y-77097316D01*
X66139876Y-76991989D01*
X66089174Y-76898355D01*
X65972152Y-76816415D01*
X65866824Y-76800796D01*
X65800504Y-76812490D01*
X66479246Y-77171487D02*
X66791304Y-77389992D01*
X66787460Y-76980376D02*
X66295823Y-77682506D01*
X66280204Y-77787834D01*
X66330905Y-77881467D01*
X66408919Y-77936093D01*
X66947334Y-77499245D02*
X67259391Y-77717750D01*
X67255547Y-77308134D02*
X66763910Y-78010264D01*
X66748291Y-78115592D01*
X66798992Y-78209225D01*
X66877007Y-78263851D01*
X67532442Y-77908942D02*
X66958866Y-78728094D01*
X67505129Y-77947950D02*
X67610457Y-77963569D01*
X67766486Y-78072822D01*
X67817188Y-78166455D01*
X67828882Y-78232776D01*
X67813263Y-78338103D01*
X67649383Y-78572147D01*
X67555750Y-78622848D01*
X67489429Y-78634542D01*
X67384102Y-78618923D01*
X67228072Y-78509670D01*
X67177371Y-78416037D01*
X67945822Y-78895980D02*
X67957516Y-78962300D01*
X67891196Y-78973994D01*
X67879501Y-78907674D01*
X67945822Y-78895980D01*
X67891196Y-78973994D01*
X68246267Y-78466900D02*
X68257961Y-78533220D01*
X68191641Y-78544914D01*
X68179947Y-78478594D01*
X68246267Y-78466900D01*
X68191641Y-78544914D01*
X69467266Y-78798664D02*
X68027680Y-79360222D01*
X70325425Y-79399553D02*
X68885840Y-79961112D01*
X70262949Y-79820864D02*
X70575007Y-80039369D01*
X69997586Y-80448905D02*
X70489223Y-79746774D01*
X70582857Y-79696073D01*
X70688184Y-79711692D01*
X70766199Y-79766318D01*
X71199123Y-80476380D02*
X70816739Y-81022482D01*
X70848058Y-80230561D02*
X70547613Y-80659641D01*
X70531994Y-80764969D01*
X70582695Y-80858602D01*
X70699717Y-80940542D01*
X70805045Y-80956161D01*
X70871365Y-80944467D01*
X71589195Y-80749511D02*
X71206811Y-81295613D01*
X71534569Y-80827526D02*
X71600889Y-80815832D01*
X71706217Y-80831451D01*
X71823239Y-80913391D01*
X71873941Y-81007024D01*
X71858322Y-81112352D01*
X71557877Y-81541432D01*
X72252319Y-81213835D02*
X72025963Y-81869189D01*
X72455125Y-81588370D01*
X72338021Y-82087695D01*
X72876435Y-81650846D01*
X72806108Y-82415453D02*
X73188492Y-81869351D01*
X73379684Y-81596301D02*
X73313364Y-81607995D01*
X73325058Y-81674315D01*
X73391378Y-81662621D01*
X73379684Y-81596301D01*
X73325058Y-81674315D01*
X73461543Y-82060543D02*
X73773600Y-82279048D01*
X73769756Y-81869432D02*
X73278119Y-82571563D01*
X73262500Y-82676890D01*
X73313201Y-82770524D01*
X73391216Y-82825150D01*
X73664267Y-83016342D02*
X74237844Y-82197190D01*
X74015333Y-83262161D02*
X74315778Y-82833081D01*
X74331397Y-82727754D01*
X74280696Y-82634120D01*
X74163673Y-82552180D01*
X74058346Y-82536561D01*
X73992025Y-82548255D01*
X74393711Y-83468972D02*
X74444412Y-83562606D01*
X74600441Y-83671858D01*
X74705769Y-83687478D01*
X74799403Y-83636777D01*
X74826716Y-83597769D01*
X74842335Y-83492442D01*
X74791633Y-83398808D01*
X74674611Y-83316868D01*
X74623910Y-83223235D01*
X74639529Y-83117907D01*
X74666843Y-83078899D01*
X74760476Y-83028198D01*
X74865804Y-83043817D01*
X74982825Y-83125757D01*
X75033527Y-83219391D01*
X75185550Y-84081556D02*
X75134848Y-83987922D01*
X75123154Y-83921602D01*
X75138773Y-83816274D01*
X75302653Y-83582230D01*
X75396286Y-83531529D01*
X75462606Y-83519835D01*
X75567934Y-83535454D01*
X75684956Y-83617394D01*
X75735658Y-83711028D01*
X75747352Y-83777348D01*
X75731733Y-83882676D01*
X75567853Y-84116720D01*
X75474220Y-84167421D01*
X75407900Y-84179115D01*
X75302572Y-84163496D01*
X75185550Y-84081556D01*
X76075028Y-83890526D02*
X76387086Y-84109031D01*
X75809666Y-84518567D02*
X76301303Y-83816436D01*
X76394936Y-83765735D01*
X76500264Y-83781354D01*
X76578278Y-83835980D01*
X76543116Y-84218284D02*
X76855173Y-84436789D01*
X76851329Y-84027173D02*
X76359692Y-84729303D01*
X76344073Y-84834631D01*
X76394774Y-84928264D01*
X76472789Y-84982890D01*
X77050210Y-84573355D02*
X76823854Y-85228709D01*
X77253016Y-84947890D01*
X77135913Y-85447215D01*
X77674326Y-85010366D01*
X77955065Y-86020791D02*
X78255510Y-85591711D01*
X78271129Y-85486384D01*
X78220428Y-85392750D01*
X78064398Y-85283497D01*
X77959071Y-85267878D01*
X77982378Y-85981784D02*
X77877051Y-85966165D01*
X77682014Y-85829599D01*
X77631312Y-85735965D01*
X77646932Y-85630638D01*
X77701558Y-85552623D01*
X77795191Y-85501922D01*
X77900519Y-85517541D01*
X78095556Y-85654107D01*
X78200883Y-85669727D01*
X78345137Y-86293923D02*
X78727521Y-85747821D01*
X78618269Y-85903850D02*
X78711902Y-85853149D01*
X78778223Y-85841455D01*
X78883550Y-85857074D01*
X78961565Y-85911700D01*
X79191603Y-86828493D02*
X79086275Y-86812873D01*
X78930246Y-86703620D01*
X78879545Y-86609987D01*
X78895164Y-86504659D01*
X79113669Y-86192601D01*
X79207303Y-86141900D01*
X79312630Y-86157519D01*
X79468660Y-86266772D01*
X79519361Y-86360405D01*
X79503742Y-86465733D01*
X79449115Y-86543748D01*
X79004416Y-86348631D01*
X79608988Y-87062617D02*
X79620682Y-87128937D01*
X79554362Y-87140631D01*
X79542668Y-87074311D01*
X79608988Y-87062617D01*
X79554362Y-87140631D01*
X80061455Y-87495702D02*
X80010754Y-87402068D01*
X79999060Y-87335748D01*
X80014679Y-87230421D01*
X80178559Y-86996376D01*
X80272192Y-86945675D01*
X80338512Y-86933981D01*
X80443840Y-86949600D01*
X80560862Y-87031540D01*
X80611564Y-87125174D01*
X80623258Y-87191494D01*
X80607639Y-87296822D01*
X80443759Y-87530866D01*
X80350126Y-87581567D01*
X80283805Y-87593261D01*
X80178478Y-87577642D01*
X80061455Y-87495702D01*
X80685571Y-87932713D02*
X81067956Y-87386611D01*
X80958703Y-87542640D02*
X81052337Y-87491939D01*
X81118657Y-87480244D01*
X81223985Y-87495864D01*
X81302000Y-87550490D01*
X81926116Y-87987501D02*
X81461792Y-88650624D01*
X81368159Y-88701326D01*
X81301838Y-88713020D01*
X81196510Y-88697400D01*
X81079488Y-88615461D01*
X81028787Y-88521827D01*
X81571045Y-88494596D02*
X81465717Y-88478976D01*
X81309688Y-88369723D01*
X81258986Y-88276090D01*
X81247292Y-88209770D01*
X81262911Y-88104442D01*
X81426791Y-87870398D01*
X81520424Y-87819697D01*
X81586744Y-87808003D01*
X81692072Y-87823622D01*
X81848102Y-87932875D01*
X81898803Y-88026508D01*
X83119802Y-88358273D02*
X81680216Y-88919831D01*
X83131334Y-89587122D02*
X83026007Y-89571503D01*
X82869977Y-89462250D01*
X82819276Y-89368617D01*
X82834895Y-89263289D01*
X83053401Y-88951231D01*
X83147034Y-88900529D01*
X83252362Y-88916148D01*
X83408391Y-89025401D01*
X83459093Y-89119035D01*
X83443474Y-89224362D01*
X83388847Y-89302378D01*
X82944148Y-89107260D01*
X83611115Y-89981200D02*
X83560414Y-89887567D01*
X83576033Y-89782239D01*
X84067670Y-89080109D01*
X84262545Y-90379204D02*
X84157217Y-90363585D01*
X84001188Y-90254332D01*
X83950486Y-90160699D01*
X83966105Y-90055371D01*
X84184611Y-89743313D01*
X84278245Y-89692611D01*
X84383572Y-89708230D01*
X84539602Y-89817484D01*
X84590303Y-89911117D01*
X84574684Y-90016445D01*
X84520057Y-90094460D01*
X84075358Y-89899342D01*
X85003682Y-90898154D02*
X84898355Y-90882535D01*
X84742325Y-90773282D01*
X84691624Y-90679649D01*
X84679930Y-90613328D01*
X84695549Y-90508001D01*
X84859428Y-90273957D01*
X84953062Y-90223256D01*
X85019382Y-90211562D01*
X85124710Y-90227181D01*
X85280739Y-90336434D01*
X85331441Y-90430067D01*
X85592797Y-90554939D02*
X85904855Y-90773444D01*
X85901011Y-90363828D02*
X85409374Y-91065958D01*
X85393754Y-91171286D01*
X85444456Y-91264919D01*
X85522470Y-91319546D01*
X85795521Y-91510738D02*
X86177906Y-90964636D01*
X86068653Y-91120665D02*
X86162287Y-91069964D01*
X86228607Y-91058270D01*
X86333935Y-91073889D01*
X86411950Y-91128516D01*
X86419637Y-91947749D02*
X86368936Y-91854115D01*
X86357242Y-91787795D01*
X86372861Y-91682467D01*
X86536741Y-91448423D01*
X86630374Y-91397722D01*
X86696694Y-91386028D01*
X86802022Y-91401647D01*
X86919044Y-91483587D01*
X86969746Y-91577221D01*
X86981440Y-91643541D01*
X86965821Y-91748869D01*
X86801941Y-91982913D01*
X86708308Y-92033614D01*
X86641987Y-92045308D01*
X86536660Y-92029689D01*
X86419637Y-91947749D01*
X87426138Y-91838658D02*
X87043753Y-92384760D01*
X87371512Y-91916672D02*
X87437832Y-91904978D01*
X87543160Y-91920597D01*
X87660182Y-92002537D01*
X87710883Y-92096171D01*
X87695264Y-92201498D01*
X87394819Y-92630578D01*
X87784891Y-92903710D02*
X88167276Y-92357608D01*
X88358468Y-92084558D02*
X88292147Y-92096252D01*
X88303841Y-92162572D01*
X88370162Y-92150878D01*
X88358468Y-92084558D01*
X88303841Y-92162572D01*
X88553342Y-93383653D02*
X88448014Y-93368034D01*
X88291985Y-93258781D01*
X88241283Y-93165147D01*
X88229589Y-93098827D01*
X88245208Y-92993499D01*
X88409088Y-92759455D01*
X88502721Y-92708754D01*
X88569042Y-92697060D01*
X88674369Y-92712679D01*
X88830399Y-92821932D01*
X88881100Y-92915565D01*
X88865399Y-93602158D02*
X88916101Y-93695791D01*
X89072130Y-93805044D01*
X89177458Y-93820663D01*
X89271091Y-93769962D01*
X89298405Y-93730955D01*
X89314024Y-93625627D01*
X89263322Y-93531993D01*
X89146300Y-93450054D01*
X89095599Y-93356421D01*
X89111218Y-93251092D01*
X89138531Y-93212085D01*
X89232165Y-93161384D01*
X89337492Y-93177003D01*
X89454514Y-93258942D01*
X89505216Y-93352576D01*
X90726215Y-93684340D02*
X89286630Y-94245899D01*
D11*
X71250000Y-122767857D02*
X71178572Y-122732143D01*
X71035715Y-122732143D01*
X70964286Y-122767857D01*
X70892857Y-122839286D01*
X70857143Y-122910714D01*
X70857143Y-123053571D01*
X70892857Y-123125000D01*
X70964286Y-123196429D01*
X71035715Y-123232143D01*
X71178572Y-123232143D01*
X71250000Y-123196429D01*
X71107143Y-122482143D02*
X70928572Y-122517857D01*
X70750000Y-122625000D01*
X70642857Y-122803571D01*
X70607143Y-122982143D01*
X70642857Y-123160714D01*
X70750000Y-123339286D01*
X70928572Y-123446429D01*
X71107143Y-123482143D01*
X71285715Y-123446429D01*
X71464286Y-123339286D01*
X71571429Y-123160714D01*
X71607143Y-122982143D01*
X71571429Y-122803571D01*
X71464286Y-122625000D01*
X71285715Y-122517857D01*
X71107143Y-122482143D01*
X72500000Y-123339286D02*
X72500000Y-122589286D01*
X72785715Y-122589286D01*
X72857143Y-122625000D01*
X72892858Y-122660714D01*
X72928572Y-122732143D01*
X72928572Y-122839286D01*
X72892858Y-122910714D01*
X72857143Y-122946429D01*
X72785715Y-122982143D01*
X72500000Y-122982143D01*
X73571429Y-123339286D02*
X73571429Y-122946429D01*
X73535715Y-122875000D01*
X73464286Y-122839286D01*
X73321429Y-122839286D01*
X73250000Y-122875000D01*
X73571429Y-123303571D02*
X73500000Y-123339286D01*
X73321429Y-123339286D01*
X73250000Y-123303571D01*
X73214286Y-123232143D01*
X73214286Y-123160714D01*
X73250000Y-123089286D01*
X73321429Y-123053571D01*
X73500000Y-123053571D01*
X73571429Y-123017857D01*
X73821429Y-122839286D02*
X74107143Y-122839286D01*
X73928571Y-122589286D02*
X73928571Y-123232143D01*
X73964286Y-123303571D01*
X74035714Y-123339286D01*
X74107143Y-123339286D01*
X74357142Y-123339286D02*
X74357142Y-122839286D01*
X74357142Y-122982143D02*
X74392857Y-122910714D01*
X74428571Y-122875000D01*
X74500000Y-122839286D01*
X74571428Y-122839286D01*
X74821428Y-123339286D02*
X74821428Y-122839286D01*
X74821428Y-122589286D02*
X74785714Y-122625000D01*
X74821428Y-122660714D01*
X74857143Y-122625000D01*
X74821428Y-122589286D01*
X74821428Y-122660714D01*
X75500000Y-123303571D02*
X75428571Y-123339286D01*
X75285714Y-123339286D01*
X75214286Y-123303571D01*
X75178571Y-123267857D01*
X75142857Y-123196429D01*
X75142857Y-122982143D01*
X75178571Y-122910714D01*
X75214286Y-122875000D01*
X75285714Y-122839286D01*
X75428571Y-122839286D01*
X75500000Y-122875000D01*
X75821428Y-123339286D02*
X75821428Y-122589286D01*
X75892857Y-123053571D02*
X76107143Y-123339286D01*
X76107143Y-122839286D02*
X75821428Y-123125000D01*
X77000000Y-123339286D02*
X77000000Y-122589286D01*
X77285715Y-122589286D01*
X77357143Y-122625000D01*
X77392858Y-122660714D01*
X77428572Y-122732143D01*
X77428572Y-122839286D01*
X77392858Y-122910714D01*
X77357143Y-122946429D01*
X77285715Y-122982143D01*
X77000000Y-122982143D01*
X78035715Y-123303571D02*
X77964286Y-123339286D01*
X77821429Y-123339286D01*
X77750000Y-123303571D01*
X77714286Y-123232143D01*
X77714286Y-122946429D01*
X77750000Y-122875000D01*
X77821429Y-122839286D01*
X77964286Y-122839286D01*
X78035715Y-122875000D01*
X78071429Y-122946429D01*
X78071429Y-123017857D01*
X77714286Y-123089286D01*
X78500000Y-123339286D02*
X78428572Y-123303571D01*
X78392857Y-123232143D01*
X78392857Y-122589286D01*
X78892857Y-123339286D02*
X78821429Y-123303571D01*
X78785714Y-123232143D01*
X78785714Y-122589286D01*
X79464286Y-123303571D02*
X79392857Y-123339286D01*
X79250000Y-123339286D01*
X79178571Y-123303571D01*
X79142857Y-123232143D01*
X79142857Y-122946429D01*
X79178571Y-122875000D01*
X79250000Y-122839286D01*
X79392857Y-122839286D01*
X79464286Y-122875000D01*
X79500000Y-122946429D01*
X79500000Y-123017857D01*
X79142857Y-123089286D01*
X79714286Y-122839286D02*
X80000000Y-122839286D01*
X79821428Y-122589286D02*
X79821428Y-123232143D01*
X79857143Y-123303571D01*
X79928571Y-123339286D01*
X80000000Y-123339286D01*
X80249999Y-123339286D02*
X80249999Y-122839286D01*
X80249999Y-122589286D02*
X80214285Y-122625000D01*
X80249999Y-122660714D01*
X80285714Y-122625000D01*
X80249999Y-122589286D01*
X80249999Y-122660714D01*
X80892857Y-123303571D02*
X80821428Y-123339286D01*
X80678571Y-123339286D01*
X80607142Y-123303571D01*
X80571428Y-123232143D01*
X80571428Y-122946429D01*
X80607142Y-122875000D01*
X80678571Y-122839286D01*
X80821428Y-122839286D01*
X80892857Y-122875000D01*
X80928571Y-122946429D01*
X80928571Y-123017857D01*
X80571428Y-123089286D01*
X81249999Y-123339286D02*
X81249999Y-122839286D01*
X81249999Y-122982143D02*
X81285714Y-122910714D01*
X81321428Y-122875000D01*
X81392857Y-122839286D01*
X81464285Y-122839286D01*
X72375000Y-121767857D02*
X72339286Y-121803571D01*
X72232143Y-121839286D01*
X72160714Y-121839286D01*
X72053571Y-121803571D01*
X71982143Y-121732143D01*
X71946428Y-121660714D01*
X71910714Y-121517857D01*
X71910714Y-121410714D01*
X71946428Y-121267857D01*
X71982143Y-121196429D01*
X72053571Y-121125000D01*
X72160714Y-121089286D01*
X72232143Y-121089286D01*
X72339286Y-121125000D01*
X72375000Y-121160714D01*
X73125000Y-121767857D02*
X73089286Y-121803571D01*
X72982143Y-121839286D01*
X72910714Y-121839286D01*
X72803571Y-121803571D01*
X72732143Y-121732143D01*
X72696428Y-121660714D01*
X72660714Y-121517857D01*
X72660714Y-121410714D01*
X72696428Y-121267857D01*
X72732143Y-121196429D01*
X72803571Y-121125000D01*
X72910714Y-121089286D01*
X72982143Y-121089286D01*
X73089286Y-121125000D01*
X73125000Y-121160714D01*
X73446428Y-121553571D02*
X74017857Y-121553571D01*
X74624999Y-121446429D02*
X74732142Y-121482143D01*
X74767857Y-121517857D01*
X74803571Y-121589286D01*
X74803571Y-121696429D01*
X74767857Y-121767857D01*
X74732142Y-121803571D01*
X74660714Y-121839286D01*
X74374999Y-121839286D01*
X74374999Y-121089286D01*
X74624999Y-121089286D01*
X74696428Y-121125000D01*
X74732142Y-121160714D01*
X74767857Y-121232143D01*
X74767857Y-121303571D01*
X74732142Y-121375000D01*
X74696428Y-121410714D01*
X74624999Y-121446429D01*
X74374999Y-121446429D01*
X75267857Y-121482143D02*
X75267857Y-121839286D01*
X75017857Y-121089286D02*
X75267857Y-121482143D01*
X75517857Y-121089286D01*
X75767856Y-121553571D02*
X76339285Y-121553571D01*
X76660713Y-121803571D02*
X76767856Y-121839286D01*
X76946427Y-121839286D01*
X77017856Y-121803571D01*
X77053570Y-121767857D01*
X77089285Y-121696429D01*
X77089285Y-121625000D01*
X77053570Y-121553571D01*
X77017856Y-121517857D01*
X76946427Y-121482143D01*
X76803570Y-121446429D01*
X76732142Y-121410714D01*
X76696427Y-121375000D01*
X76660713Y-121303571D01*
X76660713Y-121232143D01*
X76696427Y-121160714D01*
X76732142Y-121125000D01*
X76803570Y-121089286D01*
X76982142Y-121089286D01*
X77089285Y-121125000D01*
X77374999Y-121625000D02*
X77732142Y-121625000D01*
X77303571Y-121839286D02*
X77553571Y-121089286D01*
X77803571Y-121839286D01*
X78946428Y-121339286D02*
X78946428Y-121839286D01*
X78767857Y-121053571D02*
X78589285Y-121589286D01*
X79053571Y-121589286D01*
X79339285Y-121767857D02*
X79375000Y-121803571D01*
X79339285Y-121839286D01*
X79303571Y-121803571D01*
X79339285Y-121767857D01*
X79339285Y-121839286D01*
X79839286Y-121089286D02*
X79910714Y-121089286D01*
X79982143Y-121125000D01*
X80017857Y-121160714D01*
X80053571Y-121232143D01*
X80089286Y-121375000D01*
X80089286Y-121553571D01*
X80053571Y-121696429D01*
X80017857Y-121767857D01*
X79982143Y-121803571D01*
X79910714Y-121839286D01*
X79839286Y-121839286D01*
X79767857Y-121803571D01*
X79732143Y-121767857D01*
X79696428Y-121696429D01*
X79660714Y-121553571D01*
X79660714Y-121375000D01*
X79696428Y-121232143D01*
X79732143Y-121160714D01*
X79767857Y-121125000D01*
X79839286Y-121089286D01*
D13*
X98288006Y-119460640D02*
X99110476Y-119460640D01*
X100995536Y-119460640D02*
X101818006Y-119460640D01*
X99725536Y-119460640D02*
X100380476Y-119460640D01*
X98288006Y-116985640D02*
X98288006Y-119460640D01*
X101818006Y-115530640D02*
X101818006Y-119460640D01*
X98288006Y-116985640D02*
X98854535Y-116985640D01*
X99981477Y-116985640D02*
X100124535Y-116985640D01*
X100178006Y-116932169D02*
X100178006Y-116789111D01*
X100178006Y-115662169D02*
X100178006Y-115530640D01*
X100178006Y-115530640D02*
X100380476Y-115530640D01*
X100995536Y-115530640D02*
X101818006Y-115530640D01*
X98288006Y-116225640D02*
X98288006Y-115465640D01*
X98288006Y-115465640D02*
X99418006Y-115465640D01*
X112953006Y-91345640D02*
X114153006Y-91345640D01*
X114153006Y-93105640D02*
X112953006Y-93105640D01*
X106173006Y-98825640D02*
X106173006Y-97625640D01*
X107933006Y-97625640D02*
X107933006Y-98825640D01*
X93903006Y-98725640D02*
X93903006Y-97725640D01*
X92203006Y-97725640D02*
X92203006Y-98725640D01*
X90553006Y-117575640D02*
X91553006Y-117575640D01*
X91553006Y-115875640D02*
X90553006Y-115875640D01*
D14*
G36*
X74091241Y-118969184D02*
X74117753Y-118982282D01*
X74150447Y-119005106D01*
X74174275Y-119029996D01*
X74190594Y-119061249D01*
X74200760Y-119103166D01*
X74206128Y-119160044D01*
X74208056Y-119236184D01*
X74208169Y-119268917D01*
X74207839Y-119340656D01*
X74206473Y-119391927D01*
X74203500Y-119427404D01*
X74198351Y-119451763D01*
X74190457Y-119469680D01*
X74182243Y-119481902D01*
X74129813Y-119533905D01*
X74068070Y-119565184D01*
X74001464Y-119574592D01*
X73934442Y-119560980D01*
X73913208Y-119551354D01*
X73862376Y-119524859D01*
X73862376Y-119940052D01*
X73899475Y-119920868D01*
X73948357Y-119906025D01*
X74008439Y-119902222D01*
X74068436Y-119909243D01*
X74113744Y-119925013D01*
X74151325Y-119955047D01*
X74183436Y-119998024D01*
X74185850Y-120002436D01*
X74196033Y-120023221D01*
X74203470Y-120044170D01*
X74208589Y-120069548D01*
X74211819Y-120103618D01*
X74213587Y-120150641D01*
X74214323Y-120214882D01*
X74214456Y-120287176D01*
X74214456Y-120517822D01*
X74076139Y-120517822D01*
X74076139Y-120092533D01*
X74037451Y-120059979D01*
X73997262Y-120033940D01*
X73959203Y-120029205D01*
X73920934Y-120041389D01*
X73900538Y-120053320D01*
X73885358Y-120070313D01*
X73874562Y-120095995D01*
X73867317Y-120133991D01*
X73862792Y-120187926D01*
X73860156Y-120261425D01*
X73859228Y-120310347D01*
X73856089Y-120511535D01*
X73790074Y-120515336D01*
X73724060Y-120519136D01*
X73724060Y-119270650D01*
X73862376Y-119270650D01*
X73865903Y-119340254D01*
X73877785Y-119388569D01*
X73899980Y-119418631D01*
X73934441Y-119433471D01*
X73969258Y-119436436D01*
X74008671Y-119433028D01*
X74034829Y-119419617D01*
X74051186Y-119401896D01*
X74064063Y-119382835D01*
X74071728Y-119361601D01*
X74075139Y-119331849D01*
X74075251Y-119287236D01*
X74074103Y-119249880D01*
X74071468Y-119193604D01*
X74067544Y-119156658D01*
X74060937Y-119133223D01*
X74050251Y-119117480D01*
X74040167Y-119108380D01*
X73998030Y-119088537D01*
X73948160Y-119085332D01*
X73919524Y-119092168D01*
X73891172Y-119116464D01*
X73872391Y-119163728D01*
X73863288Y-119233624D01*
X73862376Y-119270650D01*
X73724060Y-119270650D01*
X73724060Y-118958614D01*
X73793218Y-118958614D01*
X73834740Y-118960256D01*
X73856162Y-118966087D01*
X73862374Y-118977461D01*
X73862376Y-118977798D01*
X73865258Y-118988938D01*
X73877970Y-118987673D01*
X73903243Y-118975433D01*
X73962131Y-118956707D01*
X74028385Y-118954739D01*
X74091241Y-118969184D01*
X74091241Y-118969184D01*
G37*
X74091241Y-118969184D02*
X74117753Y-118982282D01*
X74150447Y-119005106D01*
X74174275Y-119029996D01*
X74190594Y-119061249D01*
X74200760Y-119103166D01*
X74206128Y-119160044D01*
X74208056Y-119236184D01*
X74208169Y-119268917D01*
X74207839Y-119340656D01*
X74206473Y-119391927D01*
X74203500Y-119427404D01*
X74198351Y-119451763D01*
X74190457Y-119469680D01*
X74182243Y-119481902D01*
X74129813Y-119533905D01*
X74068070Y-119565184D01*
X74001464Y-119574592D01*
X73934442Y-119560980D01*
X73913208Y-119551354D01*
X73862376Y-119524859D01*
X73862376Y-119940052D01*
X73899475Y-119920868D01*
X73948357Y-119906025D01*
X74008439Y-119902222D01*
X74068436Y-119909243D01*
X74113744Y-119925013D01*
X74151325Y-119955047D01*
X74183436Y-119998024D01*
X74185850Y-120002436D01*
X74196033Y-120023221D01*
X74203470Y-120044170D01*
X74208589Y-120069548D01*
X74211819Y-120103618D01*
X74213587Y-120150641D01*
X74214323Y-120214882D01*
X74214456Y-120287176D01*
X74214456Y-120517822D01*
X74076139Y-120517822D01*
X74076139Y-120092533D01*
X74037451Y-120059979D01*
X73997262Y-120033940D01*
X73959203Y-120029205D01*
X73920934Y-120041389D01*
X73900538Y-120053320D01*
X73885358Y-120070313D01*
X73874562Y-120095995D01*
X73867317Y-120133991D01*
X73862792Y-120187926D01*
X73860156Y-120261425D01*
X73859228Y-120310347D01*
X73856089Y-120511535D01*
X73790074Y-120515336D01*
X73724060Y-120519136D01*
X73724060Y-119270650D01*
X73862376Y-119270650D01*
X73865903Y-119340254D01*
X73877785Y-119388569D01*
X73899980Y-119418631D01*
X73934441Y-119433471D01*
X73969258Y-119436436D01*
X74008671Y-119433028D01*
X74034829Y-119419617D01*
X74051186Y-119401896D01*
X74064063Y-119382835D01*
X74071728Y-119361601D01*
X74075139Y-119331849D01*
X74075251Y-119287236D01*
X74074103Y-119249880D01*
X74071468Y-119193604D01*
X74067544Y-119156658D01*
X74060937Y-119133223D01*
X74050251Y-119117480D01*
X74040167Y-119108380D01*
X73998030Y-119088537D01*
X73948160Y-119085332D01*
X73919524Y-119092168D01*
X73891172Y-119116464D01*
X73872391Y-119163728D01*
X73863288Y-119233624D01*
X73862376Y-119270650D01*
X73724060Y-119270650D01*
X73724060Y-118958614D01*
X73793218Y-118958614D01*
X73834740Y-118960256D01*
X73856162Y-118966087D01*
X73862374Y-118977461D01*
X73862376Y-118977798D01*
X73865258Y-118988938D01*
X73877970Y-118987673D01*
X73903243Y-118975433D01*
X73962131Y-118956707D01*
X74028385Y-118954739D01*
X74091241Y-118969184D01*
G36*
X74615790Y-119906555D02*
X74674945Y-119922339D01*
X74719977Y-119950948D01*
X74751754Y-119988419D01*
X74761634Y-120004411D01*
X74768927Y-120021163D01*
X74774026Y-120042592D01*
X74777321Y-120072616D01*
X74779203Y-120115154D01*
X74780063Y-120174122D01*
X74780293Y-120253440D01*
X74780297Y-120274484D01*
X74780297Y-120517822D01*
X74719941Y-120517822D01*
X74681443Y-120515126D01*
X74652977Y-120508295D01*
X74645845Y-120504083D01*
X74626348Y-120496813D01*
X74606434Y-120504083D01*
X74573647Y-120513160D01*
X74526022Y-120516813D01*
X74473236Y-120515228D01*
X74424964Y-120508589D01*
X74396782Y-120500072D01*
X74342247Y-120465063D01*
X74308165Y-120416479D01*
X74292843Y-120351882D01*
X74292701Y-120350223D01*
X74294045Y-120321566D01*
X74415644Y-120321566D01*
X74426274Y-120354161D01*
X74443590Y-120372505D01*
X74478348Y-120386379D01*
X74524227Y-120391917D01*
X74571012Y-120389191D01*
X74608486Y-120378274D01*
X74618985Y-120371269D01*
X74637332Y-120338904D01*
X74641980Y-120302111D01*
X74641980Y-120253763D01*
X74572418Y-120253763D01*
X74506333Y-120258850D01*
X74456236Y-120273263D01*
X74425071Y-120295729D01*
X74415644Y-120321566D01*
X74294045Y-120321566D01*
X74296013Y-120279647D01*
X74319290Y-120223845D01*
X74363052Y-120181647D01*
X74369101Y-120177808D01*
X74395093Y-120165309D01*
X74427265Y-120157740D01*
X74472240Y-120154061D01*
X74525669Y-120153216D01*
X74641980Y-120153169D01*
X74641980Y-120104411D01*
X74637047Y-120066581D01*
X74624457Y-120041236D01*
X74622983Y-120039887D01*
X74594966Y-120028800D01*
X74552674Y-120024503D01*
X74505936Y-120026615D01*
X74464582Y-120034756D01*
X74440043Y-120046965D01*
X74426747Y-120056746D01*
X74412706Y-120058613D01*
X74393329Y-120050600D01*
X74364024Y-120030739D01*
X74320197Y-119997063D01*
X74316175Y-119993909D01*
X74318236Y-119982236D01*
X74335432Y-119962822D01*
X74361567Y-119941248D01*
X74390448Y-119923096D01*
X74399522Y-119918809D01*
X74432620Y-119910256D01*
X74481120Y-119904155D01*
X74535305Y-119901708D01*
X74537839Y-119901703D01*
X74615790Y-119906555D01*
X74615790Y-119906555D01*
G37*
X74615790Y-119906555D02*
X74674945Y-119922339D01*
X74719977Y-119950948D01*
X74751754Y-119988419D01*
X74761634Y-120004411D01*
X74768927Y-120021163D01*
X74774026Y-120042592D01*
X74777321Y-120072616D01*
X74779203Y-120115154D01*
X74780063Y-120174122D01*
X74780293Y-120253440D01*
X74780297Y-120274484D01*
X74780297Y-120517822D01*
X74719941Y-120517822D01*
X74681443Y-120515126D01*
X74652977Y-120508295D01*
X74645845Y-120504083D01*
X74626348Y-120496813D01*
X74606434Y-120504083D01*
X74573647Y-120513160D01*
X74526022Y-120516813D01*
X74473236Y-120515228D01*
X74424964Y-120508589D01*
X74396782Y-120500072D01*
X74342247Y-120465063D01*
X74308165Y-120416479D01*
X74292843Y-120351882D01*
X74292701Y-120350223D01*
X74294045Y-120321566D01*
X74415644Y-120321566D01*
X74426274Y-120354161D01*
X74443590Y-120372505D01*
X74478348Y-120386379D01*
X74524227Y-120391917D01*
X74571012Y-120389191D01*
X74608486Y-120378274D01*
X74618985Y-120371269D01*
X74637332Y-120338904D01*
X74641980Y-120302111D01*
X74641980Y-120253763D01*
X74572418Y-120253763D01*
X74506333Y-120258850D01*
X74456236Y-120273263D01*
X74425071Y-120295729D01*
X74415644Y-120321566D01*
X74294045Y-120321566D01*
X74296013Y-120279647D01*
X74319290Y-120223845D01*
X74363052Y-120181647D01*
X74369101Y-120177808D01*
X74395093Y-120165309D01*
X74427265Y-120157740D01*
X74472240Y-120154061D01*
X74525669Y-120153216D01*
X74641980Y-120153169D01*
X74641980Y-120104411D01*
X74637047Y-120066581D01*
X74624457Y-120041236D01*
X74622983Y-120039887D01*
X74594966Y-120028800D01*
X74552674Y-120024503D01*
X74505936Y-120026615D01*
X74464582Y-120034756D01*
X74440043Y-120046965D01*
X74426747Y-120056746D01*
X74412706Y-120058613D01*
X74393329Y-120050600D01*
X74364024Y-120030739D01*
X74320197Y-119997063D01*
X74316175Y-119993909D01*
X74318236Y-119982236D01*
X74335432Y-119962822D01*
X74361567Y-119941248D01*
X74390448Y-119923096D01*
X74399522Y-119918809D01*
X74432620Y-119910256D01*
X74481120Y-119904155D01*
X74535305Y-119901708D01*
X74537839Y-119901703D01*
X74615790Y-119906555D01*
G36*
X75006644Y-119903020D02*
X75025461Y-119908660D01*
X75031527Y-119921053D01*
X75031782Y-119926647D01*
X75032871Y-119942230D01*
X75040368Y-119944676D01*
X75060619Y-119933993D01*
X75072649Y-119926694D01*
X75110600Y-119911063D01*
X75155928Y-119903334D01*
X75203456Y-119902740D01*
X75248005Y-119908513D01*
X75284398Y-119919884D01*
X75307457Y-119936088D01*
X75312004Y-119956355D01*
X75309709Y-119961843D01*
X75292980Y-119984626D01*
X75267037Y-120012647D01*
X75262345Y-120017177D01*
X75237617Y-120038005D01*
X75216282Y-120044735D01*
X75186445Y-120040038D01*
X75174492Y-120036917D01*
X75137295Y-120029421D01*
X75111141Y-120032792D01*
X75089054Y-120044681D01*
X75068822Y-120060635D01*
X75053921Y-120080700D01*
X75043566Y-120108702D01*
X75036971Y-120148467D01*
X75033351Y-120203823D01*
X75031922Y-120278594D01*
X75031782Y-120323740D01*
X75031782Y-120517822D01*
X74906040Y-120517822D01*
X74906040Y-119901683D01*
X74968911Y-119901683D01*
X75006644Y-119903020D01*
X75006644Y-119903020D01*
G37*
X75006644Y-119903020D02*
X75025461Y-119908660D01*
X75031527Y-119921053D01*
X75031782Y-119926647D01*
X75032871Y-119942230D01*
X75040368Y-119944676D01*
X75060619Y-119933993D01*
X75072649Y-119926694D01*
X75110600Y-119911063D01*
X75155928Y-119903334D01*
X75203456Y-119902740D01*
X75248005Y-119908513D01*
X75284398Y-119919884D01*
X75307457Y-119936088D01*
X75312004Y-119956355D01*
X75309709Y-119961843D01*
X75292980Y-119984626D01*
X75267037Y-120012647D01*
X75262345Y-120017177D01*
X75237617Y-120038005D01*
X75216282Y-120044735D01*
X75186445Y-120040038D01*
X75174492Y-120036917D01*
X75137295Y-120029421D01*
X75111141Y-120032792D01*
X75089054Y-120044681D01*
X75068822Y-120060635D01*
X75053921Y-120080700D01*
X75043566Y-120108702D01*
X75036971Y-120148467D01*
X75033351Y-120203823D01*
X75031922Y-120278594D01*
X75031782Y-120323740D01*
X75031782Y-120517822D01*
X74906040Y-120517822D01*
X74906040Y-119901683D01*
X74968911Y-119901683D01*
X75006644Y-119903020D01*
G36*
X75798812Y-120517822D02*
X75729654Y-120517822D01*
X75689512Y-120516645D01*
X75668606Y-120511772D01*
X75661078Y-120501186D01*
X75660495Y-120494029D01*
X75659226Y-120479676D01*
X75651221Y-120476923D01*
X75630185Y-120485771D01*
X75613827Y-120494029D01*
X75551023Y-120513597D01*
X75482752Y-120514729D01*
X75427248Y-120500135D01*
X75375562Y-120464877D01*
X75336162Y-120412835D01*
X75314587Y-120351450D01*
X75314038Y-120348018D01*
X75310833Y-120310571D01*
X75309239Y-120256813D01*
X75309367Y-120216155D01*
X75446721Y-120216155D01*
X75449903Y-120270194D01*
X75457141Y-120314735D01*
X75466940Y-120339888D01*
X75504011Y-120374260D01*
X75548026Y-120386582D01*
X75593416Y-120376618D01*
X75632203Y-120346895D01*
X75646892Y-120326905D01*
X75655481Y-120303050D01*
X75659504Y-120268230D01*
X75660495Y-120215930D01*
X75658722Y-120164139D01*
X75654037Y-120118634D01*
X75647397Y-120088181D01*
X75646290Y-120085452D01*
X75619509Y-120053000D01*
X75580421Y-120035183D01*
X75536685Y-120032306D01*
X75495962Y-120044674D01*
X75465913Y-120072593D01*
X75462796Y-120078148D01*
X75453039Y-120112022D01*
X75447723Y-120160728D01*
X75446721Y-120216155D01*
X75309367Y-120216155D01*
X75309432Y-120195540D01*
X75310336Y-120162563D01*
X75316486Y-120080981D01*
X75329267Y-120019730D01*
X75350529Y-119974449D01*
X75382122Y-119940779D01*
X75412793Y-119921014D01*
X75455646Y-119907120D01*
X75508944Y-119902354D01*
X75563520Y-119906236D01*
X75610208Y-119918282D01*
X75634876Y-119932693D01*
X75660495Y-119955878D01*
X75660495Y-119662773D01*
X75798812Y-119662773D01*
X75798812Y-120517822D01*
X75798812Y-120517822D01*
G37*
X75798812Y-120517822D02*
X75729654Y-120517822D01*
X75689512Y-120516645D01*
X75668606Y-120511772D01*
X75661078Y-120501186D01*
X75660495Y-120494029D01*
X75659226Y-120479676D01*
X75651221Y-120476923D01*
X75630185Y-120485771D01*
X75613827Y-120494029D01*
X75551023Y-120513597D01*
X75482752Y-120514729D01*
X75427248Y-120500135D01*
X75375562Y-120464877D01*
X75336162Y-120412835D01*
X75314587Y-120351450D01*
X75314038Y-120348018D01*
X75310833Y-120310571D01*
X75309239Y-120256813D01*
X75309367Y-120216155D01*
X75446721Y-120216155D01*
X75449903Y-120270194D01*
X75457141Y-120314735D01*
X75466940Y-120339888D01*
X75504011Y-120374260D01*
X75548026Y-120386582D01*
X75593416Y-120376618D01*
X75632203Y-120346895D01*
X75646892Y-120326905D01*
X75655481Y-120303050D01*
X75659504Y-120268230D01*
X75660495Y-120215930D01*
X75658722Y-120164139D01*
X75654037Y-120118634D01*
X75647397Y-120088181D01*
X75646290Y-120085452D01*
X75619509Y-120053000D01*
X75580421Y-120035183D01*
X75536685Y-120032306D01*
X75495962Y-120044674D01*
X75465913Y-120072593D01*
X75462796Y-120078148D01*
X75453039Y-120112022D01*
X75447723Y-120160728D01*
X75446721Y-120216155D01*
X75309367Y-120216155D01*
X75309432Y-120195540D01*
X75310336Y-120162563D01*
X75316486Y-120080981D01*
X75329267Y-120019730D01*
X75350529Y-119974449D01*
X75382122Y-119940779D01*
X75412793Y-119921014D01*
X75455646Y-119907120D01*
X75508944Y-119902354D01*
X75563520Y-119906236D01*
X75610208Y-119918282D01*
X75634876Y-119932693D01*
X75660495Y-119955878D01*
X75660495Y-119662773D01*
X75798812Y-119662773D01*
X75798812Y-120517822D01*
G36*
X76281524Y-119904237D02*
X76331255Y-119907971D01*
X76461291Y-120297773D01*
X76481678Y-120228614D01*
X76493946Y-120185874D01*
X76510085Y-120128115D01*
X76527512Y-120064625D01*
X76536726Y-120030570D01*
X76571388Y-119901683D01*
X76714391Y-119901683D01*
X76671646Y-120036857D01*
X76650596Y-120103342D01*
X76625167Y-120183539D01*
X76598610Y-120267193D01*
X76574902Y-120341782D01*
X76520902Y-120511535D01*
X76462598Y-120515328D01*
X76404295Y-120519122D01*
X76372679Y-120414734D01*
X76353182Y-120349889D01*
X76331904Y-120278400D01*
X76313308Y-120215263D01*
X76312574Y-120212750D01*
X76298684Y-120169969D01*
X76286429Y-120140779D01*
X76277846Y-120129741D01*
X76276082Y-120131018D01*
X76269891Y-120148130D01*
X76258128Y-120184787D01*
X76242225Y-120236378D01*
X76223614Y-120298294D01*
X76213543Y-120332352D01*
X76159007Y-120517822D01*
X76043264Y-120517822D01*
X75950737Y-120225471D01*
X75924744Y-120143462D01*
X75901066Y-120068987D01*
X75880820Y-120005544D01*
X75865126Y-119956632D01*
X75855102Y-119925749D01*
X75852055Y-119916726D01*
X75854467Y-119907487D01*
X75873408Y-119903441D01*
X75912823Y-119903846D01*
X75918993Y-119904152D01*
X75992086Y-119907971D01*
X76039957Y-120084010D01*
X76057553Y-120148211D01*
X76073277Y-120204649D01*
X76085746Y-120248422D01*
X76093574Y-120274630D01*
X76095020Y-120278903D01*
X76101014Y-120273990D01*
X76113101Y-120248532D01*
X76129893Y-120205997D01*
X76150003Y-120149850D01*
X76167003Y-120099130D01*
X76231794Y-119900504D01*
X76281524Y-119904237D01*
X76281524Y-119904237D01*
G37*
X76281524Y-119904237D02*
X76331255Y-119907971D01*
X76461291Y-120297773D01*
X76481678Y-120228614D01*
X76493946Y-120185874D01*
X76510085Y-120128115D01*
X76527512Y-120064625D01*
X76536726Y-120030570D01*
X76571388Y-119901683D01*
X76714391Y-119901683D01*
X76671646Y-120036857D01*
X76650596Y-120103342D01*
X76625167Y-120183539D01*
X76598610Y-120267193D01*
X76574902Y-120341782D01*
X76520902Y-120511535D01*
X76462598Y-120515328D01*
X76404295Y-120519122D01*
X76372679Y-120414734D01*
X76353182Y-120349889D01*
X76331904Y-120278400D01*
X76313308Y-120215263D01*
X76312574Y-120212750D01*
X76298684Y-120169969D01*
X76286429Y-120140779D01*
X76277846Y-120129741D01*
X76276082Y-120131018D01*
X76269891Y-120148130D01*
X76258128Y-120184787D01*
X76242225Y-120236378D01*
X76223614Y-120298294D01*
X76213543Y-120332352D01*
X76159007Y-120517822D01*
X76043264Y-120517822D01*
X75950737Y-120225471D01*
X75924744Y-120143462D01*
X75901066Y-120068987D01*
X75880820Y-120005544D01*
X75865126Y-119956632D01*
X75855102Y-119925749D01*
X75852055Y-119916726D01*
X75854467Y-119907487D01*
X75873408Y-119903441D01*
X75912823Y-119903846D01*
X75918993Y-119904152D01*
X75992086Y-119907971D01*
X76039957Y-120084010D01*
X76057553Y-120148211D01*
X76073277Y-120204649D01*
X76085746Y-120248422D01*
X76093574Y-120274630D01*
X76095020Y-120278903D01*
X76101014Y-120273990D01*
X76113101Y-120248532D01*
X76129893Y-120205997D01*
X76150003Y-120149850D01*
X76167003Y-120099130D01*
X76231794Y-119900504D01*
X76281524Y-119904237D01*
G36*
X77038411Y-119905417D02*
X77091411Y-119918290D01*
X77106731Y-119925110D01*
X77136428Y-119942974D01*
X77159220Y-119963093D01*
X77176083Y-119988962D01*
X77187998Y-120024073D01*
X77195942Y-120071920D01*
X77200894Y-120135996D01*
X77203831Y-120219794D01*
X77204947Y-120275768D01*
X77209052Y-120517822D01*
X77138932Y-120517822D01*
X77096393Y-120516038D01*
X77074476Y-120509942D01*
X77068812Y-120499706D01*
X77065821Y-120488637D01*
X77052451Y-120490754D01*
X77034233Y-120499629D01*
X76988624Y-120513233D01*
X76930007Y-120516899D01*
X76868354Y-120510903D01*
X76813638Y-120495521D01*
X76808730Y-120493386D01*
X76758723Y-120458255D01*
X76725756Y-120409419D01*
X76710587Y-120352333D01*
X76711746Y-120331824D01*
X76835508Y-120331824D01*
X76846413Y-120359425D01*
X76878745Y-120379204D01*
X76930910Y-120389819D01*
X76958787Y-120391228D01*
X77005247Y-120387620D01*
X77036129Y-120373597D01*
X77043664Y-120366931D01*
X77064076Y-120330666D01*
X77068812Y-120297773D01*
X77068812Y-120253763D01*
X77007513Y-120253763D01*
X76936256Y-120257395D01*
X76886276Y-120268818D01*
X76854696Y-120288824D01*
X76847626Y-120297743D01*
X76835508Y-120331824D01*
X76711746Y-120331824D01*
X76713971Y-120292456D01*
X76736663Y-120235244D01*
X76767624Y-120196580D01*
X76786376Y-120179864D01*
X76804733Y-120168878D01*
X76828619Y-120162180D01*
X76863957Y-120158326D01*
X76916669Y-120155873D01*
X76937577Y-120155168D01*
X77068812Y-120150879D01*
X77068620Y-120111158D01*
X77063537Y-120069405D01*
X77045162Y-120044158D01*
X77008039Y-120028030D01*
X77007043Y-120027742D01*
X76954410Y-120021400D01*
X76902906Y-120029684D01*
X76864630Y-120049827D01*
X76849272Y-120059773D01*
X76832730Y-120058397D01*
X76807275Y-120043987D01*
X76792328Y-120033817D01*
X76763091Y-120012088D01*
X76744980Y-119995800D01*
X76742074Y-119991137D01*
X76754040Y-119967005D01*
X76789396Y-119938185D01*
X76804753Y-119928461D01*
X76848901Y-119911714D01*
X76908398Y-119902227D01*
X76974487Y-119900095D01*
X77038411Y-119905417D01*
X77038411Y-119905417D01*
G37*
X77038411Y-119905417D02*
X77091411Y-119918290D01*
X77106731Y-119925110D01*
X77136428Y-119942974D01*
X77159220Y-119963093D01*
X77176083Y-119988962D01*
X77187998Y-120024073D01*
X77195942Y-120071920D01*
X77200894Y-120135996D01*
X77203831Y-120219794D01*
X77204947Y-120275768D01*
X77209052Y-120517822D01*
X77138932Y-120517822D01*
X77096393Y-120516038D01*
X77074476Y-120509942D01*
X77068812Y-120499706D01*
X77065821Y-120488637D01*
X77052451Y-120490754D01*
X77034233Y-120499629D01*
X76988624Y-120513233D01*
X76930007Y-120516899D01*
X76868354Y-120510903D01*
X76813638Y-120495521D01*
X76808730Y-120493386D01*
X76758723Y-120458255D01*
X76725756Y-120409419D01*
X76710587Y-120352333D01*
X76711746Y-120331824D01*
X76835508Y-120331824D01*
X76846413Y-120359425D01*
X76878745Y-120379204D01*
X76930910Y-120389819D01*
X76958787Y-120391228D01*
X77005247Y-120387620D01*
X77036129Y-120373597D01*
X77043664Y-120366931D01*
X77064076Y-120330666D01*
X77068812Y-120297773D01*
X77068812Y-120253763D01*
X77007513Y-120253763D01*
X76936256Y-120257395D01*
X76886276Y-120268818D01*
X76854696Y-120288824D01*
X76847626Y-120297743D01*
X76835508Y-120331824D01*
X76711746Y-120331824D01*
X76713971Y-120292456D01*
X76736663Y-120235244D01*
X76767624Y-120196580D01*
X76786376Y-120179864D01*
X76804733Y-120168878D01*
X76828619Y-120162180D01*
X76863957Y-120158326D01*
X76916669Y-120155873D01*
X76937577Y-120155168D01*
X77068812Y-120150879D01*
X77068620Y-120111158D01*
X77063537Y-120069405D01*
X77045162Y-120044158D01*
X77008039Y-120028030D01*
X77007043Y-120027742D01*
X76954410Y-120021400D01*
X76902906Y-120029684D01*
X76864630Y-120049827D01*
X76849272Y-120059773D01*
X76832730Y-120058397D01*
X76807275Y-120043987D01*
X76792328Y-120033817D01*
X76763091Y-120012088D01*
X76744980Y-119995800D01*
X76742074Y-119991137D01*
X76754040Y-119967005D01*
X76789396Y-119938185D01*
X76804753Y-119928461D01*
X76848901Y-119911714D01*
X76908398Y-119902227D01*
X76974487Y-119900095D01*
X77038411Y-119905417D01*
G36*
X77635255Y-119901486D02*
X77683595Y-119911015D01*
X77711114Y-119925125D01*
X77740064Y-119948568D01*
X77698876Y-120000571D01*
X77673482Y-120032064D01*
X77656238Y-120047428D01*
X77639102Y-120049776D01*
X77614027Y-120042217D01*
X77602257Y-120037941D01*
X77554270Y-120031631D01*
X77510324Y-120045156D01*
X77478060Y-120075710D01*
X77472819Y-120085452D01*
X77467112Y-120111258D01*
X77462706Y-120158817D01*
X77459811Y-120224758D01*
X77458631Y-120305710D01*
X77458614Y-120317226D01*
X77458614Y-120517822D01*
X77320297Y-120517822D01*
X77320297Y-119901683D01*
X77389456Y-119901683D01*
X77429333Y-119902725D01*
X77450107Y-119907358D01*
X77457789Y-119917849D01*
X77458614Y-119927745D01*
X77458614Y-119953806D01*
X77491745Y-119927745D01*
X77529735Y-119909965D01*
X77580770Y-119901174D01*
X77635255Y-119901486D01*
X77635255Y-119901486D01*
G37*
X77635255Y-119901486D02*
X77683595Y-119911015D01*
X77711114Y-119925125D01*
X77740064Y-119948568D01*
X77698876Y-120000571D01*
X77673482Y-120032064D01*
X77656238Y-120047428D01*
X77639102Y-120049776D01*
X77614027Y-120042217D01*
X77602257Y-120037941D01*
X77554270Y-120031631D01*
X77510324Y-120045156D01*
X77478060Y-120075710D01*
X77472819Y-120085452D01*
X77467112Y-120111258D01*
X77462706Y-120158817D01*
X77459811Y-120224758D01*
X77458631Y-120305710D01*
X77458614Y-120317226D01*
X77458614Y-120517822D01*
X77320297Y-120517822D01*
X77320297Y-119901683D01*
X77389456Y-119901683D01*
X77429333Y-119902725D01*
X77450107Y-119907358D01*
X77457789Y-119917849D01*
X77458614Y-119927745D01*
X77458614Y-119953806D01*
X77491745Y-119927745D01*
X77529735Y-119909965D01*
X77580770Y-119901174D01*
X77635255Y-119901486D01*
G36*
X78032581Y-119904970D02*
X78092685Y-119920597D01*
X78143021Y-119952848D01*
X78167393Y-119976940D01*
X78207345Y-120033895D01*
X78230242Y-120099965D01*
X78238108Y-120181182D01*
X78238148Y-120187748D01*
X78238218Y-120253763D01*
X77858264Y-120253763D01*
X77866363Y-120288342D01*
X77880987Y-120319659D01*
X77906581Y-120352291D01*
X77911935Y-120357500D01*
X77957943Y-120385694D01*
X78010410Y-120390475D01*
X78070803Y-120371926D01*
X78081040Y-120366931D01*
X78112439Y-120351745D01*
X78133470Y-120343094D01*
X78137139Y-120342293D01*
X78149948Y-120350063D01*
X78174378Y-120369072D01*
X78186779Y-120379460D01*
X78212476Y-120403321D01*
X78220915Y-120419077D01*
X78215058Y-120433571D01*
X78211928Y-120437534D01*
X78190725Y-120454879D01*
X78155738Y-120475959D01*
X78131337Y-120488265D01*
X78062072Y-120509946D01*
X77985388Y-120516971D01*
X77912765Y-120508647D01*
X77892426Y-120502686D01*
X77829476Y-120468952D01*
X77782815Y-120417045D01*
X77752173Y-120346459D01*
X77737282Y-120256692D01*
X77735647Y-120209753D01*
X77740421Y-120141413D01*
X77860990Y-120141413D01*
X77872652Y-120146465D01*
X77903998Y-120150429D01*
X77949571Y-120152768D01*
X77980446Y-120153169D01*
X78035981Y-120152783D01*
X78071033Y-120150975D01*
X78090262Y-120146773D01*
X78098330Y-120139203D01*
X78099901Y-120128218D01*
X78089121Y-120094381D01*
X78061980Y-120060940D01*
X78026277Y-120035272D01*
X77990560Y-120024772D01*
X77942048Y-120034086D01*
X77900053Y-120061013D01*
X77870936Y-120099827D01*
X77860990Y-120141413D01*
X77740421Y-120141413D01*
X77742599Y-120110236D01*
X77764055Y-120030949D01*
X77800470Y-119971263D01*
X77852297Y-119930549D01*
X77919990Y-119908179D01*
X77956662Y-119903871D01*
X78032581Y-119904970D01*
X78032581Y-119904970D01*
G37*
X78032581Y-119904970D02*
X78092685Y-119920597D01*
X78143021Y-119952848D01*
X78167393Y-119976940D01*
X78207345Y-120033895D01*
X78230242Y-120099965D01*
X78238108Y-120181182D01*
X78238148Y-120187748D01*
X78238218Y-120253763D01*
X77858264Y-120253763D01*
X77866363Y-120288342D01*
X77880987Y-120319659D01*
X77906581Y-120352291D01*
X77911935Y-120357500D01*
X77957943Y-120385694D01*
X78010410Y-120390475D01*
X78070803Y-120371926D01*
X78081040Y-120366931D01*
X78112439Y-120351745D01*
X78133470Y-120343094D01*
X78137139Y-120342293D01*
X78149948Y-120350063D01*
X78174378Y-120369072D01*
X78186779Y-120379460D01*
X78212476Y-120403321D01*
X78220915Y-120419077D01*
X78215058Y-120433571D01*
X78211928Y-120437534D01*
X78190725Y-120454879D01*
X78155738Y-120475959D01*
X78131337Y-120488265D01*
X78062072Y-120509946D01*
X77985388Y-120516971D01*
X77912765Y-120508647D01*
X77892426Y-120502686D01*
X77829476Y-120468952D01*
X77782815Y-120417045D01*
X77752173Y-120346459D01*
X77737282Y-120256692D01*
X77735647Y-120209753D01*
X77740421Y-120141413D01*
X77860990Y-120141413D01*
X77872652Y-120146465D01*
X77903998Y-120150429D01*
X77949571Y-120152768D01*
X77980446Y-120153169D01*
X78035981Y-120152783D01*
X78071033Y-120150975D01*
X78090262Y-120146773D01*
X78098330Y-120139203D01*
X78099901Y-120128218D01*
X78089121Y-120094381D01*
X78061980Y-120060940D01*
X78026277Y-120035272D01*
X77990560Y-120024772D01*
X77942048Y-120034086D01*
X77900053Y-120061013D01*
X77870936Y-120099827D01*
X77860990Y-120141413D01*
X77740421Y-120141413D01*
X77742599Y-120110236D01*
X77764055Y-120030949D01*
X77800470Y-119971263D01*
X77852297Y-119930549D01*
X77919990Y-119908179D01*
X77956662Y-119903871D01*
X78032581Y-119904970D01*
G36*
X73461739Y-118965148D02*
X73527521Y-118994231D01*
X73577460Y-119042793D01*
X73611626Y-119110908D01*
X73630093Y-119198651D01*
X73631417Y-119212351D01*
X73632454Y-119308939D01*
X73619007Y-119393602D01*
X73591892Y-119462221D01*
X73577373Y-119484294D01*
X73526799Y-119531011D01*
X73462391Y-119561268D01*
X73390334Y-119573824D01*
X73316815Y-119567439D01*
X73260928Y-119547772D01*
X73212868Y-119514629D01*
X73173588Y-119471175D01*
X73172908Y-119470158D01*
X73156956Y-119443338D01*
X73146590Y-119416368D01*
X73140312Y-119382332D01*
X73136627Y-119334310D01*
X73135003Y-119294931D01*
X73134328Y-119259219D01*
X73260045Y-119259219D01*
X73261274Y-119294770D01*
X73265734Y-119342094D01*
X73273603Y-119372465D01*
X73287793Y-119394072D01*
X73301083Y-119406694D01*
X73348198Y-119433122D01*
X73397495Y-119436653D01*
X73443407Y-119417639D01*
X73466362Y-119396331D01*
X73482904Y-119374859D01*
X73492579Y-119354313D01*
X73496826Y-119327574D01*
X73497080Y-119287523D01*
X73495772Y-119250638D01*
X73492957Y-119197947D01*
X73488495Y-119163772D01*
X73480452Y-119141480D01*
X73466897Y-119124442D01*
X73456155Y-119114703D01*
X73411223Y-119089123D01*
X73362751Y-119087847D01*
X73322106Y-119102999D01*
X73287433Y-119134642D01*
X73266776Y-119186620D01*
X73260045Y-119259219D01*
X73134328Y-119259219D01*
X73133521Y-119216621D01*
X73136052Y-119158056D01*
X73143638Y-119114007D01*
X73157319Y-119079248D01*
X73178135Y-119048551D01*
X73185853Y-119039436D01*
X73234111Y-118994021D01*
X73285872Y-118967493D01*
X73349172Y-118956379D01*
X73380039Y-118955471D01*
X73461739Y-118965148D01*
X73461739Y-118965148D01*
G37*
X73461739Y-118965148D02*
X73527521Y-118994231D01*
X73577460Y-119042793D01*
X73611626Y-119110908D01*
X73630093Y-119198651D01*
X73631417Y-119212351D01*
X73632454Y-119308939D01*
X73619007Y-119393602D01*
X73591892Y-119462221D01*
X73577373Y-119484294D01*
X73526799Y-119531011D01*
X73462391Y-119561268D01*
X73390334Y-119573824D01*
X73316815Y-119567439D01*
X73260928Y-119547772D01*
X73212868Y-119514629D01*
X73173588Y-119471175D01*
X73172908Y-119470158D01*
X73156956Y-119443338D01*
X73146590Y-119416368D01*
X73140312Y-119382332D01*
X73136627Y-119334310D01*
X73135003Y-119294931D01*
X73134328Y-119259219D01*
X73260045Y-119259219D01*
X73261274Y-119294770D01*
X73265734Y-119342094D01*
X73273603Y-119372465D01*
X73287793Y-119394072D01*
X73301083Y-119406694D01*
X73348198Y-119433122D01*
X73397495Y-119436653D01*
X73443407Y-119417639D01*
X73466362Y-119396331D01*
X73482904Y-119374859D01*
X73492579Y-119354313D01*
X73496826Y-119327574D01*
X73497080Y-119287523D01*
X73495772Y-119250638D01*
X73492957Y-119197947D01*
X73488495Y-119163772D01*
X73480452Y-119141480D01*
X73466897Y-119124442D01*
X73456155Y-119114703D01*
X73411223Y-119089123D01*
X73362751Y-119087847D01*
X73322106Y-119102999D01*
X73287433Y-119134642D01*
X73266776Y-119186620D01*
X73260045Y-119259219D01*
X73134328Y-119259219D01*
X73133521Y-119216621D01*
X73136052Y-119158056D01*
X73143638Y-119114007D01*
X73157319Y-119079248D01*
X73178135Y-119048551D01*
X73185853Y-119039436D01*
X73234111Y-118994021D01*
X73285872Y-118967493D01*
X73349172Y-118956379D01*
X73380039Y-118955471D01*
X73461739Y-118965148D01*
G36*
X74643301Y-118972614D02*
X74655832Y-118978514D01*
X74699201Y-119010283D01*
X74740210Y-119056646D01*
X74770832Y-119107696D01*
X74779541Y-119131166D01*
X74787488Y-119173091D01*
X74792226Y-119223757D01*
X74792801Y-119244679D01*
X74792871Y-119310693D01*
X74412917Y-119310693D01*
X74421017Y-119345273D01*
X74440896Y-119386170D01*
X74475653Y-119421514D01*
X74517002Y-119444282D01*
X74543351Y-119449010D01*
X74579084Y-119443273D01*
X74621718Y-119428882D01*
X74636201Y-119422262D01*
X74689760Y-119395513D01*
X74735467Y-119430376D01*
X74761842Y-119453955D01*
X74775876Y-119473417D01*
X74776586Y-119479129D01*
X74764049Y-119492973D01*
X74736572Y-119514012D01*
X74711634Y-119530425D01*
X74644336Y-119559930D01*
X74568890Y-119573284D01*
X74494112Y-119569812D01*
X74434505Y-119551663D01*
X74373059Y-119512784D01*
X74329392Y-119461595D01*
X74302074Y-119395367D01*
X74289678Y-119311371D01*
X74288579Y-119272936D01*
X74292978Y-119184861D01*
X74293518Y-119182299D01*
X74419418Y-119182299D01*
X74422885Y-119190558D01*
X74437137Y-119195113D01*
X74466530Y-119197065D01*
X74515425Y-119197517D01*
X74534252Y-119197525D01*
X74591533Y-119196843D01*
X74627859Y-119194364D01*
X74647396Y-119189443D01*
X74654310Y-119181434D01*
X74654555Y-119178862D01*
X74646664Y-119158423D01*
X74626915Y-119129789D01*
X74618425Y-119119763D01*
X74586906Y-119091408D01*
X74554051Y-119080259D01*
X74536349Y-119079327D01*
X74488461Y-119090981D01*
X74448301Y-119122285D01*
X74422827Y-119167752D01*
X74422375Y-119169233D01*
X74419418Y-119182299D01*
X74293518Y-119182299D01*
X74307608Y-119115510D01*
X74333962Y-119060025D01*
X74366193Y-119020639D01*
X74425783Y-118977931D01*
X74495832Y-118955109D01*
X74570339Y-118953046D01*
X74643301Y-118972614D01*
X74643301Y-118972614D01*
G37*
X74643301Y-118972614D02*
X74655832Y-118978514D01*
X74699201Y-119010283D01*
X74740210Y-119056646D01*
X74770832Y-119107696D01*
X74779541Y-119131166D01*
X74787488Y-119173091D01*
X74792226Y-119223757D01*
X74792801Y-119244679D01*
X74792871Y-119310693D01*
X74412917Y-119310693D01*
X74421017Y-119345273D01*
X74440896Y-119386170D01*
X74475653Y-119421514D01*
X74517002Y-119444282D01*
X74543351Y-119449010D01*
X74579084Y-119443273D01*
X74621718Y-119428882D01*
X74636201Y-119422262D01*
X74689760Y-119395513D01*
X74735467Y-119430376D01*
X74761842Y-119453955D01*
X74775876Y-119473417D01*
X74776586Y-119479129D01*
X74764049Y-119492973D01*
X74736572Y-119514012D01*
X74711634Y-119530425D01*
X74644336Y-119559930D01*
X74568890Y-119573284D01*
X74494112Y-119569812D01*
X74434505Y-119551663D01*
X74373059Y-119512784D01*
X74329392Y-119461595D01*
X74302074Y-119395367D01*
X74289678Y-119311371D01*
X74288579Y-119272936D01*
X74292978Y-119184861D01*
X74293518Y-119182299D01*
X74419418Y-119182299D01*
X74422885Y-119190558D01*
X74437137Y-119195113D01*
X74466530Y-119197065D01*
X74515425Y-119197517D01*
X74534252Y-119197525D01*
X74591533Y-119196843D01*
X74627859Y-119194364D01*
X74647396Y-119189443D01*
X74654310Y-119181434D01*
X74654555Y-119178862D01*
X74646664Y-119158423D01*
X74626915Y-119129789D01*
X74618425Y-119119763D01*
X74586906Y-119091408D01*
X74554051Y-119080259D01*
X74536349Y-119079327D01*
X74488461Y-119090981D01*
X74448301Y-119122285D01*
X74422827Y-119167752D01*
X74422375Y-119169233D01*
X74419418Y-119182299D01*
X74293518Y-119182299D01*
X74307608Y-119115510D01*
X74333962Y-119060025D01*
X74366193Y-119020639D01*
X74425783Y-118977931D01*
X74495832Y-118955109D01*
X74570339Y-118953046D01*
X74643301Y-118972614D01*
G36*
X76014017Y-118956452D02*
X76061634Y-118965482D01*
X76111034Y-118984370D01*
X76116312Y-118986777D01*
X76153774Y-119006476D01*
X76179717Y-119024781D01*
X76188103Y-119036508D01*
X76180117Y-119055632D01*
X76160720Y-119083850D01*
X76152110Y-119094384D01*
X76116628Y-119135847D01*
X76070885Y-119108858D01*
X76027350Y-119090878D01*
X75977050Y-119081267D01*
X75928812Y-119080660D01*
X75891467Y-119089691D01*
X75882505Y-119095327D01*
X75865437Y-119121171D01*
X75863363Y-119150941D01*
X75876134Y-119174197D01*
X75883688Y-119178708D01*
X75906325Y-119184309D01*
X75946115Y-119190892D01*
X75995166Y-119197183D01*
X76004215Y-119198170D01*
X76082996Y-119211798D01*
X76140136Y-119234946D01*
X76178030Y-119269752D01*
X76199079Y-119318354D01*
X76205635Y-119377718D01*
X76196577Y-119445198D01*
X76167164Y-119498188D01*
X76117278Y-119536783D01*
X76046800Y-119561081D01*
X75968565Y-119570667D01*
X75904766Y-119570552D01*
X75853016Y-119561845D01*
X75817673Y-119549825D01*
X75773017Y-119528880D01*
X75731747Y-119504574D01*
X75717079Y-119493876D01*
X75679357Y-119463084D01*
X75724852Y-119417049D01*
X75770347Y-119371013D01*
X75822072Y-119405243D01*
X75873952Y-119430952D01*
X75929351Y-119444399D01*
X75982605Y-119445818D01*
X76028049Y-119435443D01*
X76060016Y-119413507D01*
X76070338Y-119394998D01*
X76068789Y-119365314D01*
X76043140Y-119342615D01*
X75993460Y-119326940D01*
X75939031Y-119319695D01*
X75855264Y-119305873D01*
X75793033Y-119279796D01*
X75751507Y-119240699D01*
X75729853Y-119187820D01*
X75726853Y-119125126D01*
X75741671Y-119059642D01*
X75775454Y-119010144D01*
X75828505Y-118976408D01*
X75901126Y-118958207D01*
X75954928Y-118954639D01*
X76014017Y-118956452D01*
X76014017Y-118956452D01*
G37*
X76014017Y-118956452D02*
X76061634Y-118965482D01*
X76111034Y-118984370D01*
X76116312Y-118986777D01*
X76153774Y-119006476D01*
X76179717Y-119024781D01*
X76188103Y-119036508D01*
X76180117Y-119055632D01*
X76160720Y-119083850D01*
X76152110Y-119094384D01*
X76116628Y-119135847D01*
X76070885Y-119108858D01*
X76027350Y-119090878D01*
X75977050Y-119081267D01*
X75928812Y-119080660D01*
X75891467Y-119089691D01*
X75882505Y-119095327D01*
X75865437Y-119121171D01*
X75863363Y-119150941D01*
X75876134Y-119174197D01*
X75883688Y-119178708D01*
X75906325Y-119184309D01*
X75946115Y-119190892D01*
X75995166Y-119197183D01*
X76004215Y-119198170D01*
X76082996Y-119211798D01*
X76140136Y-119234946D01*
X76178030Y-119269752D01*
X76199079Y-119318354D01*
X76205635Y-119377718D01*
X76196577Y-119445198D01*
X76167164Y-119498188D01*
X76117278Y-119536783D01*
X76046800Y-119561081D01*
X75968565Y-119570667D01*
X75904766Y-119570552D01*
X75853016Y-119561845D01*
X75817673Y-119549825D01*
X75773017Y-119528880D01*
X75731747Y-119504574D01*
X75717079Y-119493876D01*
X75679357Y-119463084D01*
X75724852Y-119417049D01*
X75770347Y-119371013D01*
X75822072Y-119405243D01*
X75873952Y-119430952D01*
X75929351Y-119444399D01*
X75982605Y-119445818D01*
X76028049Y-119435443D01*
X76060016Y-119413507D01*
X76070338Y-119394998D01*
X76068789Y-119365314D01*
X76043140Y-119342615D01*
X75993460Y-119326940D01*
X75939031Y-119319695D01*
X75855264Y-119305873D01*
X75793033Y-119279796D01*
X75751507Y-119240699D01*
X75729853Y-119187820D01*
X75726853Y-119125126D01*
X75741671Y-119059642D01*
X75775454Y-119010144D01*
X75828505Y-118976408D01*
X75901126Y-118958207D01*
X75954928Y-118954639D01*
X76014017Y-118956452D01*
G36*
X76610762Y-118966055D02*
X76674363Y-119000692D01*
X76724123Y-119055372D01*
X76747568Y-119099842D01*
X76757634Y-119139121D01*
X76764156Y-119195116D01*
X76766951Y-119259621D01*
X76765836Y-119324429D01*
X76760626Y-119381334D01*
X76754541Y-119411727D01*
X76734014Y-119453306D01*
X76698463Y-119497468D01*
X76655619Y-119536087D01*
X76613211Y-119561034D01*
X76612177Y-119561430D01*
X76559553Y-119572331D01*
X76497188Y-119572601D01*
X76437924Y-119562676D01*
X76415040Y-119554722D01*
X76356102Y-119521300D01*
X76313890Y-119477511D01*
X76286156Y-119419538D01*
X76270651Y-119343565D01*
X76267143Y-119303771D01*
X76267590Y-119253766D01*
X76402376Y-119253766D01*
X76406917Y-119326732D01*
X76419986Y-119382334D01*
X76440756Y-119417861D01*
X76455552Y-119428020D01*
X76493464Y-119435104D01*
X76538527Y-119433007D01*
X76577487Y-119422812D01*
X76587704Y-119417204D01*
X76614659Y-119384538D01*
X76632451Y-119334545D01*
X76640024Y-119273705D01*
X76636325Y-119208497D01*
X76628057Y-119169253D01*
X76604320Y-119123805D01*
X76566849Y-119095396D01*
X76521720Y-119085573D01*
X76475011Y-119095887D01*
X76439132Y-119121112D01*
X76420277Y-119141925D01*
X76409272Y-119162439D01*
X76404026Y-119190203D01*
X76402449Y-119232762D01*
X76402376Y-119253766D01*
X76267590Y-119253766D01*
X76268094Y-119197580D01*
X76285388Y-119110501D01*
X76319029Y-119042530D01*
X76369018Y-118993664D01*
X76435356Y-118963899D01*
X76449601Y-118960448D01*
X76535210Y-118952345D01*
X76610762Y-118966055D01*
X76610762Y-118966055D01*
G37*
X76610762Y-118966055D02*
X76674363Y-119000692D01*
X76724123Y-119055372D01*
X76747568Y-119099842D01*
X76757634Y-119139121D01*
X76764156Y-119195116D01*
X76766951Y-119259621D01*
X76765836Y-119324429D01*
X76760626Y-119381334D01*
X76754541Y-119411727D01*
X76734014Y-119453306D01*
X76698463Y-119497468D01*
X76655619Y-119536087D01*
X76613211Y-119561034D01*
X76612177Y-119561430D01*
X76559553Y-119572331D01*
X76497188Y-119572601D01*
X76437924Y-119562676D01*
X76415040Y-119554722D01*
X76356102Y-119521300D01*
X76313890Y-119477511D01*
X76286156Y-119419538D01*
X76270651Y-119343565D01*
X76267143Y-119303771D01*
X76267590Y-119253766D01*
X76402376Y-119253766D01*
X76406917Y-119326732D01*
X76419986Y-119382334D01*
X76440756Y-119417861D01*
X76455552Y-119428020D01*
X76493464Y-119435104D01*
X76538527Y-119433007D01*
X76577487Y-119422812D01*
X76587704Y-119417204D01*
X76614659Y-119384538D01*
X76632451Y-119334545D01*
X76640024Y-119273705D01*
X76636325Y-119208497D01*
X76628057Y-119169253D01*
X76604320Y-119123805D01*
X76566849Y-119095396D01*
X76521720Y-119085573D01*
X76475011Y-119095887D01*
X76439132Y-119121112D01*
X76420277Y-119141925D01*
X76409272Y-119162439D01*
X76404026Y-119190203D01*
X76402449Y-119232762D01*
X76402376Y-119253766D01*
X76267590Y-119253766D01*
X76268094Y-119197580D01*
X76285388Y-119110501D01*
X76319029Y-119042530D01*
X76369018Y-118993664D01*
X76435356Y-118963899D01*
X76449601Y-118960448D01*
X76535210Y-118952345D01*
X76610762Y-118966055D01*
G36*
X76993367Y-119154342D02*
X76994555Y-119246563D01*
X76998897Y-119316610D01*
X77007558Y-119367381D01*
X77021704Y-119401772D01*
X77042500Y-119422679D01*
X77071110Y-119433000D01*
X77106535Y-119435636D01*
X77143636Y-119432682D01*
X77171818Y-119421889D01*
X77192243Y-119400360D01*
X77206079Y-119365199D01*
X77214491Y-119313510D01*
X77218643Y-119242394D01*
X77219703Y-119154342D01*
X77219703Y-118958614D01*
X77358020Y-118958614D01*
X77358020Y-119562179D01*
X77288862Y-119562179D01*
X77247170Y-119560489D01*
X77225701Y-119554556D01*
X77219703Y-119543293D01*
X77216091Y-119533261D01*
X77201714Y-119535383D01*
X77172736Y-119549580D01*
X77106319Y-119571480D01*
X77035875Y-119569928D01*
X76968377Y-119546147D01*
X76936233Y-119527362D01*
X76911715Y-119507022D01*
X76893804Y-119481573D01*
X76881479Y-119447458D01*
X76873723Y-119401121D01*
X76869516Y-119339007D01*
X76867840Y-119257561D01*
X76867624Y-119194578D01*
X76867624Y-118958614D01*
X76993367Y-118958614D01*
X76993367Y-119154342D01*
X76993367Y-119154342D01*
G37*
X76993367Y-119154342D02*
X76994555Y-119246563D01*
X76998897Y-119316610D01*
X77007558Y-119367381D01*
X77021704Y-119401772D01*
X77042500Y-119422679D01*
X77071110Y-119433000D01*
X77106535Y-119435636D01*
X77143636Y-119432682D01*
X77171818Y-119421889D01*
X77192243Y-119400360D01*
X77206079Y-119365199D01*
X77214491Y-119313510D01*
X77218643Y-119242394D01*
X77219703Y-119154342D01*
X77219703Y-118958614D01*
X77358020Y-118958614D01*
X77358020Y-119562179D01*
X77288862Y-119562179D01*
X77247170Y-119560489D01*
X77225701Y-119554556D01*
X77219703Y-119543293D01*
X77216091Y-119533261D01*
X77201714Y-119535383D01*
X77172736Y-119549580D01*
X77106319Y-119571480D01*
X77035875Y-119569928D01*
X76968377Y-119546147D01*
X76936233Y-119527362D01*
X76911715Y-119507022D01*
X76893804Y-119481573D01*
X76881479Y-119447458D01*
X76873723Y-119401121D01*
X76869516Y-119339007D01*
X76867840Y-119257561D01*
X76867624Y-119194578D01*
X76867624Y-118958614D01*
X76993367Y-118958614D01*
X76993367Y-119154342D01*
G36*
X78217226Y-118963880D02*
X78290080Y-118994830D01*
X78313027Y-119009895D01*
X78342354Y-119033048D01*
X78360764Y-119051253D01*
X78363961Y-119057183D01*
X78354935Y-119070340D01*
X78331837Y-119092667D01*
X78313344Y-119108250D01*
X78262728Y-119148926D01*
X78222760Y-119115295D01*
X78191874Y-119093584D01*
X78161759Y-119086090D01*
X78127292Y-119087920D01*
X78072561Y-119101528D01*
X78034886Y-119129772D01*
X78011991Y-119175433D01*
X78001597Y-119241289D01*
X78001595Y-119241331D01*
X78002494Y-119314939D01*
X78016463Y-119368946D01*
X78044328Y-119405716D01*
X78063325Y-119418168D01*
X78113776Y-119433673D01*
X78167663Y-119433683D01*
X78214546Y-119418638D01*
X78225644Y-119411287D01*
X78253476Y-119392511D01*
X78275236Y-119389434D01*
X78298704Y-119403409D01*
X78324649Y-119428510D01*
X78365716Y-119470880D01*
X78320121Y-119508464D01*
X78249674Y-119550882D01*
X78170233Y-119571785D01*
X78087215Y-119570272D01*
X78032694Y-119556411D01*
X77968970Y-119522135D01*
X77918005Y-119468212D01*
X77894851Y-119430149D01*
X77876099Y-119375536D01*
X77866715Y-119306369D01*
X77866643Y-119231407D01*
X77875824Y-119159409D01*
X77894199Y-119099137D01*
X77897093Y-119092958D01*
X77939952Y-119032351D01*
X77997979Y-118988224D01*
X78066591Y-118961493D01*
X78141201Y-118953073D01*
X78217226Y-118963880D01*
X78217226Y-118963880D01*
G37*
X78217226Y-118963880D02*
X78290080Y-118994830D01*
X78313027Y-119009895D01*
X78342354Y-119033048D01*
X78360764Y-119051253D01*
X78363961Y-119057183D01*
X78354935Y-119070340D01*
X78331837Y-119092667D01*
X78313344Y-119108250D01*
X78262728Y-119148926D01*
X78222760Y-119115295D01*
X78191874Y-119093584D01*
X78161759Y-119086090D01*
X78127292Y-119087920D01*
X78072561Y-119101528D01*
X78034886Y-119129772D01*
X78011991Y-119175433D01*
X78001597Y-119241289D01*
X78001595Y-119241331D01*
X78002494Y-119314939D01*
X78016463Y-119368946D01*
X78044328Y-119405716D01*
X78063325Y-119418168D01*
X78113776Y-119433673D01*
X78167663Y-119433683D01*
X78214546Y-119418638D01*
X78225644Y-119411287D01*
X78253476Y-119392511D01*
X78275236Y-119389434D01*
X78298704Y-119403409D01*
X78324649Y-119428510D01*
X78365716Y-119470880D01*
X78320121Y-119508464D01*
X78249674Y-119550882D01*
X78170233Y-119571785D01*
X78087215Y-119570272D01*
X78032694Y-119556411D01*
X77968970Y-119522135D01*
X77918005Y-119468212D01*
X77894851Y-119430149D01*
X77876099Y-119375536D01*
X77866715Y-119306369D01*
X77866643Y-119231407D01*
X77875824Y-119159409D01*
X77894199Y-119099137D01*
X77897093Y-119092958D01*
X77939952Y-119032351D01*
X77997979Y-118988224D01*
X78066591Y-118961493D01*
X78141201Y-118953073D01*
X78217226Y-118963880D01*
G36*
X78677898Y-118956457D02*
X78710096Y-118964279D01*
X78771825Y-118992921D01*
X78824610Y-119036667D01*
X78861141Y-119089117D01*
X78866160Y-119100893D01*
X78873045Y-119131740D01*
X78877864Y-119177371D01*
X78879505Y-119223492D01*
X78879505Y-119310693D01*
X78697178Y-119310693D01*
X78621979Y-119310978D01*
X78569003Y-119312704D01*
X78535325Y-119317181D01*
X78518020Y-119325720D01*
X78514163Y-119339630D01*
X78520829Y-119360222D01*
X78532770Y-119384315D01*
X78566080Y-119424525D01*
X78612368Y-119444558D01*
X78668944Y-119443905D01*
X78733031Y-119422101D01*
X78788417Y-119395193D01*
X78834375Y-119431532D01*
X78880333Y-119467872D01*
X78837096Y-119507819D01*
X78779374Y-119545563D01*
X78708386Y-119568320D01*
X78632029Y-119574688D01*
X78558199Y-119563268D01*
X78546287Y-119559393D01*
X78481399Y-119525506D01*
X78433130Y-119474986D01*
X78400465Y-119406325D01*
X78382385Y-119318014D01*
X78382175Y-119316121D01*
X78380556Y-119219878D01*
X78387100Y-119185542D01*
X78514852Y-119185542D01*
X78526584Y-119190822D01*
X78558438Y-119194867D01*
X78605397Y-119197176D01*
X78635154Y-119197525D01*
X78690648Y-119197306D01*
X78725346Y-119195916D01*
X78743601Y-119192251D01*
X78749766Y-119185210D01*
X78748195Y-119173690D01*
X78746878Y-119169233D01*
X78724382Y-119127355D01*
X78689003Y-119093604D01*
X78657780Y-119078773D01*
X78616301Y-119079668D01*
X78574269Y-119098164D01*
X78539012Y-119128786D01*
X78517854Y-119166062D01*
X78514852Y-119185542D01*
X78387100Y-119185542D01*
X78396690Y-119135229D01*
X78428698Y-119064191D01*
X78474701Y-119008779D01*
X78532821Y-118971009D01*
X78601180Y-118952896D01*
X78677898Y-118956457D01*
X78677898Y-118956457D01*
G37*
X78677898Y-118956457D02*
X78710096Y-118964279D01*
X78771825Y-118992921D01*
X78824610Y-119036667D01*
X78861141Y-119089117D01*
X78866160Y-119100893D01*
X78873045Y-119131740D01*
X78877864Y-119177371D01*
X78879505Y-119223492D01*
X78879505Y-119310693D01*
X78697178Y-119310693D01*
X78621979Y-119310978D01*
X78569003Y-119312704D01*
X78535325Y-119317181D01*
X78518020Y-119325720D01*
X78514163Y-119339630D01*
X78520829Y-119360222D01*
X78532770Y-119384315D01*
X78566080Y-119424525D01*
X78612368Y-119444558D01*
X78668944Y-119443905D01*
X78733031Y-119422101D01*
X78788417Y-119395193D01*
X78834375Y-119431532D01*
X78880333Y-119467872D01*
X78837096Y-119507819D01*
X78779374Y-119545563D01*
X78708386Y-119568320D01*
X78632029Y-119574688D01*
X78558199Y-119563268D01*
X78546287Y-119559393D01*
X78481399Y-119525506D01*
X78433130Y-119474986D01*
X78400465Y-119406325D01*
X78382385Y-119318014D01*
X78382175Y-119316121D01*
X78380556Y-119219878D01*
X78387100Y-119185542D01*
X78514852Y-119185542D01*
X78526584Y-119190822D01*
X78558438Y-119194867D01*
X78605397Y-119197176D01*
X78635154Y-119197525D01*
X78690648Y-119197306D01*
X78725346Y-119195916D01*
X78743601Y-119192251D01*
X78749766Y-119185210D01*
X78748195Y-119173690D01*
X78746878Y-119169233D01*
X78724382Y-119127355D01*
X78689003Y-119093604D01*
X78657780Y-119078773D01*
X78616301Y-119079668D01*
X78574269Y-119098164D01*
X78539012Y-119128786D01*
X78517854Y-119166062D01*
X78514852Y-119185542D01*
X78387100Y-119185542D01*
X78396690Y-119135229D01*
X78428698Y-119064191D01*
X78474701Y-119008779D01*
X78532821Y-118971009D01*
X78601180Y-118952896D01*
X78677898Y-118956457D01*
G36*
X75245988Y-118969002D02*
X75277283Y-118983950D01*
X75307591Y-119005541D01*
X75330682Y-119030391D01*
X75347500Y-119062087D01*
X75358994Y-119104214D01*
X75366109Y-119160358D01*
X75369793Y-119234106D01*
X75370992Y-119329044D01*
X75371011Y-119338985D01*
X75371287Y-119562179D01*
X75232970Y-119562179D01*
X75232970Y-119356418D01*
X75232872Y-119280189D01*
X75232191Y-119224939D01*
X75230349Y-119186501D01*
X75226767Y-119160706D01*
X75220868Y-119143384D01*
X75212073Y-119130368D01*
X75199820Y-119117507D01*
X75156953Y-119089873D01*
X75110157Y-119084745D01*
X75065576Y-119102217D01*
X75050072Y-119115221D01*
X75038690Y-119127447D01*
X75030519Y-119140540D01*
X75025026Y-119158615D01*
X75021680Y-119185787D01*
X75019949Y-119226170D01*
X75019303Y-119283879D01*
X75019208Y-119354132D01*
X75019208Y-119562179D01*
X74880891Y-119562179D01*
X74880891Y-118958614D01*
X74950050Y-118958614D01*
X74991572Y-118960256D01*
X75012994Y-118966087D01*
X75019205Y-118977461D01*
X75019208Y-118977798D01*
X75022090Y-118988938D01*
X75034801Y-118987674D01*
X75060074Y-118975434D01*
X75117395Y-118957424D01*
X75182963Y-118955421D01*
X75245988Y-118969002D01*
X75245988Y-118969002D01*
G37*
X75245988Y-118969002D02*
X75277283Y-118983950D01*
X75307591Y-119005541D01*
X75330682Y-119030391D01*
X75347500Y-119062087D01*
X75358994Y-119104214D01*
X75366109Y-119160358D01*
X75369793Y-119234106D01*
X75370992Y-119329044D01*
X75371011Y-119338985D01*
X75371287Y-119562179D01*
X75232970Y-119562179D01*
X75232970Y-119356418D01*
X75232872Y-119280189D01*
X75232191Y-119224939D01*
X75230349Y-119186501D01*
X75226767Y-119160706D01*
X75220868Y-119143384D01*
X75212073Y-119130368D01*
X75199820Y-119117507D01*
X75156953Y-119089873D01*
X75110157Y-119084745D01*
X75065576Y-119102217D01*
X75050072Y-119115221D01*
X75038690Y-119127447D01*
X75030519Y-119140540D01*
X75025026Y-119158615D01*
X75021680Y-119185787D01*
X75019949Y-119226170D01*
X75019303Y-119283879D01*
X75019208Y-119354132D01*
X75019208Y-119562179D01*
X74880891Y-119562179D01*
X74880891Y-118958614D01*
X74950050Y-118958614D01*
X74991572Y-118960256D01*
X75012994Y-118966087D01*
X75019205Y-118977461D01*
X75019208Y-118977798D01*
X75022090Y-118988938D01*
X75034801Y-118987674D01*
X75060074Y-118975434D01*
X75117395Y-118957424D01*
X75182963Y-118955421D01*
X75245988Y-118969002D01*
G36*
X77799460Y-118958030D02*
X77842711Y-118971245D01*
X77870558Y-118987941D01*
X77879629Y-119001145D01*
X77877132Y-119016797D01*
X77860931Y-119041385D01*
X77847232Y-119058800D01*
X77818992Y-119090283D01*
X77797775Y-119103529D01*
X77779688Y-119102664D01*
X77726035Y-119089010D01*
X77686630Y-119089630D01*
X77654632Y-119105104D01*
X77643890Y-119114161D01*
X77609505Y-119146027D01*
X77609505Y-119562179D01*
X77471188Y-119562179D01*
X77471188Y-118958614D01*
X77540347Y-118958614D01*
X77581869Y-118960256D01*
X77603291Y-118966087D01*
X77609502Y-118977461D01*
X77609505Y-118977798D01*
X77612439Y-118989713D01*
X77625704Y-118988159D01*
X77644084Y-118979563D01*
X77682046Y-118963568D01*
X77712872Y-118953945D01*
X77752536Y-118951478D01*
X77799460Y-118958030D01*
X77799460Y-118958030D01*
G37*
X77799460Y-118958030D02*
X77842711Y-118971245D01*
X77870558Y-118987941D01*
X77879629Y-119001145D01*
X77877132Y-119016797D01*
X77860931Y-119041385D01*
X77847232Y-119058800D01*
X77818992Y-119090283D01*
X77797775Y-119103529D01*
X77779688Y-119102664D01*
X77726035Y-119089010D01*
X77686630Y-119089630D01*
X77654632Y-119105104D01*
X77643890Y-119114161D01*
X77609505Y-119146027D01*
X77609505Y-119562179D01*
X77471188Y-119562179D01*
X77471188Y-118958614D01*
X77540347Y-118958614D01*
X77581869Y-118960256D01*
X77603291Y-118966087D01*
X77609502Y-118977461D01*
X77609505Y-118977798D01*
X77612439Y-118989713D01*
X77625704Y-118988159D01*
X77644084Y-118979563D01*
X77682046Y-118963568D01*
X77712872Y-118953945D01*
X77752536Y-118951478D01*
X77799460Y-118958030D01*
G36*
X76376964Y-114790018D02*
X76433812Y-115091570D01*
X76853338Y-115264512D01*
X77104984Y-115093395D01*
X77175458Y-115045750D01*
X77239163Y-115003210D01*
X77293126Y-114967715D01*
X77334373Y-114941210D01*
X77359934Y-114925636D01*
X77366895Y-114922278D01*
X77379435Y-114930914D01*
X77406231Y-114954792D01*
X77444280Y-114990859D01*
X77490579Y-115036067D01*
X77542123Y-115087364D01*
X77595909Y-115141701D01*
X77648935Y-115196028D01*
X77698195Y-115247295D01*
X77740687Y-115292451D01*
X77773407Y-115328446D01*
X77793351Y-115352230D01*
X77798119Y-115360190D01*
X77791257Y-115374865D01*
X77772020Y-115407014D01*
X77742430Y-115453492D01*
X77704510Y-115511156D01*
X77660282Y-115576860D01*
X77634654Y-115614336D01*
X77587941Y-115682768D01*
X77546432Y-115744520D01*
X77512140Y-115796519D01*
X77487080Y-115835692D01*
X77473264Y-115858965D01*
X77471188Y-115863855D01*
X77475895Y-115877755D01*
X77488723Y-115910150D01*
X77507738Y-115956485D01*
X77531003Y-116012206D01*
X77556584Y-116072758D01*
X77582545Y-116133586D01*
X77606950Y-116190136D01*
X77627863Y-116237852D01*
X77643349Y-116272181D01*
X77651472Y-116288568D01*
X77651952Y-116289212D01*
X77664707Y-116292341D01*
X77698677Y-116299321D01*
X77750340Y-116309467D01*
X77816176Y-116322092D01*
X77892664Y-116336509D01*
X77937290Y-116344823D01*
X78019021Y-116360384D01*
X78092843Y-116375192D01*
X78155021Y-116388436D01*
X78201822Y-116399305D01*
X78229509Y-116406989D01*
X78235074Y-116409427D01*
X78240526Y-116425930D01*
X78244924Y-116463200D01*
X78248272Y-116516880D01*
X78250574Y-116582612D01*
X78251832Y-116656037D01*
X78252048Y-116732796D01*
X78251227Y-116808532D01*
X78249371Y-116878886D01*
X78246482Y-116939500D01*
X78242565Y-116986016D01*
X78237622Y-117014075D01*
X78234657Y-117019916D01*
X78216934Y-117026917D01*
X78179381Y-117036927D01*
X78126964Y-117048769D01*
X78064652Y-117061267D01*
X78042900Y-117065310D01*
X77938024Y-117084520D01*
X77855180Y-117099991D01*
X77791630Y-117112337D01*
X77744637Y-117122173D01*
X77711463Y-117130114D01*
X77689371Y-117136776D01*
X77675624Y-117142773D01*
X77667484Y-117148719D01*
X77666345Y-117149894D01*
X77654977Y-117168826D01*
X77637635Y-117205669D01*
X77616050Y-117255913D01*
X77591954Y-117315046D01*
X77567079Y-117378556D01*
X77543157Y-117441932D01*
X77521919Y-117500662D01*
X77505097Y-117550235D01*
X77494422Y-117586139D01*
X77491627Y-117603862D01*
X77491860Y-117604483D01*
X77501331Y-117618970D01*
X77522818Y-117650844D01*
X77554063Y-117696789D01*
X77592807Y-117753485D01*
X77636793Y-117817617D01*
X77649319Y-117835842D01*
X77693984Y-117901914D01*
X77733288Y-117962200D01*
X77765088Y-118013235D01*
X77787245Y-118051560D01*
X77797617Y-118073711D01*
X77798119Y-118076432D01*
X77789405Y-118090736D01*
X77765325Y-118119072D01*
X77728976Y-118158396D01*
X77683453Y-118205661D01*
X77631852Y-118257823D01*
X77577267Y-118311835D01*
X77522794Y-118364653D01*
X77471529Y-118413231D01*
X77426567Y-118454523D01*
X77391004Y-118485485D01*
X77367935Y-118503070D01*
X77361554Y-118505941D01*
X77346699Y-118499178D01*
X77316286Y-118480939D01*
X77275268Y-118454297D01*
X77243709Y-118432852D01*
X77186525Y-118393503D01*
X77118806Y-118347171D01*
X77050880Y-118300913D01*
X77014361Y-118276155D01*
X76890752Y-118192547D01*
X76786991Y-118248650D01*
X76739720Y-118273228D01*
X76699523Y-118292331D01*
X76672326Y-118303227D01*
X76665402Y-118304743D01*
X76657077Y-118293549D01*
X76640654Y-118261917D01*
X76617357Y-118212765D01*
X76588414Y-118149010D01*
X76555050Y-118073571D01*
X76518491Y-117989364D01*
X76479964Y-117899308D01*
X76440694Y-117806321D01*
X76401908Y-117713320D01*
X76364830Y-117623223D01*
X76330689Y-117538948D01*
X76300708Y-117463413D01*
X76276116Y-117399534D01*
X76258136Y-117350231D01*
X76247997Y-117318421D01*
X76246366Y-117307496D01*
X76259291Y-117293561D01*
X76287589Y-117270940D01*
X76325346Y-117244333D01*
X76328515Y-117242228D01*
X76426100Y-117164114D01*
X76504786Y-117072982D01*
X76563891Y-116971745D01*
X76602732Y-116863318D01*
X76620628Y-116750614D01*
X76616897Y-116636548D01*
X76590857Y-116524034D01*
X76541825Y-116415985D01*
X76527400Y-116392345D01*
X76452369Y-116296887D01*
X76363730Y-116220232D01*
X76264549Y-116162780D01*
X76157895Y-116124929D01*
X76046836Y-116107078D01*
X75934439Y-116109625D01*
X75823773Y-116132970D01*
X75717906Y-116177510D01*
X75619905Y-116243645D01*
X75589590Y-116270487D01*
X75512438Y-116354512D01*
X75456218Y-116442966D01*
X75417653Y-116542115D01*
X75396174Y-116640303D01*
X75390872Y-116750697D01*
X75408552Y-116861640D01*
X75447419Y-116969381D01*
X75505677Y-117070169D01*
X75581531Y-117160256D01*
X75673183Y-117235892D01*
X75685228Y-117243864D01*
X75723389Y-117269974D01*
X75752399Y-117292595D01*
X75766268Y-117307039D01*
X75766469Y-117307496D01*
X75763492Y-117323121D01*
X75751689Y-117358582D01*
X75732286Y-117410962D01*
X75706512Y-117477345D01*
X75675591Y-117554814D01*
X75640751Y-117640450D01*
X75603217Y-117731337D01*
X75564217Y-117824559D01*
X75524977Y-117917197D01*
X75486724Y-118006335D01*
X75450683Y-118089055D01*
X75418083Y-118162441D01*
X75390148Y-118223575D01*
X75368105Y-118269541D01*
X75353182Y-118297421D01*
X75347172Y-118304743D01*
X75328809Y-118299041D01*
X75294448Y-118283749D01*
X75250016Y-118261599D01*
X75225583Y-118248650D01*
X75121822Y-118192547D01*
X74998213Y-118276155D01*
X74935114Y-118318987D01*
X74866030Y-118366122D01*
X74801293Y-118410503D01*
X74768866Y-118432852D01*
X74723259Y-118463477D01*
X74684640Y-118487747D01*
X74658048Y-118502587D01*
X74649410Y-118505724D01*
X74636839Y-118497261D01*
X74609016Y-118473636D01*
X74568639Y-118437302D01*
X74518405Y-118390711D01*
X74461012Y-118336317D01*
X74424714Y-118301392D01*
X74361210Y-118238996D01*
X74306327Y-118183188D01*
X74262286Y-118136354D01*
X74231305Y-118100882D01*
X74215602Y-118079161D01*
X74214095Y-118074752D01*
X74221086Y-118057985D01*
X74240406Y-118024082D01*
X74269909Y-117976476D01*
X74307455Y-117918599D01*
X74350900Y-117853884D01*
X74363255Y-117835842D01*
X74408273Y-117770267D01*
X74448660Y-117711228D01*
X74482160Y-117662042D01*
X74506514Y-117626028D01*
X74519464Y-117606502D01*
X74520715Y-117604483D01*
X74518844Y-117588922D01*
X74508913Y-117554709D01*
X74492653Y-117506355D01*
X74471795Y-117448371D01*
X74448073Y-117385270D01*
X74423216Y-117321563D01*
X74398958Y-117261761D01*
X74377029Y-117210376D01*
X74359162Y-117171919D01*
X74347087Y-117150902D01*
X74346229Y-117149894D01*
X74338846Y-117143888D01*
X74326375Y-117137948D01*
X74306080Y-117131460D01*
X74275222Y-117123809D01*
X74231066Y-117114380D01*
X74170874Y-117102559D01*
X74091907Y-117087729D01*
X73991430Y-117069277D01*
X73969675Y-117065310D01*
X73905198Y-117052853D01*
X73848989Y-117040666D01*
X73806013Y-117029926D01*
X73781240Y-117021809D01*
X73777918Y-117019916D01*
X73772444Y-117003138D01*
X73767994Y-116965645D01*
X73764572Y-116911794D01*
X73762181Y-116845944D01*
X73760823Y-116772453D01*
X73760501Y-116695680D01*
X73761219Y-116619983D01*
X73762979Y-116549720D01*
X73765784Y-116489250D01*
X73769638Y-116442930D01*
X73774543Y-116415119D01*
X73777500Y-116409427D01*
X73793963Y-116403686D01*
X73831449Y-116394345D01*
X73886225Y-116382215D01*
X73954555Y-116368107D01*
X74032706Y-116352830D01*
X74075284Y-116344823D01*
X74156071Y-116329721D01*
X74228113Y-116316040D01*
X74287889Y-116304467D01*
X74331879Y-116295687D01*
X74356561Y-116290387D01*
X74360623Y-116289212D01*
X74367489Y-116275965D01*
X74382002Y-116244057D01*
X74402229Y-116198047D01*
X74426234Y-116142492D01*
X74452082Y-116081953D01*
X74477840Y-116020986D01*
X74501573Y-115964151D01*
X74521346Y-115916006D01*
X74535224Y-115881110D01*
X74541274Y-115864021D01*
X74541386Y-115863274D01*
X74534528Y-115849793D01*
X74515302Y-115818770D01*
X74485728Y-115773289D01*
X74447827Y-115716432D01*
X74403620Y-115651283D01*
X74377921Y-115613862D01*
X74331093Y-115545247D01*
X74289501Y-115482952D01*
X74255175Y-115430129D01*
X74230143Y-115389927D01*
X74216435Y-115365500D01*
X74214456Y-115360024D01*
X74222966Y-115347278D01*
X74246493Y-115320063D01*
X74282032Y-115281428D01*
X74326577Y-115234423D01*
X74377123Y-115182095D01*
X74430664Y-115127495D01*
X74484195Y-115073670D01*
X74534711Y-115023670D01*
X74579206Y-114980543D01*
X74614675Y-114947339D01*
X74638113Y-114927106D01*
X74645954Y-114922278D01*
X74658720Y-114929067D01*
X74689256Y-114948142D01*
X74734590Y-114977561D01*
X74791756Y-115015381D01*
X74857784Y-115059661D01*
X74907590Y-115093395D01*
X75159236Y-115264512D01*
X75368999Y-115178041D01*
X75578763Y-115091570D01*
X75635611Y-114790018D01*
X75692460Y-114488466D01*
X76320115Y-114488466D01*
X76376964Y-114790018D01*
X76376964Y-114790018D01*
G37*
X76376964Y-114790018D02*
X76433812Y-115091570D01*
X76853338Y-115264512D01*
X77104984Y-115093395D01*
X77175458Y-115045750D01*
X77239163Y-115003210D01*
X77293126Y-114967715D01*
X77334373Y-114941210D01*
X77359934Y-114925636D01*
X77366895Y-114922278D01*
X77379435Y-114930914D01*
X77406231Y-114954792D01*
X77444280Y-114990859D01*
X77490579Y-115036067D01*
X77542123Y-115087364D01*
X77595909Y-115141701D01*
X77648935Y-115196028D01*
X77698195Y-115247295D01*
X77740687Y-115292451D01*
X77773407Y-115328446D01*
X77793351Y-115352230D01*
X77798119Y-115360190D01*
X77791257Y-115374865D01*
X77772020Y-115407014D01*
X77742430Y-115453492D01*
X77704510Y-115511156D01*
X77660282Y-115576860D01*
X77634654Y-115614336D01*
X77587941Y-115682768D01*
X77546432Y-115744520D01*
X77512140Y-115796519D01*
X77487080Y-115835692D01*
X77473264Y-115858965D01*
X77471188Y-115863855D01*
X77475895Y-115877755D01*
X77488723Y-115910150D01*
X77507738Y-115956485D01*
X77531003Y-116012206D01*
X77556584Y-116072758D01*
X77582545Y-116133586D01*
X77606950Y-116190136D01*
X77627863Y-116237852D01*
X77643349Y-116272181D01*
X77651472Y-116288568D01*
X77651952Y-116289212D01*
X77664707Y-116292341D01*
X77698677Y-116299321D01*
X77750340Y-116309467D01*
X77816176Y-116322092D01*
X77892664Y-116336509D01*
X77937290Y-116344823D01*
X78019021Y-116360384D01*
X78092843Y-116375192D01*
X78155021Y-116388436D01*
X78201822Y-116399305D01*
X78229509Y-116406989D01*
X78235074Y-116409427D01*
X78240526Y-116425930D01*
X78244924Y-116463200D01*
X78248272Y-116516880D01*
X78250574Y-116582612D01*
X78251832Y-116656037D01*
X78252048Y-116732796D01*
X78251227Y-116808532D01*
X78249371Y-116878886D01*
X78246482Y-116939500D01*
X78242565Y-116986016D01*
X78237622Y-117014075D01*
X78234657Y-117019916D01*
X78216934Y-117026917D01*
X78179381Y-117036927D01*
X78126964Y-117048769D01*
X78064652Y-117061267D01*
X78042900Y-117065310D01*
X77938024Y-117084520D01*
X77855180Y-117099991D01*
X77791630Y-117112337D01*
X77744637Y-117122173D01*
X77711463Y-117130114D01*
X77689371Y-117136776D01*
X77675624Y-117142773D01*
X77667484Y-117148719D01*
X77666345Y-117149894D01*
X77654977Y-117168826D01*
X77637635Y-117205669D01*
X77616050Y-117255913D01*
X77591954Y-117315046D01*
X77567079Y-117378556D01*
X77543157Y-117441932D01*
X77521919Y-117500662D01*
X77505097Y-117550235D01*
X77494422Y-117586139D01*
X77491627Y-117603862D01*
X77491860Y-117604483D01*
X77501331Y-117618970D01*
X77522818Y-117650844D01*
X77554063Y-117696789D01*
X77592807Y-117753485D01*
X77636793Y-117817617D01*
X77649319Y-117835842D01*
X77693984Y-117901914D01*
X77733288Y-117962200D01*
X77765088Y-118013235D01*
X77787245Y-118051560D01*
X77797617Y-118073711D01*
X77798119Y-118076432D01*
X77789405Y-118090736D01*
X77765325Y-118119072D01*
X77728976Y-118158396D01*
X77683453Y-118205661D01*
X77631852Y-118257823D01*
X77577267Y-118311835D01*
X77522794Y-118364653D01*
X77471529Y-118413231D01*
X77426567Y-118454523D01*
X77391004Y-118485485D01*
X77367935Y-118503070D01*
X77361554Y-118505941D01*
X77346699Y-118499178D01*
X77316286Y-118480939D01*
X77275268Y-118454297D01*
X77243709Y-118432852D01*
X77186525Y-118393503D01*
X77118806Y-118347171D01*
X77050880Y-118300913D01*
X77014361Y-118276155D01*
X76890752Y-118192547D01*
X76786991Y-118248650D01*
X76739720Y-118273228D01*
X76699523Y-118292331D01*
X76672326Y-118303227D01*
X76665402Y-118304743D01*
X76657077Y-118293549D01*
X76640654Y-118261917D01*
X76617357Y-118212765D01*
X76588414Y-118149010D01*
X76555050Y-118073571D01*
X76518491Y-117989364D01*
X76479964Y-117899308D01*
X76440694Y-117806321D01*
X76401908Y-117713320D01*
X76364830Y-117623223D01*
X76330689Y-117538948D01*
X76300708Y-117463413D01*
X76276116Y-117399534D01*
X76258136Y-117350231D01*
X76247997Y-117318421D01*
X76246366Y-117307496D01*
X76259291Y-117293561D01*
X76287589Y-117270940D01*
X76325346Y-117244333D01*
X76328515Y-117242228D01*
X76426100Y-117164114D01*
X76504786Y-117072982D01*
X76563891Y-116971745D01*
X76602732Y-116863318D01*
X76620628Y-116750614D01*
X76616897Y-116636548D01*
X76590857Y-116524034D01*
X76541825Y-116415985D01*
X76527400Y-116392345D01*
X76452369Y-116296887D01*
X76363730Y-116220232D01*
X76264549Y-116162780D01*
X76157895Y-116124929D01*
X76046836Y-116107078D01*
X75934439Y-116109625D01*
X75823773Y-116132970D01*
X75717906Y-116177510D01*
X75619905Y-116243645D01*
X75589590Y-116270487D01*
X75512438Y-116354512D01*
X75456218Y-116442966D01*
X75417653Y-116542115D01*
X75396174Y-116640303D01*
X75390872Y-116750697D01*
X75408552Y-116861640D01*
X75447419Y-116969381D01*
X75505677Y-117070169D01*
X75581531Y-117160256D01*
X75673183Y-117235892D01*
X75685228Y-117243864D01*
X75723389Y-117269974D01*
X75752399Y-117292595D01*
X75766268Y-117307039D01*
X75766469Y-117307496D01*
X75763492Y-117323121D01*
X75751689Y-117358582D01*
X75732286Y-117410962D01*
X75706512Y-117477345D01*
X75675591Y-117554814D01*
X75640751Y-117640450D01*
X75603217Y-117731337D01*
X75564217Y-117824559D01*
X75524977Y-117917197D01*
X75486724Y-118006335D01*
X75450683Y-118089055D01*
X75418083Y-118162441D01*
X75390148Y-118223575D01*
X75368105Y-118269541D01*
X75353182Y-118297421D01*
X75347172Y-118304743D01*
X75328809Y-118299041D01*
X75294448Y-118283749D01*
X75250016Y-118261599D01*
X75225583Y-118248650D01*
X75121822Y-118192547D01*
X74998213Y-118276155D01*
X74935114Y-118318987D01*
X74866030Y-118366122D01*
X74801293Y-118410503D01*
X74768866Y-118432852D01*
X74723259Y-118463477D01*
X74684640Y-118487747D01*
X74658048Y-118502587D01*
X74649410Y-118505724D01*
X74636839Y-118497261D01*
X74609016Y-118473636D01*
X74568639Y-118437302D01*
X74518405Y-118390711D01*
X74461012Y-118336317D01*
X74424714Y-118301392D01*
X74361210Y-118238996D01*
X74306327Y-118183188D01*
X74262286Y-118136354D01*
X74231305Y-118100882D01*
X74215602Y-118079161D01*
X74214095Y-118074752D01*
X74221086Y-118057985D01*
X74240406Y-118024082D01*
X74269909Y-117976476D01*
X74307455Y-117918599D01*
X74350900Y-117853884D01*
X74363255Y-117835842D01*
X74408273Y-117770267D01*
X74448660Y-117711228D01*
X74482160Y-117662042D01*
X74506514Y-117626028D01*
X74519464Y-117606502D01*
X74520715Y-117604483D01*
X74518844Y-117588922D01*
X74508913Y-117554709D01*
X74492653Y-117506355D01*
X74471795Y-117448371D01*
X74448073Y-117385270D01*
X74423216Y-117321563D01*
X74398958Y-117261761D01*
X74377029Y-117210376D01*
X74359162Y-117171919D01*
X74347087Y-117150902D01*
X74346229Y-117149894D01*
X74338846Y-117143888D01*
X74326375Y-117137948D01*
X74306080Y-117131460D01*
X74275222Y-117123809D01*
X74231066Y-117114380D01*
X74170874Y-117102559D01*
X74091907Y-117087729D01*
X73991430Y-117069277D01*
X73969675Y-117065310D01*
X73905198Y-117052853D01*
X73848989Y-117040666D01*
X73806013Y-117029926D01*
X73781240Y-117021809D01*
X73777918Y-117019916D01*
X73772444Y-117003138D01*
X73767994Y-116965645D01*
X73764572Y-116911794D01*
X73762181Y-116845944D01*
X73760823Y-116772453D01*
X73760501Y-116695680D01*
X73761219Y-116619983D01*
X73762979Y-116549720D01*
X73765784Y-116489250D01*
X73769638Y-116442930D01*
X73774543Y-116415119D01*
X73777500Y-116409427D01*
X73793963Y-116403686D01*
X73831449Y-116394345D01*
X73886225Y-116382215D01*
X73954555Y-116368107D01*
X74032706Y-116352830D01*
X74075284Y-116344823D01*
X74156071Y-116329721D01*
X74228113Y-116316040D01*
X74287889Y-116304467D01*
X74331879Y-116295687D01*
X74356561Y-116290387D01*
X74360623Y-116289212D01*
X74367489Y-116275965D01*
X74382002Y-116244057D01*
X74402229Y-116198047D01*
X74426234Y-116142492D01*
X74452082Y-116081953D01*
X74477840Y-116020986D01*
X74501573Y-115964151D01*
X74521346Y-115916006D01*
X74535224Y-115881110D01*
X74541274Y-115864021D01*
X74541386Y-115863274D01*
X74534528Y-115849793D01*
X74515302Y-115818770D01*
X74485728Y-115773289D01*
X74447827Y-115716432D01*
X74403620Y-115651283D01*
X74377921Y-115613862D01*
X74331093Y-115545247D01*
X74289501Y-115482952D01*
X74255175Y-115430129D01*
X74230143Y-115389927D01*
X74216435Y-115365500D01*
X74214456Y-115360024D01*
X74222966Y-115347278D01*
X74246493Y-115320063D01*
X74282032Y-115281428D01*
X74326577Y-115234423D01*
X74377123Y-115182095D01*
X74430664Y-115127495D01*
X74484195Y-115073670D01*
X74534711Y-115023670D01*
X74579206Y-114980543D01*
X74614675Y-114947339D01*
X74638113Y-114927106D01*
X74645954Y-114922278D01*
X74658720Y-114929067D01*
X74689256Y-114948142D01*
X74734590Y-114977561D01*
X74791756Y-115015381D01*
X74857784Y-115059661D01*
X74907590Y-115093395D01*
X75159236Y-115264512D01*
X75368999Y-115178041D01*
X75578763Y-115091570D01*
X75635611Y-114790018D01*
X75692460Y-114488466D01*
X76320115Y-114488466D01*
X76376964Y-114790018D01*
G36*
X117878629Y-122769066D02*
X117918111Y-122769467D01*
X118033800Y-122772259D01*
X118130689Y-122780550D01*
X118212081Y-122795232D01*
X118281277Y-122817193D01*
X118341580Y-122847322D01*
X118396292Y-122886510D01*
X118415833Y-122903532D01*
X118448250Y-122943363D01*
X118477480Y-122997413D01*
X118500009Y-123057323D01*
X118512321Y-123114739D01*
X118513600Y-123135956D01*
X118505583Y-123194769D01*
X118484101Y-123259013D01*
X118453001Y-123319821D01*
X118416134Y-123368330D01*
X118410146Y-123374182D01*
X118359421Y-123415321D01*
X118303875Y-123447435D01*
X118240304Y-123471365D01*
X118165506Y-123487953D01*
X118076278Y-123498041D01*
X117969418Y-123502469D01*
X117920472Y-123502845D01*
X117858238Y-123502545D01*
X117814472Y-123501292D01*
X117785069Y-123498554D01*
X117765921Y-123493801D01*
X117752923Y-123486501D01*
X117745955Y-123480267D01*
X117739374Y-123472694D01*
X117734212Y-123462924D01*
X117730297Y-123448340D01*
X117727457Y-123426326D01*
X117725520Y-123394264D01*
X117724316Y-123349536D01*
X117723672Y-123289526D01*
X117723417Y-123211617D01*
X117723378Y-123135956D01*
X117723130Y-123035041D01*
X117723183Y-122954427D01*
X117724143Y-122915822D01*
X117870133Y-122915822D01*
X117870133Y-123356089D01*
X117963266Y-123356004D01*
X118019307Y-123354396D01*
X118078001Y-123350256D01*
X118126972Y-123344464D01*
X118128462Y-123344226D01*
X118207608Y-123325090D01*
X118268998Y-123295287D01*
X118315695Y-123252878D01*
X118345365Y-123206961D01*
X118363647Y-123156026D01*
X118362229Y-123108200D01*
X118341012Y-123056933D01*
X118299511Y-123003899D01*
X118242002Y-122964600D01*
X118167250Y-122938331D01*
X118117292Y-122929035D01*
X118060584Y-122922507D01*
X118000481Y-122917782D01*
X117949361Y-122915817D01*
X117946333Y-122915808D01*
X117870133Y-122915822D01*
X117724143Y-122915822D01*
X117724740Y-122891851D01*
X117729002Y-122845055D01*
X117737170Y-122811778D01*
X117750444Y-122789759D01*
X117770026Y-122776739D01*
X117797117Y-122770457D01*
X117832918Y-122768653D01*
X117878629Y-122769066D01*
X117878629Y-122769066D01*
G37*
X117878629Y-122769066D02*
X117918111Y-122769467D01*
X118033800Y-122772259D01*
X118130689Y-122780550D01*
X118212081Y-122795232D01*
X118281277Y-122817193D01*
X118341580Y-122847322D01*
X118396292Y-122886510D01*
X118415833Y-122903532D01*
X118448250Y-122943363D01*
X118477480Y-122997413D01*
X118500009Y-123057323D01*
X118512321Y-123114739D01*
X118513600Y-123135956D01*
X118505583Y-123194769D01*
X118484101Y-123259013D01*
X118453001Y-123319821D01*
X118416134Y-123368330D01*
X118410146Y-123374182D01*
X118359421Y-123415321D01*
X118303875Y-123447435D01*
X118240304Y-123471365D01*
X118165506Y-123487953D01*
X118076278Y-123498041D01*
X117969418Y-123502469D01*
X117920472Y-123502845D01*
X117858238Y-123502545D01*
X117814472Y-123501292D01*
X117785069Y-123498554D01*
X117765921Y-123493801D01*
X117752923Y-123486501D01*
X117745955Y-123480267D01*
X117739374Y-123472694D01*
X117734212Y-123462924D01*
X117730297Y-123448340D01*
X117727457Y-123426326D01*
X117725520Y-123394264D01*
X117724316Y-123349536D01*
X117723672Y-123289526D01*
X117723417Y-123211617D01*
X117723378Y-123135956D01*
X117723130Y-123035041D01*
X117723183Y-122954427D01*
X117724143Y-122915822D01*
X117870133Y-122915822D01*
X117870133Y-123356089D01*
X117963266Y-123356004D01*
X118019307Y-123354396D01*
X118078001Y-123350256D01*
X118126972Y-123344464D01*
X118128462Y-123344226D01*
X118207608Y-123325090D01*
X118268998Y-123295287D01*
X118315695Y-123252878D01*
X118345365Y-123206961D01*
X118363647Y-123156026D01*
X118362229Y-123108200D01*
X118341012Y-123056933D01*
X118299511Y-123003899D01*
X118242002Y-122964600D01*
X118167250Y-122938331D01*
X118117292Y-122929035D01*
X118060584Y-122922507D01*
X118000481Y-122917782D01*
X117949361Y-122915817D01*
X117946333Y-122915808D01*
X117870133Y-122915822D01*
X117724143Y-122915822D01*
X117724740Y-122891851D01*
X117729002Y-122845055D01*
X117737170Y-122811778D01*
X117750444Y-122789759D01*
X117770026Y-122776739D01*
X117797117Y-122770457D01*
X117832918Y-122768653D01*
X117878629Y-122769066D01*
G36*
X119287206Y-122769146D02*
X119356614Y-122769518D01*
X119409003Y-122770385D01*
X119447153Y-122771946D01*
X119473841Y-122774403D01*
X119491847Y-122777957D01*
X119503951Y-122782810D01*
X119512931Y-122789161D01*
X119516182Y-122792084D01*
X119535957Y-122823142D01*
X119539518Y-122858828D01*
X119526509Y-122890510D01*
X119520494Y-122896913D01*
X119510765Y-122903121D01*
X119495099Y-122907910D01*
X119470592Y-122911514D01*
X119434339Y-122914164D01*
X119383435Y-122916095D01*
X119314974Y-122917539D01*
X119252383Y-122918418D01*
X119004666Y-122921467D01*
X119001281Y-122986378D01*
X118997895Y-123051289D01*
X119166042Y-123051289D01*
X119239041Y-123051919D01*
X119292483Y-123054553D01*
X119329372Y-123060309D01*
X119352712Y-123070304D01*
X119365506Y-123085656D01*
X119370758Y-123107482D01*
X119371555Y-123127738D01*
X119369077Y-123152592D01*
X119359723Y-123170906D01*
X119340617Y-123183637D01*
X119308882Y-123191741D01*
X119261641Y-123196176D01*
X119196017Y-123197899D01*
X119160199Y-123198045D01*
X118999022Y-123198045D01*
X118999022Y-123356089D01*
X119247378Y-123356089D01*
X119328787Y-123356202D01*
X119390658Y-123356712D01*
X119436032Y-123357870D01*
X119467946Y-123359930D01*
X119489441Y-123363146D01*
X119503557Y-123367772D01*
X119513332Y-123374059D01*
X119518311Y-123378667D01*
X119535390Y-123405560D01*
X119540889Y-123429467D01*
X119533037Y-123458667D01*
X119518311Y-123480267D01*
X119510454Y-123487066D01*
X119500312Y-123492346D01*
X119485156Y-123496298D01*
X119462259Y-123499113D01*
X119428891Y-123500982D01*
X119382325Y-123502098D01*
X119319833Y-123502651D01*
X119238686Y-123502833D01*
X119196578Y-123502845D01*
X119106402Y-123502765D01*
X119036076Y-123502398D01*
X118982871Y-123501552D01*
X118944060Y-123500036D01*
X118916913Y-123497659D01*
X118898702Y-123494229D01*
X118886700Y-123489554D01*
X118878178Y-123483444D01*
X118874844Y-123480267D01*
X118868245Y-123472670D01*
X118863073Y-123462870D01*
X118859154Y-123448239D01*
X118856316Y-123426152D01*
X118854385Y-123393982D01*
X118853188Y-123349103D01*
X118852552Y-123288889D01*
X118852303Y-123210713D01*
X118852266Y-123137923D01*
X118852300Y-123044707D01*
X118852535Y-122971431D01*
X118853170Y-122915458D01*
X118854406Y-122874151D01*
X118856444Y-122844872D01*
X118859483Y-122824984D01*
X118863723Y-122811850D01*
X118869365Y-122802832D01*
X118876609Y-122795293D01*
X118878394Y-122793612D01*
X118887055Y-122786172D01*
X118897118Y-122780409D01*
X118911375Y-122776112D01*
X118932617Y-122773064D01*
X118963636Y-122771051D01*
X119007223Y-122769860D01*
X119066169Y-122769275D01*
X119143266Y-122769083D01*
X119197999Y-122769067D01*
X119287206Y-122769146D01*
X119287206Y-122769146D01*
G37*
X119287206Y-122769146D02*
X119356614Y-122769518D01*
X119409003Y-122770385D01*
X119447153Y-122771946D01*
X119473841Y-122774403D01*
X119491847Y-122777957D01*
X119503951Y-122782810D01*
X119512931Y-122789161D01*
X119516182Y-122792084D01*
X119535957Y-122823142D01*
X119539518Y-122858828D01*
X119526509Y-122890510D01*
X119520494Y-122896913D01*
X119510765Y-122903121D01*
X119495099Y-122907910D01*
X119470592Y-122911514D01*
X119434339Y-122914164D01*
X119383435Y-122916095D01*
X119314974Y-122917539D01*
X119252383Y-122918418D01*
X119004666Y-122921467D01*
X119001281Y-122986378D01*
X118997895Y-123051289D01*
X119166042Y-123051289D01*
X119239041Y-123051919D01*
X119292483Y-123054553D01*
X119329372Y-123060309D01*
X119352712Y-123070304D01*
X119365506Y-123085656D01*
X119370758Y-123107482D01*
X119371555Y-123127738D01*
X119369077Y-123152592D01*
X119359723Y-123170906D01*
X119340617Y-123183637D01*
X119308882Y-123191741D01*
X119261641Y-123196176D01*
X119196017Y-123197899D01*
X119160199Y-123198045D01*
X118999022Y-123198045D01*
X118999022Y-123356089D01*
X119247378Y-123356089D01*
X119328787Y-123356202D01*
X119390658Y-123356712D01*
X119436032Y-123357870D01*
X119467946Y-123359930D01*
X119489441Y-123363146D01*
X119503557Y-123367772D01*
X119513332Y-123374059D01*
X119518311Y-123378667D01*
X119535390Y-123405560D01*
X119540889Y-123429467D01*
X119533037Y-123458667D01*
X119518311Y-123480267D01*
X119510454Y-123487066D01*
X119500312Y-123492346D01*
X119485156Y-123496298D01*
X119462259Y-123499113D01*
X119428891Y-123500982D01*
X119382325Y-123502098D01*
X119319833Y-123502651D01*
X119238686Y-123502833D01*
X119196578Y-123502845D01*
X119106402Y-123502765D01*
X119036076Y-123502398D01*
X118982871Y-123501552D01*
X118944060Y-123500036D01*
X118916913Y-123497659D01*
X118898702Y-123494229D01*
X118886700Y-123489554D01*
X118878178Y-123483444D01*
X118874844Y-123480267D01*
X118868245Y-123472670D01*
X118863073Y-123462870D01*
X118859154Y-123448239D01*
X118856316Y-123426152D01*
X118854385Y-123393982D01*
X118853188Y-123349103D01*
X118852552Y-123288889D01*
X118852303Y-123210713D01*
X118852266Y-123137923D01*
X118852300Y-123044707D01*
X118852535Y-122971431D01*
X118853170Y-122915458D01*
X118854406Y-122874151D01*
X118856444Y-122844872D01*
X118859483Y-122824984D01*
X118863723Y-122811850D01*
X118869365Y-122802832D01*
X118876609Y-122795293D01*
X118878394Y-122793612D01*
X118887055Y-122786172D01*
X118897118Y-122780409D01*
X118911375Y-122776112D01*
X118932617Y-122773064D01*
X118963636Y-122771051D01*
X119007223Y-122769860D01*
X119066169Y-122769275D01*
X119143266Y-122769083D01*
X119197999Y-122769067D01*
X119287206Y-122769146D01*
G36*
X120308297Y-122770351D02*
X120383112Y-122775581D01*
X120452694Y-122783750D01*
X120512998Y-122794550D01*
X120559980Y-122807673D01*
X120589594Y-122822813D01*
X120594140Y-122827269D01*
X120609946Y-122861850D01*
X120605153Y-122897351D01*
X120580636Y-122927725D01*
X120579466Y-122928596D01*
X120565046Y-122937954D01*
X120549992Y-122942876D01*
X120528995Y-122943473D01*
X120496743Y-122939861D01*
X120447927Y-122932154D01*
X120444000Y-122931505D01*
X120371261Y-122922569D01*
X120292783Y-122918161D01*
X120214073Y-122918119D01*
X120140639Y-122922279D01*
X120077989Y-122930479D01*
X120031630Y-122942557D01*
X120028584Y-122943771D01*
X119994952Y-122962615D01*
X119983136Y-122981685D01*
X119992386Y-123000439D01*
X120021953Y-123018337D01*
X120071089Y-123034837D01*
X120139043Y-123049396D01*
X120184355Y-123056406D01*
X120278544Y-123069889D01*
X120353456Y-123082214D01*
X120412283Y-123094449D01*
X120458215Y-123107661D01*
X120494445Y-123122917D01*
X120524162Y-123141285D01*
X120550558Y-123163831D01*
X120571770Y-123185971D01*
X120596935Y-123216819D01*
X120609319Y-123243345D01*
X120613192Y-123276026D01*
X120613333Y-123287995D01*
X120610424Y-123327712D01*
X120598798Y-123357259D01*
X120578677Y-123383486D01*
X120537784Y-123423576D01*
X120492183Y-123454149D01*
X120438487Y-123476203D01*
X120373308Y-123490735D01*
X120293256Y-123498741D01*
X120194943Y-123501218D01*
X120178711Y-123501177D01*
X120113151Y-123499818D01*
X120048134Y-123496730D01*
X119990748Y-123492356D01*
X119948078Y-123487140D01*
X119944628Y-123486541D01*
X119902204Y-123476491D01*
X119866220Y-123463796D01*
X119845850Y-123452190D01*
X119826893Y-123421572D01*
X119825573Y-123385918D01*
X119841915Y-123354144D01*
X119845571Y-123350551D01*
X119860685Y-123339876D01*
X119879585Y-123335276D01*
X119908838Y-123336059D01*
X119944349Y-123340127D01*
X119984030Y-123343762D01*
X120039655Y-123346828D01*
X120104594Y-123349053D01*
X120172215Y-123350164D01*
X120190000Y-123350237D01*
X120257872Y-123349964D01*
X120307546Y-123348646D01*
X120343390Y-123345827D01*
X120369776Y-123341050D01*
X120391074Y-123333857D01*
X120403874Y-123327867D01*
X120432000Y-123311233D01*
X120449932Y-123296168D01*
X120452553Y-123291897D01*
X120447024Y-123274263D01*
X120420740Y-123257192D01*
X120375522Y-123241458D01*
X120313192Y-123227838D01*
X120294829Y-123224804D01*
X120198910Y-123209738D01*
X120122359Y-123197146D01*
X120062220Y-123186111D01*
X120015540Y-123175720D01*
X119979363Y-123165056D01*
X119950735Y-123153205D01*
X119926702Y-123139251D01*
X119904308Y-123122281D01*
X119880598Y-123101378D01*
X119872620Y-123094049D01*
X119844647Y-123066699D01*
X119829840Y-123045029D01*
X119824048Y-123020232D01*
X119823111Y-122988983D01*
X119833425Y-122927705D01*
X119864248Y-122875640D01*
X119915405Y-122832958D01*
X119986717Y-122799825D01*
X120037600Y-122784964D01*
X120092900Y-122775366D01*
X120159147Y-122769936D01*
X120232294Y-122768367D01*
X120308297Y-122770351D01*
X120308297Y-122770351D01*
G37*
X120308297Y-122770351D02*
X120383112Y-122775581D01*
X120452694Y-122783750D01*
X120512998Y-122794550D01*
X120559980Y-122807673D01*
X120589594Y-122822813D01*
X120594140Y-122827269D01*
X120609946Y-122861850D01*
X120605153Y-122897351D01*
X120580636Y-122927725D01*
X120579466Y-122928596D01*
X120565046Y-122937954D01*
X120549992Y-122942876D01*
X120528995Y-122943473D01*
X120496743Y-122939861D01*
X120447927Y-122932154D01*
X120444000Y-122931505D01*
X120371261Y-122922569D01*
X120292783Y-122918161D01*
X120214073Y-122918119D01*
X120140639Y-122922279D01*
X120077989Y-122930479D01*
X120031630Y-122942557D01*
X120028584Y-122943771D01*
X119994952Y-122962615D01*
X119983136Y-122981685D01*
X119992386Y-123000439D01*
X120021953Y-123018337D01*
X120071089Y-123034837D01*
X120139043Y-123049396D01*
X120184355Y-123056406D01*
X120278544Y-123069889D01*
X120353456Y-123082214D01*
X120412283Y-123094449D01*
X120458215Y-123107661D01*
X120494445Y-123122917D01*
X120524162Y-123141285D01*
X120550558Y-123163831D01*
X120571770Y-123185971D01*
X120596935Y-123216819D01*
X120609319Y-123243345D01*
X120613192Y-123276026D01*
X120613333Y-123287995D01*
X120610424Y-123327712D01*
X120598798Y-123357259D01*
X120578677Y-123383486D01*
X120537784Y-123423576D01*
X120492183Y-123454149D01*
X120438487Y-123476203D01*
X120373308Y-123490735D01*
X120293256Y-123498741D01*
X120194943Y-123501218D01*
X120178711Y-123501177D01*
X120113151Y-123499818D01*
X120048134Y-123496730D01*
X119990748Y-123492356D01*
X119948078Y-123487140D01*
X119944628Y-123486541D01*
X119902204Y-123476491D01*
X119866220Y-123463796D01*
X119845850Y-123452190D01*
X119826893Y-123421572D01*
X119825573Y-123385918D01*
X119841915Y-123354144D01*
X119845571Y-123350551D01*
X119860685Y-123339876D01*
X119879585Y-123335276D01*
X119908838Y-123336059D01*
X119944349Y-123340127D01*
X119984030Y-123343762D01*
X120039655Y-123346828D01*
X120104594Y-123349053D01*
X120172215Y-123350164D01*
X120190000Y-123350237D01*
X120257872Y-123349964D01*
X120307546Y-123348646D01*
X120343390Y-123345827D01*
X120369776Y-123341050D01*
X120391074Y-123333857D01*
X120403874Y-123327867D01*
X120432000Y-123311233D01*
X120449932Y-123296168D01*
X120452553Y-123291897D01*
X120447024Y-123274263D01*
X120420740Y-123257192D01*
X120375522Y-123241458D01*
X120313192Y-123227838D01*
X120294829Y-123224804D01*
X120198910Y-123209738D01*
X120122359Y-123197146D01*
X120062220Y-123186111D01*
X120015540Y-123175720D01*
X119979363Y-123165056D01*
X119950735Y-123153205D01*
X119926702Y-123139251D01*
X119904308Y-123122281D01*
X119880598Y-123101378D01*
X119872620Y-123094049D01*
X119844647Y-123066699D01*
X119829840Y-123045029D01*
X119824048Y-123020232D01*
X119823111Y-122988983D01*
X119833425Y-122927705D01*
X119864248Y-122875640D01*
X119915405Y-122832958D01*
X119986717Y-122799825D01*
X120037600Y-122784964D01*
X120092900Y-122775366D01*
X120159147Y-122769936D01*
X120232294Y-122768367D01*
X120308297Y-122770351D01*
G36*
X121076178Y-122791645D02*
X121082758Y-122799218D01*
X121087921Y-122808987D01*
X121091836Y-122823571D01*
X121094676Y-122845585D01*
X121096613Y-122877648D01*
X121097817Y-122922375D01*
X121098461Y-122982385D01*
X121098716Y-123060294D01*
X121098755Y-123135956D01*
X121098686Y-123229802D01*
X121098362Y-123303689D01*
X121097614Y-123360232D01*
X121096268Y-123402049D01*
X121094154Y-123431757D01*
X121091100Y-123451973D01*
X121086934Y-123465314D01*
X121081484Y-123474398D01*
X121076178Y-123480267D01*
X121043174Y-123499947D01*
X121008009Y-123498181D01*
X120976545Y-123476717D01*
X120969316Y-123468337D01*
X120963666Y-123458614D01*
X120959401Y-123444861D01*
X120956327Y-123424389D01*
X120954248Y-123394512D01*
X120952970Y-123352541D01*
X120952299Y-123295789D01*
X120952041Y-123221567D01*
X120952000Y-123137537D01*
X120952000Y-122824485D01*
X120979709Y-122796776D01*
X121013863Y-122773463D01*
X121046994Y-122772623D01*
X121076178Y-122791645D01*
X121076178Y-122791645D01*
G37*
X121076178Y-122791645D02*
X121082758Y-122799218D01*
X121087921Y-122808987D01*
X121091836Y-122823571D01*
X121094676Y-122845585D01*
X121096613Y-122877648D01*
X121097817Y-122922375D01*
X121098461Y-122982385D01*
X121098716Y-123060294D01*
X121098755Y-123135956D01*
X121098686Y-123229802D01*
X121098362Y-123303689D01*
X121097614Y-123360232D01*
X121096268Y-123402049D01*
X121094154Y-123431757D01*
X121091100Y-123451973D01*
X121086934Y-123465314D01*
X121081484Y-123474398D01*
X121076178Y-123480267D01*
X121043174Y-123499947D01*
X121008009Y-123498181D01*
X120976545Y-123476717D01*
X120969316Y-123468337D01*
X120963666Y-123458614D01*
X120959401Y-123444861D01*
X120956327Y-123424389D01*
X120954248Y-123394512D01*
X120952970Y-123352541D01*
X120952299Y-123295789D01*
X120952041Y-123221567D01*
X120952000Y-123137537D01*
X120952000Y-122824485D01*
X120979709Y-122796776D01*
X121013863Y-122773463D01*
X121046994Y-122772623D01*
X121076178Y-122791645D01*
G36*
X122049919Y-122774599D02*
X122118435Y-122786095D01*
X122171057Y-122803967D01*
X122205292Y-122827499D01*
X122214621Y-122840924D01*
X122224107Y-122872148D01*
X122217723Y-122900395D01*
X122197570Y-122927182D01*
X122166255Y-122939713D01*
X122120817Y-122938696D01*
X122085674Y-122931906D01*
X122007581Y-122918971D01*
X121927774Y-122917742D01*
X121838445Y-122928241D01*
X121813771Y-122932690D01*
X121730709Y-122956108D01*
X121665727Y-122990945D01*
X121619539Y-123036604D01*
X121592855Y-123092494D01*
X121587337Y-123121388D01*
X121590949Y-123180012D01*
X121614271Y-123231879D01*
X121655176Y-123275978D01*
X121711541Y-123311299D01*
X121781240Y-123336829D01*
X121862148Y-123351559D01*
X121952140Y-123354478D01*
X122049090Y-123344575D01*
X122054564Y-123343641D01*
X122093125Y-123336459D01*
X122114506Y-123329521D01*
X122123773Y-123319227D01*
X122125994Y-123301976D01*
X122126044Y-123292841D01*
X122126044Y-123254489D01*
X122057569Y-123254489D01*
X121997100Y-123250347D01*
X121955835Y-123237147D01*
X121931825Y-123213730D01*
X121923123Y-123178936D01*
X121923017Y-123174394D01*
X121928108Y-123144654D01*
X121945567Y-123123419D01*
X121978061Y-123109366D01*
X122028257Y-123101173D01*
X122076877Y-123098161D01*
X122147544Y-123096433D01*
X122198802Y-123099070D01*
X122233761Y-123108800D01*
X122255530Y-123128353D01*
X122267220Y-123160456D01*
X122271940Y-123207838D01*
X122272800Y-123270071D01*
X122271391Y-123339535D01*
X122267152Y-123386786D01*
X122260064Y-123412012D01*
X122258689Y-123413988D01*
X122219772Y-123445508D01*
X122162714Y-123470470D01*
X122091131Y-123488340D01*
X122008642Y-123498586D01*
X121918861Y-123500673D01*
X121825408Y-123494068D01*
X121770444Y-123485956D01*
X121684234Y-123461554D01*
X121604108Y-123421662D01*
X121537023Y-123369887D01*
X121526827Y-123359539D01*
X121493698Y-123316035D01*
X121463806Y-123262118D01*
X121440643Y-123205592D01*
X121427702Y-123154259D01*
X121426142Y-123134544D01*
X121432782Y-123093419D01*
X121450432Y-123042252D01*
X121475703Y-122988394D01*
X121505211Y-122939195D01*
X121531281Y-122906334D01*
X121592235Y-122857452D01*
X121671031Y-122818545D01*
X121764843Y-122790494D01*
X121870850Y-122774179D01*
X121968000Y-122770192D01*
X122049919Y-122774599D01*
X122049919Y-122774599D01*
G37*
X122049919Y-122774599D02*
X122118435Y-122786095D01*
X122171057Y-122803967D01*
X122205292Y-122827499D01*
X122214621Y-122840924D01*
X122224107Y-122872148D01*
X122217723Y-122900395D01*
X122197570Y-122927182D01*
X122166255Y-122939713D01*
X122120817Y-122938696D01*
X122085674Y-122931906D01*
X122007581Y-122918971D01*
X121927774Y-122917742D01*
X121838445Y-122928241D01*
X121813771Y-122932690D01*
X121730709Y-122956108D01*
X121665727Y-122990945D01*
X121619539Y-123036604D01*
X121592855Y-123092494D01*
X121587337Y-123121388D01*
X121590949Y-123180012D01*
X121614271Y-123231879D01*
X121655176Y-123275978D01*
X121711541Y-123311299D01*
X121781240Y-123336829D01*
X121862148Y-123351559D01*
X121952140Y-123354478D01*
X122049090Y-123344575D01*
X122054564Y-123343641D01*
X122093125Y-123336459D01*
X122114506Y-123329521D01*
X122123773Y-123319227D01*
X122125994Y-123301976D01*
X122126044Y-123292841D01*
X122126044Y-123254489D01*
X122057569Y-123254489D01*
X121997100Y-123250347D01*
X121955835Y-123237147D01*
X121931825Y-123213730D01*
X121923123Y-123178936D01*
X121923017Y-123174394D01*
X121928108Y-123144654D01*
X121945567Y-123123419D01*
X121978061Y-123109366D01*
X122028257Y-123101173D01*
X122076877Y-123098161D01*
X122147544Y-123096433D01*
X122198802Y-123099070D01*
X122233761Y-123108800D01*
X122255530Y-123128353D01*
X122267220Y-123160456D01*
X122271940Y-123207838D01*
X122272800Y-123270071D01*
X122271391Y-123339535D01*
X122267152Y-123386786D01*
X122260064Y-123412012D01*
X122258689Y-123413988D01*
X122219772Y-123445508D01*
X122162714Y-123470470D01*
X122091131Y-123488340D01*
X122008642Y-123498586D01*
X121918861Y-123500673D01*
X121825408Y-123494068D01*
X121770444Y-123485956D01*
X121684234Y-123461554D01*
X121604108Y-123421662D01*
X121537023Y-123369887D01*
X121526827Y-123359539D01*
X121493698Y-123316035D01*
X121463806Y-123262118D01*
X121440643Y-123205592D01*
X121427702Y-123154259D01*
X121426142Y-123134544D01*
X121432782Y-123093419D01*
X121450432Y-123042252D01*
X121475703Y-122988394D01*
X121505211Y-122939195D01*
X121531281Y-122906334D01*
X121592235Y-122857452D01*
X121671031Y-122818545D01*
X121764843Y-122790494D01*
X121870850Y-122774179D01*
X121968000Y-122770192D01*
X122049919Y-122774599D01*
G36*
X122699886Y-122773448D02*
X122723452Y-122787273D01*
X122754265Y-122809881D01*
X122793922Y-122842338D01*
X122844020Y-122885708D01*
X122906157Y-122941058D01*
X122981928Y-123009451D01*
X123068666Y-123088084D01*
X123249289Y-123251878D01*
X123254933Y-123032029D01*
X123256971Y-122956351D01*
X123258937Y-122899994D01*
X123261266Y-122859706D01*
X123264394Y-122832235D01*
X123268755Y-122814329D01*
X123274784Y-122802737D01*
X123282916Y-122794208D01*
X123287228Y-122790623D01*
X123321759Y-122771670D01*
X123354617Y-122774441D01*
X123380682Y-122790633D01*
X123407333Y-122812199D01*
X123410648Y-123127151D01*
X123411565Y-123219779D01*
X123412032Y-123292544D01*
X123411887Y-123348161D01*
X123410968Y-123389342D01*
X123409113Y-123418803D01*
X123406161Y-123439255D01*
X123401950Y-123453413D01*
X123396318Y-123463991D01*
X123390073Y-123472474D01*
X123376561Y-123488207D01*
X123363117Y-123498636D01*
X123347876Y-123502639D01*
X123328974Y-123499094D01*
X123304545Y-123486879D01*
X123272727Y-123464871D01*
X123231652Y-123431949D01*
X123179458Y-123386991D01*
X123114278Y-123328875D01*
X123040444Y-123262099D01*
X122775155Y-123021458D01*
X122769511Y-123240589D01*
X122767469Y-123316128D01*
X122765498Y-123372354D01*
X122763161Y-123412524D01*
X122760019Y-123439896D01*
X122755636Y-123457728D01*
X122749576Y-123469279D01*
X122741400Y-123477807D01*
X122737216Y-123481282D01*
X122700235Y-123500372D01*
X122665292Y-123497493D01*
X122634864Y-123473100D01*
X122627903Y-123463286D01*
X122622477Y-123451826D01*
X122618397Y-123435968D01*
X122615471Y-123412963D01*
X122613508Y-123380062D01*
X122612317Y-123334516D01*
X122611708Y-123273573D01*
X122611489Y-123194486D01*
X122611466Y-123135956D01*
X122611540Y-123044407D01*
X122611887Y-122972687D01*
X122612699Y-122918045D01*
X122614167Y-122877732D01*
X122616481Y-122848998D01*
X122619833Y-122829093D01*
X122624412Y-122815268D01*
X122630411Y-122804772D01*
X122634864Y-122798811D01*
X122646150Y-122784691D01*
X122656699Y-122774029D01*
X122668107Y-122767892D01*
X122681970Y-122767343D01*
X122699886Y-122773448D01*
X122699886Y-122773448D01*
G37*
X122699886Y-122773448D02*
X122723452Y-122787273D01*
X122754265Y-122809881D01*
X122793922Y-122842338D01*
X122844020Y-122885708D01*
X122906157Y-122941058D01*
X122981928Y-123009451D01*
X123068666Y-123088084D01*
X123249289Y-123251878D01*
X123254933Y-123032029D01*
X123256971Y-122956351D01*
X123258937Y-122899994D01*
X123261266Y-122859706D01*
X123264394Y-122832235D01*
X123268755Y-122814329D01*
X123274784Y-122802737D01*
X123282916Y-122794208D01*
X123287228Y-122790623D01*
X123321759Y-122771670D01*
X123354617Y-122774441D01*
X123380682Y-122790633D01*
X123407333Y-122812199D01*
X123410648Y-123127151D01*
X123411565Y-123219779D01*
X123412032Y-123292544D01*
X123411887Y-123348161D01*
X123410968Y-123389342D01*
X123409113Y-123418803D01*
X123406161Y-123439255D01*
X123401950Y-123453413D01*
X123396318Y-123463991D01*
X123390073Y-123472474D01*
X123376561Y-123488207D01*
X123363117Y-123498636D01*
X123347876Y-123502639D01*
X123328974Y-123499094D01*
X123304545Y-123486879D01*
X123272727Y-123464871D01*
X123231652Y-123431949D01*
X123179458Y-123386991D01*
X123114278Y-123328875D01*
X123040444Y-123262099D01*
X122775155Y-123021458D01*
X122769511Y-123240589D01*
X122767469Y-123316128D01*
X122765498Y-123372354D01*
X122763161Y-123412524D01*
X122760019Y-123439896D01*
X122755636Y-123457728D01*
X122749576Y-123469279D01*
X122741400Y-123477807D01*
X122737216Y-123481282D01*
X122700235Y-123500372D01*
X122665292Y-123497493D01*
X122634864Y-123473100D01*
X122627903Y-123463286D01*
X122622477Y-123451826D01*
X122618397Y-123435968D01*
X122615471Y-123412963D01*
X122613508Y-123380062D01*
X122612317Y-123334516D01*
X122611708Y-123273573D01*
X122611489Y-123194486D01*
X122611466Y-123135956D01*
X122611540Y-123044407D01*
X122611887Y-122972687D01*
X122612699Y-122918045D01*
X122614167Y-122877732D01*
X122616481Y-122848998D01*
X122619833Y-122829093D01*
X122624412Y-122815268D01*
X122630411Y-122804772D01*
X122634864Y-122798811D01*
X122646150Y-122784691D01*
X122656699Y-122774029D01*
X122668107Y-122767892D01*
X122681970Y-122767343D01*
X122699886Y-122773448D01*
G36*
X124230343Y-122769260D02*
X124306701Y-122770174D01*
X124365217Y-122772311D01*
X124408255Y-122776175D01*
X124438183Y-122782267D01*
X124457368Y-122791090D01*
X124468176Y-122803146D01*
X124472973Y-122818939D01*
X124474127Y-122838970D01*
X124474133Y-122841335D01*
X124473131Y-122863992D01*
X124468396Y-122881503D01*
X124457333Y-122894574D01*
X124437348Y-122903913D01*
X124405846Y-122910227D01*
X124360232Y-122914222D01*
X124297913Y-122916606D01*
X124216293Y-122918086D01*
X124191277Y-122918414D01*
X123949200Y-122921467D01*
X123945814Y-122986378D01*
X123942429Y-123051289D01*
X124110576Y-123051289D01*
X124176266Y-123051531D01*
X124223172Y-123052556D01*
X124255083Y-123054811D01*
X124275791Y-123058742D01*
X124289084Y-123064798D01*
X124298755Y-123073424D01*
X124298817Y-123073493D01*
X124316356Y-123107112D01*
X124315722Y-123143448D01*
X124297314Y-123174423D01*
X124293671Y-123177607D01*
X124280741Y-123185812D01*
X124263024Y-123191521D01*
X124236570Y-123195162D01*
X124197432Y-123197167D01*
X124141662Y-123197964D01*
X124105994Y-123198045D01*
X123943555Y-123198045D01*
X123943555Y-123356089D01*
X124190161Y-123356089D01*
X124271580Y-123356231D01*
X124333410Y-123356814D01*
X124378637Y-123358068D01*
X124410248Y-123360227D01*
X124431231Y-123363523D01*
X124444573Y-123368189D01*
X124453261Y-123374457D01*
X124455450Y-123376733D01*
X124471614Y-123408280D01*
X124472797Y-123444168D01*
X124459536Y-123475285D01*
X124449043Y-123485271D01*
X124438129Y-123490769D01*
X124421217Y-123495022D01*
X124395633Y-123498180D01*
X124358701Y-123500392D01*
X124307746Y-123501806D01*
X124240094Y-123502572D01*
X124153069Y-123502838D01*
X124133394Y-123502845D01*
X124044911Y-123502787D01*
X123976227Y-123502467D01*
X123924564Y-123501667D01*
X123887145Y-123500167D01*
X123861190Y-123497749D01*
X123843922Y-123494194D01*
X123832562Y-123489282D01*
X123824332Y-123482795D01*
X123819817Y-123478138D01*
X123813021Y-123469889D01*
X123807712Y-123459669D01*
X123803706Y-123444800D01*
X123800821Y-123422602D01*
X123798874Y-123390393D01*
X123797681Y-123345496D01*
X123797061Y-123285228D01*
X123796829Y-123206911D01*
X123796800Y-123140994D01*
X123796871Y-123048628D01*
X123797208Y-122976117D01*
X123797998Y-122920737D01*
X123799426Y-122879765D01*
X123801679Y-122850478D01*
X123804943Y-122830153D01*
X123809404Y-122816066D01*
X123815248Y-122805495D01*
X123820197Y-122798811D01*
X123843594Y-122769067D01*
X124133774Y-122769067D01*
X124230343Y-122769260D01*
X124230343Y-122769260D01*
G37*
X124230343Y-122769260D02*
X124306701Y-122770174D01*
X124365217Y-122772311D01*
X124408255Y-122776175D01*
X124438183Y-122782267D01*
X124457368Y-122791090D01*
X124468176Y-122803146D01*
X124472973Y-122818939D01*
X124474127Y-122838970D01*
X124474133Y-122841335D01*
X124473131Y-122863992D01*
X124468396Y-122881503D01*
X124457333Y-122894574D01*
X124437348Y-122903913D01*
X124405846Y-122910227D01*
X124360232Y-122914222D01*
X124297913Y-122916606D01*
X124216293Y-122918086D01*
X124191277Y-122918414D01*
X123949200Y-122921467D01*
X123945814Y-122986378D01*
X123942429Y-123051289D01*
X124110576Y-123051289D01*
X124176266Y-123051531D01*
X124223172Y-123052556D01*
X124255083Y-123054811D01*
X124275791Y-123058742D01*
X124289084Y-123064798D01*
X124298755Y-123073424D01*
X124298817Y-123073493D01*
X124316356Y-123107112D01*
X124315722Y-123143448D01*
X124297314Y-123174423D01*
X124293671Y-123177607D01*
X124280741Y-123185812D01*
X124263024Y-123191521D01*
X124236570Y-123195162D01*
X124197432Y-123197167D01*
X124141662Y-123197964D01*
X124105994Y-123198045D01*
X123943555Y-123198045D01*
X123943555Y-123356089D01*
X124190161Y-123356089D01*
X124271580Y-123356231D01*
X124333410Y-123356814D01*
X124378637Y-123358068D01*
X124410248Y-123360227D01*
X124431231Y-123363523D01*
X124444573Y-123368189D01*
X124453261Y-123374457D01*
X124455450Y-123376733D01*
X124471614Y-123408280D01*
X124472797Y-123444168D01*
X124459536Y-123475285D01*
X124449043Y-123485271D01*
X124438129Y-123490769D01*
X124421217Y-123495022D01*
X124395633Y-123498180D01*
X124358701Y-123500392D01*
X124307746Y-123501806D01*
X124240094Y-123502572D01*
X124153069Y-123502838D01*
X124133394Y-123502845D01*
X124044911Y-123502787D01*
X123976227Y-123502467D01*
X123924564Y-123501667D01*
X123887145Y-123500167D01*
X123861190Y-123497749D01*
X123843922Y-123494194D01*
X123832562Y-123489282D01*
X123824332Y-123482795D01*
X123819817Y-123478138D01*
X123813021Y-123469889D01*
X123807712Y-123459669D01*
X123803706Y-123444800D01*
X123800821Y-123422602D01*
X123798874Y-123390393D01*
X123797681Y-123345496D01*
X123797061Y-123285228D01*
X123796829Y-123206911D01*
X123796800Y-123140994D01*
X123796871Y-123048628D01*
X123797208Y-122976117D01*
X123797998Y-122920737D01*
X123799426Y-122879765D01*
X123801679Y-122850478D01*
X123804943Y-122830153D01*
X123809404Y-122816066D01*
X123815248Y-122805495D01*
X123820197Y-122798811D01*
X123843594Y-122769067D01*
X124133774Y-122769067D01*
X124230343Y-122769260D01*
G36*
X125018309Y-122769275D02*
X125147288Y-122773636D01*
X125256991Y-122786861D01*
X125349226Y-122809741D01*
X125425802Y-122843070D01*
X125488527Y-122887638D01*
X125539212Y-122944236D01*
X125579663Y-123013658D01*
X125580459Y-123015351D01*
X125604601Y-123077483D01*
X125613203Y-123132509D01*
X125606231Y-123187887D01*
X125583654Y-123251073D01*
X125579372Y-123260689D01*
X125550172Y-123316966D01*
X125517356Y-123360451D01*
X125475002Y-123397417D01*
X125417190Y-123434135D01*
X125413831Y-123436052D01*
X125363504Y-123460227D01*
X125306621Y-123478282D01*
X125239527Y-123490839D01*
X125158565Y-123498522D01*
X125060082Y-123501953D01*
X125025286Y-123502251D01*
X124859594Y-123502845D01*
X124836197Y-123473100D01*
X124829257Y-123463319D01*
X124823842Y-123451897D01*
X124819765Y-123436095D01*
X124816837Y-123413175D01*
X124814867Y-123380396D01*
X124814225Y-123356089D01*
X124970844Y-123356089D01*
X125064726Y-123356089D01*
X125119664Y-123354483D01*
X125176060Y-123350255D01*
X125222345Y-123344292D01*
X125225139Y-123343790D01*
X125307348Y-123321736D01*
X125371114Y-123288600D01*
X125418452Y-123242847D01*
X125451382Y-123182939D01*
X125457108Y-123167061D01*
X125462721Y-123142333D01*
X125460291Y-123117902D01*
X125448467Y-123085400D01*
X125441340Y-123069434D01*
X125418000Y-123027006D01*
X125389880Y-122997240D01*
X125358940Y-122976511D01*
X125296966Y-122949537D01*
X125217651Y-122929998D01*
X125125253Y-122918746D01*
X125058333Y-122916270D01*
X124970844Y-122915822D01*
X124970844Y-123356089D01*
X124814225Y-123356089D01*
X124813668Y-123335021D01*
X124813050Y-123274311D01*
X124812825Y-123195526D01*
X124812800Y-123133920D01*
X124812800Y-122824485D01*
X124840509Y-122796776D01*
X124852806Y-122785544D01*
X124866103Y-122777853D01*
X124884672Y-122773040D01*
X124912786Y-122770446D01*
X124954717Y-122769410D01*
X125014737Y-122769270D01*
X125018309Y-122769275D01*
X125018309Y-122769275D01*
G37*
X125018309Y-122769275D02*
X125147288Y-122773636D01*
X125256991Y-122786861D01*
X125349226Y-122809741D01*
X125425802Y-122843070D01*
X125488527Y-122887638D01*
X125539212Y-122944236D01*
X125579663Y-123013658D01*
X125580459Y-123015351D01*
X125604601Y-123077483D01*
X125613203Y-123132509D01*
X125606231Y-123187887D01*
X125583654Y-123251073D01*
X125579372Y-123260689D01*
X125550172Y-123316966D01*
X125517356Y-123360451D01*
X125475002Y-123397417D01*
X125417190Y-123434135D01*
X125413831Y-123436052D01*
X125363504Y-123460227D01*
X125306621Y-123478282D01*
X125239527Y-123490839D01*
X125158565Y-123498522D01*
X125060082Y-123501953D01*
X125025286Y-123502251D01*
X124859594Y-123502845D01*
X124836197Y-123473100D01*
X124829257Y-123463319D01*
X124823842Y-123451897D01*
X124819765Y-123436095D01*
X124816837Y-123413175D01*
X124814867Y-123380396D01*
X124814225Y-123356089D01*
X124970844Y-123356089D01*
X125064726Y-123356089D01*
X125119664Y-123354483D01*
X125176060Y-123350255D01*
X125222345Y-123344292D01*
X125225139Y-123343790D01*
X125307348Y-123321736D01*
X125371114Y-123288600D01*
X125418452Y-123242847D01*
X125451382Y-123182939D01*
X125457108Y-123167061D01*
X125462721Y-123142333D01*
X125460291Y-123117902D01*
X125448467Y-123085400D01*
X125441340Y-123069434D01*
X125418000Y-123027006D01*
X125389880Y-122997240D01*
X125358940Y-122976511D01*
X125296966Y-122949537D01*
X125217651Y-122929998D01*
X125125253Y-122918746D01*
X125058333Y-122916270D01*
X124970844Y-122915822D01*
X124970844Y-123356089D01*
X124814225Y-123356089D01*
X124813668Y-123335021D01*
X124813050Y-123274311D01*
X124812825Y-123195526D01*
X124812800Y-123133920D01*
X124812800Y-122824485D01*
X124840509Y-122796776D01*
X124852806Y-122785544D01*
X124866103Y-122777853D01*
X124884672Y-122773040D01*
X124912786Y-122770446D01*
X124954717Y-122769410D01*
X125014737Y-122769270D01*
X125018309Y-122769275D01*
G36*
X127744665Y-122771034D02*
X127764255Y-122778035D01*
X127765010Y-122778377D01*
X127791613Y-122798678D01*
X127806270Y-122819561D01*
X127809138Y-122829352D01*
X127808996Y-122842361D01*
X127804961Y-122860895D01*
X127796146Y-122887257D01*
X127781669Y-122923752D01*
X127760645Y-122972687D01*
X127732188Y-123036365D01*
X127695415Y-123117093D01*
X127675175Y-123161216D01*
X127638625Y-123239985D01*
X127604315Y-123312423D01*
X127573552Y-123375880D01*
X127547648Y-123427708D01*
X127527910Y-123465259D01*
X127515650Y-123485884D01*
X127513224Y-123488733D01*
X127482183Y-123501302D01*
X127447121Y-123499619D01*
X127419000Y-123484332D01*
X127417854Y-123483089D01*
X127406668Y-123466154D01*
X127387904Y-123433170D01*
X127363875Y-123388380D01*
X127336897Y-123336032D01*
X127327201Y-123316742D01*
X127254014Y-123170150D01*
X127174240Y-123329393D01*
X127145767Y-123384415D01*
X127119350Y-123432132D01*
X127097148Y-123468893D01*
X127081319Y-123491044D01*
X127075954Y-123495741D01*
X127034257Y-123502102D01*
X126999849Y-123488733D01*
X126989728Y-123474446D01*
X126972214Y-123442692D01*
X126948735Y-123396597D01*
X126920720Y-123339285D01*
X126889599Y-123273880D01*
X126856799Y-123203507D01*
X126823750Y-123131291D01*
X126791881Y-123060355D01*
X126762619Y-122993825D01*
X126737395Y-122934826D01*
X126717636Y-122886481D01*
X126704772Y-122851915D01*
X126700231Y-122834253D01*
X126700277Y-122833613D01*
X126711326Y-122811388D01*
X126733410Y-122788753D01*
X126734710Y-122787768D01*
X126761853Y-122772425D01*
X126786958Y-122772574D01*
X126796368Y-122775466D01*
X126807834Y-122781718D01*
X126820010Y-122794014D01*
X126834357Y-122814908D01*
X126852336Y-122846949D01*
X126875407Y-122892688D01*
X126905030Y-122954677D01*
X126931745Y-123011898D01*
X126962480Y-123078226D01*
X126990021Y-123137874D01*
X127012938Y-123187725D01*
X127029798Y-123224664D01*
X127039173Y-123245573D01*
X127040540Y-123248845D01*
X127046689Y-123243497D01*
X127060822Y-123221109D01*
X127081057Y-123184946D01*
X127105515Y-123138277D01*
X127115248Y-123119022D01*
X127148217Y-123054004D01*
X127173643Y-123006654D01*
X127193612Y-122974219D01*
X127210210Y-122953946D01*
X127225524Y-122943082D01*
X127241640Y-122938875D01*
X127252143Y-122938400D01*
X127270670Y-122940042D01*
X127286904Y-122946831D01*
X127303035Y-122961566D01*
X127321251Y-122987044D01*
X127343739Y-123026061D01*
X127372689Y-123081414D01*
X127388662Y-123112903D01*
X127414570Y-123163087D01*
X127437167Y-123204704D01*
X127454458Y-123234242D01*
X127464450Y-123248189D01*
X127465809Y-123248770D01*
X127472261Y-123237793D01*
X127486708Y-123209290D01*
X127507703Y-123166244D01*
X127533797Y-123111638D01*
X127563546Y-123048454D01*
X127578180Y-123017071D01*
X127616250Y-122936078D01*
X127646905Y-122873756D01*
X127671737Y-122828071D01*
X127692337Y-122796989D01*
X127710298Y-122778478D01*
X127727210Y-122770504D01*
X127744665Y-122771034D01*
X127744665Y-122771034D01*
G37*
X127744665Y-122771034D02*
X127764255Y-122778035D01*
X127765010Y-122778377D01*
X127791613Y-122798678D01*
X127806270Y-122819561D01*
X127809138Y-122829352D01*
X127808996Y-122842361D01*
X127804961Y-122860895D01*
X127796146Y-122887257D01*
X127781669Y-122923752D01*
X127760645Y-122972687D01*
X127732188Y-123036365D01*
X127695415Y-123117093D01*
X127675175Y-123161216D01*
X127638625Y-123239985D01*
X127604315Y-123312423D01*
X127573552Y-123375880D01*
X127547648Y-123427708D01*
X127527910Y-123465259D01*
X127515650Y-123485884D01*
X127513224Y-123488733D01*
X127482183Y-123501302D01*
X127447121Y-123499619D01*
X127419000Y-123484332D01*
X127417854Y-123483089D01*
X127406668Y-123466154D01*
X127387904Y-123433170D01*
X127363875Y-123388380D01*
X127336897Y-123336032D01*
X127327201Y-123316742D01*
X127254014Y-123170150D01*
X127174240Y-123329393D01*
X127145767Y-123384415D01*
X127119350Y-123432132D01*
X127097148Y-123468893D01*
X127081319Y-123491044D01*
X127075954Y-123495741D01*
X127034257Y-123502102D01*
X126999849Y-123488733D01*
X126989728Y-123474446D01*
X126972214Y-123442692D01*
X126948735Y-123396597D01*
X126920720Y-123339285D01*
X126889599Y-123273880D01*
X126856799Y-123203507D01*
X126823750Y-123131291D01*
X126791881Y-123060355D01*
X126762619Y-122993825D01*
X126737395Y-122934826D01*
X126717636Y-122886481D01*
X126704772Y-122851915D01*
X126700231Y-122834253D01*
X126700277Y-122833613D01*
X126711326Y-122811388D01*
X126733410Y-122788753D01*
X126734710Y-122787768D01*
X126761853Y-122772425D01*
X126786958Y-122772574D01*
X126796368Y-122775466D01*
X126807834Y-122781718D01*
X126820010Y-122794014D01*
X126834357Y-122814908D01*
X126852336Y-122846949D01*
X126875407Y-122892688D01*
X126905030Y-122954677D01*
X126931745Y-123011898D01*
X126962480Y-123078226D01*
X126990021Y-123137874D01*
X127012938Y-123187725D01*
X127029798Y-123224664D01*
X127039173Y-123245573D01*
X127040540Y-123248845D01*
X127046689Y-123243497D01*
X127060822Y-123221109D01*
X127081057Y-123184946D01*
X127105515Y-123138277D01*
X127115248Y-123119022D01*
X127148217Y-123054004D01*
X127173643Y-123006654D01*
X127193612Y-122974219D01*
X127210210Y-122953946D01*
X127225524Y-122943082D01*
X127241640Y-122938875D01*
X127252143Y-122938400D01*
X127270670Y-122940042D01*
X127286904Y-122946831D01*
X127303035Y-122961566D01*
X127321251Y-122987044D01*
X127343739Y-123026061D01*
X127372689Y-123081414D01*
X127388662Y-123112903D01*
X127414570Y-123163087D01*
X127437167Y-123204704D01*
X127454458Y-123234242D01*
X127464450Y-123248189D01*
X127465809Y-123248770D01*
X127472261Y-123237793D01*
X127486708Y-123209290D01*
X127507703Y-123166244D01*
X127533797Y-123111638D01*
X127563546Y-123048454D01*
X127578180Y-123017071D01*
X127616250Y-122936078D01*
X127646905Y-122873756D01*
X127671737Y-122828071D01*
X127692337Y-122796989D01*
X127710298Y-122778478D01*
X127727210Y-122770504D01*
X127744665Y-122771034D01*
G36*
X128188614Y-122775877D02*
X128212327Y-122790647D01*
X128238978Y-122812227D01*
X128238978Y-123133773D01*
X128238893Y-123227830D01*
X128238529Y-123301932D01*
X128237724Y-123358704D01*
X128236313Y-123400768D01*
X128234133Y-123430748D01*
X128231021Y-123451267D01*
X128226814Y-123464949D01*
X128221348Y-123474416D01*
X128217472Y-123479082D01*
X128186034Y-123499575D01*
X128150233Y-123498739D01*
X128118873Y-123481264D01*
X128092222Y-123459684D01*
X128092222Y-122812227D01*
X128118873Y-122790647D01*
X128144594Y-122774949D01*
X128165600Y-122769067D01*
X128188614Y-122775877D01*
X128188614Y-122775877D01*
G37*
X128188614Y-122775877D02*
X128212327Y-122790647D01*
X128238978Y-122812227D01*
X128238978Y-123133773D01*
X128238893Y-123227830D01*
X128238529Y-123301932D01*
X128237724Y-123358704D01*
X128236313Y-123400768D01*
X128234133Y-123430748D01*
X128231021Y-123451267D01*
X128226814Y-123464949D01*
X128221348Y-123474416D01*
X128217472Y-123479082D01*
X128186034Y-123499575D01*
X128150233Y-123498739D01*
X128118873Y-123481264D01*
X128092222Y-123459684D01*
X128092222Y-122812227D01*
X128118873Y-122790647D01*
X128144594Y-122774949D01*
X128165600Y-122769067D01*
X128188614Y-122775877D01*
G36*
X128963065Y-122769163D02*
X129041772Y-122769542D01*
X129102863Y-122770333D01*
X129148817Y-122771670D01*
X129182114Y-122773683D01*
X129205236Y-122776506D01*
X129220662Y-122780269D01*
X129230871Y-122785105D01*
X129235813Y-122788822D01*
X129261457Y-122821358D01*
X129264559Y-122855138D01*
X129248711Y-122885826D01*
X129238348Y-122898089D01*
X129227196Y-122906450D01*
X129211035Y-122911657D01*
X129185642Y-122914457D01*
X129146798Y-122915596D01*
X129090280Y-122915821D01*
X129079180Y-122915822D01*
X128933244Y-122915822D01*
X128933244Y-123186756D01*
X128933148Y-123272154D01*
X128932711Y-123337864D01*
X128931712Y-123386774D01*
X128929928Y-123421773D01*
X128927137Y-123445749D01*
X128923117Y-123461593D01*
X128917645Y-123472191D01*
X128910666Y-123480267D01*
X128877734Y-123500112D01*
X128843354Y-123498548D01*
X128812176Y-123475906D01*
X128809886Y-123473100D01*
X128802429Y-123462492D01*
X128796747Y-123450081D01*
X128792601Y-123432850D01*
X128789750Y-123407784D01*
X128787954Y-123371867D01*
X128786972Y-123322083D01*
X128786564Y-123255417D01*
X128786489Y-123179589D01*
X128786489Y-122915822D01*
X128647127Y-122915822D01*
X128587322Y-122915418D01*
X128545918Y-122913840D01*
X128518748Y-122910547D01*
X128501646Y-122904992D01*
X128490443Y-122896631D01*
X128489083Y-122895178D01*
X128472725Y-122861939D01*
X128474172Y-122824362D01*
X128492978Y-122791645D01*
X128500250Y-122785298D01*
X128509627Y-122780266D01*
X128523609Y-122776396D01*
X128544696Y-122773537D01*
X128575389Y-122771535D01*
X128618189Y-122770239D01*
X128675595Y-122769498D01*
X128750110Y-122769158D01*
X128844233Y-122769068D01*
X128864260Y-122769067D01*
X128963065Y-122769163D01*
X128963065Y-122769163D01*
G37*
X128963065Y-122769163D02*
X129041772Y-122769542D01*
X129102863Y-122770333D01*
X129148817Y-122771670D01*
X129182114Y-122773683D01*
X129205236Y-122776506D01*
X129220662Y-122780269D01*
X129230871Y-122785105D01*
X129235813Y-122788822D01*
X129261457Y-122821358D01*
X129264559Y-122855138D01*
X129248711Y-122885826D01*
X129238348Y-122898089D01*
X129227196Y-122906450D01*
X129211035Y-122911657D01*
X129185642Y-122914457D01*
X129146798Y-122915596D01*
X129090280Y-122915821D01*
X129079180Y-122915822D01*
X128933244Y-122915822D01*
X128933244Y-123186756D01*
X128933148Y-123272154D01*
X128932711Y-123337864D01*
X128931712Y-123386774D01*
X128929928Y-123421773D01*
X128927137Y-123445749D01*
X128923117Y-123461593D01*
X128917645Y-123472191D01*
X128910666Y-123480267D01*
X128877734Y-123500112D01*
X128843354Y-123498548D01*
X128812176Y-123475906D01*
X128809886Y-123473100D01*
X128802429Y-123462492D01*
X128796747Y-123450081D01*
X128792601Y-123432850D01*
X128789750Y-123407784D01*
X128787954Y-123371867D01*
X128786972Y-123322083D01*
X128786564Y-123255417D01*
X128786489Y-123179589D01*
X128786489Y-122915822D01*
X128647127Y-122915822D01*
X128587322Y-122915418D01*
X128545918Y-122913840D01*
X128518748Y-122910547D01*
X128501646Y-122904992D01*
X128490443Y-122896631D01*
X128489083Y-122895178D01*
X128472725Y-122861939D01*
X128474172Y-122824362D01*
X128492978Y-122791645D01*
X128500250Y-122785298D01*
X128509627Y-122780266D01*
X128523609Y-122776396D01*
X128544696Y-122773537D01*
X128575389Y-122771535D01*
X128618189Y-122770239D01*
X128675595Y-122769498D01*
X128750110Y-122769158D01*
X128844233Y-122769068D01*
X128864260Y-122769067D01*
X128963065Y-122769163D01*
G36*
X130228823Y-122774533D02*
X130260202Y-122796776D01*
X130287911Y-122824485D01*
X130287911Y-123133920D01*
X130287838Y-123225799D01*
X130287495Y-123297840D01*
X130286692Y-123352780D01*
X130285241Y-123393360D01*
X130282952Y-123422317D01*
X130279636Y-123442391D01*
X130275105Y-123456321D01*
X130269169Y-123466845D01*
X130264514Y-123473100D01*
X130233783Y-123497673D01*
X130198496Y-123500341D01*
X130166245Y-123485271D01*
X130155588Y-123476374D01*
X130148464Y-123464557D01*
X130144167Y-123445526D01*
X130141991Y-123414992D01*
X130141228Y-123368662D01*
X130141155Y-123332871D01*
X130141155Y-123198045D01*
X129644444Y-123198045D01*
X129644444Y-123320700D01*
X129643931Y-123376787D01*
X129641876Y-123415333D01*
X129637508Y-123441361D01*
X129630056Y-123459897D01*
X129621047Y-123473100D01*
X129590144Y-123497604D01*
X129555196Y-123500506D01*
X129521738Y-123483089D01*
X129512604Y-123473959D01*
X129506152Y-123461855D01*
X129501897Y-123443001D01*
X129499352Y-123413620D01*
X129498029Y-123369937D01*
X129497443Y-123308175D01*
X129497375Y-123294000D01*
X129496891Y-123177631D01*
X129496641Y-123081727D01*
X129496723Y-123004177D01*
X129497231Y-122942869D01*
X129498262Y-122895690D01*
X129499913Y-122860530D01*
X129502279Y-122835276D01*
X129505457Y-122817817D01*
X129509544Y-122806041D01*
X129514634Y-122797835D01*
X129520266Y-122791645D01*
X129552128Y-122771844D01*
X129585357Y-122774533D01*
X129616735Y-122796776D01*
X129629433Y-122811126D01*
X129637526Y-122826978D01*
X129642042Y-122849554D01*
X129644006Y-122884078D01*
X129644444Y-122935776D01*
X129644444Y-123051289D01*
X130141155Y-123051289D01*
X130141155Y-122932756D01*
X130141662Y-122878148D01*
X130143698Y-122841275D01*
X130148035Y-122817307D01*
X130155447Y-122801415D01*
X130163733Y-122791645D01*
X130195594Y-122771844D01*
X130228823Y-122774533D01*
X130228823Y-122774533D01*
G37*
X130228823Y-122774533D02*
X130260202Y-122796776D01*
X130287911Y-122824485D01*
X130287911Y-123133920D01*
X130287838Y-123225799D01*
X130287495Y-123297840D01*
X130286692Y-123352780D01*
X130285241Y-123393360D01*
X130282952Y-123422317D01*
X130279636Y-123442391D01*
X130275105Y-123456321D01*
X130269169Y-123466845D01*
X130264514Y-123473100D01*
X130233783Y-123497673D01*
X130198496Y-123500341D01*
X130166245Y-123485271D01*
X130155588Y-123476374D01*
X130148464Y-123464557D01*
X130144167Y-123445526D01*
X130141991Y-123414992D01*
X130141228Y-123368662D01*
X130141155Y-123332871D01*
X130141155Y-123198045D01*
X129644444Y-123198045D01*
X129644444Y-123320700D01*
X129643931Y-123376787D01*
X129641876Y-123415333D01*
X129637508Y-123441361D01*
X129630056Y-123459897D01*
X129621047Y-123473100D01*
X129590144Y-123497604D01*
X129555196Y-123500506D01*
X129521738Y-123483089D01*
X129512604Y-123473959D01*
X129506152Y-123461855D01*
X129501897Y-123443001D01*
X129499352Y-123413620D01*
X129498029Y-123369937D01*
X129497443Y-123308175D01*
X129497375Y-123294000D01*
X129496891Y-123177631D01*
X129496641Y-123081727D01*
X129496723Y-123004177D01*
X129497231Y-122942869D01*
X129498262Y-122895690D01*
X129499913Y-122860530D01*
X129502279Y-122835276D01*
X129505457Y-122817817D01*
X129509544Y-122806041D01*
X129514634Y-122797835D01*
X129520266Y-122791645D01*
X129552128Y-122771844D01*
X129585357Y-122774533D01*
X129616735Y-122796776D01*
X129629433Y-122811126D01*
X129637526Y-122826978D01*
X129642042Y-122849554D01*
X129644006Y-122884078D01*
X129644444Y-122935776D01*
X129644444Y-123051289D01*
X130141155Y-123051289D01*
X130141155Y-122932756D01*
X130141662Y-122878148D01*
X130143698Y-122841275D01*
X130148035Y-122817307D01*
X130155447Y-122801415D01*
X130163733Y-122791645D01*
X130195594Y-122771844D01*
X130228823Y-122774533D01*
G36*
X121053600Y-117989054D02*
X121064465Y-118102993D01*
X121096082Y-118210616D01*
X121146985Y-118309615D01*
X121215707Y-118397684D01*
X121300781Y-118472516D01*
X121397768Y-118530384D01*
X121504036Y-118570005D01*
X121611050Y-118588573D01*
X121716700Y-118587434D01*
X121818875Y-118567930D01*
X121915466Y-118531406D01*
X122004362Y-118479205D01*
X122083454Y-118412673D01*
X122150631Y-118333152D01*
X122203783Y-118241987D01*
X122240801Y-118140523D01*
X122259573Y-118030102D01*
X122261511Y-117980206D01*
X122261511Y-117892267D01*
X122313440Y-117892267D01*
X122349747Y-117895111D01*
X122376645Y-117906911D01*
X122403751Y-117930649D01*
X122442133Y-117969031D01*
X122442133Y-120160602D01*
X122442124Y-120422739D01*
X122442092Y-120663241D01*
X122442028Y-120883048D01*
X122441924Y-121083101D01*
X122441773Y-121264344D01*
X122441566Y-121427716D01*
X122441294Y-121574160D01*
X122440950Y-121704617D01*
X122440526Y-121820029D01*
X122440013Y-121921338D01*
X122439403Y-122009484D01*
X122438688Y-122085410D01*
X122437860Y-122150057D01*
X122436911Y-122204367D01*
X122435833Y-122249280D01*
X122434617Y-122285740D01*
X122433255Y-122314687D01*
X122431739Y-122337063D01*
X122430062Y-122353809D01*
X122428214Y-122365868D01*
X122426187Y-122374180D01*
X122423975Y-122379687D01*
X122422892Y-122381537D01*
X122418729Y-122388549D01*
X122415195Y-122394996D01*
X122411365Y-122400900D01*
X122406318Y-122406286D01*
X122399129Y-122411178D01*
X122388877Y-122415598D01*
X122374636Y-122419572D01*
X122355486Y-122423121D01*
X122330501Y-122426270D01*
X122298760Y-122429042D01*
X122259338Y-122431461D01*
X122211314Y-122433551D01*
X122153763Y-122435335D01*
X122085763Y-122436837D01*
X122006390Y-122438080D01*
X121914721Y-122439089D01*
X121809834Y-122439885D01*
X121690804Y-122440494D01*
X121556710Y-122440939D01*
X121406627Y-122441243D01*
X121239633Y-122441430D01*
X121054804Y-122441524D01*
X120851217Y-122441548D01*
X120627950Y-122441525D01*
X120384078Y-122441480D01*
X120118679Y-122441437D01*
X120080296Y-122441432D01*
X119813318Y-122441389D01*
X119567998Y-122441318D01*
X119343417Y-122441213D01*
X119138655Y-122441066D01*
X118952794Y-122440869D01*
X118784912Y-122440616D01*
X118634092Y-122440300D01*
X118499413Y-122439913D01*
X118379956Y-122439447D01*
X118274801Y-122438897D01*
X118183029Y-122438253D01*
X118103721Y-122437511D01*
X118035957Y-122436661D01*
X117978818Y-122435697D01*
X117931383Y-122434611D01*
X117892734Y-122433397D01*
X117861951Y-122432047D01*
X117838115Y-122430555D01*
X117820306Y-122428911D01*
X117807605Y-122427111D01*
X117799092Y-122425145D01*
X117794734Y-122423477D01*
X117786272Y-122419906D01*
X117778503Y-122417270D01*
X117771398Y-122414634D01*
X117764927Y-122411062D01*
X117759061Y-122405621D01*
X117753771Y-122397375D01*
X117749026Y-122385390D01*
X117744798Y-122368731D01*
X117741057Y-122346463D01*
X117737773Y-122317652D01*
X117734917Y-122281363D01*
X117732460Y-122236661D01*
X117730371Y-122182611D01*
X117728622Y-122118279D01*
X117727183Y-122042730D01*
X117726024Y-121955030D01*
X117725117Y-121854243D01*
X117724431Y-121739434D01*
X117723937Y-121609670D01*
X117723605Y-121464015D01*
X117723407Y-121301535D01*
X117723313Y-121121295D01*
X117723292Y-120922360D01*
X117723315Y-120703796D01*
X117723354Y-120464668D01*
X117723378Y-120204040D01*
X117723378Y-120161889D01*
X117723364Y-119898992D01*
X117723339Y-119657732D01*
X117723329Y-119437165D01*
X117723358Y-119236352D01*
X117723452Y-119054349D01*
X117723638Y-118890216D01*
X117723941Y-118743011D01*
X117724386Y-118611792D01*
X117724966Y-118501867D01*
X118027803Y-118501867D01*
X118067593Y-118559711D01*
X118078764Y-118575479D01*
X118088834Y-118589441D01*
X118097862Y-118602784D01*
X118105903Y-118616693D01*
X118113014Y-118632356D01*
X118119253Y-118650958D01*
X118124675Y-118673686D01*
X118129338Y-118701727D01*
X118133299Y-118736267D01*
X118136615Y-118778492D01*
X118139341Y-118829589D01*
X118141536Y-118890744D01*
X118143255Y-118963144D01*
X118144556Y-119047975D01*
X118145495Y-119146422D01*
X118146130Y-119259674D01*
X118146516Y-119388916D01*
X118146712Y-119535334D01*
X118146773Y-119700116D01*
X118146757Y-119884447D01*
X118146720Y-120089513D01*
X118146711Y-120212133D01*
X118146735Y-120429082D01*
X118146769Y-120624642D01*
X118146757Y-120799999D01*
X118146642Y-120956341D01*
X118146370Y-121094857D01*
X118145882Y-121216734D01*
X118145124Y-121323160D01*
X118144038Y-121415322D01*
X118142569Y-121494409D01*
X118140660Y-121561608D01*
X118138256Y-121618107D01*
X118135299Y-121665093D01*
X118131734Y-121703755D01*
X118127505Y-121735280D01*
X118122554Y-121760855D01*
X118116827Y-121781670D01*
X118110267Y-121798911D01*
X118102817Y-121813765D01*
X118094421Y-121827422D01*
X118085024Y-121841069D01*
X118074568Y-121855893D01*
X118068477Y-121864783D01*
X118029704Y-121922400D01*
X118561268Y-121922400D01*
X118684517Y-121922365D01*
X118787013Y-121922215D01*
X118870580Y-121921878D01*
X118937044Y-121921286D01*
X118988229Y-121920367D01*
X119025959Y-121919051D01*
X119052060Y-121917269D01*
X119068356Y-121914951D01*
X119076672Y-121912026D01*
X119078832Y-121908424D01*
X119076661Y-121904075D01*
X119075465Y-121902645D01*
X119050315Y-121865573D01*
X119024417Y-121812772D01*
X119000808Y-121750770D01*
X118992539Y-121724357D01*
X118987922Y-121706416D01*
X118984021Y-121685355D01*
X118980752Y-121659089D01*
X118978034Y-121625532D01*
X118975785Y-121582599D01*
X118973923Y-121528204D01*
X118972364Y-121460262D01*
X118971028Y-121376688D01*
X118969831Y-121275395D01*
X118968692Y-121154300D01*
X118968315Y-121109600D01*
X118967298Y-120984449D01*
X118966540Y-120880082D01*
X118966097Y-120794707D01*
X118966030Y-120726533D01*
X118966395Y-120673765D01*
X118967252Y-120634614D01*
X118968659Y-120607285D01*
X118970675Y-120589986D01*
X118973357Y-120580926D01*
X118976764Y-120578312D01*
X118980956Y-120580351D01*
X118985429Y-120584667D01*
X118995784Y-120597602D01*
X119017842Y-120626676D01*
X119050043Y-120669759D01*
X119090826Y-120724718D01*
X119138630Y-120789423D01*
X119191895Y-120861742D01*
X119249060Y-120939544D01*
X119308563Y-121020698D01*
X119368845Y-121103072D01*
X119428345Y-121184536D01*
X119485502Y-121262957D01*
X119538755Y-121336204D01*
X119586543Y-121402147D01*
X119627307Y-121458654D01*
X119659484Y-121503593D01*
X119681515Y-121534834D01*
X119686083Y-121541466D01*
X119709004Y-121578369D01*
X119735812Y-121626359D01*
X119761211Y-121675897D01*
X119764432Y-121682577D01*
X119786110Y-121730772D01*
X119798696Y-121768334D01*
X119804426Y-121804160D01*
X119805544Y-121846200D01*
X119804910Y-121922400D01*
X120959349Y-121922400D01*
X120868185Y-121828669D01*
X120821388Y-121778775D01*
X120771101Y-121722295D01*
X120725056Y-121668026D01*
X120704631Y-121642673D01*
X120674193Y-121603128D01*
X120634138Y-121549916D01*
X120585639Y-121484667D01*
X120529865Y-121409011D01*
X120467989Y-121324577D01*
X120401181Y-121232994D01*
X120330613Y-121135892D01*
X120257455Y-121034901D01*
X120182879Y-120931650D01*
X120108056Y-120827768D01*
X120034157Y-120724885D01*
X119962354Y-120624631D01*
X119893816Y-120528636D01*
X119829716Y-120438527D01*
X119771225Y-120355936D01*
X119719514Y-120282492D01*
X119675753Y-120219824D01*
X119641115Y-120169561D01*
X119616770Y-120133334D01*
X119603889Y-120112771D01*
X119602131Y-120108668D01*
X119610090Y-120097342D01*
X119630885Y-120070162D01*
X119663153Y-120028829D01*
X119705530Y-119975044D01*
X119756653Y-119910506D01*
X119815159Y-119836918D01*
X119879686Y-119755978D01*
X119948869Y-119669388D01*
X120021347Y-119578848D01*
X120095754Y-119486060D01*
X120155483Y-119411702D01*
X121166489Y-119411702D01*
X121172398Y-119424659D01*
X121186728Y-119446908D01*
X121187775Y-119448391D01*
X121206562Y-119478544D01*
X121226209Y-119515375D01*
X121230108Y-119523511D01*
X121233644Y-119531940D01*
X121236770Y-119542059D01*
X121239514Y-119555260D01*
X121241908Y-119572938D01*
X121243981Y-119596484D01*
X121245765Y-119627293D01*
X121247288Y-119666757D01*
X121248581Y-119716269D01*
X121249674Y-119777223D01*
X121250597Y-119851011D01*
X121251381Y-119939028D01*
X121252055Y-120042665D01*
X121252650Y-120163316D01*
X121253195Y-120302374D01*
X121253721Y-120461232D01*
X121254255Y-120640089D01*
X121254794Y-120825207D01*
X121255228Y-120989145D01*
X121255491Y-121133303D01*
X121255516Y-121259079D01*
X121255235Y-121367871D01*
X121254581Y-121461077D01*
X121253486Y-121540097D01*
X121251882Y-121606328D01*
X121249703Y-121661170D01*
X121246881Y-121706021D01*
X121243349Y-121742278D01*
X121239039Y-121771341D01*
X121233883Y-121794609D01*
X121227815Y-121813479D01*
X121220767Y-121829351D01*
X121212671Y-121843622D01*
X121203460Y-121857691D01*
X121194960Y-121870158D01*
X121177824Y-121896452D01*
X121167678Y-121914037D01*
X121166489Y-121917257D01*
X121177396Y-121918334D01*
X121208589Y-121919335D01*
X121257777Y-121920235D01*
X121322667Y-121921010D01*
X121400970Y-121921637D01*
X121490393Y-121922091D01*
X121588644Y-121922349D01*
X121657555Y-121922400D01*
X121762548Y-121922180D01*
X121859390Y-121921548D01*
X121945893Y-121920549D01*
X122019868Y-121919227D01*
X122079126Y-121917626D01*
X122121480Y-121915791D01*
X122144740Y-121913765D01*
X122148622Y-121912493D01*
X122140924Y-121897591D01*
X122132926Y-121889560D01*
X122119754Y-121872434D01*
X122102515Y-121842183D01*
X122090593Y-121817622D01*
X122063955Y-121758711D01*
X122060880Y-120581845D01*
X122057805Y-119404978D01*
X121612147Y-119404978D01*
X121514330Y-119405142D01*
X121423936Y-119405611D01*
X121343370Y-119406347D01*
X121275038Y-119407316D01*
X121221344Y-119408480D01*
X121184695Y-119409803D01*
X121167496Y-119411249D01*
X121166489Y-119411702D01*
X120155483Y-119411702D01*
X120170730Y-119392722D01*
X120244910Y-119300537D01*
X120316931Y-119211204D01*
X120385431Y-119126424D01*
X120449045Y-119047898D01*
X120506412Y-118977326D01*
X120556167Y-118916409D01*
X120596948Y-118866847D01*
X120614112Y-118846178D01*
X120700404Y-118745516D01*
X120777003Y-118662259D01*
X120845817Y-118594438D01*
X120908752Y-118540089D01*
X120918133Y-118532722D01*
X120957644Y-118502117D01*
X119825884Y-118501867D01*
X119831173Y-118549844D01*
X119827870Y-118607188D01*
X119806339Y-118675463D01*
X119766365Y-118755212D01*
X119721057Y-118827495D01*
X119704839Y-118850140D01*
X119676786Y-118887696D01*
X119638570Y-118938021D01*
X119591863Y-118998973D01*
X119538339Y-119068411D01*
X119479669Y-119144194D01*
X119417525Y-119224180D01*
X119353579Y-119306228D01*
X119289505Y-119388196D01*
X119226973Y-119467943D01*
X119167657Y-119543327D01*
X119113229Y-119612207D01*
X119065361Y-119672442D01*
X119025725Y-119721889D01*
X118995994Y-119758408D01*
X118977839Y-119779858D01*
X118974780Y-119783156D01*
X118971921Y-119775149D01*
X118969707Y-119744855D01*
X118968143Y-119692556D01*
X118967233Y-119618531D01*
X118966980Y-119523063D01*
X118967387Y-119406434D01*
X118968296Y-119286445D01*
X118969618Y-119154333D01*
X118971143Y-119042594D01*
X118973119Y-118949025D01*
X118975794Y-118871419D01*
X118979418Y-118807574D01*
X118984239Y-118755283D01*
X118990506Y-118712344D01*
X118998468Y-118676551D01*
X119008373Y-118645700D01*
X119020469Y-118617586D01*
X119035007Y-118590005D01*
X119049689Y-118564966D01*
X119087686Y-118501867D01*
X118027803Y-118501867D01*
X117724966Y-118501867D01*
X117724999Y-118495617D01*
X117725805Y-118393544D01*
X117726830Y-118304633D01*
X117728100Y-118227941D01*
X117729640Y-118162527D01*
X117731476Y-118107449D01*
X117733633Y-118061765D01*
X117736137Y-118024534D01*
X117739013Y-117994813D01*
X117742287Y-117971662D01*
X117745985Y-117954139D01*
X117750131Y-117941301D01*
X117754753Y-117932208D01*
X117759874Y-117925918D01*
X117765522Y-117921488D01*
X117771721Y-117917978D01*
X117778496Y-117914445D01*
X117784492Y-117910876D01*
X117789725Y-117908300D01*
X117797901Y-117905972D01*
X117810114Y-117903878D01*
X117827459Y-117902007D01*
X117851031Y-117900347D01*
X117881923Y-117898884D01*
X117921232Y-117897608D01*
X117970050Y-117896504D01*
X118029473Y-117895561D01*
X118100596Y-117894767D01*
X118184512Y-117894109D01*
X118282317Y-117893575D01*
X118395106Y-117893153D01*
X118523971Y-117892829D01*
X118670009Y-117892592D01*
X118834314Y-117892430D01*
X119017980Y-117892330D01*
X119222103Y-117892280D01*
X119433247Y-117892267D01*
X121053600Y-117892267D01*
X121053600Y-117989054D01*
X121053600Y-117989054D01*
G37*
X121053600Y-117989054D02*
X121064465Y-118102993D01*
X121096082Y-118210616D01*
X121146985Y-118309615D01*
X121215707Y-118397684D01*
X121300781Y-118472516D01*
X121397768Y-118530384D01*
X121504036Y-118570005D01*
X121611050Y-118588573D01*
X121716700Y-118587434D01*
X121818875Y-118567930D01*
X121915466Y-118531406D01*
X122004362Y-118479205D01*
X122083454Y-118412673D01*
X122150631Y-118333152D01*
X122203783Y-118241987D01*
X122240801Y-118140523D01*
X122259573Y-118030102D01*
X122261511Y-117980206D01*
X122261511Y-117892267D01*
X122313440Y-117892267D01*
X122349747Y-117895111D01*
X122376645Y-117906911D01*
X122403751Y-117930649D01*
X122442133Y-117969031D01*
X122442133Y-120160602D01*
X122442124Y-120422739D01*
X122442092Y-120663241D01*
X122442028Y-120883048D01*
X122441924Y-121083101D01*
X122441773Y-121264344D01*
X122441566Y-121427716D01*
X122441294Y-121574160D01*
X122440950Y-121704617D01*
X122440526Y-121820029D01*
X122440013Y-121921338D01*
X122439403Y-122009484D01*
X122438688Y-122085410D01*
X122437860Y-122150057D01*
X122436911Y-122204367D01*
X122435833Y-122249280D01*
X122434617Y-122285740D01*
X122433255Y-122314687D01*
X122431739Y-122337063D01*
X122430062Y-122353809D01*
X122428214Y-122365868D01*
X122426187Y-122374180D01*
X122423975Y-122379687D01*
X122422892Y-122381537D01*
X122418729Y-122388549D01*
X122415195Y-122394996D01*
X122411365Y-122400900D01*
X122406318Y-122406286D01*
X122399129Y-122411178D01*
X122388877Y-122415598D01*
X122374636Y-122419572D01*
X122355486Y-122423121D01*
X122330501Y-122426270D01*
X122298760Y-122429042D01*
X122259338Y-122431461D01*
X122211314Y-122433551D01*
X122153763Y-122435335D01*
X122085763Y-122436837D01*
X122006390Y-122438080D01*
X121914721Y-122439089D01*
X121809834Y-122439885D01*
X121690804Y-122440494D01*
X121556710Y-122440939D01*
X121406627Y-122441243D01*
X121239633Y-122441430D01*
X121054804Y-122441524D01*
X120851217Y-122441548D01*
X120627950Y-122441525D01*
X120384078Y-122441480D01*
X120118679Y-122441437D01*
X120080296Y-122441432D01*
X119813318Y-122441389D01*
X119567998Y-122441318D01*
X119343417Y-122441213D01*
X119138655Y-122441066D01*
X118952794Y-122440869D01*
X118784912Y-122440616D01*
X118634092Y-122440300D01*
X118499413Y-122439913D01*
X118379956Y-122439447D01*
X118274801Y-122438897D01*
X118183029Y-122438253D01*
X118103721Y-122437511D01*
X118035957Y-122436661D01*
X117978818Y-122435697D01*
X117931383Y-122434611D01*
X117892734Y-122433397D01*
X117861951Y-122432047D01*
X117838115Y-122430555D01*
X117820306Y-122428911D01*
X117807605Y-122427111D01*
X117799092Y-122425145D01*
X117794734Y-122423477D01*
X117786272Y-122419906D01*
X117778503Y-122417270D01*
X117771398Y-122414634D01*
X117764927Y-122411062D01*
X117759061Y-122405621D01*
X117753771Y-122397375D01*
X117749026Y-122385390D01*
X117744798Y-122368731D01*
X117741057Y-122346463D01*
X117737773Y-122317652D01*
X117734917Y-122281363D01*
X117732460Y-122236661D01*
X117730371Y-122182611D01*
X117728622Y-122118279D01*
X117727183Y-122042730D01*
X117726024Y-121955030D01*
X117725117Y-121854243D01*
X117724431Y-121739434D01*
X117723937Y-121609670D01*
X117723605Y-121464015D01*
X117723407Y-121301535D01*
X117723313Y-121121295D01*
X117723292Y-120922360D01*
X117723315Y-120703796D01*
X117723354Y-120464668D01*
X117723378Y-120204040D01*
X117723378Y-120161889D01*
X117723364Y-119898992D01*
X117723339Y-119657732D01*
X117723329Y-119437165D01*
X117723358Y-119236352D01*
X117723452Y-119054349D01*
X117723638Y-118890216D01*
X117723941Y-118743011D01*
X117724386Y-118611792D01*
X117724966Y-118501867D01*
X118027803Y-118501867D01*
X118067593Y-118559711D01*
X118078764Y-118575479D01*
X118088834Y-118589441D01*
X118097862Y-118602784D01*
X118105903Y-118616693D01*
X118113014Y-118632356D01*
X118119253Y-118650958D01*
X118124675Y-118673686D01*
X118129338Y-118701727D01*
X118133299Y-118736267D01*
X118136615Y-118778492D01*
X118139341Y-118829589D01*
X118141536Y-118890744D01*
X118143255Y-118963144D01*
X118144556Y-119047975D01*
X118145495Y-119146422D01*
X118146130Y-119259674D01*
X118146516Y-119388916D01*
X118146712Y-119535334D01*
X118146773Y-119700116D01*
X118146757Y-119884447D01*
X118146720Y-120089513D01*
X118146711Y-120212133D01*
X118146735Y-120429082D01*
X118146769Y-120624642D01*
X118146757Y-120799999D01*
X118146642Y-120956341D01*
X118146370Y-121094857D01*
X118145882Y-121216734D01*
X118145124Y-121323160D01*
X118144038Y-121415322D01*
X118142569Y-121494409D01*
X118140660Y-121561608D01*
X118138256Y-121618107D01*
X118135299Y-121665093D01*
X118131734Y-121703755D01*
X118127505Y-121735280D01*
X118122554Y-121760855D01*
X118116827Y-121781670D01*
X118110267Y-121798911D01*
X118102817Y-121813765D01*
X118094421Y-121827422D01*
X118085024Y-121841069D01*
X118074568Y-121855893D01*
X118068477Y-121864783D01*
X118029704Y-121922400D01*
X118561268Y-121922400D01*
X118684517Y-121922365D01*
X118787013Y-121922215D01*
X118870580Y-121921878D01*
X118937044Y-121921286D01*
X118988229Y-121920367D01*
X119025959Y-121919051D01*
X119052060Y-121917269D01*
X119068356Y-121914951D01*
X119076672Y-121912026D01*
X119078832Y-121908424D01*
X119076661Y-121904075D01*
X119075465Y-121902645D01*
X119050315Y-121865573D01*
X119024417Y-121812772D01*
X119000808Y-121750770D01*
X118992539Y-121724357D01*
X118987922Y-121706416D01*
X118984021Y-121685355D01*
X118980752Y-121659089D01*
X118978034Y-121625532D01*
X118975785Y-121582599D01*
X118973923Y-121528204D01*
X118972364Y-121460262D01*
X118971028Y-121376688D01*
X118969831Y-121275395D01*
X118968692Y-121154300D01*
X118968315Y-121109600D01*
X118967298Y-120984449D01*
X118966540Y-120880082D01*
X118966097Y-120794707D01*
X118966030Y-120726533D01*
X118966395Y-120673765D01*
X118967252Y-120634614D01*
X118968659Y-120607285D01*
X118970675Y-120589986D01*
X118973357Y-120580926D01*
X118976764Y-120578312D01*
X118980956Y-120580351D01*
X118985429Y-120584667D01*
X118995784Y-120597602D01*
X119017842Y-120626676D01*
X119050043Y-120669759D01*
X119090826Y-120724718D01*
X119138630Y-120789423D01*
X119191895Y-120861742D01*
X119249060Y-120939544D01*
X119308563Y-121020698D01*
X119368845Y-121103072D01*
X119428345Y-121184536D01*
X119485502Y-121262957D01*
X119538755Y-121336204D01*
X119586543Y-121402147D01*
X119627307Y-121458654D01*
X119659484Y-121503593D01*
X119681515Y-121534834D01*
X119686083Y-121541466D01*
X119709004Y-121578369D01*
X119735812Y-121626359D01*
X119761211Y-121675897D01*
X119764432Y-121682577D01*
X119786110Y-121730772D01*
X119798696Y-121768334D01*
X119804426Y-121804160D01*
X119805544Y-121846200D01*
X119804910Y-121922400D01*
X120959349Y-121922400D01*
X120868185Y-121828669D01*
X120821388Y-121778775D01*
X120771101Y-121722295D01*
X120725056Y-121668026D01*
X120704631Y-121642673D01*
X120674193Y-121603128D01*
X120634138Y-121549916D01*
X120585639Y-121484667D01*
X120529865Y-121409011D01*
X120467989Y-121324577D01*
X120401181Y-121232994D01*
X120330613Y-121135892D01*
X120257455Y-121034901D01*
X120182879Y-120931650D01*
X120108056Y-120827768D01*
X120034157Y-120724885D01*
X119962354Y-120624631D01*
X119893816Y-120528636D01*
X119829716Y-120438527D01*
X119771225Y-120355936D01*
X119719514Y-120282492D01*
X119675753Y-120219824D01*
X119641115Y-120169561D01*
X119616770Y-120133334D01*
X119603889Y-120112771D01*
X119602131Y-120108668D01*
X119610090Y-120097342D01*
X119630885Y-120070162D01*
X119663153Y-120028829D01*
X119705530Y-119975044D01*
X119756653Y-119910506D01*
X119815159Y-119836918D01*
X119879686Y-119755978D01*
X119948869Y-119669388D01*
X120021347Y-119578848D01*
X120095754Y-119486060D01*
X120155483Y-119411702D01*
X121166489Y-119411702D01*
X121172398Y-119424659D01*
X121186728Y-119446908D01*
X121187775Y-119448391D01*
X121206562Y-119478544D01*
X121226209Y-119515375D01*
X121230108Y-119523511D01*
X121233644Y-119531940D01*
X121236770Y-119542059D01*
X121239514Y-119555260D01*
X121241908Y-119572938D01*
X121243981Y-119596484D01*
X121245765Y-119627293D01*
X121247288Y-119666757D01*
X121248581Y-119716269D01*
X121249674Y-119777223D01*
X121250597Y-119851011D01*
X121251381Y-119939028D01*
X121252055Y-120042665D01*
X121252650Y-120163316D01*
X121253195Y-120302374D01*
X121253721Y-120461232D01*
X121254255Y-120640089D01*
X121254794Y-120825207D01*
X121255228Y-120989145D01*
X121255491Y-121133303D01*
X121255516Y-121259079D01*
X121255235Y-121367871D01*
X121254581Y-121461077D01*
X121253486Y-121540097D01*
X121251882Y-121606328D01*
X121249703Y-121661170D01*
X121246881Y-121706021D01*
X121243349Y-121742278D01*
X121239039Y-121771341D01*
X121233883Y-121794609D01*
X121227815Y-121813479D01*
X121220767Y-121829351D01*
X121212671Y-121843622D01*
X121203460Y-121857691D01*
X121194960Y-121870158D01*
X121177824Y-121896452D01*
X121167678Y-121914037D01*
X121166489Y-121917257D01*
X121177396Y-121918334D01*
X121208589Y-121919335D01*
X121257777Y-121920235D01*
X121322667Y-121921010D01*
X121400970Y-121921637D01*
X121490393Y-121922091D01*
X121588644Y-121922349D01*
X121657555Y-121922400D01*
X121762548Y-121922180D01*
X121859390Y-121921548D01*
X121945893Y-121920549D01*
X122019868Y-121919227D01*
X122079126Y-121917626D01*
X122121480Y-121915791D01*
X122144740Y-121913765D01*
X122148622Y-121912493D01*
X122140924Y-121897591D01*
X122132926Y-121889560D01*
X122119754Y-121872434D01*
X122102515Y-121842183D01*
X122090593Y-121817622D01*
X122063955Y-121758711D01*
X122060880Y-120581845D01*
X122057805Y-119404978D01*
X121612147Y-119404978D01*
X121514330Y-119405142D01*
X121423936Y-119405611D01*
X121343370Y-119406347D01*
X121275038Y-119407316D01*
X121221344Y-119408480D01*
X121184695Y-119409803D01*
X121167496Y-119411249D01*
X121166489Y-119411702D01*
X120155483Y-119411702D01*
X120170730Y-119392722D01*
X120244910Y-119300537D01*
X120316931Y-119211204D01*
X120385431Y-119126424D01*
X120449045Y-119047898D01*
X120506412Y-118977326D01*
X120556167Y-118916409D01*
X120596948Y-118866847D01*
X120614112Y-118846178D01*
X120700404Y-118745516D01*
X120777003Y-118662259D01*
X120845817Y-118594438D01*
X120908752Y-118540089D01*
X120918133Y-118532722D01*
X120957644Y-118502117D01*
X119825884Y-118501867D01*
X119831173Y-118549844D01*
X119827870Y-118607188D01*
X119806339Y-118675463D01*
X119766365Y-118755212D01*
X119721057Y-118827495D01*
X119704839Y-118850140D01*
X119676786Y-118887696D01*
X119638570Y-118938021D01*
X119591863Y-118998973D01*
X119538339Y-119068411D01*
X119479669Y-119144194D01*
X119417525Y-119224180D01*
X119353579Y-119306228D01*
X119289505Y-119388196D01*
X119226973Y-119467943D01*
X119167657Y-119543327D01*
X119113229Y-119612207D01*
X119065361Y-119672442D01*
X119025725Y-119721889D01*
X118995994Y-119758408D01*
X118977839Y-119779858D01*
X118974780Y-119783156D01*
X118971921Y-119775149D01*
X118969707Y-119744855D01*
X118968143Y-119692556D01*
X118967233Y-119618531D01*
X118966980Y-119523063D01*
X118967387Y-119406434D01*
X118968296Y-119286445D01*
X118969618Y-119154333D01*
X118971143Y-119042594D01*
X118973119Y-118949025D01*
X118975794Y-118871419D01*
X118979418Y-118807574D01*
X118984239Y-118755283D01*
X118990506Y-118712344D01*
X118998468Y-118676551D01*
X119008373Y-118645700D01*
X119020469Y-118617586D01*
X119035007Y-118590005D01*
X119049689Y-118564966D01*
X119087686Y-118501867D01*
X118027803Y-118501867D01*
X117724966Y-118501867D01*
X117724999Y-118495617D01*
X117725805Y-118393544D01*
X117726830Y-118304633D01*
X117728100Y-118227941D01*
X117729640Y-118162527D01*
X117731476Y-118107449D01*
X117733633Y-118061765D01*
X117736137Y-118024534D01*
X117739013Y-117994813D01*
X117742287Y-117971662D01*
X117745985Y-117954139D01*
X117750131Y-117941301D01*
X117754753Y-117932208D01*
X117759874Y-117925918D01*
X117765522Y-117921488D01*
X117771721Y-117917978D01*
X117778496Y-117914445D01*
X117784492Y-117910876D01*
X117789725Y-117908300D01*
X117797901Y-117905972D01*
X117810114Y-117903878D01*
X117827459Y-117902007D01*
X117851031Y-117900347D01*
X117881923Y-117898884D01*
X117921232Y-117897608D01*
X117970050Y-117896504D01*
X118029473Y-117895561D01*
X118100596Y-117894767D01*
X118184512Y-117894109D01*
X118282317Y-117893575D01*
X118395106Y-117893153D01*
X118523971Y-117892829D01*
X118670009Y-117892592D01*
X118834314Y-117892430D01*
X119017980Y-117892330D01*
X119222103Y-117892280D01*
X119433247Y-117892267D01*
X121053600Y-117892267D01*
X121053600Y-117989054D01*
G36*
X124328429Y-118449071D02*
X124488570Y-118470245D01*
X124652510Y-118510385D01*
X124822313Y-118569889D01*
X125000043Y-118649154D01*
X125011310Y-118654699D01*
X125069005Y-118682725D01*
X125120552Y-118706802D01*
X125162191Y-118725249D01*
X125190162Y-118736386D01*
X125199733Y-118738933D01*
X125218950Y-118743941D01*
X125223561Y-118748147D01*
X125218458Y-118758580D01*
X125202418Y-118784868D01*
X125177288Y-118824257D01*
X125144914Y-118873991D01*
X125107143Y-118931315D01*
X125065822Y-118993476D01*
X125022798Y-119057718D01*
X124979917Y-119121285D01*
X124939026Y-119181425D01*
X124901971Y-119235380D01*
X124870600Y-119280397D01*
X124846759Y-119313721D01*
X124832294Y-119332597D01*
X124830309Y-119334787D01*
X124820191Y-119330138D01*
X124797850Y-119312962D01*
X124767280Y-119286440D01*
X124751536Y-119271964D01*
X124655047Y-119196682D01*
X124548336Y-119141241D01*
X124432832Y-119106141D01*
X124309962Y-119091880D01*
X124240561Y-119093051D01*
X124119423Y-119110212D01*
X124010205Y-119146094D01*
X123912582Y-119200959D01*
X123826228Y-119275070D01*
X123750815Y-119368688D01*
X123686018Y-119482076D01*
X123648601Y-119568667D01*
X123604748Y-119704366D01*
X123572428Y-119851850D01*
X123551557Y-120007314D01*
X123542051Y-120166956D01*
X123543827Y-120326973D01*
X123556803Y-120483561D01*
X123580894Y-120632918D01*
X123616018Y-120771240D01*
X123662092Y-120894724D01*
X123678373Y-120928978D01*
X123746620Y-121043064D01*
X123827079Y-121139557D01*
X123918570Y-121217670D01*
X124019911Y-121276617D01*
X124129920Y-121315612D01*
X124247415Y-121333868D01*
X124288883Y-121335211D01*
X124410441Y-121324290D01*
X124530878Y-121291474D01*
X124648666Y-121237439D01*
X124762277Y-121162865D01*
X124853685Y-121084539D01*
X124900215Y-121040008D01*
X125081483Y-121337271D01*
X125126580Y-121411433D01*
X125167819Y-121479646D01*
X125203735Y-121539459D01*
X125232866Y-121588420D01*
X125253750Y-121624079D01*
X125264924Y-121643984D01*
X125266375Y-121647079D01*
X125258146Y-121656718D01*
X125232567Y-121673999D01*
X125192873Y-121697283D01*
X125142297Y-121724934D01*
X125084074Y-121755315D01*
X125021437Y-121786790D01*
X124957621Y-121817722D01*
X124895860Y-121846473D01*
X124839388Y-121871408D01*
X124791438Y-121890889D01*
X124767986Y-121899318D01*
X124634221Y-121937133D01*
X124496327Y-121962136D01*
X124348622Y-121975140D01*
X124221833Y-121977468D01*
X124153878Y-121976373D01*
X124088277Y-121974275D01*
X124030847Y-121971434D01*
X123987403Y-121968106D01*
X123973298Y-121966422D01*
X123834284Y-121937587D01*
X123692757Y-121892468D01*
X123555275Y-121833750D01*
X123428394Y-121764120D01*
X123350889Y-121711441D01*
X123223481Y-121603239D01*
X123105178Y-121476671D01*
X122998172Y-121334866D01*
X122904652Y-121180951D01*
X122826810Y-121018053D01*
X122782956Y-120900756D01*
X122732708Y-120717128D01*
X122699209Y-120522581D01*
X122682449Y-120321325D01*
X122682416Y-120117568D01*
X122699101Y-119915521D01*
X122732493Y-119719392D01*
X122782580Y-119533391D01*
X122786397Y-119521803D01*
X122849281Y-119359750D01*
X122926028Y-119211832D01*
X123019242Y-119073865D01*
X123131527Y-118941661D01*
X123175392Y-118896399D01*
X123311534Y-118772457D01*
X123451491Y-118669915D01*
X123597411Y-118587656D01*
X123751442Y-118524564D01*
X123915732Y-118479523D01*
X124011289Y-118462033D01*
X124170023Y-118446466D01*
X124328429Y-118449071D01*
X124328429Y-118449071D01*
G37*
X124328429Y-118449071D02*
X124488570Y-118470245D01*
X124652510Y-118510385D01*
X124822313Y-118569889D01*
X125000043Y-118649154D01*
X125011310Y-118654699D01*
X125069005Y-118682725D01*
X125120552Y-118706802D01*
X125162191Y-118725249D01*
X125190162Y-118736386D01*
X125199733Y-118738933D01*
X125218950Y-118743941D01*
X125223561Y-118748147D01*
X125218458Y-118758580D01*
X125202418Y-118784868D01*
X125177288Y-118824257D01*
X125144914Y-118873991D01*
X125107143Y-118931315D01*
X125065822Y-118993476D01*
X125022798Y-119057718D01*
X124979917Y-119121285D01*
X124939026Y-119181425D01*
X124901971Y-119235380D01*
X124870600Y-119280397D01*
X124846759Y-119313721D01*
X124832294Y-119332597D01*
X124830309Y-119334787D01*
X124820191Y-119330138D01*
X124797850Y-119312962D01*
X124767280Y-119286440D01*
X124751536Y-119271964D01*
X124655047Y-119196682D01*
X124548336Y-119141241D01*
X124432832Y-119106141D01*
X124309962Y-119091880D01*
X124240561Y-119093051D01*
X124119423Y-119110212D01*
X124010205Y-119146094D01*
X123912582Y-119200959D01*
X123826228Y-119275070D01*
X123750815Y-119368688D01*
X123686018Y-119482076D01*
X123648601Y-119568667D01*
X123604748Y-119704366D01*
X123572428Y-119851850D01*
X123551557Y-120007314D01*
X123542051Y-120166956D01*
X123543827Y-120326973D01*
X123556803Y-120483561D01*
X123580894Y-120632918D01*
X123616018Y-120771240D01*
X123662092Y-120894724D01*
X123678373Y-120928978D01*
X123746620Y-121043064D01*
X123827079Y-121139557D01*
X123918570Y-121217670D01*
X124019911Y-121276617D01*
X124129920Y-121315612D01*
X124247415Y-121333868D01*
X124288883Y-121335211D01*
X124410441Y-121324290D01*
X124530878Y-121291474D01*
X124648666Y-121237439D01*
X124762277Y-121162865D01*
X124853685Y-121084539D01*
X124900215Y-121040008D01*
X125081483Y-121337271D01*
X125126580Y-121411433D01*
X125167819Y-121479646D01*
X125203735Y-121539459D01*
X125232866Y-121588420D01*
X125253750Y-121624079D01*
X125264924Y-121643984D01*
X125266375Y-121647079D01*
X125258146Y-121656718D01*
X125232567Y-121673999D01*
X125192873Y-121697283D01*
X125142297Y-121724934D01*
X125084074Y-121755315D01*
X125021437Y-121786790D01*
X124957621Y-121817722D01*
X124895860Y-121846473D01*
X124839388Y-121871408D01*
X124791438Y-121890889D01*
X124767986Y-121899318D01*
X124634221Y-121937133D01*
X124496327Y-121962136D01*
X124348622Y-121975140D01*
X124221833Y-121977468D01*
X124153878Y-121976373D01*
X124088277Y-121974275D01*
X124030847Y-121971434D01*
X123987403Y-121968106D01*
X123973298Y-121966422D01*
X123834284Y-121937587D01*
X123692757Y-121892468D01*
X123555275Y-121833750D01*
X123428394Y-121764120D01*
X123350889Y-121711441D01*
X123223481Y-121603239D01*
X123105178Y-121476671D01*
X122998172Y-121334866D01*
X122904652Y-121180951D01*
X122826810Y-121018053D01*
X122782956Y-120900756D01*
X122732708Y-120717128D01*
X122699209Y-120522581D01*
X122682449Y-120321325D01*
X122682416Y-120117568D01*
X122699101Y-119915521D01*
X122732493Y-119719392D01*
X122782580Y-119533391D01*
X122786397Y-119521803D01*
X122849281Y-119359750D01*
X122926028Y-119211832D01*
X123019242Y-119073865D01*
X123131527Y-118941661D01*
X123175392Y-118896399D01*
X123311534Y-118772457D01*
X123451491Y-118669915D01*
X123597411Y-118587656D01*
X123751442Y-118524564D01*
X123915732Y-118479523D01*
X124011289Y-118462033D01*
X124170023Y-118446466D01*
X124328429Y-118449071D01*
G36*
X126673574Y-119366552D02*
X126825492Y-119386567D01*
X126960756Y-119420202D01*
X127080239Y-119467725D01*
X127184815Y-119529405D01*
X127262424Y-119592965D01*
X127331265Y-119667099D01*
X127385006Y-119746871D01*
X127427910Y-119839091D01*
X127443384Y-119882161D01*
X127456244Y-119921142D01*
X127467446Y-119957289D01*
X127477120Y-119992434D01*
X127485396Y-120028410D01*
X127492403Y-120067050D01*
X127498272Y-120110185D01*
X127503131Y-120159649D01*
X127507110Y-120217273D01*
X127510340Y-120284891D01*
X127512949Y-120364334D01*
X127515067Y-120457436D01*
X127516824Y-120566027D01*
X127518349Y-120691942D01*
X127519772Y-120837012D01*
X127521025Y-120979778D01*
X127522351Y-121135968D01*
X127523556Y-121271239D01*
X127524766Y-121387246D01*
X127526106Y-121485645D01*
X127527700Y-121568093D01*
X127529675Y-121636246D01*
X127532156Y-121691760D01*
X127535269Y-121736292D01*
X127539138Y-121771498D01*
X127543889Y-121799034D01*
X127549648Y-121820556D01*
X127556539Y-121837722D01*
X127564689Y-121852186D01*
X127574223Y-121865606D01*
X127585266Y-121879638D01*
X127589566Y-121885071D01*
X127605386Y-121907910D01*
X127612422Y-121923463D01*
X127612444Y-121923922D01*
X127601567Y-121926121D01*
X127570582Y-121928147D01*
X127521957Y-121929942D01*
X127458163Y-121931451D01*
X127381669Y-121932616D01*
X127294944Y-121933380D01*
X127200457Y-121933686D01*
X127189550Y-121933689D01*
X126766657Y-121933689D01*
X126763395Y-121837622D01*
X126760133Y-121741556D01*
X126698044Y-121792543D01*
X126600714Y-121860057D01*
X126490813Y-121914749D01*
X126404349Y-121944978D01*
X126335278Y-121959666D01*
X126251925Y-121969659D01*
X126162159Y-121974646D01*
X126073845Y-121974313D01*
X125994851Y-121968351D01*
X125958622Y-121962638D01*
X125818603Y-121924776D01*
X125692178Y-121869932D01*
X125580260Y-121798924D01*
X125483762Y-121712568D01*
X125403600Y-121611679D01*
X125340687Y-121497076D01*
X125296312Y-121370984D01*
X125283978Y-121314401D01*
X125276368Y-121252202D01*
X125272739Y-121177363D01*
X125272245Y-121143467D01*
X125272310Y-121140282D01*
X126032248Y-121140282D01*
X126041541Y-121215333D01*
X126069728Y-121279160D01*
X126118197Y-121334798D01*
X126123254Y-121339211D01*
X126171548Y-121374037D01*
X126223257Y-121396620D01*
X126283989Y-121408540D01*
X126359352Y-121411383D01*
X126377459Y-121410978D01*
X126431278Y-121408325D01*
X126471308Y-121402909D01*
X126506324Y-121392745D01*
X126545103Y-121375850D01*
X126555745Y-121370672D01*
X126616396Y-121334844D01*
X126663215Y-121292212D01*
X126675952Y-121276973D01*
X126720622Y-121220462D01*
X126720622Y-121024586D01*
X126720086Y-120945939D01*
X126718396Y-120887988D01*
X126715428Y-120848875D01*
X126711057Y-120826741D01*
X126706972Y-120820274D01*
X126691047Y-120817111D01*
X126657264Y-120814488D01*
X126610340Y-120812655D01*
X126554993Y-120811857D01*
X126546106Y-120811842D01*
X126425330Y-120817096D01*
X126322660Y-120833263D01*
X126236106Y-120860961D01*
X126163681Y-120900808D01*
X126108751Y-120947758D01*
X126064204Y-121005645D01*
X126039480Y-121068693D01*
X126032248Y-121140282D01*
X125272310Y-121140282D01*
X125274178Y-121049712D01*
X125282522Y-120970812D01*
X125298768Y-120899590D01*
X125324405Y-120828864D01*
X125348401Y-120776493D01*
X125407020Y-120681196D01*
X125485117Y-120593170D01*
X125580315Y-120514017D01*
X125690238Y-120445340D01*
X125812510Y-120388741D01*
X125944755Y-120345821D01*
X126009422Y-120330882D01*
X126145604Y-120308777D01*
X126294049Y-120294194D01*
X126445505Y-120287813D01*
X126572064Y-120289445D01*
X126733950Y-120296224D01*
X126726530Y-120237245D01*
X126707238Y-120138092D01*
X126676104Y-120057372D01*
X126632269Y-119994466D01*
X126574871Y-119948756D01*
X126503048Y-119919622D01*
X126415941Y-119906447D01*
X126312686Y-119908611D01*
X126274711Y-119912612D01*
X126133520Y-119937780D01*
X125996707Y-119978814D01*
X125902178Y-120016815D01*
X125857018Y-120036190D01*
X125818585Y-120051760D01*
X125792234Y-120061405D01*
X125784546Y-120063452D01*
X125774802Y-120054374D01*
X125758083Y-120025405D01*
X125734232Y-119976217D01*
X125703093Y-119906484D01*
X125664507Y-119815879D01*
X125657910Y-119800089D01*
X125627853Y-119727772D01*
X125600874Y-119662425D01*
X125578136Y-119606906D01*
X125560806Y-119564072D01*
X125550048Y-119536781D01*
X125546941Y-119527942D01*
X125556940Y-119523187D01*
X125583217Y-119517910D01*
X125611489Y-119514231D01*
X125641646Y-119509474D01*
X125689433Y-119500028D01*
X125750612Y-119486820D01*
X125820946Y-119470776D01*
X125896194Y-119452820D01*
X125924755Y-119445797D01*
X126029816Y-119420209D01*
X126117480Y-119400147D01*
X126192068Y-119384969D01*
X126257903Y-119374035D01*
X126319307Y-119366704D01*
X126380602Y-119362335D01*
X126446110Y-119360287D01*
X126504128Y-119359889D01*
X126673574Y-119366552D01*
X126673574Y-119366552D01*
G37*
X126673574Y-119366552D02*
X126825492Y-119386567D01*
X126960756Y-119420202D01*
X127080239Y-119467725D01*
X127184815Y-119529405D01*
X127262424Y-119592965D01*
X127331265Y-119667099D01*
X127385006Y-119746871D01*
X127427910Y-119839091D01*
X127443384Y-119882161D01*
X127456244Y-119921142D01*
X127467446Y-119957289D01*
X127477120Y-119992434D01*
X127485396Y-120028410D01*
X127492403Y-120067050D01*
X127498272Y-120110185D01*
X127503131Y-120159649D01*
X127507110Y-120217273D01*
X127510340Y-120284891D01*
X127512949Y-120364334D01*
X127515067Y-120457436D01*
X127516824Y-120566027D01*
X127518349Y-120691942D01*
X127519772Y-120837012D01*
X127521025Y-120979778D01*
X127522351Y-121135968D01*
X127523556Y-121271239D01*
X127524766Y-121387246D01*
X127526106Y-121485645D01*
X127527700Y-121568093D01*
X127529675Y-121636246D01*
X127532156Y-121691760D01*
X127535269Y-121736292D01*
X127539138Y-121771498D01*
X127543889Y-121799034D01*
X127549648Y-121820556D01*
X127556539Y-121837722D01*
X127564689Y-121852186D01*
X127574223Y-121865606D01*
X127585266Y-121879638D01*
X127589566Y-121885071D01*
X127605386Y-121907910D01*
X127612422Y-121923463D01*
X127612444Y-121923922D01*
X127601567Y-121926121D01*
X127570582Y-121928147D01*
X127521957Y-121929942D01*
X127458163Y-121931451D01*
X127381669Y-121932616D01*
X127294944Y-121933380D01*
X127200457Y-121933686D01*
X127189550Y-121933689D01*
X126766657Y-121933689D01*
X126763395Y-121837622D01*
X126760133Y-121741556D01*
X126698044Y-121792543D01*
X126600714Y-121860057D01*
X126490813Y-121914749D01*
X126404349Y-121944978D01*
X126335278Y-121959666D01*
X126251925Y-121969659D01*
X126162159Y-121974646D01*
X126073845Y-121974313D01*
X125994851Y-121968351D01*
X125958622Y-121962638D01*
X125818603Y-121924776D01*
X125692178Y-121869932D01*
X125580260Y-121798924D01*
X125483762Y-121712568D01*
X125403600Y-121611679D01*
X125340687Y-121497076D01*
X125296312Y-121370984D01*
X125283978Y-121314401D01*
X125276368Y-121252202D01*
X125272739Y-121177363D01*
X125272245Y-121143467D01*
X125272310Y-121140282D01*
X126032248Y-121140282D01*
X126041541Y-121215333D01*
X126069728Y-121279160D01*
X126118197Y-121334798D01*
X126123254Y-121339211D01*
X126171548Y-121374037D01*
X126223257Y-121396620D01*
X126283989Y-121408540D01*
X126359352Y-121411383D01*
X126377459Y-121410978D01*
X126431278Y-121408325D01*
X126471308Y-121402909D01*
X126506324Y-121392745D01*
X126545103Y-121375850D01*
X126555745Y-121370672D01*
X126616396Y-121334844D01*
X126663215Y-121292212D01*
X126675952Y-121276973D01*
X126720622Y-121220462D01*
X126720622Y-121024586D01*
X126720086Y-120945939D01*
X126718396Y-120887988D01*
X126715428Y-120848875D01*
X126711057Y-120826741D01*
X126706972Y-120820274D01*
X126691047Y-120817111D01*
X126657264Y-120814488D01*
X126610340Y-120812655D01*
X126554993Y-120811857D01*
X126546106Y-120811842D01*
X126425330Y-120817096D01*
X126322660Y-120833263D01*
X126236106Y-120860961D01*
X126163681Y-120900808D01*
X126108751Y-120947758D01*
X126064204Y-121005645D01*
X126039480Y-121068693D01*
X126032248Y-121140282D01*
X125272310Y-121140282D01*
X125274178Y-121049712D01*
X125282522Y-120970812D01*
X125298768Y-120899590D01*
X125324405Y-120828864D01*
X125348401Y-120776493D01*
X125407020Y-120681196D01*
X125485117Y-120593170D01*
X125580315Y-120514017D01*
X125690238Y-120445340D01*
X125812510Y-120388741D01*
X125944755Y-120345821D01*
X126009422Y-120330882D01*
X126145604Y-120308777D01*
X126294049Y-120294194D01*
X126445505Y-120287813D01*
X126572064Y-120289445D01*
X126733950Y-120296224D01*
X126726530Y-120237245D01*
X126707238Y-120138092D01*
X126676104Y-120057372D01*
X126632269Y-119994466D01*
X126574871Y-119948756D01*
X126503048Y-119919622D01*
X126415941Y-119906447D01*
X126312686Y-119908611D01*
X126274711Y-119912612D01*
X126133520Y-119937780D01*
X125996707Y-119978814D01*
X125902178Y-120016815D01*
X125857018Y-120036190D01*
X125818585Y-120051760D01*
X125792234Y-120061405D01*
X125784546Y-120063452D01*
X125774802Y-120054374D01*
X125758083Y-120025405D01*
X125734232Y-119976217D01*
X125703093Y-119906484D01*
X125664507Y-119815879D01*
X125657910Y-119800089D01*
X125627853Y-119727772D01*
X125600874Y-119662425D01*
X125578136Y-119606906D01*
X125560806Y-119564072D01*
X125550048Y-119536781D01*
X125546941Y-119527942D01*
X125556940Y-119523187D01*
X125583217Y-119517910D01*
X125611489Y-119514231D01*
X125641646Y-119509474D01*
X125689433Y-119500028D01*
X125750612Y-119486820D01*
X125820946Y-119470776D01*
X125896194Y-119452820D01*
X125924755Y-119445797D01*
X126029816Y-119420209D01*
X126117480Y-119400147D01*
X126192068Y-119384969D01*
X126257903Y-119374035D01*
X126319307Y-119366704D01*
X126380602Y-119362335D01*
X126446110Y-119360287D01*
X126504128Y-119359889D01*
X126673574Y-119366552D01*
G36*
X130186507Y-119972245D02*
X130186526Y-120206662D01*
X130186552Y-120419603D01*
X130186625Y-120612168D01*
X130186782Y-120785459D01*
X130187064Y-120940576D01*
X130187509Y-121078620D01*
X130188156Y-121200692D01*
X130189045Y-121307894D01*
X130190213Y-121401326D01*
X130191701Y-121482090D01*
X130193546Y-121551286D01*
X130195789Y-121610015D01*
X130198469Y-121659379D01*
X130201623Y-121700478D01*
X130205292Y-121734413D01*
X130209513Y-121762286D01*
X130214327Y-121785198D01*
X130219773Y-121804249D01*
X130225888Y-121820540D01*
X130232712Y-121835173D01*
X130240285Y-121849249D01*
X130248645Y-121863868D01*
X130253839Y-121872974D01*
X130288104Y-121933689D01*
X129429955Y-121933689D01*
X129429955Y-121837733D01*
X129429224Y-121794370D01*
X129427272Y-121761205D01*
X129424463Y-121743424D01*
X129423221Y-121741778D01*
X129411799Y-121748662D01*
X129389084Y-121766505D01*
X129366385Y-121785879D01*
X129311800Y-121826614D01*
X129242321Y-121867617D01*
X129165270Y-121905123D01*
X129087965Y-121935364D01*
X129057113Y-121945012D01*
X128988616Y-121959578D01*
X128905764Y-121969539D01*
X128816371Y-121974583D01*
X128728248Y-121974396D01*
X128649207Y-121968666D01*
X128611511Y-121962858D01*
X128473414Y-121924797D01*
X128346113Y-121867073D01*
X128230292Y-121790211D01*
X128126637Y-121694739D01*
X128035833Y-121581179D01*
X127969031Y-121470381D01*
X127914164Y-121353625D01*
X127872163Y-121234276D01*
X127842167Y-121108283D01*
X127823311Y-120971594D01*
X127814732Y-120820158D01*
X127814006Y-120742711D01*
X127816100Y-120685934D01*
X128645217Y-120685934D01*
X128645424Y-120779002D01*
X128648337Y-120866692D01*
X128654000Y-120943772D01*
X128662455Y-121005009D01*
X128665038Y-121017350D01*
X128696840Y-121124633D01*
X128738498Y-121211658D01*
X128790363Y-121278642D01*
X128852781Y-121325805D01*
X128926100Y-121353365D01*
X129010669Y-121361541D01*
X129106835Y-121350551D01*
X129170311Y-121334829D01*
X129219454Y-121316639D01*
X129273583Y-121290791D01*
X129314244Y-121267089D01*
X129384800Y-121220721D01*
X129384800Y-120070530D01*
X129317392Y-120026962D01*
X129238867Y-119986040D01*
X129154681Y-119959389D01*
X129069557Y-119947465D01*
X128988216Y-119950722D01*
X128915380Y-119969615D01*
X128883426Y-119985184D01*
X128825501Y-120028181D01*
X128776544Y-120084953D01*
X128735390Y-120157575D01*
X128700874Y-120248121D01*
X128671833Y-120358666D01*
X128670552Y-120364533D01*
X128660381Y-120426788D01*
X128652739Y-120504594D01*
X128647670Y-120592720D01*
X128645217Y-120685934D01*
X127816100Y-120685934D01*
X127821857Y-120529895D01*
X127843802Y-120334059D01*
X127879786Y-120155332D01*
X127929759Y-119993845D01*
X127993668Y-119849726D01*
X128071462Y-119723106D01*
X128163089Y-119614115D01*
X128268497Y-119522883D01*
X128313662Y-119491932D01*
X128414611Y-119435785D01*
X128517901Y-119396174D01*
X128627989Y-119372014D01*
X128749330Y-119362219D01*
X128841836Y-119363265D01*
X128971490Y-119374231D01*
X129084084Y-119396046D01*
X129182875Y-119429714D01*
X129271121Y-119476236D01*
X129319986Y-119510448D01*
X129349353Y-119532362D01*
X129371043Y-119547333D01*
X129379253Y-119551733D01*
X129380868Y-119540904D01*
X129382159Y-119510251D01*
X129383138Y-119462526D01*
X129383817Y-119400479D01*
X129384210Y-119326862D01*
X129384330Y-119244427D01*
X129384188Y-119155925D01*
X129383797Y-119064107D01*
X129383171Y-118971724D01*
X129382320Y-118881528D01*
X129381260Y-118796271D01*
X129380001Y-118718703D01*
X129378556Y-118651576D01*
X129376938Y-118597641D01*
X129375161Y-118559650D01*
X129374669Y-118552667D01*
X129367092Y-118482251D01*
X129355531Y-118427102D01*
X129337792Y-118379981D01*
X129311682Y-118333647D01*
X129305415Y-118324067D01*
X129280983Y-118287378D01*
X130186311Y-118287378D01*
X130186507Y-119972245D01*
X130186507Y-119972245D01*
G37*
X130186507Y-119972245D02*
X130186526Y-120206662D01*
X130186552Y-120419603D01*
X130186625Y-120612168D01*
X130186782Y-120785459D01*
X130187064Y-120940576D01*
X130187509Y-121078620D01*
X130188156Y-121200692D01*
X130189045Y-121307894D01*
X130190213Y-121401326D01*
X130191701Y-121482090D01*
X130193546Y-121551286D01*
X130195789Y-121610015D01*
X130198469Y-121659379D01*
X130201623Y-121700478D01*
X130205292Y-121734413D01*
X130209513Y-121762286D01*
X130214327Y-121785198D01*
X130219773Y-121804249D01*
X130225888Y-121820540D01*
X130232712Y-121835173D01*
X130240285Y-121849249D01*
X130248645Y-121863868D01*
X130253839Y-121872974D01*
X130288104Y-121933689D01*
X129429955Y-121933689D01*
X129429955Y-121837733D01*
X129429224Y-121794370D01*
X129427272Y-121761205D01*
X129424463Y-121743424D01*
X129423221Y-121741778D01*
X129411799Y-121748662D01*
X129389084Y-121766505D01*
X129366385Y-121785879D01*
X129311800Y-121826614D01*
X129242321Y-121867617D01*
X129165270Y-121905123D01*
X129087965Y-121935364D01*
X129057113Y-121945012D01*
X128988616Y-121959578D01*
X128905764Y-121969539D01*
X128816371Y-121974583D01*
X128728248Y-121974396D01*
X128649207Y-121968666D01*
X128611511Y-121962858D01*
X128473414Y-121924797D01*
X128346113Y-121867073D01*
X128230292Y-121790211D01*
X128126637Y-121694739D01*
X128035833Y-121581179D01*
X127969031Y-121470381D01*
X127914164Y-121353625D01*
X127872163Y-121234276D01*
X127842167Y-121108283D01*
X127823311Y-120971594D01*
X127814732Y-120820158D01*
X127814006Y-120742711D01*
X127816100Y-120685934D01*
X128645217Y-120685934D01*
X128645424Y-120779002D01*
X128648337Y-120866692D01*
X128654000Y-120943772D01*
X128662455Y-121005009D01*
X128665038Y-121017350D01*
X128696840Y-121124633D01*
X128738498Y-121211658D01*
X128790363Y-121278642D01*
X128852781Y-121325805D01*
X128926100Y-121353365D01*
X129010669Y-121361541D01*
X129106835Y-121350551D01*
X129170311Y-121334829D01*
X129219454Y-121316639D01*
X129273583Y-121290791D01*
X129314244Y-121267089D01*
X129384800Y-121220721D01*
X129384800Y-120070530D01*
X129317392Y-120026962D01*
X129238867Y-119986040D01*
X129154681Y-119959389D01*
X129069557Y-119947465D01*
X128988216Y-119950722D01*
X128915380Y-119969615D01*
X128883426Y-119985184D01*
X128825501Y-120028181D01*
X128776544Y-120084953D01*
X128735390Y-120157575D01*
X128700874Y-120248121D01*
X128671833Y-120358666D01*
X128670552Y-120364533D01*
X128660381Y-120426788D01*
X128652739Y-120504594D01*
X128647670Y-120592720D01*
X128645217Y-120685934D01*
X127816100Y-120685934D01*
X127821857Y-120529895D01*
X127843802Y-120334059D01*
X127879786Y-120155332D01*
X127929759Y-119993845D01*
X127993668Y-119849726D01*
X128071462Y-119723106D01*
X128163089Y-119614115D01*
X128268497Y-119522883D01*
X128313662Y-119491932D01*
X128414611Y-119435785D01*
X128517901Y-119396174D01*
X128627989Y-119372014D01*
X128749330Y-119362219D01*
X128841836Y-119363265D01*
X128971490Y-119374231D01*
X129084084Y-119396046D01*
X129182875Y-119429714D01*
X129271121Y-119476236D01*
X129319986Y-119510448D01*
X129349353Y-119532362D01*
X129371043Y-119547333D01*
X129379253Y-119551733D01*
X129380868Y-119540904D01*
X129382159Y-119510251D01*
X129383138Y-119462526D01*
X129383817Y-119400479D01*
X129384210Y-119326862D01*
X129384330Y-119244427D01*
X129384188Y-119155925D01*
X129383797Y-119064107D01*
X129383171Y-118971724D01*
X129382320Y-118881528D01*
X129381260Y-118796271D01*
X129380001Y-118718703D01*
X129378556Y-118651576D01*
X129376938Y-118597641D01*
X129375161Y-118559650D01*
X129374669Y-118552667D01*
X129367092Y-118482251D01*
X129355531Y-118427102D01*
X129337792Y-118379981D01*
X129311682Y-118333647D01*
X129305415Y-118324067D01*
X129280983Y-118287378D01*
X130186311Y-118287378D01*
X130186507Y-119972245D01*
G36*
X121726957Y-117526571D02*
X121823232Y-117550809D01*
X121909816Y-117593641D01*
X121984627Y-117653419D01*
X122045582Y-117728494D01*
X122090601Y-117817220D01*
X122116864Y-117913530D01*
X122122714Y-118010795D01*
X122107860Y-118104654D01*
X122074160Y-118192511D01*
X122023472Y-118271770D01*
X121957655Y-118339836D01*
X121878566Y-118394112D01*
X121788066Y-118432002D01*
X121736800Y-118444426D01*
X121692302Y-118451947D01*
X121658001Y-118454919D01*
X121625040Y-118453094D01*
X121584566Y-118446225D01*
X121551469Y-118439250D01*
X121458053Y-118407741D01*
X121374381Y-118356617D01*
X121302335Y-118287429D01*
X121243800Y-118201728D01*
X121229852Y-118174489D01*
X121213414Y-118138122D01*
X121203106Y-118107582D01*
X121197540Y-118075450D01*
X121195331Y-118034307D01*
X121195052Y-117988222D01*
X121199139Y-117903865D01*
X121212554Y-117834586D01*
X121237744Y-117773961D01*
X121277154Y-117715567D01*
X121315702Y-117671302D01*
X121387594Y-117605484D01*
X121462687Y-117560053D01*
X121545438Y-117532850D01*
X121623072Y-117522576D01*
X121726957Y-117526571D01*
X121726957Y-117526571D01*
G37*
X121726957Y-117526571D02*
X121823232Y-117550809D01*
X121909816Y-117593641D01*
X121984627Y-117653419D01*
X122045582Y-117728494D01*
X122090601Y-117817220D01*
X122116864Y-117913530D01*
X122122714Y-118010795D01*
X122107860Y-118104654D01*
X122074160Y-118192511D01*
X122023472Y-118271770D01*
X121957655Y-118339836D01*
X121878566Y-118394112D01*
X121788066Y-118432002D01*
X121736800Y-118444426D01*
X121692302Y-118451947D01*
X121658001Y-118454919D01*
X121625040Y-118453094D01*
X121584566Y-118446225D01*
X121551469Y-118439250D01*
X121458053Y-118407741D01*
X121374381Y-118356617D01*
X121302335Y-118287429D01*
X121243800Y-118201728D01*
X121229852Y-118174489D01*
X121213414Y-118138122D01*
X121203106Y-118107582D01*
X121197540Y-118075450D01*
X121195331Y-118034307D01*
X121195052Y-117988222D01*
X121199139Y-117903865D01*
X121212554Y-117834586D01*
X121237744Y-117773961D01*
X121277154Y-117715567D01*
X121315702Y-117671302D01*
X121387594Y-117605484D01*
X121462687Y-117560053D01*
X121545438Y-117532850D01*
X121623072Y-117522576D01*
X121726957Y-117526571D01*
D10*
X111153006Y-112225640D02*
X111153006Y-112475640D01*
X111153006Y-112225640D02*
X111403006Y-112225640D01*
X114953006Y-112225640D02*
X114953006Y-112475640D01*
X114953006Y-112225640D02*
X114703006Y-112225640D01*
X114953006Y-116225640D02*
X114753006Y-116225640D01*
X114953006Y-116225640D02*
X114953006Y-115975640D01*
X111153006Y-115975640D02*
X111153006Y-116225640D01*
X111153006Y-116225640D02*
X111353006Y-116225640D01*
X111353006Y-116225640D02*
X111353006Y-116575640D01*
D11*
X99584673Y-120178021D02*
X99584673Y-120892307D01*
X99537053Y-121035164D01*
X99441815Y-121130402D01*
X99298958Y-121178021D01*
X99203720Y-121178021D01*
X100584673Y-121178021D02*
X100013244Y-121178021D01*
X100298958Y-121178021D02*
X100298958Y-120178021D01*
X100203720Y-120320878D01*
X100108482Y-120416116D01*
X100013244Y-120463735D01*
X99719673Y-112678021D02*
X99719673Y-113392307D01*
X99672053Y-113535164D01*
X99576815Y-113630402D01*
X99433958Y-113678021D01*
X99338720Y-113678021D01*
X100148244Y-112773259D02*
X100195863Y-112725640D01*
X100291101Y-112678021D01*
X100529197Y-112678021D01*
X100624435Y-112725640D01*
X100672054Y-112773259D01*
X100719673Y-112868497D01*
X100719673Y-112963735D01*
X100672054Y-113106592D01*
X100100625Y-113678021D01*
X100719673Y-113678021D01*
X113386340Y-94378021D02*
X113053006Y-93901830D01*
X112814911Y-94378021D02*
X112814911Y-93378021D01*
X113195864Y-93378021D01*
X113291102Y-93425640D01*
X113338721Y-93473259D01*
X113386340Y-93568497D01*
X113386340Y-93711354D01*
X113338721Y-93806592D01*
X113291102Y-93854211D01*
X113195864Y-93901830D01*
X112814911Y-93901830D01*
X114338721Y-94378021D02*
X113767292Y-94378021D01*
X114053006Y-94378021D02*
X114053006Y-93378021D01*
X113957768Y-93520878D01*
X113862530Y-93616116D01*
X113767292Y-93663735D01*
X107505387Y-102392306D02*
X107029196Y-102725640D01*
X107505387Y-102963735D02*
X106505387Y-102963735D01*
X106505387Y-102582782D01*
X106553006Y-102487544D01*
X106600625Y-102439925D01*
X106695863Y-102392306D01*
X106838720Y-102392306D01*
X106933958Y-102439925D01*
X106981577Y-102487544D01*
X107029196Y-102582782D01*
X107029196Y-102963735D01*
X106600625Y-102011354D02*
X106553006Y-101963735D01*
X106505387Y-101868497D01*
X106505387Y-101630401D01*
X106553006Y-101535163D01*
X106600625Y-101487544D01*
X106695863Y-101439925D01*
X106791101Y-101439925D01*
X106933958Y-101487544D01*
X107505387Y-102058973D01*
X107505387Y-101439925D01*
X93410149Y-102392306D02*
X93457768Y-102439925D01*
X93505387Y-102582782D01*
X93505387Y-102678020D01*
X93457768Y-102820878D01*
X93362530Y-102916116D01*
X93267292Y-102963735D01*
X93076816Y-103011354D01*
X92933958Y-103011354D01*
X92743482Y-102963735D01*
X92648244Y-102916116D01*
X92553006Y-102820878D01*
X92505387Y-102678020D01*
X92505387Y-102582782D01*
X92553006Y-102439925D01*
X92600625Y-102392306D01*
X93505387Y-101439925D02*
X93505387Y-102011354D01*
X93505387Y-101725640D02*
X92505387Y-101725640D01*
X92648244Y-101820878D01*
X92743482Y-101916116D01*
X92791101Y-102011354D01*
X90886340Y-118832783D02*
X90838721Y-118880402D01*
X90695864Y-118928021D01*
X90600626Y-118928021D01*
X90457768Y-118880402D01*
X90362530Y-118785164D01*
X90314911Y-118689926D01*
X90267292Y-118499450D01*
X90267292Y-118356592D01*
X90314911Y-118166116D01*
X90362530Y-118070878D01*
X90457768Y-117975640D01*
X90600626Y-117928021D01*
X90695864Y-117928021D01*
X90838721Y-117975640D01*
X90886340Y-118023259D01*
X91267292Y-118023259D02*
X91314911Y-117975640D01*
X91410149Y-117928021D01*
X91648245Y-117928021D01*
X91743483Y-117975640D01*
X91791102Y-118023259D01*
X91838721Y-118118497D01*
X91838721Y-118213735D01*
X91791102Y-118356592D01*
X91219673Y-118928021D01*
X91838721Y-118928021D01*
X111357143Y-119202381D02*
X111357143Y-118202381D01*
X111738096Y-118202381D01*
X111833334Y-118250000D01*
X111880953Y-118297619D01*
X111928572Y-118392857D01*
X111928572Y-118535714D01*
X111880953Y-118630952D01*
X111833334Y-118678571D01*
X111738096Y-118726190D01*
X111357143Y-118726190D01*
X112547619Y-118202381D02*
X112738096Y-118202381D01*
X112833334Y-118250000D01*
X112928572Y-118345238D01*
X112976191Y-118535714D01*
X112976191Y-118869048D01*
X112928572Y-119059524D01*
X112833334Y-119154762D01*
X112738096Y-119202381D01*
X112547619Y-119202381D01*
X112452381Y-119154762D01*
X112357143Y-119059524D01*
X112309524Y-118869048D01*
X112309524Y-118535714D01*
X112357143Y-118345238D01*
X112452381Y-118250000D01*
X112547619Y-118202381D01*
X113261905Y-118202381D02*
X113833334Y-118202381D01*
X113547619Y-119202381D02*
X113547619Y-118202381D01*
X114690477Y-119202381D02*
X114119048Y-119202381D01*
X114404762Y-119202381D02*
X114404762Y-118202381D01*
X114309524Y-118345238D01*
X114214286Y-118440476D01*
X114119048Y-118488095D01*
M02*
